<mxfile host="app.diagrams.net" modified="2024-05-08T03:43:23.739Z" agent="Mozilla/5.0 (Macintosh; Intel Mac OS X 10_15_7) AppleWebKit/537.36 (KHTML, like Gecko) Chrome/124.0.0.0 Safari/537.36" version="24.3.1" etag="bed_GpGqKY3x6ANEAdZh" type="device">
  <diagram id="u5un23NydvUSXvy71aX2" name="Page-1">
    <mxGraphModel dx="1266" dy="577" grid="1" gridSize="10" guides="1" tooltips="1" connect="1" arrows="1" fold="1" page="1" pageScale="1" pageWidth="850" pageHeight="1100" math="0" shadow="0">
      <root>
        <mxCell id="0" />
        <mxCell id="1" parent="0" />
        <mxCell id="9w9-BorrwmnMdSG2tsoC-1" value="" style="shape=image;verticalLabelPosition=bottom;labelBackgroundColor=default;verticalAlign=top;aspect=fixed;imageAspect=0;image=data:image/png,iVBORw0KGgoAAAANSUhEUgAAA7QAAALgCAYAAACkrzv7AAAAAXNSR0IArs4c6QAAAIRlWElmTU0AKgAAAAgABQESAAMAAAABAAEAAAEaAAUAAAABAAAASgEbAAUAAAABAAAAUgEoAAMAAAABAAIAAIdpAAQAAAABAAAAWgAAAAAAAACQAAAAAQAAAJAAAAABAAOgAQADAAAAAQABAACgAgAEAAAAAQAAA7SgAwAEAAAAAQAAAuAAAAAALjBijgAAAAlwSFlzAAAWJQAAFiUBSVIk8AAAQABJREFUeAHs3Qvcd1OZN/DdvJqaQckhOYWSSpIOJnI2okKhSScGqZR0UEKihA4UL/Ui00sOoWikA8UUSeioEgY5U00T6Vxv8/bO+3zXzPW0bf/DWvu+///nfp5nrc/nvvf+772udV3Xb+197XWtw7Uesvzyy//nwx72sOb3v/9985CHPKTJSX/+85+bJz7xic2PfvSjbJqHP/zhzX/8x380aHPT3/zN3zR/+MMfcrMnWfAp1eVJT3pSc/PNNxfp8n//7/9t/OWk//zP/2z+9m//diq6rLPOOs2NN944cV3++Mc/NvTKSZ6r0nr5f//v/zV0ueGGG5q/+qu/ymHTeI7Rec5yUtRLiS7KLX0up6nL//k//ydhkKP/tHT567/+6yTOn/70pyyx1AuM5YddbiqtF3y8+56x//E//kcWm766TNr20WXttddO736uLg996EPTu+WZyU3TsON0ecITntDcdNNN2fXSV5dJ23G4rrnmms0tt9ySrcsSSyzR+GOXcpN66aNLqe1bffXVm9tuu22iukzLjq+66qrNXXfdlf198V55zkrqpa8upXZ8pZVWan784x8X66J9ldvu62v7Su34ox/96OZnP/tZtlzaB2SbpC7ewz62b7nllmvuu+++3Nc41V9pe7yv7Sv9Ji2zzDLNr371q4m2+/rqUmL7VMZSSy2Vnpdcf6RPG7aPHS+1F3ThW9A/t32FRlupxE+ahu0jF/1hXWJj2+2+PE8Bp5oqAhWBikBFoCJQEagIVAQqAhWBikBFoCIwhxCoDu0cqowqSkWgIlARqAhUBCoCFYGKQEWgIlARqAjkI1Ad2nysas6KQEWgIlARqAhUBCoCFYGKQEWgIlARmEMIVId2DlVGFaUiUBGoCFQEKgIVgYpARaAiUBGoCFQE8hGoDm0+VjVnRaAiUBGoCFQEKgIVgYpARaAiUBGoCMwhBJYQUTJS+zyuDTq287XPB+XtXptk/na0vlw+kS+OXXmH/Za/lEZZ06CZFo9J8mmX3T4fVh9xXd6S/G26OB91jGeshEfk7SNb0I6SqX1vGjzwmyaftn7jzkvwaudtn4/j4X6f/H1ocmRpy4PHJPmEPKU82jJGGaOOoUcpnz75S2lKdYn8JXzkLc0ffEbh2r1Xyifoc2WLfHEM+pzjNGjwKOVTmp+upTR95Crh05anfT6X6iVHlm6eSetSWi998odOk9YFnxIekTeOIeewY7SVSvhE2XEcVvag63OVplQu+UtoIn8uTZ96CbxzeUR+xxIaeclXQtPmsYRQ5IiFfs5NQl1jKlxyG5xR9HgIyR2h30fljXulcqErpbEtCB3oP2ld4FWS+uii/FJdhBdXN7mJXNPSBZ/cbXvI1UcX70BJmkm9lOgiVHrJe0muuaoLfEt1EcK9JJXWi/wSuUrqJWgSccY/fKahC/u15JJLTlyXPna8xF7AK2xy7hZE7brMqJKUBc00dPFsecYmrUsf21dSL0ALXSb9vkzD9gWPRUWXkm+luvT8l9pkdKU0g2yfdpd25AorrNA84hGPmP9+uK6N6L203Y3fOe/NtHQhW247EVb0KMELzbR0KbV9dPeMkS83TUuXUttHF7J5vnLTXNXF+0V/f7lpWrqEjc2VyzPp/Sp5x9q6LGHvIoWU7PvDECkETS5joNsrKXffJwBonJfIRRZ8SmgWNV3gVlovMFA3uUm92CfPM5CT+tRLGBq65DY4GCl0k9SFvqXPZV9d4Ju7p27IVVIvQVPyvkxLF+9x6f6FpfUSz6/9C3MaTfBiK6WSepnLung3S/ahnYYdj3rxXObWi485OzHXdPGs0KdUF3qXvJfqZdJ2nC7e/5L3hR7qpkSXadlxeJEr9/vSV5dSO97HXpTqQufSdt9s2D5YeH523nnn5s1vfnOz8sorN0svvXRylODr+fIO/+Y3v2nuvffe5rTTTmtOOeWU1M4cVk99delj+9j9+AZ6H8YlzmzJs9+nraRe+uhS2h73XNIl7PM43fvoMi07jo/nzHuTk/rqUmrH+9g+sqnLkjZJaVupr+3zrpS0xz1b9Cl5Z9q6pCnHCsDYMSfFAx3HHBp55O9Dk1t+5JuGLqFP8Bx1DJ3jOCpv9940dCmpl9ChhCZ06qtL8Ixyxh1z80e+ProE7ThZ3I+8pXxK8gePNr8c2UrzB58+sgXtOLkiXwmPKDNo4/eoY+SdJJ/gQY72+Si54l5J/tAhjlHGqKO8bH4JH+WV8Aj+JTwi76T5lMrWlitoc46hR9CPo4l8cRyXP+4Hn/g96hhll9BEeX1pgj73GDKOyx/5+soV9CV8xuVt3y+RS954J3PlCl4lfIKm5JscNLlyRb6Q6/e//32zww47NO985zubxz72sc2Xv/zl5uSTT26+853vNHfccUfz29/+NnUWr7rqqs3Tn/70Zuutt27e8IY3JMf3qKOOas4444zUOdJtpwafUl1CrtAr9xj8JpE/dCvRhTzxzOTKJF8f/fvQlOgS8pdiHPoE/bhj6FHKp0SXKDuO42Rq358GzVzUJfSOYxuTUeeRP3+MelRp9V5FoCJQEagIVAQqAhWBikBFoIOAEZ6Pf/zjzQtf+MLm1FNPbY444og0OhYNUfcf+chHJqqf//znzSWXXJL+jKTttttuzTHHHNO84hWvaHbZZZc0wtspvv6sCFQEKgJNjXJcH4KKQEWgIlARqAhUBCoCFYFZR8A0ynPPPbf5u7/7u+ZFL3pRc9BBB6VpiOHMjmJouuJHP/rRZsMNN0xTwy+//PJm+eWXL5r2O6r8eq8iUBFYdBCoDu2iU5dVk4pARaAiUBGoCFQEKgJzAgHrW00VtlZ28803b6655priAHnWbt51113Nlltu2dx5553NZZdd1iy11FJzQr8qREWgIjB3EKgO7dypiypJRaAiUBGoCFQEKgIVgYUeAUF3TBFef/3101Tj3/3udzPSSYClXXfdtbEW99BDDy0KHDMjxpW4IlARWCgQqA7tQlFNVciKQEWgIlARqAhUBCoCCwcCa621VvOBD3ygOfDAA5uf/exn2UFHR2knQrK1tK997WubTTfdtHjqsTW5yyyzzNDt7azldZ/zbEq0LYVEYY7p0c6t9Y3gTW1Z0cg/6F47Xz2vCFQEJoNAdWgng2sttSJQEagIVAQqAhWBisBiiYAIxffcc09zwQUXZG+NNA4oU5hvvfXW5pxzzmlEPrY+tyRxVr/2ta81Rx999INGeG17stNOOzVXXXVVs+222zZGlD/5yU82Z555ZhoVjsBWX/nKV9Koczi5wV/05vPPPz/tBR7X6rEiUBGYHgLVoZ0e1pVTRaAiUBGoCFQEKgIVgUUaAcGcBIB697vfXbQPZS4oAkU97nGPa1ZbbbVckpTv9ttvT+twX/KSl6TR1DYxmffbb7/kkP7zP/9zGmk1GusvnFcjsJzik046qU2azpdccsl0r47QPgiaeqEiMBUEqkM7FZgrk4pARaAiUBGoCFQEKgKLNgJ//vOfm4022ijtGfuZz3ymMbI52+kb3/hGc/fddzdbbLFFkcNsWvDhhx/eGI21HZC9OCM99alPbVZZZZU0+su5HZbQLLfccs2HPvShYVnq9YpARWABIFAd2gUAemVZEagIVAQqAhWBikBFYFFDIEZnr7766lmbatzF6KEPfWiayvzc5z63+dOf/tS9PfQ35/raa69tjNS++MUvTk53ZN56662To/uFL3xh6FRmo68333xz881vfrPZfvvtm5VWWmn+6G2UU48VgYrAgkEgObSmU/SZJtGHZpJqhjxxnCSvkrJDnjj2oc2h6VN+TrntPDPh0Ye2D01b3lHnfcruQzNKhtm6Ny25psFnGjzauE+S3yTLbuvgfJq8urxn8/dc1SPkiuNs6jztsmaiw0xoJ6FnyBPHSfCYSZklcpXk7crUh7YPTZdv97cRzA022KC58cYbJ+bQCu5klPZpT3taY0RYytVF9OWbbrqpWWGFFZpll1020ZJZkKk//vGPzQ9+8IN0bdg/effaa680vfiss85qlNfm3T4fVsa467NRxiR49JGrD8042Wd6n0x95OpDM1NZZ5s+dIhjTvkleXPKm1SeJezxxaH9m7/5m2weXmgKPvzhD89+KPAoXcBfKhcFSmlCF/rnVhoeegj95SY08CpJfXRRfqkuPg6Lii56YOmTm6ZdL4Ja5CRy9dHF+1ySSp8x+SXPWIkuQZOIM/7hsyjpMmnbF/ViSt2k62UaurDF09BlGrZPfSxKupS8+171PjZmGrYPj2no4lnGJzf1sX2hS24bpm+9oBunC/lN3b333nuzbVEuNpGPvgJOrbjiivPbLuPkClryfeITn2ie97znNRtvvHFz0UUXJZ0222yz5nOf+1wKBqUsbUMpbFHQ+21U+IADDkjTl9/ylrc0p59++vyp1dp5pjRL2lW5ckX5fd4XtCV88Chtw8pPN7S5aVq6lNpx3zD1W9ruLcW4T72U2j66oPGXm0rrRbmlNPKX6qI+vF997dgSepc0HO3tlZv0iBFWCPXc5EFgBEatTeiWpRGAB145ScPBC1eii4da+WhyQZzLusCpVBd1EgY4B+fSeoErzErrpVQXde/ZLNVFr2x8vMbpP1Ndcp0NupCpZDqVeinRha5oSuol3kU0ubqEY8rW5CbPi/zR+55Dt7jrEnYst158COWda3ZcXXv2RRnN/Uj31YWtmOQ3KXQpeV981OldUi99bV/J97WPLtHQLLEx07J9bEtJvcxlXQQqoktuG8bz5Z0pqZdcOx5y5H5TPVd9kvLp65snWFOJLhdeeGHzy1/+snnNa17TnHbaac3++++f2ihHHnlksgfxbJCLXWWL8Ijfvstnn3122j7o1a9+dXPKKackOnm9UyFL6TeJPfb8B31iOOZfX9tX2h7Hh2659dpHlz62T1uhtA3r+ffc5Nr+Pu0+urAZJXXZx457POiR21bso8u0bB/9yZf77evq8oChLDdzUjtf+7yUNie/PKU8+tDgUcKnJH84AX3k6kNTIpvypVzdQ5fc/N2yc+na+drnSdgR/+TNzR+6dGUcUfz8W7k82mWXyBaMcvmELpPkQaZp8AkebewCj3HHXLy65ZTS5eYPXSZdL219cmULmtL86CZJA7PAq5RPn/y5NFGXk9Y/ys+VK/K3j85HpdClhEe7vFy6yBfHdhnjznNpQhfl5dIEb/n70AR97jGXR+jSRy6y5PJp52uf5+gzLj9H5t/+7d9S4CT6jMufw7Obh1O18sorP2gUOJeXhvOHP/zhFIX5iU98YrPPPvs0V155ZXPXXXfNH7Vrl+U86iZk0Rm2yy67NNdcc01zxhlnpOjJQRNHedvnQTvs2M7bPh+Wv329ND/aEprIG8c273HnuTSRL47jym3fnyRNu+z2eZv/sPM++Uto5I2/YTIMu17CRxml+adFE3LlzX8chka9XhGoCFQEKgIVgYpARaAiUBGYhwCHlpO39tprF82wKQHPiJR1uj/84Q+LlhgFD6Nnl1xySRqlPeyww9JWPRdffPF8ZzbyjTrS07TnY445Jsmy+eabj8pe71UEKgITRqA6tBMGuBZfEagIVAQqAhWBikBFYHFAwPREkYI33HDDouU/JdhYjmKf20svvbTICW3z+MlPftL8/Oc/b0Q3Np2WQ1uaTF09/vjjE/3yyy9fSl7zVwQqArOIQHVoZxHMWlRFoCJQEagIVAQqAhWBxRUBTt6//Mu/pPgMttUpiYOQi9l6663XPOlJT0pOqNHWPolTfN5556Wp0T/96U/TaG+7HFOMl1xyyfQXU6etifXXTtZi2sJnqaWWSnlj+mM7Tz2vCFQEJo/AA9bQTp5d5VARqAhUBCoCFYGKQEWgIrCoIsDJ/PznP98cddRRzUYbbTTrar7+9a9P033vvvvu3mVzvI877rg0Zdj04a6jykF96lOfmspfeumlU+Ado84c9LYTrRx729oGiDPrd00VgYrA9BGoDu30Ma8cKwIVgYpARaAiUBGoCCySCHDsTjzxxOayyy5rttlmm7ReldM402SkVDCoV77ylc2rXvWqFA217VyOK3+HHXZoNtlkk/lOZ8nosanUglGNi/LLMbZPbddBHidbvV8RqAjMDIHq0M4Mv0pdEagIVAQqAhWBikBFoCLQQuD73/9+Wl9qFNQU4XGOYIt06KkybJdj250LLrigaO9Vha6++urNs5/97PnRWruRi4cynncjphKPo7G9T+52MKP41XsVgYpAGQLVoS3Dq+auCFQEKgIVgYpARaAiUBEYgYD9QT/ykY80W265ZfPFL36xef7zn5+2vhnnEA4r8te//nVz1llnNauuumqz8847FzuzyhXA6dhjj01BnDiopXuj2+szZ1Q39qwdpku9XhGoCMw+AjOfAzL7MtUSKwIVgYpARaAiUBGoCFQEFlIEOK5GVF/60pc2HDyBolZcccXi0UujnY985CPTiOxWW22VohLfe++9vVCxvlVEY3+mKsd5zrEkfy/hKlFFoCIwIwSqQzsj+CpxRaAiUBGoCFQEKgIVgYrAIAR+85vfNKId2yLnqquuavbbb79GZOBxU5A5xEZEd9ppp+bb3/5287jHPa6x1+udd945fw3sIH71WkWgIrB4IrAEoxJ/sUZgHBTyR+9bDk3kDT7jyne/TZOTXx6yBI8cudDIH8ccmrZcQZsKGPGvTTMi2wNuzUQXU2JyAjC05eqjC/rcVFovMa0nVy5yBI9cmrb+pbqQL+d5CbnaR+fj0kx0ydWfDPL20SXqZ5we7sM2sC7NX6pLaX7yoJlUXbZ1z5UtsMrNTwc0UokupXza+XNla9MkATP+oQm6SdYLHeIvQ6z5MuXqrkx6SGhKdCmRK8ovoQl80YSMSdAx/4KuVJdSGzMtXUrsGJ3JVapLYDYG2nQ78pbojzDocnjIQ5egKalLtGTLScoPHqYLCw7FmX3DG96Qgiadfvrpzde//vXm1ltvTc4uJ9co6HLLLdesueaazbOe9azmZS97WfPYxz62Oe2005pDDjmkedjDHjbwPQo+g3Qhr1HeNqbKMVqrLnOiEkf57TJyMcjFK8oLHoN0iTztY5Qfx/a9Qed9dQm50Ock8gdNiS5Bl8Ojry5tuhw+IRN9SnSRv8RelMpF9sDYMTcFTa4u/IlSXYJHqVyBdYkugfFDnvOc5+Q9nbml13wVgYpARaAiUBGoCFQEKgIVgQ4CGu3bbbddilLMsZTaDWv3JQ3h888/vznnnHPSSG26WPhPWU95ylPSOl5b8DzmMY9Jnf333Xdfc+ONNzZXXHFF+stxagtZ1+wVgYrAlBF4yLLLLvufjMrvf//7BxiVUXLwhm1qffPNN2fRMCoCBPzHf/xH6q0YVXbcQyPs+R/+8Ie4NPbIKD784Q8v1mWdddZJxq1tVIcxC130+OVGspumLuuuu25z/fXXZ43Q0hFefXTRm0qvnNS3XnyArrvuuiJdPJues5wU9VKii3I9yyXviw+zeinRxTuJrlQXQS5KesT66vLDH/4wq2cbXnSBteljOSnqpY8uJfYCTho76iW3QWOtlec5N5hI6JIbTCTwUS8luuDDJt9www0T1WUadpwua6+9drLJufViZEcvcm69wLmv7SupF3we//jHp29lri62B/HHLuWmvrqU2r411lgjjahNUpe+tq9Ul9VWW6254447st8XOnvO1H9OW0HdTcv22crmnnvuyf5W0oUtK/mOyS/Nhh2PNgf7awR2ySWXTKOwb33rWxO+bDJbJh/MRyXvPZxDFzbAc/qmN72p2X777dN7bqqzdtG///u/pzbovHZvsjHzBnSa5Zdfvrn44oubE044IU2JZuO6qa8dV3bJet+uLl05Bv0utX10KbXj+C6zzDLNr371q4m2++ji2Zyk7aOLfYU9L9qLOalPG7avHS9pw5Kdn+Q9yX0v0aj/eF/8HpdCl1LbV9KGJYP3GNYl9d/WZQkvUPzlGmkvhLzocmmCB9rcFDS5+UOmErlCnhKakMsxJ+ERNDn55ZmJLgxCab300SWwG6dTH12izBLc2nyCftSxXS+5uiiPTDAuTSW6RH3EcRyvti7j8rbv99WF/rmyqZeomzbvYed0Kckf5ZAnVyY0eEgldFF+HFMBI/61dSl9xnJ5YB9ll+gSGJfwifKD3wjV598KmvkXxpy0McuVLXjk5idCKQ25gmaMCg+6XUIXeR1zUylNW5eSuix9Zkrlom/oHcdxGMxElxI7FrqU2H40GnV9dBmnd/t+n3oJGsecFDrEcRyNegke3bwRhOn2229v/JmSfOaZZzaf/exnU2P7Zz/7WfrG5mBNnuAj/0te8pK0B661tu9617ua8847L91v1zXZOA6c30033bQ56qijmosuuqg55ZRTmsMOOyzd6+ISPPq8L139h/2mS/x1+efQDMvTvR48SnQppQm80JXoEnRdmYf9Drkcc1PwyNU/8pfqErKVylWiS/DoQ5NbL6F/zvsYuoY8cYzro47yBq9R+dr30IRcddueNjL1vCJQEagIVAQqAhWBikBFYOoI5Dawu4KhM4p0xhlnNH/3d3+X1ul+5jOfSaNWMbLcpon8aL7zne80W82LnrzJJpukUVqBpwSiMi25rzxtXvW8IlARmA4C+V0a05GncqkIVAQqAhWBikBFoCJQEVjMEOjrQBppO/XUU9M04q233rr51Kc+lUZZY+RmFIwxwmNasqVBHNmvfe1raSryKLp6ryJQEZhbCFSHdm7VR5WmIlARqAhUBCoCFYGKwGKHAIc2dxpogGPa8Pvf//5mvfXWSyOtJeuiowxHvI3m7rjjjmkatNHe+++/v52lnlcEKgJzGIHq0M7hyqmiVQQqAhWBikBFoCJQEVgcECgdoeX8brzxxmnd7Jvf/ObGnrelZXRxNapruyDB3N773vem2xHcZlSQRoF53Jc3J5Fd/lIHPqfsmqcisDgiUB3axbHWq84VgYpARaAiUBGoCFQE5hACJQFkiC1S6+GHH96cddZZzSWXXDIrmnAwOcZGfXffffcUeXWVVVZpXvOa1zT77rvvQIeZEy0Y1d57750c4RwndYUVVmhe+9rXNsquqSJQEZg5AjUo1MwxrCVUBCoCFYGKQEWgIlARqAhMCQFOo/1sbfH10pe+NG3PM1usOdYnnnhi8/rXv77Zc889U+CoQw45JE1JtvWPNbrt9bm2DjnuuOPStX322SdtbTVupJgjK6Lyj370o+YnP/nJbIley6kILLYI1BHaxbbqq+IVgYpARaAiUBGoCFQE5gYC45zAtpQcWqOmohTb9me2Eyf1f/2v/9W87W1vS9v7WKtrH9Y3vvGNDxiltf/ny1/+8sRenu6U4xitdYxzmZ2jbefv5ol8cb1NnxjWfxWBisB8BKpDOx+KelIRqAhUBCoCFYGKQEWgIjBtBDhrJQ7tUkst1ay11lrNhRde+ACncLbkNkr77W9/O8lkKyDy3XLLLc0yyyzTrLjiig9g86Y3vam55ppr0tZBcUN++f7n//yfzSc+8Ym0x+3OO++cpklHnvbxd7/7XfPiF7+4OeKII1KAK/esseW02x/XCLAtheSrqSJQEXgwAlNxaPv0KvWhebB6s38l5Irj7HOYeYm5suXmm6lEffj0oZmpnCX0c1W+PnJNi6YE32nk7aN3X7lKeJXk7StPH7o+cvWh6SNbKc205OrLpy9dKQ7Tyj9X9ekjVx+aaeGcy2cu6kCmkjW0D3/4wxvrUL/+9a8XOcK5GMlnKrBRV9OaOdvnnXde85jHPKZ5ylOeMt+JXn/99Zsll1yy+eIXv9g89KEPTcXTZbnllkvXOMOc7zXXXDON+H7wgx98wEgtAqO0glqdcMIJabuhq6++OuU5//zzm3e84x3NSiut1DztaU9rzj333Obggw+ekb59674vXQJkQv/mokxdVUtl7JO/lKYrY+7vafHJlSfyhVxLeAH9YBxy05///OeU9WEPe1jRi2UTa3+5iVzWKYgeh2dMzWD0XB9UXqkuymSopqELHiWpjy7KV5clPZ2wbK8HGScjuQZtVj6Krq8uMMv9yNGZHrn5yVt1KXv34x30jOXiHM9i6fMfjYNRz1X7nros4SG/NA1dPJewY8sCw3he2bGurn10Ud40dBlkd9v10D3vo4sy1GWuXer7jCk/lweZSnVB4z2Zhi7qpVSXUjte+ozRX/Jc5qZ4L3Lti3LVS6kuyi95X0L+aejStQfBe9hRvXvGSjBTVqkuaEpsrPw5upAj6tCoJB7xTitjUOIkLr300mkNaqneg8obdO2Xv/xlanuuvPLK6bb1rtdff33z6le/uvnKV76Snrm///u/Tzb9+9//ftIh3kOjtmz9DjvskIJMkffss89unvOc5yS543ml71ve8pbmwAMPTA7t0Ucf3TziEY9I63e32mqrtBXRzTffnNq773rXu5Lje/rppzd/+MMfkkyBU2m9lNpx9YiHespN8k7jGSu143RRN+HL5OhTqkuUWap/PD9BP+7oOfL8l7wD09JFvZTIFe9E32dsCYReiGhkjQPP/WDmGOfj6CiWm1+j72//9m+bZzzjGc0WW2yRDMATn/jE5pGPfGRiY73ETTfd1HzjG99IRoUh+e1vf5sMZ6kuobdjGIbZ1CXKon/wimujjmSZli7kKJGtVBfll9KEPJ6ZOFfOqBTPWG5+ZQVN7nMcNCU8Im8cR+kQ90KuPjST1CXKLpErDFoJTegf/AKXUUc0JTyi7BKaEl2U6x3Wg7/RRhul6WJ69h/96EcnNf74xz+m4CHWgF188cXN9773vebf/u3fUqNhWrqU2php1EvUsfrJrRv10kcXvHJ5yFtaL2joMQ1dSnj01QVdCV7qpE+99NElcCZjblpUdAndc/XpUy8lti/wz7UX5A4dou7JOC6RSXvQNOBJpFjjGs6iBrd1tR/72MeaZZddtuHwbr311s2NN97Y3HXXXelZJz+9P/KRjzSnnXba/NFZdp+jyhENHR1FTlaGQFNGYx/1qEeljk9OrtFn+R/3uMclGt+Jvfbaq9lkk03SVGvOT1/bh7e/3NSWOYem7zPWx16QJ/fZlzd0KaEptf0zeV9K5Ip3p4SmVJc+dRnvfolc8vap/+CxBOfRy+rFVVBOil6NEhrKoQvaYXyUqUfrqKOOSg7sDTfckKZ5XHXVVc3dd9+dyFZdddVmww03bP7hH/6h2WOPPZJBe+c739l85jOfST1fJXKRx8OtlyxX/3gYYJeTlM9BxyM3kUXPTqkuyi/VBQalushPr5xEF4a3RJd4QNGEYRjHSz50uTi36yVXFzL01YVck9ZFvQR24/AKXXLxkj/KLtElet1y+agLATkmrUvUuWfMO52TcnXxTnFeNWrWWGON5t5770127H3ve19yYk1j08DRabfjjjs2//RP/5Se249+9KPNhz70ofSM5eJFbrr4K9FFL7XnsYRPrh1vY+l9KeHRp15mokup7SvRJeqmpF7gVYpZ1EupLvIH3u06G3Ze+ozRo/QZm5Ydj29Frk2G8bR0KbV9dCn5VoYuaHLbPbm2L54dz0quHSeHRI+ol3FyBY3pvpNK7Ao52OtIV1xxRSPSscjK55xzTnIuX/CCF8z/hrD9ZHP8wAc+kDo0vQfKUa933nlnsofxrtpHV/m+A/vtt19iYzSXnVl33XXTtOXg7agj1FRrNDCeie0jY26Sl0y59oK+pW3YmegSeOboIy9dcvWnizoseV/k91fyvSi1fXSFWeiTo7s8pbqEvZi0LvSHdQmfNsb5839zkeqZz4O1/PLLN8ccc0zDOBx77LHNJz/5ydTzFQ9GfHj+9V//tbnuuutSWHUjt7vssktz0kknpc2wDzrooOb2229PFdZTlEpWERiLgJeupopAFwEfe8bfFg8aJ2eccUaz//77N9/61rdSVrYsjLaGzW233Zb2ULQuS4PGNLXtt98+TT+78sorqx3rAlx/VwQqAoscAr6nuY5SKK8Rb2aetan33HNPXJ7VoxFVNpsDG+kXv/hFWltrOjC7/dOf/rRhq42iRmLjP/e5z6URWVGSr7322ubHP/5xc+aZZyZnNPI5Chp10UUXNf/yL/+Sgj+Jomx/XZgY+X3d614331mms9FoPDkyNVUEKgJ/QWAqQaH+wm74mWh13/3udxujr0996lPTCK0pHEY29QyGM6sE515mPXMMGScYjakapmiss846wxnVOxWBikBFYEIIaABddtllyTndcsst03SyH/zgB2kWjJkwnN3oDHHUWGLHfvOb36TGjqnJllN8+tOfbp73vOfNHxGfkLi12IpARaAiMCcQ4NC223njhDJS+fOf/zwt5yh1hseVHfcFY9LWvPXWW+NSGj0SrOmZz3xms9tuuyVHlF1vJ8vjrO/94Q9/2HzhC19I05HZ+dVWW62dLX0LLDUxCHP55Zc3vhnasiIZu4YHR1jn5x133NEIMGWEOJbfPaCw+qMisJgjsMAdWobIWgQ9VJdcckmz7bbbpt6waPTl1I+8es2e//znNxdccEFaWyBc+qSMXI5MNU9FoCKweCHADmnomAomUIi1/aW96Hrgd99990bwD6O7ZqtUO7Z4PUdV24rA4ogAO1fS7jM6y9FjI0vocrElD+eSDY8ZNmg53f/7f//v1G7lyOrA7PK3ttba3g022KAR5OnII49sPv/5z6cBG0tNXvSiFz1oWuXrX//6NAVW2TpGd9111/Qt0S4WAdlyFWVxaGO9bq4uNV9FYHFAYE44tNa+Cozyile8IjXeusYhpyLQ+Ntj3prar371q2k9bW0I5iBX81QEKgKzgYDtGKx9EgNAY6ZktKHN37ojgUespf3whz+c1qFVW9ZGqJ5XBCoCixoCpQ6t/GeddVZyGo2GznYyAiyasT1g2XMRjs2kkX71q181H//4x9OSEdGOJR2Zpgi7RzZLR0Qn3nTTTdOfLXcEfxJPYbPNNktluR/7yuJnz1mBAV/72temQZptttkmfUe0jbfYYovmtHlBppRrnXFNFYGKwAMRWKBraL2UIrmtMS9oig2n9UrNNJmK8fa3vz1NX7aO7b3vfe+Des/aPMhgobfePskUQFMD+zZG22UvLOcRwGDUaBJjrTcSPjVVBCoCf0GADXn605/e7LnnnmmLBQ2TPp1yfymxSdOQLaUwBdlaLLNPxgWwEEhB4whv72pMcW6XO4lzjTc2pJ3IwFYsTna0rX89rwhUBMoQKHVo2RhBmQ444IAU+ff9739/6vwr4zo4N5supsGTnvSk5pWvfGVz//33P8CR1OkoRgKZo03EEeWosr3+OMG+CaIU+zP7hj3k1Dqy52YkyksX10w7FgDVN8R1Dq/ZPjpK0Ssn+A2WvF6tCCy+CCzQEVprY4Us92eR+2wl6yr22WefZOQYHkZnUNIANPXDVA7rFX72s5+lqc+CTDEws5U4ihzt2SxztmRjJI0ECRc/LLIYQ2vESFS/cY3q2ZKrllMRWFgQ0PgxkurPVmKz9Z4rx3sp8B2HeZgd804KSHLwwQenYHlGAL72ta8lG9geudAQYoc0lGaS2FSdj+Qjk9gF9kUUqdl2Fv6OO+64NHVapOeuszuOt/LJPUzfcfT1fkWgIrBwIhA2JVd6bSvLM9hJEeNnK4ndYnqv2YMx24b9bNt2drTtXLrXzhN5BXhiy8JxJaNvRje/69paynCU5PGno9KgQlxPN+u/ikBF4AEILDCHliP1hje8IUWLs7YgQsI/QLqePxg5a3It5DcCjFc3aWRpgNlWw8L7T3ziE2k0d5VVVmlMHTSVhQGZaWK4bDF0zTXXFG0wPVO+ufTk02NoX7NRzqrNwB//+MfXRmYusDXfYoOAHnTBQ0SwtE3FbCZBRTSqdPrptR+UbOGgZ3+77bZLa3h10OnJP/DAA9PvoDP17eqrr26e8IQnDCom+xpZROQU+0DS+NMxKGAJ+ynwid/WjYlpsPfee2eXzS6b5nfhhRfOnzWTTVwzVgQqAgstApy+cAJzleDgfelLX2pM+z3xxBMHtvVyy4p8phXrwGc32brasRbI1GNFYG4jsMAcWk6nqRyM0SSS3rDPfvazaWE9Xt200047pQagPIIKHH744c3JJ5+c9o60CJ8TKsqopHEYjcIox289b5E4g6YtR29ajEq4zjE2/U/+GAVlJPW6uS9vu3xlyIuOM+48pqygi3vou8ZWfgZZeWg4rJHwiWvKiF7Cbhnyo6dPyOjaoHyu11QRWJwRsM5JkA5rrGY7Ga3U6WbK8aAlGd7J97znPY0gJC95yUvS+QknnJA6qXTMxT63bIn3X3nebXaCnUEfvf+uswvt9zxsX9gO5bgf9iw6wYwqcGBtZaGDbOWVV250gpkyx7Hm8Ee57E7YFeX7i3tkcF/5jnHdkWzxF3Z0tvGu5VUEKgILBgHveKlDS1K2x5pT9kLbjZ10XprwZ9+smWXHzEhjL2uqCFQEFg4EFphDqyef4RGxbVLJ9D8No/b+YHhpDIkkqvFk3QXnVz6jxKa6mWqikfW0pz0t3bNOQ49du3Fl7zCjDxp6rsd2G6Yu3zEvvLpRCY09Ue70HAoU8OUvf7nZY17QKmm55ZZLvzWEbT2kfHJIHMl//ud/TvtXWsehUWik5sUvfnHaw0wngGnVl156aSonEc37R44tttiisU+vKdzkDt3JaT8ze/varFso+EMPPXS+TlGGo4/K8ccfn6JNC7BlXUg0XNv56nlFYHFHQMPpWc96VtpmJ+zDbGLiXbQUwvtqBLbLwwiFiO4cWjZLAyzsmKAlRm6NpOo8NA3Ye2xLIHaFHUSrEWifRXyMjNpbER8NRTaEPRSXgDPJORV906gs+8NpDZnYUNdtT8GOsmvsXTjl5JNEDrVOzP377ruvOW1eoBN7kEtk1DhlL21noSzJtGb2Vn6jzBqbfRq/qbD6ryJQEZhzCLAjfafUsmtsGjvC5q233nrz7VKuomyhpRqCLj33uc9Ny9CqjclFr+arCCx4BJaIxghR2uejRGvna5+Pool7kV8DxfS866+/Pm7N+tGIiUYZQ9XeR4zxs9if0+e6KcchFyHQ2awbrcX4j33sYx+0pssIxNprr516Au2hK4KdaS9GfBnTI444IjUQ7a0rrLsGpamDnE16M5ycTAENGGHr35RnVJh8ylx//fVTI9XaPI1ZR41Q+5ox2tYJm/onr86Bgw46KE2x1kDER8Q8jVWjOxxiUxM52OTg7GswdpPGpwYvfIz0cLI1JCO6X+DkGOfdMkb9zqVp52ufjyrbPXlL8kd5uTTxgcvNHzLFsYQuaELGnKPyJ80j5JoWnxy9I0+JTO287fMoa9Qx8juaiu8d79sYG8XHPR1vHE7raG0L1E4cajb02c9+dhqdtZaVbbjtttsSnXffO+y913loKjD74T4HVOfYT37ykzS1jn141atelWwKR9VoBdunbI6lzjA2gwP/5Cc/OckyKPZBYENO22p885vfTPzJwZ6ed955zS233NK88Y1vTNOTOcs6+AQGZBfZXvsxmsLN3tEbb3aZveQQWy7iyMFuT/Nu827jNOxc/lIaZZXSlPLpk38acgWOufpHvjgGfc5xGjR4lPIpzT+X66WvbDn1186Tg1k7T/u8Xc6wc/l16lk6JVgTGyiYnjaMc205fzFowG6apcK26uA3tVgnmU66l73sZcnesuddOfzuXhsmk+t98kd5JXyCV9DmHkt4RN44juMRbaUS2aLsOI7j0b4/V2lK5ZK/hCby59L0qZfAOZdH5HcsoZGXfCU0bR5LaNQg1rOemzhckoZEG5xR9HiY+htrZY0aMDAiw01qWodGIAOmsRT6kYPORog5oBxBOrjf1iVGBkJe9+jLyDGGyomyOMTyCa7EQdZg44wa2bSWV6Nxr732SutyGV2jsfQ3eqoMhlVj7VOf+lRq1BmddV0AFwbayAgH1b6UX/ziF5s3velNSQ54vvWtb23WmBclWn5GmUMtQAJM5UdnOvU//MM/JLzxFUTBXmdkDp0d4aIhSx/OsoYv2eynqaGsvuCEV7sROare4x6aqIO4NuoIYykwH5U37uFBxkFTzCNP94im9Pnrqwv9c50ePDy7JZihUYdRp11dB/2eli54l+rSfj4Hyd69VqqL/JJnLBo63TK7v4MmdGELdc55f3PrtlvmuN+cOh1Kq6+++sD34d3vfncKHKVhZoTT828k0+iq2AAc1ptuuil1bhnF0KHFoZWf02r/QzNFvHNwYFM4lZxRic7sAudVnXBorcMVZwAfnXsSvrBsv3/eR2Xjxeai83xynAVbMWqr88wUP88um6xDkCN+0kknJfssDoKGpwYnLDi6ZrFwiOWBTbdekkBj/qEhK51yE5oS2ye/58Lz0vcZy5ENnz62r48uM3lfcnXpY/tK7XjwyH1vYSzFuz9JXUrtOF3Uy6R16aN/jh1nR9kfdRjtjNzvWNSLzjLJjBId+Xa40KZio7SLzOy4++67U5vGLBTtHFus6RhjozjCOgzhGGWlAv/7Hz6DdIn2oFkpng11px7kD33YKPnoNEovNP5KnzEiltKU2j66w4Z8uWlaupTaPrqQTZ3kprmqi+eN/v5y07R0CRubK5dnctw70i2rrcsSGggK0WAY9aK1CwmHVmMohwZDoHOO4gFShpfeKGXph6gty6hzupEPT7JGcs5JJBe9Hdu6xHWVwbD5HWUoz8sguY4HpxE9p8/IJ4dUg4xeygi86K8BZ7TViC4jBxeJo6oMgVU4opKyNEbJIHKpZINvDy558CUDIyMSKoMmv4YfbPHjYHOKpcDfSK8yyR4fQOWQx/o35xrCDDR9NTJ1DtCDjJx9x5JEz77PWMg4ih+Z1QtcAu9R+d1Do44mrQuZJHxKdCGfOstJ8sJYnTrPTaX1ErqoS892TmJfJq2L8tVlyTMWuqiXXF28e94JdkuK+mFPJmXH6OaZhuOgZ4hM9im07l/960gTqV3QvX/8x39MW0dceeWV82UlM/mvu+66NPoqiNPLX/7yNEMk3n/38cL7hhtuSLNN6Et3f67jJU8bC78DV/ndk1diX9ivddZZJ9k5Tq7G5MYbb5xkC37x/iofrkaXLeWwVhkGkvdIfmV8dd6yCPUX18g3LpHJs49X8MuhKbUX+Pgja+4zJp+/3Gd5mrqo20nrEo3NeLdy66X9rI2jcV+9l9gxz5d3raRe+ujSx47TRb3kfF/oXqoLmknacbJ7b9V56JLzHpNLPrJFvfhtJskLX/jCtHyCfdEeYxN16Ef5ZrZwdC1xsNxC28x7R5ZuineMfGHfXBMLwKw6ttYAhcETbSvluM9+/eIXv0jtMh2M2ojkc39Q6uoyKE/3WnyTAsPu/e7vQbp08wz67bnEA31uKm1fwGXSdpzsnhf2wrOQm/roQp94LsfxiXohU4lc8PJc+l7mplJdSu0FXUptH9nReQcGvYPDdGvrkqYcK8BL6piT4oUuoVEuYYM2HiYv/6QSxws/4ATfkMO6VCMNcd0x9OfIMTymv502b/puJPJHAqLkGuNpdNSeYxxSU1Y8kNbpGqENOjyMCHs4OJ6Bu3LkN3pr2l8kIyLyogs5vRzt38pAa+SDngy3qKuR4MzxZfTIYW1amz7yOXopjMxYr6fM4EkGjVH0cc156NUuY9B54Io2zgfla1+LsoNf+96481ya4FGiS/AuoQl54hhljDvikUsjL2xLaIJ/H11K+MgrlegifwkP+aUSXdpy5T6XwSN0CX4aMhEULgkyi/+8fz4OGl3BN4r3weTU2SfRSIR33UjEYYcdlmyBmRiCRrEJoa+jcowsiwXAAdbxpdNMx9UyyyzzAOzDVgfPdjmhv3tRbltGNoWjreFHRnbKEgYjJKYdiwWAb6zbjbLVh3L8fvSjH50+1mxs1BP7dOONNyabJV80ENvyhLyjjiHzqDxxL2Rr6xf3Rh2DR8g+Kq976luahi6lPMhF/7moSzwvZMxNUTc5+UPnUsxKeMiLTwlNyF7yXIYuJXVJJimXT+TP0aVdd5E/ZAz9hh3jfenqwvZYp28miXgCfpudpvPP8i5tT7yikwy/cbqFbNphHGW2Vaccm2vm3de//vVk17SzDDSYVaNNyOk1Amz2ixlzlnWRu6tjXOvqMkx318mkHEd/uSl0yc0vX7uextGFbiW6TMOOhx7k8peT+ugSz2VJvUT95cpF9ii/hAad/KGX36NS5Ateo/K278lfIlcf/fELufLHqNtSzsI5B0lDyRotRmcSyVS4cBTb5XtpTBG0TosxisqKPFvMC6xkip2RyXgo23mAJ2qnpLJWXXXVxlpZAVX04GsoWtsqOqnpx+3EacXf9LuoaOVxJK31Nb23NJGRg473Rz/60WTAw4HVI8mJhrVEj3hounyUo2Gr8RuGRR75NdhrqghUBB6IgPdJ55RpskZB23bigTn7/+LMcjIHle8eO8MRtdQAf9f8GQ2NtbLRaGtLYf0pZ5gdNAKqwbfbbrul9fztfH3P2V4dbGvMWxKhIanDjQPNPtqf1oiIEQyB+QS8G5TYHstSOL7sskaiRD/23RTCmioCFYGFH4FoD822JtpC/iR2UDuHPWVDol1UytPyMrNfzMYzgKHDjvzsrz/lS2yXUWDredkuM2G00dCiKxmJKpWx5q8ILG4I/FdX8ALQWgNFg8Za00klU9s00jQ424mzpmGlh+7YY49NDinDwriR553vfGc6tz8uenIaOWUIGS6NL9P0JDRvfvObU9AlRpPDGlNZTAFm3MKB5HBq5JnOa02rRp3ylG/0QePOGo4wvm2ZR52T69vf/nYaAVGu8vQQckL1HApQpUdxXGLsRWKWV28iecjnPAz0uDLq/YrA4oSA99v6VMsI2IpJJLNBOG/e5W5if8zkMPKpE847648N4Ki6bi0s+xa2iP0jqzX66NlHo6fskzW27BUbIP+g5DqbY4oTexbJjBhl6kDT4SdaqDWuOiyNFLNra8xzbtlI1/BkR9ks5ZBbwt8fHmTlmOv41HHIrrFJ1slZkqFRWlNFoCKwcCMQtsY7P8kUbbHgV8qLPfrYxz6WguuZgSfWiJk5yh1WZlxnk+14Icgem24GoHblpBz5Ut1q/orAwo7AZK3HCHRMa9UQs2ZrEomBEWjEdDajFN1k/djb3va2tDWPiJkadRpZpoLoSdMYQ6uhZYsJDSrlmCZnmkn0rDFMprMYITFKK6qeqXDWsdoHklPrusafo4iegrjgZ92sUd1rrrkmre8wzVk5YQC7Mg/7Lb9GHnpOsvJM6zP9ReOR4c0JGMBYGwUiv9EbDUmOsi2IGO2aKgIVgQci4N3zngkuEoHkHphjZr/YH51slkFYvtC1De7bjkukdNtwsatmh7BlnEk2zGiAd9s9DqwgddaT6bAzg4MtFETl2muvTVN/OZ5sWjiYXQ1+8IMfJKeVndh0001TY459w180dUswYGKtPid5jz32SPbPue3AyCoICwedU2q2DEfYKIY87KQZPNae6UgzGkJv0UqNiJiNogPB9kHy1FQRqAgs/AiMcgpnS7uZOI9skGnFlqppW4psH0vPcuVj3+6Yt62jzkY2UBmT+G7kylPzVQQWJQQW2JRjjaYPfOADqedeFMvZThp6pneICDxoup1rRko5baZ+aFBpRHFaOZrWo0VvoTUPpgLbl9bIhp41DURru5TDycXrBS94QVozYaqycjmr9DSqIPDAGvNGJziIGpWm4hnptf2FBqDyNTDlZ/RE6EPntxRTCr/zne+k34yrhqU1GdGoM62PscRHz9/73ve+NOKLn3LopfGo/Ej0OPLII5PudAnZNBbpa3RHVFRrTkyfCUyCvh4rAos7AqKB77///ul9ifdztjDRq+891lE2rFOKrTISK1qx0VHrUTmFHNSLL754/iimkWSzSUwz5sT6zWm1FkyHmKlwHFvBVHSMaWAec8wxabS3rY88Zm1YH8Y+6DTzux2UQsORzWLvlCOFzaWTRqH7tvTh/HK6Y1kDGjNo0LFH9LDOd6eddkrB7wRXoRcbG/axLV89rwhUBBY+BMJOTFLy9rTgEj7skNkrlmPZo1ZbSNupbzJoYnkHh/awww5L9rPONumLZqWrCPwXAg+Z11v+n3qZNGy6vf/DQOIsiqrLOcql4UR1p6hp2Bj91DDRINTgmY3E6eSk6UWL6R1RLqOpwReOGQMnOh1dXBtlpOgtaVjiEb+jbL/DYHYbWvSHcfBFQxblDOILV/WSM1U4+ONtT1ojGMomw7j6wYPc5GinkA0ebZk1nl0jlzw5iQyh/zh5ojy6mDIuwmqbf9wfdKQLunbDelC+uEZ+dVmiC1ofI89ubpqmLmYO4JebpqFLfKg1CnKSeiGX/JPUBR9bxnjGRr33bZkH6cIZFJncGngzOyJPm67vuX1jzfRgy4y6Dkt00enEUfWO0WeYTjD1TrG38obtb+ePPF1+bTs+LE+XpvuMkZXNIUO8267589uRHTMC3P4m4Bd0bVnxkw9tzJzpyjDoN13Yva7tG5TXNXKxFyXvPjrxEXR6dmV2b1Bit/2V2P6+upTaPp0YOn0nqcu07Lgp7EbJ4hkcVBfta3T2nJXUS19dSu24Kf5mYJTq4lnO/SaHXZuEHTcDzKw1nfxm7lmSlisXncmWo4sOPZ1nAjWpz1xdDBAYeIgtD3Nxbj8/3XP2zB7mOkEFjdK55733zIRNppdr7N4w2xbLwQyAsFE5qW3H5Ye1kWLP9jB7iE/wgJ0yfPuGJWXKE7oMy9e+Pg07jp/lhp4XuOakPrr0seOl9oLs4Y/kPstofJNL6mUato9c9Id1iY1tty8W2AhtgCogyCmnnJL2C+sTEEk57QQMjtAe86a5GZ0FUDsxCkYA6jSPNir550ZvjP7UVBGoCPwXAj4o1t2brq9jzrp8H7OZJrbK8gTLIHIb3vj6+IxK7cYYezlI1naeYWXl5BlEO4ina/4iOe+W73f3WuSvx4pARWDhRoCD17YBk9AGD6mEDyfRvtmcOR2Xs2WDlCMI56mnnpq+GVvMC3rXdUjNuhFjwECC5XntXUHooq1rX26zZMyqEwm/TzLIY89e7XEz+UYlTqB4DeIiCKqa6xSOKrPeqwjMBgILbA1tCG+tp0jAXmpTzsLgxP2SI1pTh00lNn3XsZt48/Jo9Plj2EyvY1zi2rgjZ5ijPC5f3Fe2NXDxO+eokcl4lchFl4janMNDnlJdvjpvz8eSj0EX//q7IrCoIeB90OCwNMHU24022ih7lsAwLLybpjIbqRB4hB2oqSJQEagILKoIcObY0q5TN5v6aiPiUdKGMfIlJgr7Xjo7Y5zs7Lp4BXa9MOuxneAQS0g4kNp2bWx0ePreaDebHTToG9HO3y67e47WKHR3AKibz29lyodnCY6DyqrXKgKzicDMhxFmKA2nTQCiT37yk2ldlHWofdZqeslMiRDwRCPQ2lLGoJvk49BG0rvE2USb+3L2nd4VU3aC96gjWfBBkytX6GJbjFyaPrqMkrveqwgsjgh43/SUW1evp5sTag09x7QksU+m37Fjz3zmM5NzHFPKSsqpeSsCFYGKwMKGQG67pa9eMWCSy0f+ZzzjGal9aO1+ewlEXxm6dKYc235s8803T0tGBjmVv/71rxuxZt7whjfMn1EjuJ71vIOmZ5o2bOmVPGIVGMjpOrwcYnlgEbi0ZXNN2eTpLhds56vnFYG5gsCc6PbniNns2lRWa2pf85rXJHxy1kJ6cb14Ivmit35U8JAc2rlSCVWOikBFYOFHwKyK4447LgVXEmHYdlk61XLWtrCBGg+CjgjWpCFi/f+odbMLP2JVg4pARaAi8F8IaMflOpp9MdNhKOXyYZfFMbBzxKSSTk/R28VJGPStcE0AUIH02lOOt5g3RVn7V5s5Ok5jYMd0YOtbLVUxDdmOHqE7GmEFqNsAAEAASURBVM6z4KbWUQq6J1J+2+H1LTMohN50ZrEZ3vjGN6a2di52k8KrllsRGIbAnHBoCccBFQn44IMPTuvGYuubYYK77gXlvMorKrA/zrCep5oqApNEID4Ok+RRy174EPCxt0fqtttum6KnawgdcMABabbFMG00mjRWBAURT8Be0Bo3GiLRUBlGW69XBCoCFYGKQB4C4TTnOmXyCyBVEgA1T5K/5DLqK/7CsPWo2hqW5pmWbK2rRC5OqXbzv/7rv853VuW1/Zn1tr5B9vnWyWpq8kEHHZTyPf3pT0/bD2knb7LJJqm9vddeez1gurHgV2YZiXIvgr5lgfvuu2/adrK2r/9Sd/VsbiGwhOkEXgKBTXJTGAXTGHINAx45U271VGnY2QbnsMMOSxE+7W0Y20OQ0ZRh0RYZAL1XZ511VnP22WenPHiU6GJNhBd0ww03TAvsRQs0Ddc1U5+NlugBI7/rknNGqGT6CRp4lSQ0JbqoF6m0XvTGleoSWOTq01cX+pc8YxwA+uQmck1Ll0HTfobJSa4+ugyarjSMh+v4lDyX8kulugRNIs74h8+0dPGMtXunR4nX1n9UvjvmbZ9l3ZOtHl75ylcmp5YdEwTEeltOrN52jRRr+K1fMlVZw0NvPN1zn3tysIO2HVtvvfXSn4aM8vXG24tWg0wwvPvvv3++fcjVpa0nmhw73qUpfcboPol66co1DTvu2ZqGLtOw46W6wNszU1r/fWxfqR3Ho8SOTVOXUttHl5JvZeiCJjf1tRc5umi7KF8deo7VS4n9Q5ujC5yU6yiNey7lFQ3b1mIl8uRiKp93ykiobwDbGro4RlvG3uICNhnAsb83Gnufa/v6lkiw43xrw4qM73sj38knn5y2ibSc78QTT0wdrXR59atfnb4N2rhGaO2xiz+baMak7RpdU3/2GIeDIFVxLXgG/yRE51/o0rk89Kf80rh6aRcQOJW0YeOZHCV7m4fzaeni2Yx678ow6Lc6QxPP9KA83WuluqBHU1ovpbqoQ89mybvWlmsJjpvKLQnh7CFQSE6Y9DYQGl05DxDn1Wir/RfXX3/9tL+rdQxGLbygttnQOLNI/4orrkggAy6AyNXFdEC9UEK5m+5nigYZGVd8PCiMpEr82Mc+loyBxijDkatL6K+ckoACdMEnVxd8Als05B+X4kHQ6PWXk9CU6qJcGE5aF3jBoFQXdU+v3DQTXXKMDlno4jnMnTof9TJpXaLTRF3m6hIfD+9MTqILjNmm4DeOLvQvecai7FxdyMAmSDm62B/a1C9BP1ZeeeU0dc00Yj3kGi/s2PXXX5/y6IGnsw8ZXfDJsRfyelZEwtSrrgyOLey8C+yIj4TrHFwRLDV2YusVdmJSdhxOUS85usgvofFXUi907KOL96vUXpTq4jkr0cUz4N0qqZe+tm/SutBD3eS+l/E8w2zSts/7UVIvC4MuOd9975h8bExuvaApsX3yq8tcO04O+eN9zH328SnRhV3Ex/Plz+9RjeeQA80kU7Td8NMuhYcUtskaWt8Ra2gPmzfQ8/znPz/Fa7Bf9957753yohU/xfeWAxzfKGWz94IV0tf2bsrTucpuSDpRtR3cVwYZjAZ/4AMfSPjQXxAo78Cyyy6b8qHDk4yDMOzThu1j+zxjZAisyDUuhX0N3Mfldx+fkveFLv5yaWBcasdDbrrn2ss+ukzD9pHLO+m58Szmpna95A9l5ZY+IN+gh31AtgdcAiBBbeVj2p4HT9Rio7P2eowGTHtNwQMKGPHDmoCPfOQjqRFozzNTKbzQgkkJyOLB8CAq21o2Iyjy2L9M9ORB2wGNYDf1W7l45+YbpADaXCPfh08pTeSP4yCZZ/NaCZ/IG8dxcuTmG1QO2tx6Cfo+/HJpcvOFLH2PwSeOOeWU5M0pb1AePDQw7LGoZ53BFshDz7rpXgLSaZA5RsqVyzYSAoVY28RW6cG3Lood02DROGFHdUCJhLnGGmukWAPymHWiV14Zufxy84Uejn1o2vSl57n8cvOV8u/m78sHXS5tSd5B8uXai1x52jyCJo7te4POc/MNou1zrQ+/XJrcfIPkRptbL4Pox12biWzjyu57n76Tlit4BJ84DpPZfUGVtDuDdljevtd9E4yqssXDOiQ4OoJS2T5os802a97xjnekwRw0kchHTjJzNCP5jd59SR4DM23d3Ys/gQ2dh5MU+Uxtthdve+9Z9+J+8JvJMcqK47iycvONK2fc/ZnwyaWNfHEcJ1Pcl7+UJmhLj7l8cvOV8h+WP/hNxaEdJkTOdS+4Pw2zONdT6HdpYjhMm/jqvK1n9DLZO1JkUo5zGBLHGFFiFESfM2J8/vnnp+keRo052KYRmqoRdKWy1PwVgYrA4oMAO6GTTNIZJ/kd5+lC5j+NDU6qwFPWSplS9p73vCfZreChqLBjeup13HGqL7vssmbddddNtNZtcWovvfTSqX0QM1Ws2SoCFYHFDAF2bdLtKW1AKRrA4yAmDyduzTXXnJhDy3E0VZjD2LbfbdnIa1qy9ihn9vGPf3yaNdjOT1Z23uDPWmutlc6V4RvDYdbJ6d4d85bDCD6o3QsPuOvw9L1QRrRrOfLW3Wpvo9t4440TDmYe1VQRmIsIjJ+XOhel7iGTl9Z6NVOUrY21JYb1uvZhHWdE3deANF3PlEFrEwRuYTTCQPYQqZJUBCoCFYFiBNiir3zlK83Tnva0ZMdMIWbH2o2bQYVqFOmpt57WlLUTTjihOeOMM5rtttuuaLrSoLLrtYpARaAiMBMEtNEmnaK9luvQGjjR7tNeLJnSWqKHDkdrY7VNR3VwGo0VAFUAQc7oJZdc8iA27htB3X///dNUV8tPxJqxx+3VV1+ddNB2hYMgrO5zVgWOinawmT1m8fhGaDPT2zRlI8S77bbbA0Z/HyRAvVARWIAILDYOrd4n04Ut7t95553TS5pr1KJ+vPBe7pe97GUp6txFF12URnrjfj1WBCoCFYFJImA9zvHHH5961S290OteasfkZ8fEKThs3noskZUFxZtGg3KS2NSyKwIVgYUTgbBhcZyUFmwcHrl8OLQXX3xxciCNanL+ZjtxFsVVsPd416E1OqoDU9L+tFTOGldOq/1rJTTy0Mlgzbvf/e4UmdjyOZ2XOj8FWnVdHgM5nGf2/8c//nGa6ixwoA5Rf/iIT2Mk1jpby/Es/bvllltSsCidojFDsn4zUhXUf3MEgTk/5Xg2cDJ12OJ5a2Nf8pKXpJd/Ji+i0RDbA+nxEtZcRDg9ZjVVBCoCFYFJIcAJFQV5iy22SOv6S4JADJLJul3B7vTgc5IF3YtAIoPy12sVgYpARWBSCISzOanylVs6QouGA3fuueemtp7gpLOdxGbhPJrq206cT06oTkeOtN/f/e53U3AmWEWb0+gqR1dnJ+f205/+dPOFL3whjSoLPqidavpwtHmVJbjUkUcemUZ7jcbaIo4jG/hwYjnwlqess846aZkdZ1lbmtPLSRYkahIOfhuDel4RKEFgsXBoBWERBdQUijACJSANyqschkhwlRe/+MXJgDAIuckaCI6xKKddo8BQ+LPWoaaKQEWgIgABUSdtdh+dc7OBCpulzG9961sp2N0RRxwx1kYKGhKBQ7oyaHRxikVwdl6aNKie9KQnpbVa1pSxs4LyhY1UpgiIN998c2rAldpz5SurOxJSKmfNXxGoCMwuAhyukjZUH+7h1JXYJjKZxSJuygtf+MLmwgsv7GXbuvKSxWirKMX2Kjf9NyJJR95wMOO3o47NdhqUh43kqOJhNLWrr+val5xoDqr7YWOjbL/FizESrAxxZyKh78oR9+qxIrCgEFjkHVrGSFRiDbZrr7121gwmA3DPPfckR9Z6BWHSc0dMyHTUUUelQADHHntsc/TRRz/AkHGU7RHGAW9HsVtQD0nlWxGoCCxYBDQedJxJbEapIzdKeg0XgUZsC3HaaaelvQlH5X/pS1+anOBuAyhoRNA06htBqeJ6zlFDTCASHXpGGsQpYFs19qLhpgGm4WefRCMNGlc5CT25OMzWgxl5qakiUBGYGwjkvsczkZYN0HbrOnjjytR2tP+qthqHdjYSm27nDtOBHfvYy1FyxLTgYXlgMK5jTxnjyhlWfr1eEZg2Aou8Q+ul3XTTTdN0ulIjNq4ylMfAfeMb30ih0K1DyE2MmcX3nGGRR61RCPk0FIc5x4x+5BvGa1CeQdeG0dfrFYGKwNxCgENni54DDzww9ajPpnTsiWlp1uMKEHX66aePLF6j0NQzjqfIye2kLHZtUEMp1waxf+EsB41pdaa5aVzZdmLLLbds9tprrxS1Xsdflx86qW0r2VwjLGyu/YHttdhOwat9rZ5XBCoC00HA+zfpEdroFGvbhRztdH7pSLTVmmBM4hewJ2Fncspo5zFQIUq9DjbxC2bbmW3zqucVgcUFgUXaoeUUih5n2x0jtO29HmergkU8Nr1OQ8n2Gd2G1Sg+DKKGqs2rGchoxHVpGGH74a688sqpEWa9BZ1iw2YBAUxHFNLdVECjN8K3W/Og0bb66qunD4URZU53fDQYY2Wa9qIxKz9DG/e7ctTfFYGKwPQR8J5uvvnmaVSSU1diY3KlNap6+eWXN1vMW59rpHacDWCTdMLdfvvtA1loMC6zzDLpz764tr1gZ/Bhp6Jh6WjLCHbL+W233Tb/XrtgfPAzOitpVLKdRpYtJ/nc5z6X8IHNYx/72GQP2Uc2jS2Uwn6aEi0Qi6ApsPWHho1l/9AIulLa6E1M6r+KQEVgziLAxniv+7zbbOKuu+6adrgQ+Vg8FvZsnK1sg6GNZ89wo73afM973vOSPQy71s5bzysCFYEyBBZph5bDqPf+q/P2nZ3U9DLlMm7W6VqYX9LY1HA677zzmkMPPbTZcccd0zS47hoKjS2NQRHwNPwYYg0yjqneQo06+4PhbV2Z9WYcd2Uzmvvuu2+avmfUxGiKCM+ORlje//73Ny9/+ctTuZx/xpnB1nAsMdJlj1zNXRGoCJQiYJaJDqlJBW3SoDKFV+RLNicnaRz66ya2g+0VDd5oKCecHWYr2a0Pf/jDyTbhud566zWnnnpq2ifR6Csd8We/RiVlmR3DXgluwo7qyNOpuNlmm6WOPLIp58QTT0yjIf/0T//UCOrCZtreYo011khynnXWWWmUxMgvJ1g0T/ZYvpoqAhWB6SDgvde+ybU/faQaZK9KytHxb3aIYHoGScwcsW0aezSqzUQnbTAOrAB82luC8IkiXJ3ZkhqoeSsCwxH4q2iUeOHiPOcofwlNSd7g36WhRvda5HWMe3FkNNZff/20YfWk1gEwRiLCaZjh15YnzskTf3GNLgzghz70obSG4qMf/WiaPud+pKARsU5Db9VVV02BpDihRl6ts41RXfoxqq961auaxz3ucenDIEKe9R4c4liXZg8zcmoIWn+Gr/VqG2ywQeJhLYeyQ87uMbDtXh/3O3QZl699Hw7t3+POS2UrzY9/Hz3QleoSvMbpHPf76FLKI3iV6lIqW1+MS/nQp1SXUsyG6TKOb1sX77h1nzqcJuXQskWCf6y22mrJpkRdd4+hD3uzyy67JBvEDsXfPvvsk2xUYKtcs0fs48guibZ5yCGHpMBO1styQOU11dl9I6/yt/WHVft3yAQXs2NM1zPq8eQnP7nZYYcd0qgtu6w8I66i0OPFSTXVmOPK+Y0lHxtttFGyj0aUt91222T/Lr300tTpF7wcQ/dBsrTzdc/H1XU3f2n5QV9CV5I3ynfsS9cuY9x5KY/IH8dx5cf9PvlLafAqoSnJG3qU8gg6vEr4leQNmUp4yBspZMw95vKJ9hI+ffVhU7bZZpvkyGpvGUgQ2ElEYDaEzAYMtLPMnnvCE56QBhIMfAguJSaA9qItdYbJMOw6+X0D2DM8dMA5Z8uGtT8HYZiLV5u2Dw36Ybq0y26fl+Zv0+aeT0uXXHki3zR1L+HVB69p0gR+S2go9U3CeU8rAUdUYA0RfHMcVNPGhC1vT7OdbXk12DTSjJ7G6Og4Hnoh6aHRxcHkVKoHIw5GTWMklgPLSX3f+96XGrOmDmtwMl4MmUjJGnHySZ/61KdS+HU6CzTwghe8IK2HM50uAmI9+9nPTpHtrMf79re/nUZ+BV6Br/3JOMF6IBnpPtNyxuleet9HYlFJVZe5WZPWMU0zeYcZYM8DR2xckheNd16Dhs2Z7eRdN5pphgn7OmrUwNRh9leHWDex0WyHCJrskBknOu3YNKO2RoE5tGaVsJcae7ZA0yhbY96IKYdT8Cs6qxc2zvkqq6yS8rftPiyUKSmL7EaEbW3Brrpnn0U40wluZq8oD1+ycnLNSOHMy6NRqFPvzW9+c5rKbARlNtK0n7HZkHlYGYuSLouSTeZMLayJc+b91MaxRMAShEmklVZaKfHR2WXJwUySKMJXXnll6oxjd9imtlPJptKJXWJPDUxo3xnl5dCWJO0z9kxbzcgueh1/eN5///1pxsnXv/71FNlYB98kvhHkhV9NFYG5isASpl55ATSWch0YLxZHKtfp8TJy4Lzs7R6yUaCg0bvF0EkaIQyQF1ivfLthE+WQnwMYujAc+I1qnAXtTI7KJ5/1tIM+Kl1dGJvowbM1xfe+9700fVjD7oQTTkgNSzTWmsFYj6AewNe97nXJedXIMx2OIYMFh5XuglOhu+666+ZP3bOtEJnw9IdGY5OR1Ug2ZQaNPw08z4IeQGUMwli+dr3k4qb+o15yaNSbhhM5cowzudR9u5E7jk/oojHtPDf11cXzMQjTLt/QxTPlnclJ09KFTBqBJbp4piQdMTk2JnSRH7+cFDQlz5iyOULDnvUuXzz66OJ58U6FLtZyeqZhaLSwm7q6eKbZMu9sDn7d8nJ/h520lRhe3UQuurAh9DGNeNAaWvL6s3ZWORpa8V6aDUJ320VwatlBDb14ztXfFVdckRprOuFgJj/HlFwhI9k8H2yRdyqWSXCKDz744MbRzBQOtT0Ww47o3JQf9hrNGmhktDwjsFUn8R1hXyNFvcQ3Ka6POqLRCI3tMUbljXt09IdPyBT3Bh2jXnyX/eWkvrrAlJOfY8fIIR98S3SBvXqPZ2KcPqFLqR33/fMtXBR0YVPM4sr5VsJTPu9GSb3Mhu0bVpcGHzy72jzeUbajRBey5dh+bSfPC7ulXVXyTera8dDF1jbvete7mqc//empo8w3RXvN1GJ2mx2Tx/MJ81HvtHthe5yzsxxXAfCs2WWzdL75gxO7yl55L9/2trel5Rc6DU2JNmChrG4Ke1HSHleGdiTM0Oekri45NOye9xFWo3CKskKXEtuHVsem5wV+uam03dfHjquv+FbmyuUbqC5z7aVyS3WZhh0nl/dYvav/3NTWZQlGI/5yHiBMKCcvulya4JH7MuATNM7xib/2dfcihUwhlw8pA6nR4iHJ/XBFeTlH5fow+pjgh3c30bktc+QJeVWiHj4NvLPPPnt+lFH5GDPT8HzgbTUhgBQn2LWgj/Li5QxeHnA6x29yoQkcyGzKH7o2LQfbyyhvN4Uuysity7acg8rs8mj/bsvevj7oPHAIx2FQnva10AVdri7o5Q8M2+WNO4+6GJfP/dAljuNoQhc8cvUPPtPSJZcPXeKZGad3+35pvcSziC4X58hXoktXrnYZcd7WY1C9GD3ViVhav91yh/32zKwxzwmMTsNRcgVujnHeLpftiDp0XdmBQeAWv+VjN8P+KC9GreUNOVx3Hr/RGfX9+7//++QQaxALEGVPXSO09uoVudnekToKo6yQN8phezlo7CC5I7kfTnBcw7MtQ1zPOQb/nLzBI7AqoQm9xtGELng4z03dehhHF3qX6qLcUl3kL9Ul5BunR8iDxzR0waPEjvetF/rEOzEOg6iPXP3jGQu6UeXLI7+yyRPHUTRxL3SIY1wfdIznQ/ny5+qirGH52RB/phAbgNB5ZfBBtHi2zVIROml4j0t4tP/MsjvjjDOaX/7yl6ntd+aZZ863p1FvdPKsaO+JqyIas5grYhOIz6K8bgoegUf3/qDfpTTkC5qQdVC57Wt96yX4tMsadR6y5eof+fHJ1SVkKn3GyF3y7uODR3xDR+kd90K2aeiCV26SN7AuoQmM8znllj6H8lHS1FvraEsqu0QFPUOm8eoxazeISsqQV8/Me97znlSGnrh40daY18hkCI844ojm8MMPb4y4umc6X+Qp5aXxBw89O9Z1XHTRRalRqDfR+lxGOPdBL+Vd81cEKgJlCHgX9fJ75zWcJpF8QAWeMnKR++6zfdEz3D66Pi75cBlV1VNu/T56ySwR9rT7Qfc7euGNWshvPZprbKNkPZsZR1vNm5J3wQUXJEfV2ty2PKGb8pyLqqxDkg0Ub+Czn/1sGhWx7jbypsLrv4pARWCiCGjPTPqdizbTJPkEj5mAxT4K9GkJhnahYHanzdsjnNzatW3545o2pPaumAC77bZb2nlDQL5ll132QfZ0JrJV2orAXEXgL13Sc1XCGcjFMTP9Qg9Xt4E0g2IfQMox1Ism6JLpJDNJGlQMkFGHiLDpqPEmWIn1GgI2WePF4DFUfRq4GoSMpb/Xvva1zfnnn59GRUTr0/gzraSmikBFYG4goMEikIjZGRzAkimvuRqwj9aumhrHtoxLGlU63kx76ybT+EQOHpXopDPNNGIjGbZXU5bGWzdpIJq9wp7ja3sd+cUd0MgzMqIzkTO79dZbJ4fYSDOn1HIMupnponyddmycOAFGUj7/+c8nR1hHnqnR4hGIaWCK8x3zpqPq9KupIlARmA4CbUdtEhyjI2uSfGba1kRvlNVWbbaDFHSU3csZMJHP32WXXZZm9Bip1W40cmukuKaKwKKMwCLt0HqxTT/jEMZehTmNtdwK19ASht0Iqp4x/HKTkYiYWhc0rtlmx1Q5gVcYXVNYTDMxlY6jq4H19re/PY1qaLAJ5CRxdOkWI9EcXY3fdm8hWtflM7VZj55GsrUXzu1Dud9++yVnepIGP/Stx4pARSAPAdNirfvcfffd04ik93U2k2AsgiIZ9Rz37rMhOtOsVR2U1xpb9kUHn0aYBlrYxjiSnb3jSGp0+dPR9tV5W6xZU2t6tcRW4WHasM43ST6ju69//esTnftsm05FtBpzklkznG6jtQK4CBSlw5DcohivMW/2i4BVbCYnlrPLjspjzVrOFMHEqP6rCFQEZoyAtsogezLjglsFtNtDrctz5lRb9Z3vfGcawNA5Z8lc22bmCgpH3wjbNNqj297inFp2u6aKwKKKwCLt0Ko0jZUvf/nLzQEHHJBGBMLhm40KZTREw9Rw0ojLTRp4RggcNaDayWJogQskUwzxsA7CXooCqsT61pNOOikFIrC2QgNP41GjTiAlhuxNb3pTagAyYIw4XhqH7kVDzb6MIiOvvfbaSX4jFu5N+qPS1reeVwQqAuMR8G7bv9UUNM5XzOAYTzk+h0aU7W4cL7744rEEoq5rdA1L7IdAJUcddVSKmm7UUwAODTMjze5Hh511/CKOWhZiZsidd96Z7BUbyOE1JTic2jY/jjJbFY09ZRpVNWrLMdcQFAxKp6GIxvAzciz+gAA6fqNhF01ZFsAFrbXKRnx1BrpfU0WgIjB5BOJdnPQ7532XJs2nT/naaQJK2QLtjW98Y/OTn/xkvn3rWwPK5NTqALSLhgGMnASnaDOyv9007n43f/1dEZgGAou8Q+uF9iKbtiEqpzVS0QiaCcAcYz1eW2yxRRot9YKXGLHu6GxbFk6ushgS8nNCOcz+whk1/S6caOci0LWddfn8oY+kEdlOnGD3TfszDS/Kbuep5xWBisCCR4AtMHppi7AjjzwydaTNhlTefw4nJ9VoqQ61cVPb2CM2Z1ySz1/bBim7PUrAznFcOZFS2CzX0LHVXbs1jK+y5NcxJ3FKJbbZFOS47xrnlmwSO0hvjT4p6NKP+q8iUBGYGgKDnKfZZB7tNLZgUinsXSkPsU3e+973prX855577nz7NBM5ycLW2S7IDBbR3NnCcclOBqI2m+GoE7CtCwx1/lmrGxGc2/fHlV3vVwQmhcCDu14mxWkBlivQyT777JPWJUTY9pmKI3Ky0OhGKrov/EzLrvQVgYpARaCLgIZIBPvQkaahMpOkEaIBKRqm9axGT8c5szPhV2krAhWBisAwBMIRHHZ/Nq4Hj0k6YOE0l8pr1p4AeWaMRGdbaRmD8tPVjD7fj3/8x3/M+m6Y7SKewac//ekHdF4qy2CM2AOiykdH5CC+9VpFYNoILBYOrTVfAh/pTdLzNWp0NKcCjAIox5Q2UwCVX1NFoCJQEZgkAuwOG2bGibWum2222YzYGZVUjiUH1qPWVBGoCFQEFhQCnM1JOpr04mxKk+aTmBT8o7v4CGbLaVfOdrLEwnfD9pA5HaFm/4k7Y+nICSecMB83clq+pyO0xluZ7Vqq5c0UgcXCoQWSKbWm1BlNveKKK1IEudJoofILLCIapvVe22+/fVp3NtNKqPQVgYpARSAHAQ0J6+nNDrH+fc899yy2QRo01uPrZd9www2bbbbZJgVEyuFf81QEKgIVgUkgwFlalKYcl2BkUMQ0X0HttFVnO8FVrBcOvaVy45L8lmAIsLfFvNlAa665ZqIVYX7XXXdNEeVtdaY8MRAOPPDA5rjjjkvfI7TRcYAP3cSasauG/cGNEsfyODOCdKaKYi8IlrgurnkWaqoIlCIwFYe2z8PZh2aU8nrkBD3xMoliec4556QgK15Q97yAXZ5+x4u53HLLpXVmttYxSqL3ioM713r6RmGwMN3r1sVck32uy1eCVx9d+tCUyDSNvAurDmyOdbSCxWlIiAtgHayGwDA7Rld/1oeygSIma2ho3ETgpXGY98GrD804Oer9isCCRKA+0wsS/ZnxjvZcabutpM7lLS1fTIJVVlklRV8vpc1FxLZlph1znHOT4KK+E5xRgf10opJ1l112Sd8a++MKuiqavDW3duC44YYbUkBTPHSeajOLUC/glSnVhx12WFriQk9liWBverPZQtblmom0OKeSZy1w6kMTtCXHafEpkUnekGsJD5QfHtrcFEahhEbZGlwlDyu5BOyQnOv58RLg67yb3MvRxZQJawO8RLbbue6669JohW1rbJNj+wbTktdaa61m0003TXuBiR7805/+NL3I9vWiR8jWlWPQ77Yug+53r+Xq0qaLeiEX+txEl0F4DqMPXRxzU069tMsKXdR1ri7y0aNPvUxSlyh7GrrE+9zGctR5ab20dcl9ZiJfSb2QuY8uJTymqUvb9kUPtOdhmLxkG3YPNu7Z6/Wqq65K29DofTddzfY31sI6t++gfLbkMRJrRskzn/nMtD5LFE3bOXjPyFGS2rrk0I3TZVgZ5IpnZ1ieuO7d9zcKs8jbPva1fe0yxp2Tq1QXZU5Ll3gPxunh/jR0wWMadjx4lDxjMCh5X/rqUmr76EAu/HJS5CvRJXAqfS5zdDFi5zmUN3TJ0UOeEl2871En+JTqkmP76CApG68cHoLhCX5nL+3QJxUyi/84sxxM3wMpRxfR9E0tFmHfMjv7en/wgx+cH0TUtW9961vJYY0dOnyDjMhyXHWYcnrNArLHOT0FINxqq62SA6983yAjwKZcm0Fp146S55IupXZcHXnmYqRYGaOSOvF8lsgV9ZhT/8EbTaku6hFd8IuyRh376lKqf+k7pl7oEe3/UTrEvbYuS/hRAoRC0MSxlDYR9vgXPIPvoCJydQGal8u+rl60vffeu9ljjz3SInfRgoGpIji2nFhOrpfaFD0V6gFqyzNIlpley9WlzWfSMi0IXn1waMuZcz5p3KL8RUmXHFzbeQKD9rVx531oxpU56H4Jn9mqQ3azhO8gudkh29MIFKV3XG/6tttum7Z9iEjC7JiedeuyjMRqmJidYlpbfAhnKscg2WZyLeSJ40zKWtC0oUMcF7Q8Xf595OpD0+U7id9zVa4+uvbRBc2k22N95RqHgXL9sVdSiS4leaOhPCmcQo9x+g66TybbMFq3OonEUeTAlexmwbmylZsZPbZWs63ZySefnJ4zMRwM/Fj+Yqaj9Itf/CI5pTpPBY0yWLTeeuul2Yy2T7ODhza21K6Dr86L4G+gSP23r6eME/innkpSyTNWUm7NO7sILKFhw0nTc5P7IEWvhhckh8bD4CXCK2hz1ECDh6QMxsjRNS9aN5FFdLhcXTi2RjPshWj/Qz0pyubEWheAn9/KwxfPaAjSw3lOQmtRfuiSQ1OqizIDW3xy6gUNvProYvo2vXLSTHWJj9w4Xp5jdUa2nBT1UqKLcj2Xuc+Y/PERVS+T1sUzGfzwHpfa79i4vO5H2SW6RA9l7vOvXsJeBL8c2Up1ieeXXIPsySCedEHXR5d4P8NuKGNYOSW6kEnDQc+5iO7eacsh7rrrruZ1r3tdY+YJnp5ZMoRt8Cz6GybDIP2VrazQZVCe9rV4x0p49KkXtryPLn1sX4kusIjnJfcZ09Hgr4TPNOz4tHSZlh1nW2Cca5PVn+espF766lJqx/vqUvIdm6Qdh6n3xPvoz++wU217Muhc/ZEtR5d23QVmg8rsXiNbfJNG2b5418mOV+57HHJpJ04qkQVWRlKlXDsuv4BSZjXG1m7eBTuGkFsE5XbyjtBDfRiBtUbWlGRbsbkHG467dlfozRH2exp2nKyeF7xH1WVbJzKzsTnPWND1sePsBZnUTW7CR/7AMofOs1yiyzRsH7nhHO9Ojh7ytNtKU9mHloBzNYVsKtcDYS8wyQsX9/xun/td02QRmOt4z3X5Jls7tfS5iIBnMj7Sgtb5zZ5pVESa9nM7bX6hZz1WBCoCCxcCnMFJJ04sm1Rql0ry99GDXOw0J9HgSgm/XMw4lBw5o6ylibNJprbTpI3Mmdp3333TVOkoM5wfjgZHeKeddkrBoKy1veOOO1IMB9to1jQYgUnU/WBOi97VqTi0ix5sVaOKQEWgIlARqAhUBCoCFYHZQIAjmDta3pdfH2ezlFcfHhxGMwOtOeX0TcKpEdjUyKl1urORTEPmvIovY1tMo4scXvEb7E/LkX3yk5+czo3iukcva2o58DVVBGYbgerQzjaitbyKQEWgIlARqAhUBCoCFYFsBDiCk3Dk2gKEIzUpPsoNPUp4mCHICdxhhx2as88+uy3yrJyTyRpWo7S2nZyNqc3f/e53k6ymFJuOe+utt6YYDiussELz1re+NTm7gjztvPPOzVFHHdXcdNNNzXOe85zktJsi+4pXvKI5/vjjZ0W/WkhFAAIPDhVccakIVAQqAhWBikBFoCJQEagITAmBcAQnyW7SDm1f2elujaoAShHQr29Zg+isgxX8lLPMeS5JHHMxGQQWbK+7NKV4//33b84777zkiL/tbW9r1pwXrdh04ksuuSQ5tO5feumlabcQ2/MYiRbAUIBC8R0ELPz3f//3tMSvRKaatyIwCIE6QjsIlXqtIlARqAhUBCoCFYGKQEVg4gjEyOY0phzjVTJ6Wqo857Q0kYdDe/DBB6fta2xtw2GcjUQe2+TY49XIqdHUkkQ228LZ8o1j262jt7zlLWnkV7nWAUdwJzys2bXvucjGnGoOrHW3z33uc9M905S33nrrVKbrNVUEZoJAHaGdCXqVtiJQEagIVAQqAhWBikBFYM4jMI0R2r4jzRw6W91wajmPs5VEDj722GMbQZmMsvZx5jmxnM9BtOQ2cisQIXytq20ntG1HVxnyRIRhTm91ZtuI1fO+CFSHti9yla4iUBGoCFQEKgIVgYpARWDGCPR1BEsYT8uhLZEp8nL8LrvssuaLX/xic+KJJ853+OJ+n+Ovf/3rtH7Vmtndd9+9BmPqA2KlWWgQqA7tQlNVVdCKQEWgIlARqAhUBCoCix4C03JojRAOGmmcLURnoge5rEHleH/pS19qHvGIR/RyQslg1NTI7C677JICMNVR0Nmq4VrOXEWgOrRztWaqXBWBikBFoCJQEagIVAQWAwQ4Yd31mbOtNh7SpB3avnKTy1TcHXfcsXn0ox+dRmyf8pSnFDu1j3zkI9NI75577tlst912jS12JqlzX30rXUVgNhFYIl5whbbPRzFp52ufj6KJe6X50aHp0nV/y9d+YQfdl2dY6ubv/u7SuT8uT5fG72nQTIvHJPm0y26fD8K0fU3ekvxBm0sTz1hufuVHXsc4D77jjn3y96EZJ0f3/jR0wXOSurTLbp93dR30u0/+oGkf43ymPNrltM+V2/3d5TXufjd/TpkzpSFT/A0qa9i1Ul368OijfymfPvmnIVfgnotz5Itj0Occp0GDRymf0vxzuV76ypZTf+084zBr10P7vF1Gzvk4PpxF3/A+33H8+8g2Tqa2XpH3/vvvT1vcHHTQQWmbnXPOOac55ZRTmiuvvDKtPzXaGmtVjebSS9CltdZaq9ljjz2avfbaq7n22mubjTfeuLlj3r628kfZg/i1rw07D/o4DssX1wNjv3NpIl8co6yc41ylKZVL/hKayJ9L06deAv9cHpHfcZI0oUvwWMJCbz9KIqrFOoQSGopZnO4vN5ErIrI513tHAXyH9eT10UWZsS8XegmPAGuQvDPRZVB5g6710UU542Tv8mLsSqajkCvqpVvWsN+luuTWQ5dfH128AyWpry6esVHPVFcGH6ySd4xcc1UXupXoIr9gESWpb72Qa5g9GcZ/JrrQi6yeh2HllOpCzrZtFGlSGXgN4xG6jbsf+eI4DdsXNnnS9TINXeigrietSx/bV2rH6eB5mbQu07B9eJTaZO9A6fsyLV3IVfJ96aNLH5ocOx5y+355J9VLacqpl5AFv3iWS/gE/Sia+AZ7t/rYcTT2i5VEO77wwgubo48+OkVBtsXN+eefn5xcjqr9XFdcccXmWc96VhrV3WCDDZr77rsv0Z1xxhmpPbDUUksNFHeY7cOf7HRlU2AVeniWRTr2OycFXU7edp6cumznL7V9dCNbBKZqlzXsfK7q4nmjv7rJTdPSpdT2qZewBX10WcILAYw//elPufTzH4ISGoLiFc5wDjMVFXtmqYD4c21Q5QHCS1oilwdaucpEH7SOw4ClC7qSl6GtS47ueOMT+ufQBLajZO+W01cXPOCWk2aiC/1zG0/qnkyes9ykXkp0UW5pXUa9TFoXdRmOTIn+fZ6xaegyE3uRo388v+o/9xmLDzycc5N6aevi3DsBQ8/SoFT6jIUuymQbwwbg5XxQmg1dBpXbvVaqS9CHLvF71LGvLpO242RWNyW6qL+ow1E6t+9Nw47jx5aVvC99dJmWHaeLesl99+UrbSv10aWPHZ+WLp6Bmdg+9IOSevCexPvo97D2V5e+pF6UKykbv0npovx4T4bZ364eIVe3DXvNNdc0z3ve89Ier0Zct9lmm2aPeaOwj3rUo1IRdLrxxhubyy+/vDn00EOb22+/vREMyrMa+nZ5DbIXv/3tb5vNNtusefWrX92Y5vyYxzwm8Yh6sOWOKMnK51Tb09a9Ye+Pe/gMk6Erk9997MUgXQaV3b6GRr3ktuHnsi4w850veZZLv8l96qWP7YOzv5J3pq3LEgyhAlSsY05CI5XQyM+ABK3fOSnyo/Unhcxd+gCjRK4oP8qMBzx+d3nE7xJd2nIH/bhj1EWJLrmyd3n31SX06pbX/d1Hl3a9dMsb9XvSugTvkC9+jzpG3jiOytu+V6oLnEtogleJXJE3jlHGqGM8J7k07fy5NMG/JH/wifcmyhh3LME4eLRp4hpZR8k76l5XRmUGD89B6DSKh/zylvDBN/h0ZRj1u4SH8iU0YTtGle3eNHRpyzVOnvb9wCtXl2gglmAWGOTStHWJ87bMo87j2RqVJ+7NZV2iXkLWcceov1yMo7wSPvLiU0KDT2n+0EVdxnnIO+yIh5Srfzv/OBr35Q89/M6VK+TN0aX97AavoM855tCErm19csqWx/tC764uHJYf/ehHyXE96aSTUoP/5JNPTiO5r3zlK5ull1461QsnIsoJOdKFAf/c98d5WHfddZvDDz+82XTTTdNU5U996lPNpZdemviZ/mzEdI011kjToLfffvvGVOi3v/3tzSGHHJJGkAfVVVzr6jJAlPmXOE45GM8n+O+TUprQfRxGwaePLn1sHz2kXLnk7fOcoSupF/qrmxK5QrYSGnnxKqHBJ/LXnYyhUVNFoCJQEagIVAQqAhWBisACQUDDPJyASQkQDeZwUCbBJ3hMomxOBefSqJQRWEeRkF0rGQklWzgOnNN99903ObDPeMYzmnvvvTeN9rnvT4Ap6cc//nFz3nnnpb9lllmmeelLX9qcfvrpiW633XYrGlVLBdZ/FYFZRqBGOZ5lQGtxFYGKQEWgIlARqAhUBCoC+QhM0hEMKWIkZ5IObfBaGI4f/OAHm7333rvZf//9G06pKcVG7mKkuK1DOLiOv/rVr5oPf/jDzbOf/ezk8F5xxRXNCiusMH+krE1XzysC00KgOrTTQrryqQhUBCoCFYGKQEWgIlARGIjApB3NmNI5ST7BY6CCs3hxpiPa733ve5sddtihecELXpDWxBrtLUkCR912223NVltt1dx9991ppLZPMK8SnjVvRWAUAtWhHYVOvVcRqAhUBCoCFYGKQEWgIjBRBDhok3Q0CR+jwJPmM1Gg/rtwuvSZoi140EYbbdTssssujfW3N91004zE5QjvuuuuKRAVJ7kkONGMGFfiikAHgbqGtgNI/VkRqAhUBCoCFYGKQEWgIjA9BKbh0E5j9DSc5kkj13eEdvnll29OPfXU5oQTTmi++93vprW4M5GVHCIgc2q/853vNJ/85Cebb3zjG9nlCmQVHQzWBUfwobgmIFZMFZ+JnGgj8u5My+nSw0DZ/shv2rZr/uZSgmkb77kk22zIUh3a2UCxllERqAhUBCoCFYGKQEWgItAbgXBiehcwhjAco0nzGSPGArvNwRLMicP1kY98pNcI7yDhjRTfcsstzYknntgcf/zxzSabbJLlzKkP2/8IMhWjzeomHEHO4XHHHddccMEFg9gWXfvd736XIjJff/31aZ/eIuIRmWG55ZZbNu94xzualVZaKe0LLDL0XXfdlWT//Oc/n5zIEUVM7dZ6663XHHPMMSk69dVXX522ZYL9HfP2NA7MpybMBBjVKccTALUWWRGoCFQEKgIVgYpARaAiMB6BcGIm7WjG6Okk+XAMJll+oEkXDl9J+uMf/9jsvvvuzfvf//7mN7/5TQnp2Lxk+cQnPpEcuvXXX39s/siw2mqrJUfwzjvvTE4gR5CD5bejPXVnM82m42b02B7BZ511VgqO9fGPfzxN5YavIFm2WLJ38GzyLMFiEF/X/Hl+9txzz+YrX/lKYz30opDqCO2iUItVh4pARaAiUBGoCFQEKgILKQLhbE5SfDykSTqcg5yISeiEDz1y+cn3lKc8peFA2m7nr//6r2ddrO9///vJEd18883T9ONcBjfeeGNytE2HNVLb3oLIb3qa1sxpds6RlNxrO2N0/MMf/pBGoE1fdg+dYFVLLbVU88IXvjDRLLfccilSMwfflkdGb+VB63eMFuOBV8gTZcXz86hHPSo5rUant91220Z57l1++eVpOvfFF1/cHHDAAc12222XyvX8KWPJJZdM2xwZ3cUPDdlDR+WoH3K5T5dIkY9uZPO7W5fWMfvjVItcrQzYfe9730t7DduKyf3f/va3iYej38pTbpsfTOAR2zeFHHPxWEdo52KtVJkqAhWBikBFoCJQEagILCYIaJi3HYlJqL2oObQleHGeOHTXXXfdfIdwtjHmNH36059uOLQcpJJEF45d+xjn6u1LX/pS2irIlGajtpy/c889NzmHwWebbbZJjvSf/vSn5pJLLmm233775oc//GGz9NJLpxHpiy66qDnqqKOSI7fPPvuktb6czVtvvbUxTfjmm29OUZ+jPI7dIYcc0txzzz1pf95vfetbqcxwqF/+8penrEZkOb0hr+MPfvCD5uijj0509EIDf5Ghf/GLXyQZrrrqquRgevZXXHHF5qtf/Wpz6KGHpinW8ijzXe961/yReHUoKrU6/OUvf5nK+OY3v5mmeIdMdP3Qhz6UHFWj3ffdd1+zxx57JDmf+cxnJnzWXXfd5nWve13z7ne/OznyHHLbMP3oRz9qdtxxx/mdJPjB7LLLLpt/LbCZi8epOLQqqzR1abq/S8ubrfwhRxxnq9zZLCdXttx8M5WtD58+NDOVs4R+rsrXR65p0ZTg2zdviS4lefvKE3RtXu3zuN8+jrvfzjvN8z5y9aGZhk7TkqsvH3S5tCV5p4HtIB65ugyineS1PnL1oZmkDn3Knms6TEsejhHnwl9JypVPPn+l5YcsuXzkL8krP9032GCD5vbbb/dzIokDaE/addZZJ42S5jIRKXnllVdOU4+tQ41zTl50Qhg5fNGLXtQ84QlPaJ7znOckR++5z31uGgE1iohGsCujmkZLjY4ee+yxzeqrr54cQuXIs+yyy6Yylff4xz8+rSXm2G299dbJgTzssMOSk6zMM888s9lvv/2ad/5/9s4D0JaiSP/zePdFgqIoKIqAiCICu645YnYNuIpZQTCt/lHMghkV0xrYdV0lmrNrjisGdI2LawZERRFUUEDJ8PL//hq/u/OGc85Uzb1n7rmXr+G8mTtT1VX1dXd1V3fPzEteUmQS0L7tbW+rnvzkJxf8b3SjGxUeAuFmmbMqeuyxx5bv/Mq+E044oQStrJKjO3gRfBKEEgRf//rXL3mzYs03fl//+teXwPO1r31t0XmXXXYpz+X+9Kc/rTjnbdWsrrLVm1Va6sSrX/3qav/996+e+9znFqy++c1vlnywnRVw8GW1+hOf+ET17ne/u+j/6Ec/ugT6rDgTdDMhQNpxxx1LHgTQ2Jetc9Hyny2d9JoCaP7IfD9KTkFL5RFlkNFcFm/jgwcZJM6Z/aHQtXw+iH+2tsBPGmUbNLOxZZDeg651sYV8KMtm4xqUP9eQQaOiokcTPDiDTOrLFuoI9kRTn7ZQp6i/kYRek2gLepGoYxlb4FFb5rwtIQfflEnwZPzYfNkinwsewzBBt2H3BmECPW1e5cLsONfwU8Pykf3D7g+TM27f17RlkB7Na11twe9lfV8GL/SknahcmnoP+lu2ZOtyH348awv2YU/Wlj58HzIy5dKnLVnfJ1ui/X5XW+DL1H/KPmILevPDt1CPkTEOW6QLeVOXs7ZEfB802E3ejJUzMqLlQv7oj+8CL+xpk0MdIZAaZ0CLTuTPll7hMKrtK5bYa6+9yqoj9jcT23PZ7oqNrFjyqSFWI4866qjqoQ99aFnhZIsuK4ysanKNfE8++eQS9B00vTrJeBV8VO7UA7UZAji9lflDH/pQ9exnP7u8pGr33XcvQeVhhx1WcR2sefHT3e52t7KF+CMf+UgJQJFFf9vEnzIiYT/nYE8Q+YIXvKAEjATH3/rWt8q3gAmy0YfEiusrX/nKgh828Z1fnsPl7dTbbLNN9cUvfrEE1TwD/ec//7kEzbw4i+D8/PPPrx7xiEeUVXKCXOxkJZrValbNz5x+JlkJzM4777yCFavGF110UYVNBx54YHlZFHbd+ta3npEJ36iyVL46YjM2ZcbjYEwZ8Ysm5EivKSoIRrN8H82EZWgyYQYjwgMthU3UD28kSUlkkAAXXo5cU+HX80IXKu5sbIGXNMy2ubClrvOw8662kB824FjakmzBOWi7QoSHykNjgD+aKP9suZB31BZoqcdyLvzdllTHxm0LOpGoU5FygXbSbaFcBrVBdG8mDQI069e83/xb9RLfJOyaNIP+ztYx5d23LdhF+6Y+DAqmVC+5H03w8JMtHJEB5sPyQTb1kfofSSqX2fjxqJy6LRGerrbouaGIDHTC9w3Dc1Ae8FDPVC6DaJrXGADQtpBDGbYlZNDv0T+O2493sQV7VB/bbOF+X74PvDLlQplQz/qwJev7ZEu0f4EOv5yxZZx+HB+EDfxok9G6T33J2CJ8aFfU5WyfFPF96C//jryMv4AvMoZFd7V1jpRNmx+nTqEPvONM0gt9WHkcVcfQBf/F9lxeVoWvQEd0JXEff6D6wNZYglaukdgiyyolmLOiyduQCcy4T77HH3989cQnPrFgQx5co46RP0dWN7/97W8XmZTtaaedNoMlq6/Q3O52tysru+gGH+XDSirnBISUGXTNcoaeckE3fnzSiGeMWQnmrchs++XHVmewUt1kizR6kj/2E/iy4ooM7j3vec8rq8UHTQfqTATwAi7oWJneddddi34f+9jHSv0gH/JmZZ78wYqk+qmyQha0bJEGr4c97GHVMcccUwJ3+Nju3VaWJePaP1k/Dit2oFtbXa6JKbGl6lh71FPn7HiOgtnU5Gn+nc1vruilh45zle9c5hPVLUo3W926yOnCM1s9M/yTql8XvfriyeDblTZjS4a2qz7iq8uqn+t+/dh2v07b53kXvbrw9GFTX3p1lQNflDdD2we2g2REbRnEO85rXfTqwjNOG7rkPck2jFM3Bu3kn5XRhT7LQzlGeaCTLdHyh4cAjMBkXImAhC2tBFdRW9CFgI/AjudC6z+elVU+HFmB1N/w6ZyJRvD44x//uNlEO0HlqEQgNCiRL5+zITFRzgoxq6OspPIZHn6kP/zhD2WSi5cvNRMBLs/fEsRiHyukrBrz/V+C4s9//vPVJz/5yZlAFpn8wEGJvykzAmPOeQaW51nfPb1VGJ3YVs22ZIJO7GdbMenss8+ewQY+AlaCV87rSX9z5MdkAQE0q7SsjBPYKn/4RF/PYxLOpdfo0p4ETa2DETACRsAIGAEjYASMwKJFgGBIA/NxGYmMcScCiz5SNqAFW5695PnWcSVWEVkNZOU0uoOrTZcIngSmBGy77bZbCR4JZNGF1dCuiWCVRODJlmMCWwJ1thyTN3WJVVdWIlktPfTQQ2e2f6PzDjvsUAJDglgCSl72xMojK6roSnnwjG/dPs55bpUjQRpH6AnkCZB5hpiglVXjc845p9w/4IADip7kd+qpp5ZzniEmcOYaevJpHt5sfWZty3EhnP4HGfxIHHkTMi/KYus1gTjfCdbujEI0wf/0skI7wfZbNSNgBIyAETACRsAIGIF5RkArLeNSQwEtA/1xJYKCcduB7sjJ2AEtz1KyzZWAbByJbbus6vFM6qDHaYbJZDUQvQi2+fF5IW3J5cVQbYkA9o1vfGN5AzDP2LLtmBdH8fKm6LbypgwCUYJVAkYCUILR29zmNiUwZFsuibcUH3300eW5VYJennPl2VZeRMUzrMjmpU+sIFMnWJnV4yTYSOBIOda3K4MfwTArtTe/+c2LHQSvBO2aJCA/8garI444ouSBjmzJ5gVO6IcstlTzQimewaVMxC9bqQes2BO48iPxLV1WnJ/ylKeUCRDyWChpfK16oSBgPY2AETACRsAIGAEjYATmDQEG9uNOfQSbfdgBTsjJBrS8UIhAZ9999y1B2lzjvdNOO5XnNNkK27bdV7IJGvfZZ5+Kt/GynZbVRN6UzN/8eMswCbrmSiFBs66/4x3vKM96sjJJcMZzpDwTSxDHRAZ4iZb8uA4W9VS/xvbbgw8+uKz6ck6Ae9L0Z3X4hA/PsZLQhy25n/vc58rKLW87JtBklZOt16961avKN2mh5flUti2z2sqWYDA68cQTywu0vvvd75ZPEUHHi55YaSWIJQhl2zXPF6MbcsifbcG8CZnv3ZIPK8d8Lgma17zmNcUutl/zsid4wUTbsbGZesMP+QTayORlUqQf/vCHZYWdNyFTXxTolpsT/o+3HE94AVk9I2AEjIARMAJGwAgsZgT6CDa1QtvHCuq4y6pL4MxKKJ+i4a24rIBGg86oLby8iO21BHSRRFB117vedWZFWy/3Iw8lAiroWM2k/BTUEpw+85nPLM96Yhc8PPvJc648X/qnP/2prKje6173KqudBJPI0qrH9wboAABAAElEQVQkATCf1SFvEnWCAG+X6c/hsMqKLgTXbO9lGzXX2WJMkMxqaD0dcsgh5c3Ae++9d9kyTMBJAAmdMGZ1nJcysWWZgJaVVFZm+YYtb0DWKu6HP/zh6gMf+EB5uzFBLQGm8CDAZeWZNx9jH8/nggmrwNqqTIDL25MpXz7DAz/foqW+oNcee+xReNCfreGsOsN7+umnF5PYWs2zvXzKiEB4IbUVB7T1WulzI2AEjIARMAJGwAgYgV4RYMCt4GJcgvsIaLsEml3sRQ4rcpkEPc9Ssmr3qEc9qgQucxGwoAsBGaupb3jDG0oARcAZSfUtrYMCWuXBKmQzERAim4CPT93wbVcCWJ5/RZ9nPetZZbUTG/lJFquP8DS3XhOAsiJaT8glsMUeeAZhjg6s4kJHHYOGwFvBrPJjJZSAlXqufM4999yyGktQSYKfF2PxCZ06nfJo3sNO8j3rrLNKntjJ9mRWfVVHVMbYi30ErUrwEhwjix+TA0wUvPnNby72RstR+c3n0VuO5xN9yzYCRsAIGAEjYASMwDUcAQbfGniPCwqCBWSMU04fdoBPVzlsZ+W5zyOPPPJqAV1X3AkEefbyjDPOKJ970Spq1/yyfMhjVZPnbVn5ZDWUrcF8R5WXMSl4zOYregJTBdu6NuiInFF01Dvu1/XhGoFkMzXp6veb98ijnie0/I3ebXVd8gmCwZDncJkoeO9731uC+LrcST/3Cu2kl5D1MwJGwAgYASNgBIzAIkWAQXXXAC0DCTJIbYP8TJ5NWsloXp/rv5EzKBBqk8OKG6uod7jDHcqK4n777Veey+yqNyt+PLd5l7vcpXyaprkq2abPXNwHB4LpBzzgAdW+088HE9jydl6Cd7bl9h1gd7GJlVe2+epNxV3ymA0PGPHdXp6bZct4/dM/s8m3T14HtH2ibVlGwAgYASNgBIyAETACV0NgnIEmwvracjxuO7CFALSrHIKXg6Y/NcNLmHjREEEtK3SZ/JBPPm9961vLFmbezstzmPMR0IIHuhPUssKobb9cXwjBLHqyKkpZqI5yrc9EuX3lK18pIsEyUxf61HOUrKuvc4+i9j0jYASMgBEwAkbACBgBIzCHCHRdIcyo0NeWY3Qad0AAXqxMdsWNT9vc/e53L8+7sor5tKc9rTxj2nyutIkv8gi+eJnQSdNv/eXbqA9+8IOr73//+/MWzNZ1BPfm9tv6fZ8PR2ChBrKyaIrKSSPPNApo9VNGo46i1XEUre6JliNJsxbN66LXUff1d9tR+Q87NvmVfwYz8UhGM89hf4tv2P3mdeWPbpGtKMpfx2Z+g/4WrcpjEE3zmng4RpPyF28bn+i6lktGN2iRE+2wZEuGR/ZE9RJ9xn4wzdoifbK2SFZbOYpO9kheG5/oo3rx5kQ6bl6BP+xFD4NkSh/4Igl62iL06EbSa/B57gjZzSSeQfeatPobHvKVLRqU6Jro6kf0QbeoHGRQ54VdPa9h511tyZZLV1soA36RhC0MlKJ4kSc8WVsoO35897DNx5A/Wwixn3N+kSRaHSM80Ig+Kkd6cWyzpZl/VEZdpyiP7I3qVdetC09Ur6621Plk26ijyiWql+yvH0flL7qoXtKHOiKetvx1X/QRW+QX6/opn1HHuow2ObqveqK/R+Wve8KhjYf70Cqg1d+ZNoZMvnV63/vet3r5y19ePf3pTy8/Pi/D23TPO++88gIh/Bd+j5cF8Z3Vm93sZuU7pwTDvASJb56Cq3SRLRzRq82WOr0w07F+b9C58tdxEM2waxke0XKMJvFkbYE+K6cLT1YG9FlbhEEGM2izukmvqd133z0qa4YOYVReXv/cV0JhGhRv57rFLW4xZzMwTVuYeSIhI+Ic+rI/Igdb0JmPLS/0pApNHVto5dDEXrZQLraliU7/fxPAvPrVr65uetObFj/C332WCy90IFhhexZ+dK4Sgw7Zgr/El7EdTAH0XMnpI5+6LX3IG6cMypgB3zjqGH0in4G43vWuN04TZvLGhsXgxzBoMdmCPXyWZBx1jLzHnQiaeFsrARM/vuE5joTfpT/eYYcdql133XXORZA3bZ0fgR+roONom8jhkyxsp91tt92u9j3VrGG8RIlvv/JpHPpG8mcLMpN3Chbotxh/43P4vA1vSuYNvcQQC7XeZXEy/WQjMMXHeZnhVSAXUZfGSqDBR4SjiYaA04I3mnBwNCoSDYxXbjPQ4aFpjs3EwKGLLXvuuWf5thSNUvKQMayRYguDxOjMPnpiCxhjRyQhGznSJ8IDtnvttVd1yimnDNW9mQ8fWYYvM+jtwxacqGyJDvoXmy1gQJuJJuqLOqAoT72NRXi6lAttkno/KbbsMv09OV7tz2vpGdjwuv1hbb2JifxOxo/xbAr0avt8c47PC3zqU58a+nwPPBn/gp7Xvva1y4w7toA1W8j4GDxvexyUutpCHeAXTV1s4TuCvCQjWi74CGiz5bKQbaE+sdXvqKOOqp70pCeVMhmnH6e8aTs8o6a601YHKHsGwpnxRVc/TrCSqZc77bRTdeaZZ4YnlbrY0pfv45MfvMQl2ldSfgRDmXLBFlJmh0J03EeefPsTX8zKICuHmbYfHffxCRYw4jMlPG85DlvwveDL+Bgbzj///LZmMnMf3aK2kC99BN8SJcik/kfTsDEs3yk97LDDyvdS+Y4pk1cHHHBA9f73v798GuYnP/lJ9Z3vfKeMxVUfhsnE9uwYVm/vnQtbhunFdSZ/GFtH+9i+bOni+yh7/H50fNXFli6+D1vwx1G9KBd40C/jl+pj2CkaHj8NCMg0khCa4YEWOZlU56HzRiY/6dzMS/cyeikP8pRNXNPful8/Si8NUOv3Bp1DBw+/aJIus7ElIgs70Y9jJMkW8UV4utgCDwk5UdxEFx3UdLEFnZATxQv62dgSlaMyhF7ykN2WJtUW6TUuW3DQhx9+eOm4h02QDcJOL5iIOmnKRYMHBVv3vve9y9sYX/KSl5SOdZAceDJOHTnMlDNBSR1gZeDQQw8t37zjxR+DEoMHcM4M6uhw6Dxly6B8m9e62MLqBivY0frf1RYGNNFBDRhrMq9p46i/uwSB1M+2QR163/72ty90wknHUfpwD1vUxjiPJtojMqJyoJOcqAzoSVk/Dl/GX8gWyWvTDzp+UdvJD1rsiPJQFtDyG6ct5C97onKEU8YWyWjDVnmKPmO/eDi22aL74pHcNv24D0+EHjqSaHUsF1v+kQyO0nUQC/WE+9Dpl5UjWfX8yYNAlT6RHyvlB02/POrtb3976SfoV5CNH2xLdf1G2VLPB/mD9KrTNM9Fn/Vj4mvmN+jvLrYo/2y5ID/q+6DtKge+aLlAKznIjCToSVn70SnLI/p4hBWxwDRGwAgYASNgBIyAETACRiCBgIK0BEuaVDKiA/m0gGmGTGDVJX/xEPQoaNC1uT4ycQlW48RrrnV2ftdcBBzQXnPL3pYbASNgBIyAETACRmAiEBh34ESwqSBtIgzuqAQ4YYsD2o4Amm1RIuCAdlEWq40yAkbACBgBI2AEjMDCQECrp+Nc4SQQzGwB74LcOPVv6jPuCQAeLxl30Ny0yX8bga4ITHVlNJ8RMAJGYDEhwEDnJrvuPvL5FZ7VJNHRX37ZJdVfLzhvMUFgW4yAETAC84JAHyuOGMYK7WII0rzleF6qqYVOMAIOaCe4cKyaETAC/SGwds0V1UFPP7ziTZhts+zLppZWP//x96svfPL9/SloSUbACBiBRYoAAVofadyBYF920EeNe4WWF88R/I9bTh/lbhmLHwEHtIu/jG2hETACIQSmt6NNz94/6J63rq6/3bWGciyd7uA/+rnvtAa9QzPwDSNgBIyAEbgaAn2snI57hVaToQSBOr+aoXNwgbzHjRcBLXY4oJ2DAnMWY0fAAe3YIbYAI2AEFg4CS6p16zdMfztt/VCVGURsmv7PyQgYASNgBBYWAqyg8pmPcQabfSCC/uMONPUCrXHL6QMvy1j8CDigXfxlbAuNgBFIILBpI2/CHLH9jVjW8WwCUZMaASNgBEYjQKA57sCJ/PtaoR1t7ezv9rFC65dCzb6cnEN/CPQS0C70mbD+isOShMCk15k+ZkeFhY/9IrBu/brqogsvnF6pXXdV3ErwuqT8X2b1t9xqK6/QBotk0ttx0AyTGQEj0AMC495CiwldnqHN+LEM7Wwg7WMM4i3Hsymhbrx91Z9u2k0219R0KoO0FStWhDVlhou0fPnymRm1v/71rzPngzJas2ZNkZMpLHgkCz7OcUaXX3552TLSlMPs25VXXjnD07w/6G/yu+SSS0qe8COThIxhs4XIQJ+MLWvXrk3phQ6ztYU82tIk23LxxRdXV1xxxWblcK1rXWuzv+v2UV50iNTLaKIM9ebaDE+mvVDHSOgV7bC72kJ7ziTsz+DVxZayRTcpBxvGZYvKW2WI/WxB27hhfQlUlyzZojrs8MOqE088cSCUr3vt66rV19utorPHT7Slpu+TjxnFX/d9bflzn3LEj9FewFt+k3yG6ai6qDKNyOnLX8gnUy6RNMm2XHrppTPlErHlOte5TiFra5fYLD8BA1gJh4icLr4PeWovERnQk9psqeclmzI8XWwBK2REMevTlqzv62qLfGAd/+Y5/oPxC22flPEX8EFP+YxK0J111lnVb37zm9JWRo2/mvlQLvg9+bzm/frfrDjywy9edNFF9Vut5/BgR5st+HUSOo3y8YMEZmxBH8qdcRJyMuUS9ePQoRNH/Bjl0mZ/3S74IuUinqjvE72OWd9H+6LtZ3TD7kh7kU5d/UUXWyRLstuOfdkiv9Smj+4zNsOWTF3GFvUVU1kgECweHevOToqN44iDQHnkjTPh6GiITpOHwB577FFdOL16NpeJeky9GldSO9FxXHLIty9bsjZ00asLT0QvlcPVj1dxX3zJpdWb3vyWatnUVZ/o+dsC7UzWDCRO+p9fVAceeGD14fe8feZ69IRONDswiOZdp2Og8+lPfzo8YK/z+nz+ENh6662rbbbZplUB1d9WwhEEXdrYXMgdoVLnW11s6SxszIxdbBlXuRx99NHVIx/5yIGLCHMJA+M6BvPHHHPMXGZ7tbwIzI477rjqXe9619XuzdUFfC8B+jiTAvNxjl3QH1tOO+20cZpS8qZf3HbbbSv837hTtq1k6cetv/MfjMAUjYJZBwZp0ULTrIZ4OJL23HPP9GrXYLV81QhsjgArNmeccUapp8MmNKjHzOxQpyOJjmD16tUlz0ynsGrVqlR70WwT7SS6GtDVFrCRvAgGs7GFwUckafZsWLk186As0ItyzNoSkSEaTVpRLtgif7Z+3frpSZNLZtRijak+3YGfREeCxRc/72kzdD4xArNB4D73uU/1spe9bGbVQPV0WJ6sylAP1Ubol7U6NIxH1+Hr4vvgU3tRXqOOrITwa7OlnkdX34de6BdN4IZeUZ+Mj2AFQX4iIqerLeilco3IgRa9xmELnzH71a9+Ve2///4e30UKwzRpBPbbb7/qOc95TqnztOGMv1i5cmXxmVHfh3KMSZChWKZNYfp85GTaflffl/Hj6I0cxkrRcS882XFfH74PvcCZX6b867bk9icicURiRkqD1xFkvmUE0ghktwelBSQZaHSLJXWxpQvP5ON1VZmuW7e2Wrtmi7+py/uMp98myUO05YfTvWrbGQO9s88+e/LNsoYLAoG//OUvC0LPa7qSi9P3jS5VggWP70Zj5LvdEbDv+z/suviXLjz/JzF+1pecuEZXUUqvOQ1os0qY3ggYASMwaQism16hXTc1vUIyPVP8f6uz09/8m362duOmjeW42ZLtpBlgfYyAETACRsAIGAEjcA1CwAHtNaiwbaoRMALDEWCr06pVq6uzz+dZ/c2foWd7Mlt6tubZxmm6LaaWT2+/i798bLhU3zECRsAIGAEjYASMgBGYDQIOaGeDnnmNgBFYNAisWr1lddghj/zb9uLNzXrVq19VPfihD672uOUe1coVK8vNJdNvmIw+R7x5bv7LCBgBI2AEjIARMAJGYK4QcEA7V0g6HyNgBBY8AsNXXZdUG6ZfvML9qekXwzgZASNgBIyAETACRsAITAYCevPJZGhjLYyAETACRsAIGAEjYASMgBEwAkbACAQRcEAbBMpkRsAIGAEjYASMgBEwAkbACBgBIzBZCDignazysDZGwAgYASNgBIyAETACRsAIGAEjEETAAW0QKJMZASNgBIyAETACRsAIGAEjYASMwGQh4IB2ssrD2nREgE+ukHTsmE2YLSNHtDq2CanT1c/b+LifpR83T12f+nnElgyN8tYxw2taIzBpCFCP+6jLGRkZWuEpHh11fdgxSjeMP3pdcnSM8kEX5anT1c8jsrL0kTzrNNH8oYvS1vP3uRGYDQLROhelm40u8M5GTpRXdDpGdYY+yxPNu0kXlROla+bf9W/Jm1q+fHkBY9WqVeG8Nk6/7ZMkni2mP1/hZAT6QGDlypXVmjVrhoqampqq+EUTDWHFihVR8kIHj+p+hFGNbfXq1dWSJUsiLIWGT8Jk5fRlC3pl233GFgDAN2VStFyEEeVBitiSqVMZnU1rBJoILJt+izZ+oq29bNiwodDp01FdfB/+NJNo85H20syzzZYmPTbJrua9QX938eN92pKxv4st6isy/Qs4RvSy7xtU43xtHAhQ1yK+ryk76/sU9+BDoyk6vmjmF2ljdZ6sLYxn4Mn6y6xe6JjlyfpxyiXrw+rlMrV+/foCxtq1a8MZqRKIh6OTEegDgXXr1lX8BiUGgky2qH4OoqlfoyHQgIblV6etn8NDUB1teJoAop1Eg0AcFPplbaE9wxdN2JJpv7IFzDK2oA+6RZLKZVy2qLxlN8e2ziBaDhH7TGMERiGguqZ6OoxW7UNtMuv7GAipDQyT0byOjEh7ER8+grbVZovoOfbl+/AzGT82ybaoXKI+mb4LnCnLtn5M9ateRj43AuNAIOr76rIZ98GXqaf4Ttq+5NXzG3aeHfd18RfZMSy60o5lzzDdm9f7sCXrx9ERX8Qv01/Ux7BTVAIyoGDbHJtAUSUQj/7WfR+NwLgQoK4Nq2/ZBsSAhjpPG8gEgdiWcZ6iRe+onNnYInnRMhiG5yB+5Z2xRcFiVI4wQpbkDdJl0LWIDOVJJ0CK8EinQTJ9zQjMJQKqn231UvdVN+HTtTZ96jw6b+PR/agM6DWmyPB09X3IyNgCbZYHX9aHLZSl6oFwH3XM2lL3ySqjYflnMB2Wh68bgQgC1DXV5Qg9NASBWR75ymhbVhuBXudt+okuKoP8sr4PHvmKjBz4MrZAP27fhwxsAbcutsDvvcKg4GQEjIARMAJGwAgYASNgBIyAETACCw4BB7QLrsissBEwAkbACBgBI2AEjIARMAJGwAiAgANa1wMjYASMgBEwAkbACBgBI2AEjIARWJAIOKBdkMVmpY2AETACRsAIGAEjYASMgBEwAkbAAa3rgBEwAkbACBgBI2AEjIARMAJGwAgsSAQc0C7IYrPSRsAIGAEjYASMgBEwAkbACBgBI+CA1nXACBgBI2AEjIARMAJGwAgYASNgBBYkAg5oF2SxWWkjYASMgBEwAkbACBgBI2AEjIARcEDrOmAEjIARMAJGwAgYASNgBIyAETACCxIBB7QLstisdBOBTZs2lUs6Nu/P9d8ZOaLVsU2XKN2gfLrwjpOnS96D7Gq7Jjk6ttH7vhGYZASox33U5YyMDK2wFY+Ouj7sGKUbxp+93kVelCdKN0jn2fAOyq95LZN/hrYpx38bgS4IROtclK6LDnWe2ciJ8opOx7r8UefQZ3lG5TfqXlROlG6UrMw9yZtasWJFAWP16tVh/o0bN1ZLliypVq1aVY5Lly4N85rQCMwGgZUrV1Zr164dmAWVempqqlq2bNnA+4MuwkOemQRPtr2QPzxbbBGbQ0IG7Qp7oqkPW5BBytoCD/4impCDb8okeCLlovIWbcSWTDlkdDatEWgigP+if1X9bN7X3xs2bNis/+3i+zJtErn4r0h7kY4co+1SPND34fuQsdhsod5EU7Rc7PuiiJputghQ1yK+ry6Hepz1fRpb4EOjKdpelB/0pDY/LnqOXW3B/kw7zdoi3bK2ZP24+r6ufmxqzZo1ZeB4+eWXl4pUB3fYOZUAQK644orCQx5ORqAPBK688spS7wbJwkkx2bJu3bpBt692TY2aPDmPJgaBmfaCTiTaSzSg7WoLbVHyIvZgC3pFk/LO2LJ8+fKS/bCJiKZsygK9xmUL5U2iDHXE8Y5K69evH3Xb94zAnCEg/9XWLqmTtBUNyvg7Wk+7+j7aP+2mrb0IDA202mwRPceuvi/rx8Et48ewmQFXH7ZkfR+2UC7R/kW2RPox1a96GfncCIwDAfk09dERGUxQZ3wfeVL/acfRuk2AhZxIe5HOffg+ZKEb9kfHV/Bkx7DyF+P0fehF/4I9mfKvj2Fjy0VIcjICRmAGgcwM0gyTT4yAETACRsAIGAEjYASMgBGYUwQc0M4pnM7MCBgBI2AEjIARMAJGwAgYASNgBPpCwAFtX0hbjhEwAkbACBgBI2AEjIARMAJGwAjMKQIOaOcUTmdmBIyAETACRsAIGAEjYASMgBEwAn0h4IC2L6QtZ1EhkHmJFIZHX9ZRB2lSn9PFlqz9dbt8bgSMgBEYhkBffq8vn9yXPcPw9HUjYASMwDUBgfg3QRYpGnQ2N73pTaub3OQmFW9jPeecc6qf/exn5a1hc9URMfjn7V28Kcxp4SOQedMd1jJwok5lyj/75nDqalYvdMvydLEFOZOU9BbZSdJpLnXhbYc77rhjtfPOO1fXv/71qz/+8Y/VH/7wh/LLfNJqLnXqkhd1Dd984YUXVuedd97ALLbccstiI/Zl3vI4MLMFepH+ZTFNMPEmzUzf29X3nXnmmamJRr1JOKNb1o8v0Co4r2rjJ2584xuX/hVfN+gNqde+9rWrbbfdtrrsssuqP/3pT6H6xZiNdpXpt/sEArsZt55//vnVJZdc0qdoyzICE4nANXqFFofwmc98pvr85z9fHXPMMdW///u/Vx/96Eerr33ta9V22203Z4OE61znOtX97ne/iXWME1kzg0oxyGgO5gZdC2YXIssMaJRhH51iF7268PRhi3Cb6yMB/NOe9rS5znZi8uP1/W95y1uq733ve9UHP/jB6t/+7d+KT/v2t79dve51r5sYPSOKbL311tV//ud/Vk960pOGkt/znvesvvSlL1W77bbbUJrFfoP+hb5ssaQuPqkLTxfMusiZ1HJRwFbXj2v8FlLaaqutqk984hPVV77ylepZz3rW1Sa2mOh6wxveUPzEy1/+8tCnWhhT7LPPPtUd73jHUPA7H3hd61rXKjbvt99+VxsDzYc+cy2TMhj0WZ1B1+ZatvNbmAgsnl4wiT/OgEHfnnvuWf3rv/5rhVO4973vXb3kJS+pGCB89atfra573esmc73qO0p1JjoHHONHPvKR8n29+j3OabTNgKxJM+jvNp62+5I9KO+Fcu2vf/1rWb257W1vO6MyM5Ws5hx00EEz1xbjCYP9V7ziFdXNb37zTubd+ta3rl75ylcOHAgTFN3//vcvwdA//dM/DexUOgmdAyYGJ3e/+92r5z73udXznve86l73ulfrd4dZJQGvl770pWWV8hnPeMZE2TQHsJQsWNk6+uijq8c97nHVN77xjeqJT3xi9Y//+I/VU57ylOo73/lO9f/+3/+r3ve+94W/VTpKr4h/GcXfvEd+g/Ik6FAQMej+GWecUZ1wwglllWJQns1ri/Hvvffeu/rJT35SHXbYYWUVatAKVd1u2hD9HvUCnv3337/4gcU0UKTOXHrppeFvxrKb4VWvelX5PmMdq9meg+lFF100sG7PNu/Z8OMrTjvttOpFL3rRTDboyrjnQx/60MTpO6PkkBPKm7EW/b6+ey5SvlOJH6z7Et3jOMj3gAX965ve9KaK74k2UyToH+SvInxNWfp7EO8wm8SzkI+3uc1tyviOcZ4S43Z27PBzMgJNBK6RAS2OhlUatqBwfPvb316deuqpFVuQWKFlpZZZPwb1pNWrV1+to8NJst1NCceyzTbbVLe85S0rtrfgVJGDM+RD8STo686Wv9lSx3YZ8pMD5Mg9+OBHT4JsOVbu3ehGN9pMPvlLHrrf8IY3LHprMMh9ZGMLul7vetfrFLCTz6QkbKPj4afENYLaxb6tlHJ89KMfXeqBbM8cWdF67GMfOzCgpdN429veVrH6NagTzciZS1rq/2c/+9nquOOOqx7/+McX/Wm77Kjgo+fNhO7U+cMPP7z6zW9+U/D63Oc+V+26666LbrcEtt7jHveoHvnIR1Zf/vKXy/G///u/q1/96lfVSSedVD384Q+vPvCBD1R3utOdym4RfAtBvnwOPgG/UccRvKGhTeGf+EHHNXwWfqiZ2NKMH2SHC/T1RN7wkC9boeUXOe6www5llXVQnugoGiYZ5VvJ+/TTTy91lW136Kn8kYUPRJeFvKOgjt+wc4KQhz70oWWi53//93+rF77whTPYNnmYrGLS9gtf+EKZ8KBeEMj99re/LX1Xk36h/k0wS/1nh0KkL9h+++2rxzzmMZvV/9naTr3da6+9ygQS/nrSEhg1t0Szg4VgdyEm9Ma3/MM//MOM+owN6CuadoqAcsGXMZ6qj8E4p61Qd/CL+D2S/N8ee+xRxlB1X4T/wTdCQ770M/Kv+C/GXExA46OghY68yaOe+Ft+VzLxY9Sl+jiwzlM/RzayyAN/LB3qNAvhXGM7sFKSLfVruuejEbhGBrQ4KVZjaRz/9V//NbMCQHWgobz3ve8t29xYwcW5fPzjH6+OP/74GccA33/8x38UXhwlNNwnKGZr3y9/+cvq05/+dBlQ3fnOd67e9a53VRdccEH1ox/9qHrmM59Zat2LX/zi6gc/+EF18sknl9n1k6YHncyUk+hoGHDAx3Zo8oP3k5/8ZFllYjb+pz/9aeE/+OCDZ7bY4JjZQg39z3/+87ICzSocjgE9kf2xj32sbElE12c/+9kzNhXB/mcoAnT0YMjqBzPucqisdvD3xRdffLVOk3pCWfLcDjR0kErc4zr3uVcfdEHHdcqtzocs5HAPGumgPMmD+/yaqzTIwwbyo+Pn72GJzpwAickedhYQEKALEwXozFGBLjqQH7qBD/mPynuYzLbr2Mu2MiZ37nvf+5ZdD+x8IOjmHoGuMOTItaOOOqr6n//5n9JmXvaylxU+VikJ2BdbAvMjjjiiOvfcc6tDDz30asEmgyiCf7DZd999y2QAwS4DJdKtbnWr4i/e+ta3lrKFjoHgL37xi1LePJKB7/jwhz9cgkh8ENiyGoxs6gMDuC9+8YsliCbQxBdSh6h30Lz+9a+vvvnNb5ZVZFaH/u7v/q7IJQDHH5Ef+VJu9SD0dre7XeGDBj4mMBiwkXiU47vf/W61++67l3LFj+KLkY0PhAedm22lMC+SfxjEU5YPeMADSmB7hzvcoTyzf+SRR5aBtdoF5rKz4ZBDDqkOPPDAihUQBsn0UUzkMtlTx71PeKg/+DUd23yY/CM61n2Q/DO+SP0ePotEHZQvxodBo0Q/DBZa+eG+6LkGH38rgamuo0v9nmiwBX3wjfLZ3JMvpV1gJ3ROs0eANk/9ZQePMOXvg6ZXbb/1rW/NXEMSfRaPMnz/+98vPofxFH6EMRJ9GP6OdrTz9Mo9Pgf/SJ6s2OKj2PGCb8R30X5I+CR8Dn0MYzt+1BN4v/71rxd6xpS8T4OVcYJcfN5rXvOaUifIg36LyWT0ZVyJf2b8iT/Fd6IL49NB/gybtBsH3fAJbMMmiBYeyHAyAosVgS1wxHLGOs8eFxo42Hezm92s+uEPf7hZpyY76ITYsseqDokBQ/NlKlzD4ZAXM4IMsp///OeXa3e9612rW9ziFtWjHvWoigEWToaVBbZ5MmNMx8mgk2e/cFjoQseGY9MsIfLIh0AWp4qTI08GIjhi8vj9739fHCxOEz3Im5nmBz7wgWUFhK1D//zP/1w94hGPKI4V5872NAaIbLtkq94gxygcJvGIrfrJSdMJcE1H9GbQILphR9EPu6/rDDze//73V0xCsD0dPgYzzISyLenPf/5z9bvf/a569atfPTPDj3y29dEJUZ8YIDH5wHX0ZgBOZ8i9v/zlL+XZH+oU9yh3+NghAN+DHvSgUq/YMkudpDOlTOuJushglTpBUMNzlMz+ksiTOkRwysQKz1busssudfaZc+oRkzHUCzpv6g/2MlgmOEBfjlq9pRMFEzrxN77xjYUWO4QdxyjO4oG+yUPww6w47ebM6Z0U1GXk8DIgBui8HIOBBSuD/M2gBBxpf9CiI2XErDh51xM2t/3q9JN4Tl0kUMdGymRQuz777LNL/QMrJgegoY6BBztLyANfRn1hsE+wSoDKffwRvoMJhdvf/vaFjrqJb8Nn8WNFDKx5BIDJNSblmEhgJwGJe/g75D/hCU8o/vcFL3hBGQhSH8mDYJRVQ4JjJcqe1WVWddGJ1dwjpoN3yow6gN6UK/bQDqgHtEVejMXAEX1pD81yV/6Tdmyri7ovvSkv/Ar2MYhmeyWPClCmrNjSNik37rMr47WvfW3ZWsrfDKrxZQzkzzrrrLK6i79TW2we4Wlem+3fBHyUN4P4u9zlLsUGdGACRiv22MhuJp6pJriEVs8OUt/p+57+9KdXb37zm4ud7LIikAAHBer4QCawsYHAg5VpVrHAE9/ChI1Wxgg6mDCj/oMtq+DwK+FjCFJpA+iCP28m6jlb/NEPf47PRNZ97nOfIp/rbJln7EACx674duFDJrjWyw/9mtf4eyEk+mGCWuoFdYrELg38BmWEbUrsVOG5WibHaBuUFeNBnsElkKXfo+3Q19COGIcxwccqPv0iO0Cgw9/QnvA9/PBx7JCg3uDHqL/UOfwTE0j4aBYdWEzAjxGoMl4TxvhHxnannHJK8cE888s4Ar2om/R/TOIdcMABpdxkD/z4ct6TwLiScSA2ch1fv1AmcettgDoNptigOso1Em1S17ocs+2FuqP6o/NxHLFtHPkOyjMjK0M7SFZf16bYekilQWAm0XD1/J6cR4Z/PmlxQjgHBuY4mtkkGhvBKkcGB+T34x//uKwA09BIBKskOj8GD6yCMNNGB4xjZLscjhLnxpZBVigoE4ITHBgDNlZqn/rUp5bt0Dhhyovn5ei4GQziOPedXnl58IMfXJw3Az2ejyKIZqaegSKJvOjkCXqQwW+hJGxmcALWJI5gysCHATi26B7BHYPttgRPW91nlpN2wswvASGdER0PgxU6QsqMsmcFfefpQQ+dDZ0VHQs/6AkIKVcCDjpO8mRVkUETg7n3vOc9pSMj6CUQpW3ROVF2dNLsCKDDog4QADODTD0mYQN58zwpz00SdDI4Y6KEVX+2wJ944omlvj/kIQ8pg0Y6SgZkgxIyGSBSv+iMsYfVNYIDBmZM1JA/NlEXb3CDG5R6BzYM9AhsGJAqqY614Sx6js1yod7icxhkgHU9MROND2KAwj06bzCiDTAJxCC/nrhO22QQixyObQkMJzkRDBJ08rzRMJwZQHOP+oVPwgc97GEPq9797neX7craukp95Dl06qYGb9jOJAHBEtiRD6sbBI/gySCLMicwYocIid0hDNaZkGEQR6KdUp/0NlImIChX6jJl8S//8i+lXRB8q5zRi4AUOdQt/CJ8g3w3eaAXgzju066Y2MA3Ui+0WleUmdB/8DUK5EapyKAOjCgD2jdJZc8RvDjSbulraBP0FfiO5gQt/RCDfiYMCLzAcVAiTw0qB91vXlM+0qt5n7+pj0x6EDgw8YS/pD6zQ4m6gU8hKMHX4P+xl2CCsqWPo24QuFDP6Evhx2+xBZ/AgDpMfWeijsCEQHennXYq/QYv/aHuUjeYzME+Em2ACWGCXvwwsvCBTAiAEZPXTCyTP5Mnxx57bOnzKRMl3qaLbCajmbhh1QzZ5Ete+FD6a3jp53knAPxgNgov5V8/ZsuF/MGYCXICQCV8Obbj55UY32gMo2uTeKQOE1xSjwkCGU8xGYb+TIRQBiTwJUCk32D7PX6CvpByZCUVX8EYjn6U8QS2w0Nd+NSnPlXqG+0T/3nE9MQa5UndJaAmLxYKeMwFn0adxC+SN5PRlBNlz/iTtsiEH4sn1EHaMPWYYPQd73hH8bPwM15gQp38qIeM6dgirbEONpEvgTQrwNRN6hHjW+ouj+hoAQfaSU3USVbJwZBzfBvY039zjcSRfqh+LeJjmjZLRqSdUdaMeahfEfqmrHH/3cVfdOEZtx1d86/bMsXgg4pDo1PFaMuYxsIgEIcBT33rThvvJNxHXzobZnzrTqGuGwNhgqVhn4sQLR0uToTOio4Vp0kQQ4fAkYZTxxWsGbDgZNR5QsMAjs6YWTwlZpHFK4xxmshEbxwuCX46Y/5+znOeUwYAXKfx4TTprAnASAx4ceRcW2gJLHDSmiggiGFmnFlu7AIH7u08HVSyckfwOCqBD2VQH4QMoicfaBnIsUpFx0L9ZzDE4I8gi3sEvDhkZnzpwKhjDMbQk7KkvhEkMCPL56EYeMHHyghBOcEsq0ok6gkrwgzgGGAQzLLSQmBA+ROs05GScLjMBjMwoVMEJ2ZnwYoBCgMw6sZB01uvwIkBP4G4triXTP72D7zoSgJXglRW0xgkEMAjG9tY9SLopZ2Q6KA5x9Z9pwcEBE9KlAtpWFsTnY6DyoUJAn5qM6LliE4kMMVOdCMPBpsEP3RE9URwzMCSAQllCJ3yqNPVz8FtkhP+m7pPcEAZYn8zUUbcAyfq/K9//esycUJdY0ClVT2ex6QOYDPYqPwIQpGh/MGW8kAWAywSQaz8En/TFghG4CHBz2QaeVIu+EEGXfQl1EsCEXwneaAXSXI4R2/qmPLjWj2hD9tHdR85PB9KOeMDF0JAi39mAqWOY91GneM7oGHQR3lRDip3+gvKhHYOFmDJqiP1nnPuCyPlB3a0W7ZUDmsPtB0wbPIqj+YROn6j2j71gHJCL3wLkxbUE4JVgkF8KMEEfhi/R14EHKxkEQQyqYvd8kGcYx9BCkE87Zx7BAasvIEX/SjbTOmLCe7r2GED15jQY7IHLAg+tZJKcEAdJA/qFtvq8c3NBA3jK2yjfOjf2ZXD5DTthPrImIEgGf+NTehBObT1SU1ZYEjZRcsFDNlFgQ20PRKyqXdgBzbKiz5rWH1o6jGff4Mz/or2Q9/KiioTvIzPKCclbOFZVOpGfVIXf0ge1Ik6/uBAPwof/aD8En8r8P/7v//7siMFGdBowogAlURfKjzxvyxgMI4Ac8aOBNhMcDNJTFmym4r6wTZmJr/Ri8Q9aEnKm3OuQ4//5/EB8iVR76lPjCvqQWC5OYH/4HvAjvpJXaSOMgkFViTu0f7q18AGe2VzxCy1sTYe7jP+oV4xiZrxfcjg1+bH6/pSjtQ9/F804ZPpC/A30QQPY4Zowg6wr4/r2nixhXLM6AUP7SQjp27LFI1SPzW4NkW5Dy18OkZ4JoUGvXEibI0DwGaiwTCbywwxM6yDEg5RiaCXgINVNYIHtoMyOCRwYQa0ntRYKeh6olHSYOoD50GNp+5oxU+j0woNHSYzWEoEQJSR5FG55BxFs5COzKjKPla7CQIJrBisUJYMVliFZEaWrbWjknCjAx/l2HBIT37yk6uTTjqprHBDq+CN51mUwBl86dzoQOi4oOU6DplZeM7prLiHEyJRHxlsUjcIAEh0mnRwHJFFA2fgAQ2JCRD4qQ8E1zhABnb1hN7M5jKo1e4A5OMAGGANCmjhV/2AFkdGp0rwzN8k6hrtB70UQLE6jQ7kzQCvntRxR520ygUsVW+xkbrM6gwDlHrSIJ3thqxmMwHABAFBPTsTGBiju/RndYYBpJL8n/4edBTvoHuTcI3OifqAD6L8hFtdNzCkPJnswR58BYEeK/v8TZmCH3UdrBmAM+BVapZfHRMNOFhFq08CsqLBwLHevtQm0JN6w9ZkVn4Z5OkZTwYR1FFSpkMkT3xAPWEz7YR2vhASNkTqpHBksMVEKmVOHaCts1uB/g3b3z0dlPG4Annim5j0ZBeGfAmYgA8rmqwAsUoK36CEL2GlibwiCTrkjAq20Js2jEx8LDxgwGSeHrVh1YofA14lfA289MXQsypPHcU/UWeon/pBxwoWfQUTXvAij8mVYYn2gf8FZwIi6jj5MbFHYI0fp90R7LLKOqhvVhvhSHBBv4BNnJPQgUlI6j+PAmEH+rf1SU2dCbho1/BHEvjwHhFspLxJ1B2CbdovdUS6s6KIn1gICft5JOdud7tbqVP77rtv6efqOx6wizpGuaoNYRsBIX8PGnfJv1GPlKBlkpXEWER4QaNzjS+bvpP80JUfdZ6Vevp+Jm+oV4wDaWuk5uBe7Rb5SsgjLyagGbvW77G6y2SJdBLPpB3Rjx0+lANjF3wVY2gmobRDinv0E4wxWJTBTjCm7VF/o4lxC7gOarP1PMifvkg+iWMUR2j1q+c56pwyJNXr2Sh67iEDPTlGk+pe1BbRZ2VIv4xe6JSVI/qY94tqs0Do6ESYBcYxEHxSsakQ/HBmNBhoNKNFpedvgIaGIyufJDoGZliPmN56wgoD2z2YGWdgx6C5Phijkiqw4FkhzQ6SP1uoSAzWyZ+ErEiiMAnoONIRMoDhmTM6WTp7BviZWaKIzEmjEWZZvTJ8OEzoKRcGOnRKBE5s9+XH5AeOVluLKO96GeKMKQ/yaN4jaKQe1OuLOkHKFR4GYYMSDh1dWO1ixh9dOLLNkKCAe+TBUSnq/JELb10v8qAz4Z6ujxqwQg/tbBIBPwM/Vk3YQgo2yGZw+s53vrMEYqyOgzcz9PtOD2SY7GB1gYkA2mVk1Ws2Os4nLx0O28gZYFEPwUadIvWK8maQykAa30B5EEhS71jlYhULGgY+1G2e88On4A/bErJZRSURXJE/PwZm7EpgsF1vB8oPeWx/JdCGlh0GTMDQThhsq/6LPnKEh8G35PE3vhp7NREWyWeh0WAngzTqOZNlvCOB4JR+hUCOMgIT+gRWr540vV0Wf0AfRP8A/vRxBFsc5yqp3es4KN/6vfqqAfWWxBEfxGCd4Ev+lu2a2KY6OsoHgQ0+hGARGxkks9VzVKLPrOsmWtoIgSmTCEzYsKOBIIqARPVOtPUjuHK/Xq9po+DPuECyOOq8zj/u82Eyh10ftz5d88ev4et5pwO7SljNo/4o4XeoM/Rh+DolJmgpD1bVRU958WOyAFomiVRHyYeFDBIyaGP1BG7wkfBxJPLinJdBsRpLYuKG+qnnZNmyTD1FdybnWCRRP0udZFWYSYb6mI5zxn7ozUvw5INZaWfbNW1oIZVjVFfoorQFbP+zqBHYvAUualP/zzgaAB0jjZwZW553YPaXgRfPt/KcIqsVzFbiJJgtYxsKHQ9OkJlgHA6JvBgYMEBg2x6DMTo2OjyCCRyMHCDbiXFcdIQMtNlqBy/PeDCwY8sLKyPZAQWOlM6ara/kzQCOGUm2QbFVC8fYdLb/h4bPsghQplo9YlsxK8F0IODPMzwMnLnOliCCUDox8Of5HGZgqU9sw6QuqMNkKzN1jdWsZmKrHZMvPBekQJiVOK6hC6sW1EMGdOiBPidNz/rS6ZEnK23UB4Id5FHvCQQjiU4bW1jNVcdBHuhLEKTBme5F8uxCQ5ugXRK00uEzaGd1hdln2g2zqArYwZrBBx0/ejPgZAWE8iGoA7PFlrCZF5EwmOO5K7adsSWT+keQyEQZZU6wq2dcwY9JO57/oo5R1vwN1kzKgXMUKybwqFf4HOoa/pGgigke6uCgxHXqEb6YiR75TeoXkxBR2fW8aR+szmAzdjA5CR7spBimR51/IZ6DFysb9FlssWTVjTLgJYP4fq0SYRu7jujv2OnCxA++iIkiBtnsbJnPRP0hAMce6iITxQzomSRhBYz6wOCf3SL4OHwgdmuwP0x31Ut8BoGsJsDoq0nIiyZo6avZDcMuICaR6Nepv9Q5ZA1LBOTYte/0ZBtHEu2TgOPMM8+c8a/D+H09hgCPLeD/WfFmcpnJgnqiDGkHjOeY3MF30kbYHUKgSz9NXcNfsGuOesI5Y0We/+edGfQ1TNZR/3jGnx1T5NNM3KNO4AvRiR/tEv+qnUb4Tng1Gc5uAPpT/BdjTfTkcSZ42apOvWecSP+vRD+Mj6Md027wv9RJfCuTk4wNnIzAYkdg7qZiFxhSOJl9pzsWtl7RKfFTIighsMWB4Py4x0wsz2aRcHg8n8jWZJwOHRtbI+hscWwEx3TEOD4GFsze0pnihJg1JJDF0TC7zPY+Vk3o7LQyjEyuKRhCJg6PAR86KeHQ+Bvnx32cK4NQAhzk49B4Jund0yu20OK01Ykrj4V8BCc6nvrAl2tNnObCxnrAxvmZ0wMQAilWCcCZ4JTBEmXNIJFBIwMxXubESgArTqyGUa8oK4IKBka8kp96RCdER0c9aCbKkzrHM7XYRqfLbK50osPmPittdLQM6tGFAStBC1tx6Sx50QSrNkym8JIDrWw05dX/pqOkfh8xvQOBzpRVO4JEZrPZ3YA86VHnG8c5bY2tfnTaPFuDXFYGaYv1OlCXTb3nPttqGeDQ5vTSjDrdYjinfRPQsDJPwEIQr8TWYYJNbWPnOvRMgFAneU6LtsNEDX6HARB1WT4IP6ZtksoTfq3UsxLB4xVs8SY4ZhKPuoHvJAChfMgLeuRQdvzNgBK/SBkxEcRAj7+lJ/SaPJRcfJgmUqgTrMao/PmbgSL2oAN6YyOTO/UBoPJaDEdWiWiL+Hr8Ce2+WVayk/6CPoJBP9t88UXUDXwMfSJ/z1eivNCN+og/pR7zNzrzNnlWRgkk2abOOyPwBUwQqi7U9cYO3k3Ac6+0CVbQaPv4MGzlkSAeX8A/MvGDz2ymYX6N+s3EGD6YiRfwZ6WbySDVQ+VFu6AdsOUbf8/Lr5h4wlaeteQdDEx8EmAhj7bRR0IObYs2rMQ16g26LaQEbtiCPyExwcGYB39HXaFeYxt+QjT4GCb7aTPUM3DA/1BXFJyyG4hxH+2JcmIykMdVCBzZlk1/Tp2k31W7oa7W6wD9OW2TbepMLlFX6XcZGzLRjL+CHj2OmO5j2eVHf05+2IWOLHjwPhbGdPg+rkHHuIO/8WvQ43uhZQcCNNyj3rPYgh7ScaGULbjwq7cJtcn6tYVij/UcPwJLpmegNtEIcWKqLG1icRDMEtHQ4WH2CoeOM8R5L6TEwA1nyH59AhEcFDbgaOoJfBjEY+uZ08EMDQocNHDASXEfXFjRonOTowEjtoTQcSlgwenSaTPIxoGy2sXADVp+OC90wAEjiw4XRweNMMY5ohc6yFlhDwMVVuPY1sJ9DeTQAbnYu9AcAp0Ns9rMVnJOAidm7sERx0c9Bic6ijpO9XKsn4MB+ILLKDwoczpIZk6ZjECuEgEiZQ4/K4AES8qPVX0GZ3Sk1A+e5SQgJPEyK+7RAXGPFQc6IsqKZz/pPJnxVwdMXWNLMSta2EhwSlBKEEznxjW2ExKsoh8BAsEC9Yh7BIDwIw/9mLRhQMazO+RdT+xUoHMkWEdf6hABMgNIdfwMDuksyQtdwVxvGa7nxbnqa9tKivjAkvKDHt2jCZ62mWj8FJNPzHyDE9tTRwXEkk1gxhYx/AT1bJIT7QTsGKjvvPPOpQzxMdQl+QnpLx9C4Ie/ARPaF0cGRGoX1FHOaWtKlD1y8D/Qk/ibOggv7YG2Q9skUY/QjXtKlC8/ggvypix4gYr8Hj6P+lMfeFOGyENn9KfMOWc1hRV8ghYCIfJkIvHMaX9d55fsSTsSZLGdFt/NxBX4jkpgSXAEvkxeULYqr1F83IMu4vua+WSfoaVO8RtlC7roE2fswsAvUeZMTBAsqI7gZ1klo5wpc3wUq634LybtCMx5S7b6AfpjAmD6dd7mjT/D31F3TprewYLvpp4QbLCbg8lHdnNQ5wg2mbij/iCf1Wt9tgV5+Gr6bvw1bYMJE3ZHNBN6IoM+maAcuUxeMsGIv6Iu02dgKzarXGg3yI2m7DO01BnKBFvqbQN9qEfqd5CPX2flHF8pXx7Vqw86MKPMKAswJYEf9mGHxj/1MRU0sh2fTv+F76ljAf7UFcZL1CFhxoIFPo4xG5Mbwgo9kCFfigwlfB99Pm2BnRTUUflM2jETrkxG0b8zCaJ78GMHdX7naV/OTjzosUnysFnlgj/Ej7Lqjy6MZye9v8JGFnMI6hmn0D9QfpQP9ZHxE7aSONI/4R91jTIDE37RBEa0TWSMSshg1xwYM3aiHOtlM4o34vua/PJdlGM0Uf+wnb43mrAnYwt1nzo3yo83ZXexRe0iIwdbKEvSNT6gVSGocYyqrG003OdHHoPy0T3J5CinOYi+Tpc5lx7NwWsmj0mjHRTQNnXMNiBwwhnQeDgfleT4aNj1RPnRgcHPwKZ+X3nicHHQ/K1y5pzyoTFyDwem8uIe8nCI9YQs9MVxQQ8d8pSn7sMzSBfJo5MgQd+UwXXJb+ZNp8mPvEmSOwybQjT9jzrbqMNFPrhAj47RVHdso3joNOno0X8xBrSyHRz5YafKSvfGeUQmKSNzLnRlkENAy64bghSljB7imY9j14CWATAvnKOtRAd14B31fXUsxhnQ8l4LJkdoxwyeRvkw/B9+W/4WH0Q5y4eiMzbyt+qj/CO8+BbuwcOPe3WfC45N/weN/CW0ClwYTNX9dx0vzsUnHfkb++ivGFSin+qoyoU+Abpo6hLQogO6S/YwWZMe0A7TO3pd9WMYDvXyIU/+1rVhPINkD5JDHaAusjOGF/KxpZn630yDeJs09b+z9HXe+TgfFNBG9XBA64BWAe387S+K1tae6HBMbc6pjYb76iQHqT0o/1H0g/KIXJMeEVrTxBBgcKPBU52D8qMx1QdXuq/6wuCEVC9/zul0GNAw0CEfJe5p4KRrHKFBDgMddIGmnqfuD9NF8qDjN0gGciS/mTeDPM3q1e8Nw4a8JjHVdZ9E/eZKJ+yknPu2F3lZmXOlK4MbtdMueswV9n3ms9DtxC+pvlBf8YdtPowAUuUM1pzDW0/kqYE917lPvuQPvWRKft0fDvKt9fvwkxeTg03/XddBcvHZkicb8aUkXS9/+J/eEQD/UWXQvMfflGHzepvi0Nd5CGTZ+cTqMPWD3RmDglnybfJmZbXR+74RWAwIbL4EtBgssg1GwAgYASNwjUOAxw/Y2skEUn3geI0DYoEZTFkxqGcLcDMoXWCmWF0jEEaAnUs8JsTzvDymplWmcAYmNAJGYDMENp/S3OyW/zACRmAQAvWZ+kH3m9dYAeD5i/pqQZOm+TcrAPwyqbmqEOHtw5aIHqYxArNFgPbFihmrd04LBwECWl7OxEt8CGjxe9nAtovvY3tzxiejZ9ZfdvHjC6fkrOlsEWCVn3dzOJidLZLmNwLTu3AMghEwAjkEePYoMxCCljciZngYOGUGdeSNXtmVKXgyqYstmfxNawSMwDUPAfwW28VJ+L7MZJ58Xxa17MsR8cfZgDbrx7M2mH7hI5Dtsxe+xbbACIwHgWl/e9XHvvXilogYdTbiyQzUI/mbxggMQ4AAbFgQRsfAoGPY/UF5ajCUqcPQqu4PyrN5TS/3QK9okNrVFrXnpg7D/pb9w+43rwunrC3kkykX6Mdli/RQGXJsK5e2++jrZATmAgH1r6qnw/KkTspPQANfZnBMW6aNZRL5R9qL8pQ+bbaInqNsyvDIj8k/1fMbdg5+yIi27T5tyfo+bKBcpOMwm3VddPKBuj7oGMVnEK+vGYEMAtQ16mam7ZN/1vfRviJtX/4EWs4j7UX2qt1kbMF2+DI86i+kq+SPOmZtkb/I6NXFFsolW/7YIr2mpKjAHwWC7gk4eKW07vloBMaJAPV0VF3tUh9Vw4aBmwAAQABJREFUjzN6j9JhWD5tujf5JtEWBecZW7CDlMVsXOXS1Cdii3iaZeS/jcBcI6C61tZe1BYlH742HtHqmKWHL9JelL+OWTldbIFH2Elu23Gx2CLbszhn6dvw9H0jMBsE1H671MsMD3KgVywzTGfdV946DqMfdD3LI90G5TXoGvnTF2TlZOmRneXpYksXOdJriueNeHU4e/hVmQaBVr/GW/1IevmG3uJap/G5ERgHAtS1YfWt62d7yE+OK6KzPg8TbS8aeCJHDa9NzqTbMugtpMNs0qwmb3WMJMoCjPFNwi7CBw96tSXpIdqILfJ5bXn7vhGYLQK8TZw2MMzPKX/RqY3wN79IIn8+25P1ffBF2ot0YMadHzxRf9mX7wO3jC2shLAS0Ict+CiVq7AcdcQ/ZfoX+iH8csSWjB6jdPQ9I9CGAPU44vuUD7T0+/BFfR+8tGPaS1u/Tv4kaPXt2qgf6+r7srbQlrE98+6I7Bi2D99XgJ7+B3zBO5rqtvgZ2ihqpjMCNQSiTq3G0stpF7364ukFAAsxAosAgS5tcpLNnlR7uujVhWfSymYx2DBpmFqf/hFYCPU4q2MX+ixP15LqS05WP+nlgDaLnOmNgBEwAkbACBgBI2AEjIARMAJGYCIQcEA7EcVgJYyAETACRsAIGAEjYASMgBEwAkYgi4AD2ixipjcCRsAIGAEjYASMgBEwAkbACBiBiUDAAe1EFIOVMAJGwAgYASNgBIyAETACRsAIGIEsAg5os4iZ3ggYASNgBIyAETACRsAIGAEjYAQmAgEHtBNRDFbCCBgBI2AEjIARMAJGwAgYASNgBLIIOKDNImZ6I2AEjIARMAJGwAgYASNgBIyAEZgIBBzQTkQxWAkjYASMgBEwAkbACBgBI2AEjIARyCLggDaLmOknEoFNmzYVvXQct5IZOaLVsU23KN2gfLrwjpOnS96D7Gq7Jjk6ttH7vhGYZASox33U5YyMDK2wFY+Ouj7sGKUbxp+93kVelCdKN0jn2fAOyq95LZo/dFHapgz/bQS6IhCtc1G6rnrMBV9UR9HpGJUNfZYnmneTLionStfMv+vfkje1fPnyAsaqVavCeW3cuLHQrly5slqyZEm1xRaOi8PgmXBWCKxYsaKi3g1LU1NTFb9ooiGQZybB06W9wJNpK0uXLq34RVMftshxZG3BhlHlNshGfFMmRctF5a0yjNiSKYeMzqY1Ak0Eli1bVvpV1c/mff29YcOGzfrfLr4v2ybxX5H2Ih11bLNFdDr24fsWky3gBcaMxzIpUi6Z/jQj27RGoIkAdY06HKmXdd6s71Pcgw8dlTTewU9GxxfN/MZtC+OZLv4yqxd2ZXmyemXHfOhUL5ep9evXlwBg3bp13AslBbTwkjK8IQEmMgJDEKDODatvDASpm21Oqp41POQpx1W/N+gcZwvP2rVrB90eeE3tBb2jAS0OGp3GaQvK4kAytginrC3Ikr/gvC2BMbYLuzZ67kdtkR6qRxFbMnpEdDWNERiGgNq86ucoOtqj2uS4fR96ICvSXqQz/o5BTZstoufYhx9HTh+2KBiUz0FuW8r2SeRH2YNxNKDNlIt9X1uJ+f5cIRD1fXV5XfwFcmgvklfPb9C5/JeOg2ia1/B7tLMMTxdb8DH4l6icLmPYjL8QDl3GsMhBv6gtyKqP+6ZwVmQAIFFnqEognoyzlrE+GoEuCFD3VP+a/NkGxICGxkB+GhQ28xz0N05nmA6D6DUgyMjpaguyJG+QLoOujdsWHDspKoeyEMbjsEV6yG9xlI6D8OFapn4My8PXjUAEAdV51dNhPKq/qpvwtfEoL3i6+D74Iu1FcjSmiOoFX1ffhwxhIfmjjtBmefATWVu6lAs8qgejbNA9lQsDwmjCFspSZTSML4PpsDx83QhEEKCuqV1G6KHpEgTShvUbJUd1H9psnAQ97THrL7L2y1dk5IBZpO3Xseni+7K2COeMLego+rj3q1vmcyNgBIyAETACRsAIGAEjYASMgBEwAvOMgAPaeS4AizcCRsAIGAEjYASMgBEwAkbACBiBbgg4oO2Gm7mMgBEwAkbACBgBI2AEjIARMAJGYJ4RcEA7zwVg8UbACBgBI2AEjIARMAJGwAgYASPQDQEHtN1wM5cRMAJGwAgYASNgBIyAETACRsAIzDMCDmjnuQAs3ggYASNgBIyAETACRsAIGAEjYAS6IeCAthtu5jICRsAIGAEjYASMgBEwAkbACBiBeUbAAe08F4DFGwEjYASMgBEwAkbACBgBI2AEjEA3BBzQdsPNXEbACBgBI2AEjIARMAJGwAgYASMwzwhM1eVv2rSp/ufQ8zpd/Xwog28YgTlEYFSd496o+8PUiPIsWbKkZBGlh1i0HHU+TI/m9S70XXiactv+7sMWdOjDli5y2vDxfSMwGwS6tC/kdWkvWZ6MHOWtYwaTPniQkZWTpc/gJXy66JWRU7ehfi759WPb/Tqtz43AXCDQpc5NKk9WL+gzPKKP8mgMSzlFeVSmWfouMjI8skV6Ta1YsaIYtXr1auncety4cWNFRqtWrSrHqamr4uIHPehB1bJly1r5TWAEsghcfvnlhWXlypXVsLpKpaYuZuogPOSZSfAM02FQPrQXEjxbbBHbFIGMpUuXpuT0YQsyutginsIc+Ac5+KZMgidSLipv0UbKhXq1fPny6sEPfnCqfmX0N+01G4F99tmnAID/on9V/RyGyoYNGwodfoLUxffRh2cS/ivSXup5RtuleKDvw/dJRtQno9+k26IBnrAcdYzaQr2inuD7OHcyAnONwF577VWypH5FfF9dPvU46/sU92hsVs+vfk7eJOp/tL2IX7xtflz0HLvagv2Ztpm1RbplbZGPrds46lx9X1c/NrVmzZoyULviiitGydnsHh0pgFx55ZXl+tq1a8vx+OOPL9c3I57+A+VUuM17w/7uwqO8MrzQUqnp1CI6ZvLuoo94dMzIy9oiGZljRp9mvhnepi38vX79+or6Oqyu4qQoy3Xr1jVFD/0bR0U9jpQ9maAHAdEwHQYJktOEJzp46moL+EjeIF2a17A/Y4twythCIEiSn2jqMOhvMB6XLfJbsjtqy3Wve93quOOOG6Tu0GuZOj80k8CNZnsJsKRJutgyG54uvGmjEgyz0SfKy6BE/kv1c5iK6oc5kvCP/KIp6/vIF98SbS/Qa6DVZgu0Sn35PnDL2MLgjAFX1hZ8Zsb3US5Z3ydbqGeRlLGFPLfffvvq2GOPjWQ9QxOt8zMMtZMuvF14aiJHno4z70GCxylvnHnPxhb0wn/RXtRHD8qveY2xQtb34ZdoY1F/SZsnmMu0/b58n3CL+hjos2PYvmyhf0G/TPnXx7Bluo0MqEQcM0k8DFjbVsUQSkcdrUDoQQXSylxEL4IFCirDQ0ew5557VqeddlrY/q620BjALJIoC+RkbKEy3OpWt6pOOeWUlC2UiQZREd3UsMdtC7N2P//5zzezZeutt97s74i+w2ii+tf5u/DU+cd13pdefcjpQwblIDk6jiqbF77whdWzn/3smVVjOsNooh3T2SjwiPBlfR827LHHHqXtM1iNJPw2PjPbeXTx4xnfh+6777578cmLwZbddtutOv3008uqY6RcmDiJpEi9HZbPfPEO02c212WLjrPJaxy8Gb0ytE1d4e06hmvmVf/7kEMOqZ7ylKf05vt22GGH6pxzzgnbgo/Al2WCDejBatx+fLvttqvOP//8Opwjz7uMYfvy49tuu2110UUXhSfMu9gS9X0jQQzcpK1E2lqTpksbC6jTK4lsytginl4V7SBszvaPbLPNNiPFE2gyEMoM6hgIMjMQTTgo5ODgoo4dfbbccssK/aM8yMjMCFEZGKAuJluYwIhW8i7lQnBOuRDA4hidjMB8IkCb58fggcQqUiTRRjQBNk7fhxz5sWgQSBumbcmmiD1gMG4/ji1bbbVV8cnjtmXcfhxMs+US9auR8jKNEZgtArP1fUzm0Z9Hk9p+dDwmH8b4Ksojnxf14+jexfcxfomunCEDW9ApM4bty49jC+UY9U9dxn1g4GQEuiLgSKErcuYzAkbACBgBI2AEjIARMAJGwAgYgXlFwAHtvMJv4UbACBgBI2AEjIARMAJGwAgYASPQFQEHtF2RM58RMAJGwAgYASNgBIyAETACRsAIzCsCDmjnFX4LNwJGwAgYASNgBIyAETACRsAIGIGuCDig7Yqc+YyAETACRsAIGAEjYASMgBEwAkZgXhFwQDuv8Fu4ETACRsAIGAEjYASMgBEwAkbACHRFwAFtV+TMZwSMgBEwAkbACBgBI2AEjIARMALzioAD2nmF38KNgBEwAkbACBgBI2AEjIARMAJGoCsCU3wkWR9K1rEtszpd/byNj/tZ+gwPH3JW/jpGdMrIUH7kn5WRlaP8dZTstmOGXrQ6tuUtG6DP8og3KkN0WTlZ+oxe+nB7VxlRPtHpKCxGHaHVbxRd815GhnizcrL0dTk6jxyztvCh+A0bNkSyLjTQUgcyPJKR4YE2Q4/dkhM1ZunSpaW+ZORIry48Ub2wRXKiPFtssUVvtoBzpp5ly4X6FaljdT2kj44R3KDVL0Jfp4nKUf5ReskQn/5uOyp/HdvodT8rB76MDNHqKLmjjtIpw6P8ojx1uvq58hl1zNKTV5YnSy99o3zQ0cai9PX8u/CIv+1I3spfxzYe7tf5IvSiycqQLPGPOtbxjcoRnY6j8tc9aPXTtegxK4d8szwZeuWf4YFWv4jdlItSRo50E2/0mJWRkSNbJGPJbW97201cpHPUzTZFYV62bFm1bt26EA/0GnC05V2/jz5StH591HkXW5YvX16tXbs2ZAuys3rNxv5sudiWTaOqx2b3JrlcNlM08MdsbMm0MWizdSyg/mYk47blBje4QfXBD36w+t73vldttdVW1RVXXJFq+yibwSzrL8gff0nbz6QVK1ZUV155pW0JgrbQy4U6uPvuu1c//vGPqyOOOCJo9VVkXdvY1NRUuN+XQlmcs/RdbWFCZ/369eH2gj1Z3bL0fduSGV+oPKPHrrbg+5jQArtognZSbcn68XHbAqbZeglPlz6piy1Z3bL0GfupwyeffHK11157VatXr07XsaxuWfqMLdAqISfbXrK6ZenRDR4SuEdTXc7Ur3/964qB0OWXXz6TWVtGOJs99tij+uUvfxnmWbVqVQkaMzP7VCD0iiYaXBdb9txzz7QtBPN0hpFE4Wy55ZYpWyiklStXpsuFhpcpF2RgR9YWgoBopcMWyv+yyy4L1xfqyd57712dfvrpxZFGcMYW+CibSEJ/6hhBQNQW8s3WSxwH5ZKxhXqMTky0RJJsWbNmTSoQ6mrLL37xi4oBYSRNmi0XXnhh9Y1vfGOmzl966aXheomPIWUGKfBQPpk6BrYZX4lOlGWmjS0mW/Ax/CaxXPB9mf41Y8sPfvCD6kc/+lH1u9/9rtie8X30SRk/Th3bZZddKsYM0bZPAMzkN3KiqS8/vtNOO1VnnnlmuH/BZibzMrb05ft23HHH6uyzz07bkqmXfdmy/fbbV+eee27KJ6NbxhbKkXZGfxlNXcaw2223XXX++edHRZTy68uWzBgWA7bddtvqoosuCvtY8M2OYfEVtDPGZNGUHcOS79Zbb13acdu4V302YzfKMtO/4vv4ZW3JjGGxhX4fO6JjRfFkbenix+mPM3pRltSbjI+tj2GnqDz6kVE0QQtflIfBE/SZlOWRThm9pE+GR3qpsiuPYUfoxDOMpnm9L1uwG/262BLlwRbZH60vokM/eCNJdNFBLfqTvzCIyIBGtkTpu9iCTtjBMZLqtkhehK+rLThq4d0mR3QZW6TXOGy54IILqsc//vEFXybmTj311DDODIRIUSdNuWgglKmXOOmMU0cOq3WZiQY6KPBlUBfBWbYwEIoG2/B0sWW33XYrE3PROkN9hDa6Qo1eGgiN25Zdd901HQRmbKE+UscY1ETxwn61Mc6jiXqCjKgc6CQnKkP+ItNepFMXWySvTb8utsDThx9XuXSxJdL2wUZ5Y1Mk1etYVIbkICPKg178MjyyQceIPZIRoRVNlkf0GVvgEZ/kth1nwxMtF+iwI2MLtFlb4KGuZdp+1H7lWdcraj88+rWVh+6jFynq+6CV/RyjSRhHbYniVZcvW7J6qd7U8xp1LlugmRpF6HtGwAgYgcWIAE4TR8hRv4id0JJ0jPIgS51jG4/0yciQTuJtkyF69OIXScpbxyxPhF409bLRtVFH0WdsgZZfZvCQsR19Ra/jKBt0D1rppms+GgEjYASMgBEwAsMRiI1khvP7jhEwAkbACBgBI2AEjIARMAJGwAgYgXlBwAHtvMBuoUbACBgBI2AEjIARMAJGwAgYASMwWwQc0M4WQfMbASNgBIyAETACRsAIGAEjYASMwLwg4IB2XmC3UCNgBIyAETACRsAIGAEjYASMgBGYLQIOaGeLoPmNgBEwAkbACBgBI2AEjIARMAJGYF4QcEA7L7BbqBEwAkbACBgBI2AEjIARMAJGwAjMFgEHtLNF0PxGwAgYASNgBIyAETACRsAIGAEjMC8IOKCdF9gt1AgYASNgBIyAETACRsAIGAEjYARmi8DU0qVLq02bNlXLli0rH4GPZKiP10d5yJ+ELPG2yYFHerXR1u+Lh4/TRxL6QJu1BT54IqlPW9BnamoqhDN6kbrYgoxMypbLhg0bSvZgHKkz5E859mUL9kfr2MaNG1O2QNzVFtoYv2gCty62wBOVI5wy7QX9M7ZgR1db0KsPWyL1GLtlSxQv8YBzxhbpE5WDXiSwEm+5MOKfrraQZdYW7I/WZdnSxV9E8cIG5GTLRe2lD1uQEU192YL9XcolYws2q1yidTlbLsK1iy0Z34ccycjaQl2WXdJ32FF00fqvNtbVFskbpk/zel+2RDFGP5VLU9dRf4NbxhZkgFWXculii8p1lA2619WWcfo+dCN/fm32y1Zos7ao/mZsgSdbZ2hf0k24tx1FLx3b6EU3bluUf7Quoze2iK8EtFwElGzK8lBQCM+ktgo3KK+sXuSR5Zl0W1QBB+HTvLaYbJFDaNo46u9x1zGVBXVM56P00b0utiAj28YydV/6wxPFTTxRetm/mGzps41Fce5aLpNsS6YuU8/6sAWcu7SXSbQFzPqwBcyi9RidSFl6yYjyqb1kykU8URlXWXIVxhk/jhz0kjzlM+woukm2ZZjuzet92kI5ZsoF+kzZT7ot1BdN0DfLYdjfXepYhge52XIB54wM0eo4zNb69S5lCT98mToDLXpNYrl0sSXLA2Yql6m1a9dWK1asqK644oqwM9Tq2ZVXXhniwQGsWrWqWrduXSVelBiV4Fm9enWFjGgCiJUrV6ZtQdZisQWssCXSIFQu69evr/hFUpdyIV/Kv2sdi9pC2dOoqWeRJFvWrFmT6qSytsjRRMsF3WmTXWxBBnZF02xskRNpk7V8+fJCgq+JJNVL6IVdhG+x2KJ6SVlGEzz84ImWC7OgtC3qfySpXMbtx5FD6mILPPQDbUm2jNv3IYc6nLGF2WbKMGMLvo++NevHs74Pe7K2YE/Wli6+L2tLtlwoE9pM1BbqYFc/ji0Z30fZo1ekr0Qv6PDLGVv68uOyJdKO+7Yl4/vQjfYY9a/QdxnD9uHH0Q0fQ32Rf+baqDQbW6L1sosfR2cwo1za4hHZCu1WW22VGsPi97r4vowfxxbaMvUsOu6FJztW6sP3oReJepNpM3VbenmGNuqYrjLnqn+78NT5x3UuvXQcl5zZ5BvVLUo3SJcMb4ZWsrI8WXrJ6XrsW15Uzy569cUTtWE2dBlbMrSz0QnejKwM7Wz1yvB30asLT0anJm1UXpSumX/2765y4IvyZmiz+s8VfcaWuZIZySeqVz2vLjx1/kk4Xww29IljX3j1IaerjK58XcopKitK10WHueKJ6ig6HaPyoc/yRPNu0vUlpym37W/p1UtA26aM7xsBI2AEjIARMAJGwAgYASNgBIyAEcgi4IA2i5jpjYARMAJGwAgYASNgBIyAETACRmAiEHBAOxHFYCWMgBEwAkbACBgBI2AEjIARMAJGIIuAA9osYqY3AkbACBgBI2AEjIARMAJGwAgYgYlAwAHtRBSDlTACRsAIGAEjYASMgBEwAkbACBiBLAIOaLOImd4IGAEjYASMgBEwAkbACBgBI2AEJgIBB7QTUQxWwggYASNgBIyAETACRsAIGAEjYASyCDigzSJmeiNgBIyAETACRsAIGAEjYASMgBGYCAR6CWg3bdqUNrYLT1pIBwbppWOHLMbOEtUtSjdI4Qxvhlaysjyi11H5jOs4TjmzybsLb1884yoL8pUNOkZkZWgj+Y2iycjK0I6SOdf3uujVhWc2ekflRelmowu8XeXAF+XN0M7Wniy/bNCxjT9K15ZP9H4XeV14ovr0RbcYbOgLK+T0hdds5ER5o3RNfLvyNfOJ/B2VFaWLyBwXTVRH0ekY1Qf6LE807yZdVE6Urpl/178lb2r58uUFjFWrVoXz2rBhQ6FduXJltWTJkjDfsmXLKn7RhJLIyCR4srZgw2KwZePGjQUq7M+Uy9TUVMUvmvooF9lCuWyxRXzepYstK1asiJpe6LJ1rKstS5curfhFE3r1ZQt1LFMu2JBty/imTMqWC/SkSbUlgxe2yI9l6gz2Z+RAP24/rnJBr6wtGd+PLV38RQYvbKGdTKotWX+BLV3aS7Zc+vB9k2xL1veBF3Us65Oz5UKbydR/6LvakhnDIKcPW7K+D/+SxQuf0cWWLE/WFuixRf4ZzNtSX7Zk/Th1knGZxmbD7JCt+MlJtqWLv8zWFzDK8mT1oo5l2329XKYIThG6fv36YWV6tesKaOGJCqfCwacKcrVMB1yAJ6MXuvRlS6Qx1E3K2gJvlkeNM1suk25LtJMGry62jLte1sslagv1mKS2Vv5o+Qf7bUvcj8kX0V4WernUbdF5S3WZCRazdaxLG8v4cekPj87bbKH8+GXkdPUXGRnojQ2LzZZoe+mzXLK+T+UyTlv68uO0SepY1JYuY6W+bFG5RMeWk2yLyqXNf+l+n7Zk/bhsifrkLrb05S/wFfoJ+0FH2ao+MuP7+7KFIBD9MrplY4u+bEEO9aarLSWgxbh169aFg9N64SI8kjR4EG+Eh4LKGIYuXWzJOlDZEtWN/LvYAk9f5ZK1hXJUY28rS8olawvOk4ReVPJIosNVWUbo6+UStYV8s2XZ1RZ1IBlbKBfJi/D1YYvKL1PHaGPjtkVlThvTYK0Ns662UCbj9H3Ywg+MZVebLbRL7ImWC/mpXMZtC7IytlCPZT+8kdSHH0cP6RUtF/TqUi5d/UVUL9mSaS9dbOnLj6tc1Kbb6gx6ZcsFnq7lkvHjXWxBt8z4QjhF/QU6yV9kbBFe0bEleo3bFuqG/EXG98mWtrql+9iCnEy59OXHZUvUX6BX1pY+/DhYU4bU47aylK3QYk+mXLC9i79QW1adaDtig+xpo9V9cM7Y0tX3ZW1BDjhHfQz21MewsUhBKPhoBIyAETACRsAIGAEjYASMgBEwAkZgQhBwQDshBWE1jIARMAJGwAgYASNgBIyAETACRiCHgAPaHF6mNgJGwAgYASNgBIyAETACRsAIGIEJQcAB7YQUhNUwAkbACBgBI2AEjIARMAJGwAgYgRwCDmhzeJnaCBgBI2AEjIARMAJGwAgYASNgBCYEAQe0E1IQVsMIGAEjYASMgBEwAkbACBgBI2AEcgg4oM3hZWojYASMgBEwAkbACBgBI2AEjIARmBAEHNBOSEFYDSNgBIyAETACRsAIGAEjYASMgBHIIeCANoeXqY2AETACRsAIGAEjYASMgBEwAkZgQhCY2rRp04wq9fOZiwNO6nT18wGkV7s0TvolS5bMyIvKEZ2OMxm0nECf5SHLPnj6kjFOOfW86+ctxVLwzdArvyiP6liUvl7m8GT46rzSs+3YhwzpNW5bJKfN5vr9jE512vp5Pb9h513ou/AMk9+8Xs+7ft6kG/R3lp48xs1D/voN0nnYtaxeXWR0sT8rpwt9H3oJ9yjOotNR/JFjHzzIyMrJ0k9yuXTVLVJ+dZosZll6ycrydaHvwiP92o71vOvnbXzcz9JneZS/jm06aayUkaO8dWyTUb8/qTxZvaDP8Ig+ytOlXIRzVIboOWZ4oEW/DE9dxtTKlSsL8+rVq+s6jDzfuHFjEbpq1apyHEn8t5souHz58vKL0EMDT0avLjyyBTn1gh6lI3otW7YsbQt4ZVLWfmwhZW2Zmpoq9kR1Q6++bEHOFlvENhKgVxdbaAOZNJtyydiydOnSVP1Hr0m1BXwzbRlbVqxYkSmWtL9AhvTKlIt4osr1ZQv+C4zHbUsXP57xF+CFDVtuueXYbenDj/dlSxfflykX6ju29FHH+vB9khFtL9hP3cz6McmBP5KQkfXjyMj0lejRxRb4svYP8uMbNmyo+N3whjesrnOd61Rbb711hQ2MYYTXOeecU/6mXrel+bRllG7onsGLvPqyJev78PvUMfSLpr5syfo+6iS6acw8zB7ZKrszZSneLE8XW+DhF019lYvaclQv6iTjmGgsRr51W6bWrFlTArMrrrginAmOiEyuvPLKEA+0OOi1a9e2ViAZDg+VCBnRBAhU1D5sWb9+fXHIEd36tAV9sD/SSatcxm0LOlH+2XKBj/KP2AItDhcHhT2RpHKhDXAeTVlb5DQXky2UJc4qkigX8F23bl2EvNBm/QUZdy2XjC04XNI4bVG9zPg+ePhlbcFnUv8jifzBGNvpAyKpL1vozPETWVvG7fu6lAu20Lai/lLlQplkfV+mjlHe+LJMHcMO7Inagoy+/Dh49WEL5ZPxF4x7sn0StmT6F9oKvixTLnPh+8ACPR/5yEdWz33uc6vrX//6ZZxHmaOTsLr88suriy++uDrhhBOqY489tlwfNg7oaksX35cZw1KXCWYybazLGLYP34ctjK2xhTKKpEm2BcxoY239mGzFbsoy016yvg9ZYJwZw1IO4Izfj/oYeLJjpawtyMj6cXiwnfacaTN1W0pIDyAqODJtS6LVsY2+fj/Lk6VHVoZHtDrWdW07j/KITse2fOv3Mzx12vp5Pb9h51H6Ol39fFi+XKd+kaL0hfhv/8CT5YvSi66LjIw9s5Ej3jomg87rdPXzQbSDrkV56nT180F56prodNT1YUfRcdT5MNpB17M8XeREZdTp6ueD9G5ey9CLlqPOm/k1/4Yu6/vJIyNDMqM6KX8dM3zikczoMSpDdDpm8ocnylenq5+3yetDBjpk5NR1ztgiOXX+YefKd9x6SU5GN9HWeYfZIVrdj/LU6bvwiD96jMoQHUd+l156afWoRz2qOvzww6vtt9+++uxnP1t95StfqX7yk59UZ511VnXZZZeVgTartre61a2qfffdtzr44IOrQw89tDrqqKOqd7zjHSUI13hC+tbl6FrkKL0itHUayatfG3WeoZdtGR7JzvJA3xePdIwes3qRb4ZHtrfx6H7zGLVDdOLX323HLD35ZXky9HXa+nmbHV31ysqQnPgadURz0xgBI2AEjIARMAJGwAgYgb8hwOruhz70oep+97tfWXE98sgjN8OGFbNrXeta5doFF1xQfeMb3yi/V77yldXjHve46g1veEP1iEc8ovwuueSSzXj9hxEwAkYABGIPJxorI2AEjIARMAJGwAgYASOQQIAtgZ/61KfKquv973//6uUvf3mCu6re9a53Vbe97W3LNkQCXVZ39RhPKiMTGwEjsKgRcEC7qIvXxhkBI2AEjIARMAJGoF8E2D7L83Af+MAHqm222aZsIT711FPLs3UZTXgWjxdE3fve965+8YtfVF//+tdLfpk8TGsEjMDiR8AB7eIvY1toBIyAETACRsAIGIHeEODFLgcccEB1y1vesnrQgx6UetHLICW32mqr6sADD6wuvPDCiq3ImRfHDMrP14yAEVhcCPgZ2sVVnrbGCBgBI2AEjIARMALzisDNb37zEng+9alPrf7617+W1drZKsRbhh/72MdWJ598cvXxj3+8+ta3vjUyX7Ym3+AGN6iufe1rlzeH82IqXkClt6nOVp9h/LwRl8+Otb1Fdxh/8zr58QPHYXlyn6D/vPPOS78gqCnPfxuBhYiAV2gXYqlZZyNgBIyAETACRsAITCgChxxySHX22WdXn/nMZ0YGnRn12cJ85plnVh/84Aer173udSO3L/Ppn9e+9rXViSeeWH3pS1+qvvCFL1Rf/OIXq5NOOqnacccdZ76+kJEfoeXzKU94whOqb3/726lPqYzKm5Vu3gjNG6AHJQJ0XprFs8o8s+xkBK6JCDigvSaWum02AkbACBgBI2AEjMAYECCo22+//aqXvOQlQ1cUZyP26KOPrnbeeefqxje+8cBs+OzH85///PLZH4LY/fffv3r4wx9evfOd7ywrtu973/sqVnu7pLZPihB0swr8zW9+82pBM7yj+Ifd4/ukrL6S97DEm6JZpdWnf4bR+boRWKwIeMvxYi1Z22UEjIARMAJGwAgYgR4RYEvsXe961yKRb80SjM11YssxK7X3ute9ymeAeHFUPRHc8YkgvnFLUL1+/fpy+zvf+U510UUXldXdPffcs/rZz342EwCyyrlq1aqZZ3PrgaG2+RJw8nkhnuPlfp1GwerSpUurz33uc+W33XbbzajFfbYh8/vzn/+8GS9E3CdgVT71vGcyqZ2IjqOTETAC/myP64ARMAJGwAgYASNgBIzAHCBA8Mjq7He/+93y3OocZHm1LPiuLdtrefPxoJVWgkFoeLsy51dccUVZKSbw5a3Lz3jGMyp9z5YA9KUvfWl1+umnV3/84x+rX/7yl9Vb3/rWwk+Qu9dee1Xnnntudc973rP6zW9+U/3oRz8q25bZ9gyvEtuMTzvttIpnh5/2tKeVc+m2zz77VF/+8pfLFmze1HzKKaeUbcnwQnOXu9yl+trXvlaef/3DH/5QtkcTcCsQlwwduc52auT96U9/Knnf4x73GMtquGT6aAQmHYGyf2HcMzxd8q/zcD7s1wS4zte8Nxd/K38d5yLPuc4jqht0UdrZ6NhFRhcedOzKl7WvLzkZvdCpi1598WRs6YO2i91d9crIytB21acLXxe9uvB00S3L05deXeXAF+XN0GZxmi29bNBxtvnNNX8XvbrwZPQed/7oMk4ZrGbe5ja3KQFiPeDLYNBGS7D6/e9/v9p7770HBn1sef7xj39cnjnlOd63vOUt1R3ucIeybZd7n/jEJ8qngMDh4IMPLr9jjjmm0B9xxBHVQx7ykOrNb35zCYS1zZcg9/3vf38JRC+44ILyXV1WdEkEzQS8vHSKoJfnWLfddtuCM/eQf73rXa+sKPOSKnR62cteVrGSfLOb3az66Ec/WlaOCYbveMc7Fn4CYJ6ZRcd6eaE/Oh500EHVRz7ykfIW6U9/+tPFPgLdOu0gHNvuD+LhWle+YfkNup6VkaUfJHOc19Avq2MX+ixPV5v7kpPVT3pN7bTTTqUx6kIkI2hxVLvsskuEvNDQqDMycIrMqjE7dutb37raddddi4MgH970ppkyZtXYwoFjIGXloBMOa5y2oBcymO3LpCwPtmA/tnCMJNFlyiarF3pkeaSPbYlvJ6IshVuk7GdTLrRH1Z02WaLL6NaXLchZDLaoLBeLLfQvi8UWVoX6sIU6kGljWZ9M/llb4Mm25S7+YjHZksULjAnwMn3lOMuFcduNbnSj6vzzzw/3EeiTSZT373//+xIk3uQmNykrsc26z3O2rKyyWsyKKW9b/stf/lK+ZfvJT36yvCyK1dHDDz+8rLjyfC1vQ/785z9f7bHHHtWTn/zk6m1ve1sJKhlfvve9762OO+64MvblGdwTTjihfI6Ilz/hr+50pzuVPK973euWfBjvkd997nOfihVanunlDcQ77LBDdeSRR1ZvfOMbqzvf+c4leEavF7/4xSWfiy++uNw/9thjq8c97nEl+CYfEi+z4lnaxz/+8dVXv/rV6vjjjy/bpFmtJqAGd/Bo+6RRlzqGjQTpmZRtl13afhdbonqpTtG2iDMyY/iutoCv5EawxhboszwZW9Aji3Of9suWqd/+9rflGQecUDQRbNLgf/3rX4cdFjNZOA89izBMFvfZJkLjfOELX1jtPP3gP1sqeGaBRkqh0Wh5RoP7OLU3velNZcsFW0iodLzdLpqQx9aOrC3Mkg3bDjJINg/rg3G00lEZwCxrCxMAZ5xxRrhcmEkEA+yJpj5soYJiC+VCg42kPmxBD+zPlEtXW+DTlqWI/dSXNWvWpJxuH7bwDBX1ftJsQSfa/q9+9asykIhgrOfBwDmaor6vnl+2XLAFn5yxheAEP5O1pYvvy7QXbGGlImMLA3oGXG0DuTrGlEsXWzJ+HHm77bbb2G3py/cxsMMng3UkEQhQNpnxRVdbKHsNbCK6MZnPc5jR/qWLLX35PgIdVv2itlB+tP9MuUR932WXXRYe50TKaRQN9lIft99++6vZwviMsSFvQ956662ru9/97tVjHvOYskDC6usDH/jA8owtz8TyrOsrXvGKGfzID4zInzEmZU8wy5Zk6hjP3kJPwPn2t7+9HAlkX/SiF5Xxqj5TxNiVABM/+573vGdmzMi4m9VlyuCJT3xikfX0pz+94Kay4Ug/wHiO/Ei8bIr2hI/kk0WUOXmQ/j97dwJ33TXdD/z+26gWNUvCv0hFSDRBUUNMMVTwT4jQmBISoVFEiCSmDC8RQQ0hUVRJRMxRQw0xJkJjKBUxpWqItqL61+L/MZRO/+e7Wa/j5Nx79z7Pc+/7PO+79vu577n3nD2s9dv7rGevvdZeW/Crww47bKLuefJ2jOyjzNp/XPuOjZnDjpHj5IW+bpmP0zFgNK8MnCVjzBiZh2vJ/Iv/xvIyZj6Oj9r51Zh+GSP79EvrHFYZ9LXIpe5caTsvTby4KqpN8ipXW4ZgkH9W0in3vOc9i3vG9ttvPznppJPKWWMUVQzG4AMuxq1U7bfffkWgcAEhTIRnn9fOEA1jeInBPlRf9558+PepTXCNMrUYR90tvMiLvlrMgpcoF23Ouo7hJXjWTi1uka9W4I7hBZ/aqcVL/tXwUttO9KH80Z6256X1ykvQtUheYCbBrBbnGGO1+btjbF5fdJ8H/917s76P5aW1HfnHlKnFC4940e8t/SLvWLoCu1n4Bl3B/7y8/ectvAQfLZjJi4/aMvJGO7X842lZ/aKtVjmOnxZ5EbwoV5PkC8xq8sujP/DR0i/y+iySF/UHP7XtBE7zeDGR//a3vz2h4BlbtfXXYiofTLnjsnhqr88LBZZ1lRL60Y9+tOS3R9XRNyIjc+elQLLOSqzJ9s6qB708/5Qzr7RYIFE0ol8oROo/8cQTJxZGKLcsu+gxPw2eXc1lJcoQRVKK90977qlb++4rb6Ht05/+9OQLX/hCabOLvbmv3xYiox9Lpb/4z715faS8z7x83XqjTPDWfTb0Xb7WMsFPC13yws2nNgVt89qJOoMu/NTyH/jOa6NLszJSreyTN/hvbaeVl+BHmzUpeGmlC76tZSJ/nSSvoX6VeTBBuHDjIGxYYe074DJixU8HA8jHd8JBpLhwCXHW2amnnlo29weQqyQpiycCiUAikAgkAolAIpAIVCJg/vWZz3xmcqMb3WiuR15llZfJxrhx61vfulhKKYD9ZD5pH++jHvWozTS4hzZKp/IUQtZPiVLJkvviF7+4WHU/8pGPFM9Fc8yhZALtWB57ZnkK2h/LjTms2FFGe4JISXe6050KLeavPIO+9KUvFYzMcSlOb3jDG0owqpe+9KXFmqsM92N0dxNrrTr6+N7ylrfcbPTp5s/vicC2gsC6UWi5bRx66KHFQvvkJz+5vLB94TDUKeE2J0qdKG8Olz7jjDMuIwSGyua9RCARSAQSgUQgEUgEEoG1QYCC6bgewY3Cq25tav5lLZRR3nksriy0/UTRpKyKHmwvLDp8WG4FhGI1RSPFlCuwgFG2sVFABWkSZMmRQOqZllhUGVYe9KAHlbpZdPsJbRGA6jnPeU6hFT72x2r7m9/8ZnEVjn2xLLU+IhjbUxsWwm693I61/ZCHPKQoxlztbc/CK0U3UyKwrSKwxRVaAuGII44owsPB18KZD73ENR0kUNT+++9fVuaOPvroYtmtKZd5EoFEIBFIBBKBRCARSARWhwBFjXsvY4MtZBS0tU6///u/X/amf+ADHxhUaLUpejFLq320YrDYW0qBtA+cAYTSymjy3Oc+d+JcWxZXe2Mvuuiiyd/+7d+W8vbnUXKl/rzU7+c973nFtZpF2n7WSOrFvzxoYcW1l9Z+XDQI8oQGz9BBwaXAeiaP44gYdlh31UEx5uaMFt8POuigcmSPgFSUW1vt0H/1q189SNhmrhYqWhV5+037/TkEGOu48QFzbuB9a/lQmbiHptYFHePBJ9M4BC7rqzGuntGl9tprr8njH//4Ijwos0PuI7WVE6RebhHgzj777BLWnUDLlAgkAolAIpAIJAKJQCKweAQoALaBsUre5ja3WfMG7X9lqewqkf1G7It92MMeVgJGiTJMibQ3lvLJImovKksvt2KGkJ1WApBSlM1D5cMDBdJeVi7JEeE3FCHzTWfann766WXeKo9n5rDivzzjGc8o+2/ds79WJGIndlBYKM7KS9qR/0UvelGxFFOaRDB2jYBPlCp5wiNRcCbRk3ffffcSNfmCCy7YHGeGMt2iePVx22i/W5VG/NUGUJLXooU+am2HQtuqaLe2gb5Mv0Rgiyq0Aj1ZlTr33HPLJ17wX5I37pvVNitW9uTajzvPdZkAsh9jVj5CSL1jB5xIevZ0EKas0v1E6InsfMlK1EWuMkNYEMCEGN6sFmVKBBKBRCARSAQSgURgPSFAobKNTFThe93rXpP3vOc9my2dq6HTPEl8FdGF1c3dlrLRTZRUiqZn6OgqFuZY5lbu+4Q1rJsPvRRZbXWTcurq3+/m6X+ngHaVp1Bwwuob+bWvXs+1Y+tcTQpaYBF1m8dyR6Zgby1JX+J1vfKENrF+uhb9tcJe3cbpaox9a0XLeq9niym0Xj6b5O1dEEVuSIEbC566rODZbE+AccWYVT9F0aHZDryWCJsQcCEwDFZnhnFdGZNufvObl5U8+xwiEEG3HniwKguEJWJen17PBR44Y2V/sCMtBDZAY6ZEIBFIBBKBRCARSATWEwKskCyL5jTnnXdesSCuds6ivOBJb33rW4uSPKTgmCvttGJtnXX0R9AR87sa3ELJbSlDCWkxgqDLBw+1qc+L+WxL+dp2tlQ+yqxzf83P995778ssYGwpurrtst47S5g+47i5tUrGmuOmzjrrrGKNFyQs03QEtphCa9Uq9jF44eOlnE5q2xMD4fWvf/1k06ZNRRG1cjItsZhyOYmVPtHiuBk4+Jo1VCIgYjCpe5ZQ86zPjxWWWGWaRof704Sf+qLNuM6qJ58lAolAIpAIJAKJQCKwJRCgbNobyquMyy1lxDxo7PzF8Y1vfvObiwvxvvvuO9Vap13GklkpXHdZc2sTRZFnXFh1a8o5usjRP7WJ0szCak7an0NOq8O8VbkuL1e84hWnZd9w9y0KCKzFTbxv6FkvzFg8oTNwc1/rRCcw9se+N2tNz3qub4sptFZbdt5558mZZ55Z/eK2AOkFFzDA4dk247NoTkuUVQdmhwBxTplkxcU+Dclg8kLZY6E+A+zLX/5y2bMb5Vy5FXtOILHECjAw5MpMof+DP/iDsi/jU5/6VKmvNNT5z8tLuRaRDx3oyZQIJAKJQCKQCCQCicB6RsCcydxKFGARhe0Ltaf1q1/96mbjQQ39lMgdd9xx8sY3vrFE8xV92FxolnIzzz0znse1hg558RTzvdoyLW2Yt8rvU9uOvMq1KNo1tK+XPPr5wgsv3IwJPs2JzcUp89/61rfKcxj0k7yCgO22224FH0G37I+OvDC2D3mHHXYoHp0RlFY/3+AGNyjjl0LpmCUenxYNlI/E/d2iBV3AnnGenJJ26RE3uclNyl5tsX2U0566BfjyjKFNMFsBy4ImZXlhOmf5O9/5TqmvdiyUzNvwf1tMoTUgraSJJreo5FBqA55L8yyFtqZ9q3OstepSJ0FtVeaZz3xmcYcwSB2yLSCVvH4TxM41s9m/n4SSFzSAQk/xjsEc+QgpAtxZY7EySKk12DMlAolAIpAIJAKJQCKw3hEwybcvlbVWkM5TTz21BIuap7SZQ5nvUIh5y5n/sLyyeM5SZtc7HklfGwKMP6JE0xkOOOCAEt2aC7vxw2vSfNzYMka6ip85utg4rLvuU0bdO/zww8tcnqJq/r3XSmBaRiftUJwdB2XsOX2FsnrTm950s+KM8n322afUJc+mFQ9Qgb5sJUSTo6q4HPvNQzTGqbYdSypeEOWZLqFuz3luOgMZD3iiG4hwTT9Co8WbWe7zbWhu3bm3A6iOMShqUwyaeQKpXx+lLcqKOGcQWZlYVBL+HH/XvOY1y0AZagc9Pl1eQrl0dd9LQCBbUeGa7Owz+1nf+973Th7xiEdMXv3qVxdLq2jNFFwvlsEoMIGDvUXBi0TJtYHf3hJ+8fLLG4pqtO0II9EBn/rUp5Z6bnjDG5YXBC1o6tIbdQe2Q88iz9A1+Bx6NnTPeIkXdej50L3WMYZPCS+ByVC93Xvdvuzen/V9LC/oqk1jeFH32H6pxSvoXzQv3XEZbdZcjbFF8qLvJfzXjuexvOAjytbwHnTV5sWL+lt4CWxb+h89rbygraWNsf0S/NdiFry00taSXxtBV+0YW02/tNAG51qaAtNl8KKNaCfanXeNMRZjZ15+z6ONwHteGfmlFozlV39LmeiXWrq0MZaXsfM+bdYmY8y85/73v//kj//4j4tCYd5kLywF9+KLL558+9vfLpN2c0JzKwv5lAPzLdbZl73sZUUJ5ircxzL6ZRov5lbad42/xX6rJ3Cr5UWfRHs1ZVr7Xt36fxovQ23GOOnjMpS3e0+/jOGl5R1r5QU9Pl1e9BUeg09zYh6Vzg3+3ve+N3niE59YLP+Uwi5ulEGByT72sY9NuKhL5ubG4Fve8pYyt7Y/1Rhz/BGPSXuzzc2POuqo0g8UU5G63/a2t032WlF845gm7cPPsVSPecxjCm0hSwWANeenvFJO3X/Vq141efnLX168N7XNqox+yuphhx1WjF4UYhG3n/WsZ5W8DF6UXm3zDpW6uJQbK/+pH85DzyJP/9raL4F9SxvaVK6lDF76/d+nfeh3tFEUWhnixlDm/r14CZSJ7/08Q7+jwz2jxPlthYX5fRGJWzD6mPWn8Rf0d3kJOqMzdL4Ix14KIdxtALeawwWBW4H8DuwmML0gBLVVSUJbHV4sST1WabjdGODHHXfcZnfkoMNV3V5OlttXvOIVE/shuDRsWlkNsoqjvS69gV130EV98WzWVbkoOytf99k0PLt5+t9bysQfHmVaaNuaeIFfC2byx9j1vSa1CsKx/YKW9cYL3iV/BFvGmDLrlRd0tY6BRfPSilf0yzJ4WbS8wAtZvDXwoh/xsoz3ZUy/tI776JdFv/ut41/+Vl7wYIytZ16ckWoyb370wAc+cHLkkUeWuRBeu/z6G2POxKp1xkoQTIqA3/P2hQ7JMfXaBsaqRmHhIgojisPnPve5yfve975imIB5yB3fp6UundPydO9Hv3Tv1Xwf4mVeudYyaGsZL8FLDU5dWlvpUrZbpo85a6VFjic96UmTV77ylZPXvOY1ZV7cVWbVYRzJK5irILGOTXrWirJIQaZzmItzhbegQnHk+mue7YgnCyeSvJRiNLDmvvSlLy16AK9L83tjNPZ1lwIr/+26664lP4MVGnxYhS3QcF3mSuxsZPoC5VcEcMYwCz4UXEr6ppW5vjb9Pu2000qgWPV3cYn29Iu8y+6XaH/edYjmaWXwEXJ5Wp7+fXxHG9tRnqyKtWxC1xESU7nG5yUNUmANjihrIHQJmVfHmOfBpLbQOpTQg44uLzCR0BvlKK9eAMcMGZA+hKyVFnlYg7kcH3/88cVt4Utf+tLkkpUjeLwAlGA4yc9iq01uB7HRW/sGveRZnJGmnN/q99wqkhT89LGXV/IS1wiq6Bd0+dQkZSwQtLpA6P+xY6yWF67ZMGjlBb74qk3L4kWfG4M1Kfpl0bzEONX/hE9Nij8O8V7NKxPjUv5or6aMcdkyxqLu9cpLyzsGMx/9X9svoZgo05clQ3hHv3Tl+FC+7j1lWuWFMtIyeFm07MOLcdbCi79b+rClX5Yh+4KXlvcFH8aZMrVjDC8wW7Ts08Z65cXf+JBP3fdp2veYJ9T8rVSHfORybb8os5ZynHLAs43nmbmUOSjXUNYzvFMsxCDBl/dh1tjp8+K9Ue/RRx89ufvd717eJdavN73pTcUIoU5ee/ZVsvY54YKl2PYw+cirfjL2+3PYfp6h35Rw9NQmfBr/LX/HliHH0a+P8BLyeR5PY3gZkn1dOaBOfcaizzDkaE5bC9/1rncVI1DM+YNe7sPclc3NTznllDI3pwAbC8aNGDs+Er78PTBv94zssiXSeDQmtE2R5YrMavuEJzyh1BPvRalk5T8eBuhQTyRKKktrBCujpMZ8KOSqNijqFlu0H8lZy/F7aCyhC91dnKLstGvrHHYZchytsMDPEJ81vPwStWm51+A+AvuJINUB/OIXlay6+KPwwx/+sKmJoDeuBrSVnYMPPris4lgZEviJ9TSELSFEMBKUXBCsrHAZtkpDeY2OkufZz3528dN/+MMfXuiLdoJIAlfqvyhWc2pSv75pZWrzDZVvKduSN9pqLRP54xr1LOra0k5LXvS25u/yOKbsssp06Vzr78FDXGvqb8lbU9+sPC1tteSd1Wbts9r2avN12x1Tplu+9Xtte7X5Wtvv5x/bjnK1ZVvy9ulr+V1LT7fOKBPX7rOh77X5hsqOuTemvdoytfnG0L3aMluaNvMmcyaGAEExRUE2aeemyRuOtcxvyloLrSbeLGef/exny95GSu1OK0f4uMe4QKkQvOcv/uIvikJCqbWdjMXOM/MzbZqvdVMLDd1yrd9X005t2dp8fdrHluvXM+t3tBHXobz6igu6fhXQSV9TbM3Ju/1mLFDcNq1YO83B99xzzxJkycKF+/JGXByxcVjvWfF5D4Syqf2gJRZdLFIYTzwObDsMZTNo5XVqDh/BZbWDNnoBxVZ63OMeV+LxaFc+uoLth5TXXXbZZXOb8l7vetebubiFvqBR/kWm2nZq860VrdHeUhTaIaIpfLRwAmVRySqdlYvVBoSi0NrTSvBSallK1Xm/+92v1G/w3vve9y7n3QLWSiO/fBu7uSfbLywR4laGuElY+Xn6059eXoo+/z/4wQ/KKo3DtUMZtwCg7UyJQCKQCCQCiUAikAhsbQiYI41J5l0MAFyaTzjhhAljge1fLHcUZ8+6ikcoy7zhuB6HpU4E5Y9+9KPF0NJVjsbQlGXWHgH9xgWYldXCAyu+ebZE4ez2mee27dkPa3xQfBmTJHP2Cy64oFjwKcjqZQCzoGKfbLeeUuAX/4n5w4LKE1OdLPv9JJqx8o6r4oVp+yF6KcoRIZnuIE/kEwVZcKmzzz67WIPtvaUHoPOQQw4pVuJ+O/n7sghsMYWWywBlzarJopK9E5TR1QaeImQJvbvc5S5lE7hVHH7zXASs1ggWRUEVyMCGciG3DU77NqzIfP/739+8guLFMUi5LHC12bSyetQ3r1s94s5gVemMlT0ke+yxR3F3Fu2vxa1gUbhmvYlAIpAIJAKJQCKQCKwVArzpWNXGJm7MjoO8613vWvZGqs98a16Sx4fCI6ItV9Hzzz9/od6D82jK57+KgDm4RQlzZ3Ni82vKJAOR+T1LK2Wx29/0C/uvzaV5AFjccHi5U6oAAEAASURBVHQU5ZJB6rGPfWxRTm0bZLWnVBoz9nZLFGKfblKnPa+spi984QuLQSueU3C1L2DUSSedNDnooIOKizPjHcMWV2X1P/rRjy6LLXQK9NjHK6aOhRRjT73KU7jpFd6JcHmOtvI6jMC45bDhupru2iPwjne8oyiIfNsNhrVMLLP3uc99Np8N1XffndWWQWkAhXD1nZux1R4BDdCKdgorlwMviNUYbgR87Flz1SEf14SwEFNUI3kBvZj21FoVsjIjeXG1694LXvCCsl8gwohr45Of/GRUkddEIBFIBBKBRCARSAQ2PAKUFXMfk/6WxD3UUUBcNUWlbdkX3W3HfI2VT3AeSoZTKhz7Eh523bz5fXkI6BOu4/qHgkkx/fjHP14MTObmXIg///nPX0b5lJebubm6vavGFwMSxVU56R73uEcJ4iRYk0BNlExGI2XN+bXJwh/JfdsPzfNZX0Ov4Ga88847lyC37olyzFPTWbnGI/pclf/whz9cFHKGMVZhrsgMfBH0jBXZ4oyx95nPfKa45XumvUyzEdhiCi3FzUqEzf+3ve1tixuve2uRDFyDxefgFTddg2hWYva38mLwSoRZKJ8xYC+66KKyYXunFb9956CxvKKX370rKytXYmfH8olHQzeogTrVRWCHoiwAgo/kWbTvu5fKKg2LLz97L6Fy8VIb4JG/VJD/JQKJQCKQCCQCiUAisMEQMJcxZzKXavFCM3dz/IlFf1u0zMNWOy8y/zrwwAOLMmH+5cSJbkKnTzcxYMT8rHs/v68NAgxg3WQOzrgkwR3+Q8n4cH7xGSvGI6mf11ijxLKERh+WjCv/RZv98aQMr8tu0k73njKUXMqrpN1InlFOGcgs3hjz3TaCZvvI4xn340zzEVgbDXJ+O5fJER0usJLASVYyKJVrkRyho87Xvva1RfHsDpah+gVy4rYQZz0N5VlP96xI2vNBYc6UCCQCiUAikAgkAonARkbA5J5SYUJfmygdgumwiFEeuta02jr6+bRvLioyrjgnrHGsaxJF1vErXF6DTjSbP3IRpajE/X69036bn7aWmVbXtnR/nqEqsIDvrLz6z2cRqavI9uv3bNrzeTT368rfP0dgiym0mjeImPnve9/7TjZt2lQOGKaMriZZFSGIKH0E3TxlVluElzNhZw36Lk3yEWwtrjFW/bqR07r1DX2PAT1URrs2pmdKBBKBRCARSAQSgURgoyNgTsUiVZsogeaOv/u7v1vchNdCmY22zU1FQuYOKkCP7V+89mxlE0vFuaHf/e53y29zO/FQzMt44tl6Fta9qG/aVZm3vvWtJWovi92iFKtp7W8N942Dmnl+l9eWMvbAxokpi2wHfS10dfnJ7z9HoF56LAgxK18ifokcTAgce+yxo19qg0GwJRHu9tprr6Ko1ggIgaMculw7WAlOgs2nJqGLz36s8tWUQYt2YFJLV029mScRSAQSgUQgEUgEEoH1hADlbprFaohO86pDDz108ulPf3oh+wvNv+zBZCAR+TYSxZsSe7Ob3azMz2J+xzVZJFtlBPCMbWue+5iL4tF8LuZ06rr97W9fYqh41k3d3zXz2G7Zbel7LDTUzsdhI7KxuTX8Z6XoO21Qalvm4xZnfPpBX2e1px00tbjdz6pvW3u2xRVaL7azlwgCm6jtSRV9TKjr2pfYi28gOENMIKgDDjiguOPWlt/WOj35TQQSgUQgEUgEEoFEYD0gYB5oIt+i0NoidoMb3GBy2mmnbVYU15IX80dBeSTxWPpbvMw5u+mJT3xiUWAOXonbYl+v83QpJo4PEvwTvbwB//zP/7xEUY65Li+8hz70oYUHMVi0u+uuuxZLr5MuRL8Vn6VFMerSld8viwBFdT2m9UrXesRqiKbFOI73WprXSYTZxz72sRLVi+vGF7/4xcm+++5bossRCARdtw7f3SMIrLQ4GFsUMVHGnCNmL0WsgPVIWfXPoCOuq65wARXU0labb7UkjmmntUxr/i3B02rbrCk/Bodllamhf7V5Wnhpybu10tXC1xi8xpRpoWls3mXRNbYd5WrLtuQdi9dqy9Xystp2WsuPoWtMmVa6Fp1/PfLAMEGhraWNQrn99tuXueOi5nuiz/LgcyTjvIQeJ3ZQPM1D8bHXiqeg4EVh3RMwlNIqgi0rL8UV3yIpU3DNaxl3KLGiNktcnj/4wQ9OrnKVq1RjM4vWWnz7dYwt16+n5ndtW7X5atpcVJ5aGiNfXGvpkb+1TG3d/XzLaqff7rzfQdd29oP60bL/IFwhWsogSFvT9kgIze14GyHTuWtw27DB/lOf+lRxB/7EJz5Rwlerh9J7m9vcpkS2s0Hfi87dQxAoCnBLcKfghSAlTOK3dqyUuT+0t3YWL8r2E4zx2JJW0y8tAl6ftKyMooswbknL4AXP+GixzC+DF21I3pfaftkIvNTiHDy3jv+h927WmGsdY91+WTQv3pdobxYP8UzeFrzkh7N32XdyLNqLsQTP6AvtxPeWdpRbhuzTjvdl0f0yRva14oWHMby0/H2Nvl+0HNfOMnhZhhxfVr+M4aVV9mlDv8Q77f2ZlSJf6xhTZ+v4r+GFu6j5F6XQO6mNoHEaH056EHPlq1/9atP8ZVp9Q/dFrkUbZVPCC6xDPnfni577rcwee+xR+BC8k1WW56DxpqwTK2yze9rTnlbmupesnD0aJ2TYD+yIGueisviazwpa6qgax9NQbtXRTYHTmH6BdW3Cuzbi70pNOXnHjLGWMuholeN40VfG3KwUvAbfLXRFv7SWaeXF3MKYqP1bid9l9Av+W+nCi3KB+6y+iWddXrbzQwU6NjogMk67xiBoKYOx7iRrWt2srjbj2yi///77F9cN+2qtbMWkkID5p3/6p8mXvvSlcvSPc6Zs0DdwdKrn83jBt5W33XbbrQgbB2r7EFxR1oHLrMXOhBXBztE9XoR4GWpBl88g7Qu/aRjEfZi1YNztl9rBXdsvQdOyeAms8NTCC/qibNA87Zq8/DycfC1ecIy8cZ2Gbfd+9F9tmegXV5/aFGO5Nn/QE+9NTbmxvGhrUbzYm08+7rViDXB4uwicO60cL0ZeSo44uPjii0ucgvPPP7+4wqGHHJMCh/Jjzn+B8aJ40XzU3dov5PYieUFXqxxXxqeFF3wYZ+uNlxgay+AFZrX8j+mXGGe1bcg/pl9WIy8C75prjLFob16Z4EVf+l6Tou5azKJfXH1mJXREva4+NXTJw/CxqLNizUfRHrIUXX5rN+js8kUB9Yk5qJguZDJFdccddywu0uad5Ig8XUz9dkTjta51rTLnVEaSx9EzN7zhDYvC33c99jzo6dIy6/sYOR78zuvLbrvaaR1jy+AFD8FPl97+9+BVXqmFF3zomyjbr3voN7yCtqHnQ/eCj9Z21isvY/sfNtt5iaw+eAlVVJMAIbWUiYEdZWe1gw6rXFw1Xv3qV5esOvmMlbOkWGNFtlNfNxk46KHU1tB1tatdbeLIIBHrCIi3ve1tZW/DF77whYkzn6z83eQmN5nsvffeZS/Dk5/85GItJpxEUjZ4YFeT0G7yiK7aBANCr4aXqDOwRVdtX8JxDC/aiJc92p92HcNLvJz417c1KYRHLc7RLy28oCP+GNXQJM8yeTEGor0a+mKM1eQdy0tMBlr6JTBeJC8xftFV285YXvRLvJ81WNf2i3ybNm0qK/d4EClTEBN7v0RCJw9txSDnnNNohf/SSy8tcQqcAV7bTtDcIsejTGsbY/qFfI2/AdHuvOtY2Vc7jqN9/LSMMXgti5dW2bcMXpYlx4MX7dUk46W1X8ytvJe1YwZNxnKrHI82xvBSO1cYK/uMsXnyFT7yoSV4mUcXZVNiqV1U0hfoiICe3X5Bc79fyds4BtIzLtHmse7pW0kf+R78uqde81BKrCuZ3k+MNjFmu8/Gyj5t+tSm6JfgY145uIXsn9eXUddYXtAGz9okr/6Zx3/wKi8e4lrTzhg5bmwEzjVtyAOz4Ke2TGu/jJF9Y3hRJnBu5UX+en+D2trXeT4D+KCDDpo861nPKtHxDjnkkLJfQfSyeJkASqkVefkjH/lIES4i0T360Y+efPazny0TRspwpkQgEUgEtgQC/oDd4Q53KB4q2uee9v73v794qpBj/gCRYyZiPEscHO/oiZvf/OaTAw88sMg1wUkov/5oy5spEUgEEoEtgQD5Qw6RW7WJcsE6KzCUwKKLSAwoJv81xySi5U/+5E+Kgv3mN7+5eADaBieY1OGHH17OquVu/M///M+DpJrMa8ciyJFHHln2BkdG92BknpopEUgEhhGoW5ocLrvh7lr5OOGEE4qC+uxnP7tYeims7ltZi0kgxggPv0OQcDkWPdn5Y6y0DtvOSeCGGwJJcCKw4REgr+zBOvvss4vXiMU2HiYiw8cetK5sMlFiXfGxTeOoo44qWznuete7Fosud71Yid7w4CQDiUAisCERsEjXotCyZLJa7rnnnguTX9e+9rWL3Pz7v//7y2BK0UWvq/mj+C8MJOaUYr+I9SIY1Fve8pZiHBEjRjCosNZ2Za46JK7FlNbb3va2E1vebK3jrXjmmWeWrXhkf6ZEIBEYRmCbstCyUOy3337lw9JKWW1JhJYIddz5HKBtIz8XvkyJQCKQCCwDAZMgyuyf/dmfTZ70pCdNXvOa1zTLMYqtrRUUWkqxGAS+52RpGT2YbSQCicAQAuQPBbGr6A3li3uCLX3jG9+Y3Pve95686U1vittrdkWHuCqUTUfwOFEjksVDrsRotngoEKk9rqIi8+SzZY0l9utf/3rxnuFKbH8sOUtRFQX5D//wD8vxPZRWR1XyrBE/RluCSJlv4u/ud7972f4mECqauouVQU9eE4FEYDLZJiy03IxvdatblSBTDuI2mYv9IK2DgNC5ZCUqnXPD7nSnO5Ujg+b54be2kfkTgUQgEegjYDJjUmVhzpYJ8QVaF+WiTlZblgDxCMjC5z//+fEor4lAIpAILB0BymFYKmsb59LrjFgK5FonFuA//uM/LrFWYrGP3KSAMmqQn/L4sOA+9alPLQpwuCeTzRTVb37zm2V7CNltMVKd3/nOdwrd6jv11FMn//Zv/zYR14WMf/CDH1wUW7EPHF9Jcf/93//9Eh05ldm17uWsb2tCYJuw0HKpEzXZfjHneY1VZrsdT6A95SlPmZx++ull9UwkUXs6uonwseK4HoQQgcylh0I+hp4o3/oHp4tHfk8EEoHxCHh3eYZ88pOfLBbaK1zhCuMrWylp8iTipgkWNzmTQ3LNJKufQraxGvRTPENfpkQgEUgEWhEwJ2EYaHE5VsZeVQE7WUWf+cxnli0XrW0P5TffEUTP/lzXWDgk41hmX/e6122eR4XVFD39uaUjhSwamjdRfCO5F0oyLxv1+a28tmyJs3AJDzLasyG5HPXlNRFIBLYRC60N9tw/TNj6AmfsICDY7Fu78MILiyClNHNHPmMlEjMB5fOyl72srNBZQewKs7FtrqYcVxfuLELH1yQC+OpXv/rmFVNHgeAtzmOrqSPzJAKJwNogYNJEjphgOb9wzKLUECXq+fSnPz055ZRTJi95yUsG3f3IOueC23vbTxbJTjrppM3BqfrP83cikAgkAjUItCq06jSfO/7444ts4pK7Vknk5JNPPrlsyWAh7cpb3ymaFEyf+N7NE3S4hy9Kqe/xcY9Ml9QRym23nIVC88ZQmONZXhOBRGAYgcsuxQ/n27B3TcYcbv3yl798c+j1tWKGEBLtmOsxRdERP7vvvns5Woj7iKMyTALt73AdEnhrRcu8eq5//euXvRi1Vh2TZ3s5HF0kCT+PP3tFMiUCicByETCxedzjHlcWzf7u7/5uTRtndWUh8I5b+OonE7Y73/nOxe0tJmGRhwwUlErE5S0p34KevCYCicDGRIAsIWtaEmVQdPf3ve99ZdGtrxi21BV5KbDmi6IWCwLal3mRL6+JQCKwvhDYqhVawm2nnXaaiFT3qle9as1dNkzguLxQEu13YNW0F43iJ1CBQAC3u93tJp/73OdK2Ha0dAWuIzUEF/AZsuDao2FlTz7f+8l9Z7FZ7VNHCF5l/I77rvbbUWoFKZDPcyuA6pCf8JZPipVBf1y06/c555xTlPaLL754MxnaVk5yNm+U95vlxh+GoAF/8nb5ly9TIpAIzEeAt4TgICyl4f42v1R9DnvARNgUqCTkSLf00L3u8/537zsZ430nB7rlQz5175Exkc99cod8CRmofvdDrk2TiX068ncikAhsDATMFcyhunKhhnJGC8flkB8f+tCHyl7U7lykpg55tEs2iShsge6BD3zgQs+4raUr8yUCiUAdAlu1QmuS9KAHPWhy7rnnXmZ/ax0883MRnO9+97vLRNAEjAsMBdeHNdPmf6Hc3bf530RM8ts5kAIIOEONewthHklZVhMh27/3ve9N/vIv/7II1xD2lE1KuvrV8YEPfKAo7p7bT2LFUjh7Ufee+9znlqh69t+JtMcS4/n+++9f3AzlsdeDdcYEFGbqhp+9xwS7oFrvfe97i1KMRsq8dpS99NJLJ6xGQs1HYrVm4eUGpBweHRniHMxUagOlvCYC8xHwTlsg8w45+mERllBtiHjMMyNkzHzKfj4J7OejcNv/hVbygfy97nWvW+pVtz1v5FU3aqgj0T7+8Y+XRTNnP9oecdhhh03OOuusIuMskDkGQwwEMk/dnpGjmRKBRGDjI2BewOI6Jin7gAc8oEQGFg/A8ThSiyy73vWuV2QQzzpzIQt8i5C1Y/jLMolAIjAfgV/rvvC+136i6kXlD7q69Uebrt378b3/nELGHc4esa6y2M232u9WB51RK7x7rAoGPa4She+v//qvizInv0Sh3GeffUpgqRe+8IXl+B8TSjSzZHp+4xvfuARsecQjHlH2rp533nmFb7zYv8tiIxDCYx7zmMnv/d7vTV7/+tcXS69zzvbYY49yHIfz0NBnMuieyaZJ4G677VYUbLQ4/uPLX/5ycY3mns2i/M53vrO4/3CXFhWaCzVl1DmXJpf2B1PC0X7wwQdPPvGJT0ze9a53lbN6/XGxB8Uk1pEglOVjjjmmKLLqZTHvYjTtO9qkac/791vyKttN/bqm/Y4y055Puz+Wtmn19e+vV7rQGalP87Tfkd91Wp6h+6351RFpqL6he4vOH232eRHlkiLHgrCIZCJJ8XT0hPc36HCNJJKoLQhkTXzIlNiGIK8FO7JJNHlRPwWcYlU9//zzi8uyumzPsBdfm9GOGATkBfno/rWuda0ilyyknbGyd5/ME6PAYpy6n/CEJ5RFuv6+36iv5oqWmnyRR/5Ica/mqkxNvsjTmn9MuTF8aCdStFlzbeWntY3IP6adGvojT7QTv2uurWVa8wcNY8q1lhmbX7mgc9pVHvOncDmelm/oftRv3kQRtRjPDdncxfyP/CE3Y34mPxnHAMGzTFwCx6CZo8XCPE+2qDfa7P+O+2t9LQ2v/Fdbb2t+9UaqbSPyKRff512jjZYy6hyTf1FlCjG9/+bxHc+jWPyuubbyUVNnP0/Q1dJWlOnXNev3mDLqa6Grn387+6fcrN1bqTGCwcoV5aZ2BUsbJistK+pdugggws5kR7sh+Ar3nf+6ZdDJ7VeYdeUWkdTrrDCWT+3hD5ahuGrTZEzo9lve8pZFmWMBpVD6LViVclx5TQRZVb/2ta8VIfunf/qnRUnEKxe+o48+erLrrruWCaEVSBNGga5goz35HeSNJnQce+yxRVBTLh/2sIeVfBRaz5UR0dTeXr9ZYrnrCLBAUTa5pahSrK1U7rLLLpvLm/SywPoj4I8H+kxYb3SjG5UgWMpoX1+8+MUvnjzvec8r9FGaKbSstiw0sxL6JH2NvpqkPVh3sZ9XTpmhyK2zynXH2Kx88Sx4MS5aeIFry3u5nnmBRSsvra61rf0if9DV0i9RphSu+E873odaWanKLi/GD+sBlzqLSS31VJBXsuDfwhPF0jvnPYqkH7QpMNx73vOeuF2u7qOLl4hyjqUg28gbMsQY5qnx0Y9+tHh0HH744Ztlt/cuxoR3Fs/asqjn+w9+8IPi+eI3ZdoCn+OKTFZh4p72tBsp6ovfs67a0K6+qU3KdNubV05+2KILFjVJGamVlzGyr4UXNAUvi35fliH7oo2thRd9uWhexozLGjlOjsS7ZRwb+y1yTlnzHMki14c//OHJM57xjOI+TGm12G5xn5eL+dYOO+xQFth4vphTfeUrXymGAV5s2o5FulLhL/7TxpAcJ4vUae7F60Q/GFvuky9+O5ZHnhoZoJ3Wdx+JrWVaZR/e8YK+2rQsXlplH17Qpo9mpeB1jJ4UZVv7pZUX75cyPrVpWf0SMraWLmPSe9/67gfG21mlUsnQHs5pRHgxAdJiLQC6yZiytckgCrq0p6wB6N6QYACCdqKMq9/obAGolj751KsdGEomX353+YSxfD6sLPe///3L4dqUV/RJsPGx/5biSvCyblAuWTnt1XUYtz9Y++23X2lP+Phoh3WXQsqCASNCnJty4I4uCS0+6mG5dZVfPVyCKdl4QYvkCr9ueco7ga/+oFv/XLJyPq/ykvz45f6jDS8b12nYECaus1IIGvmUr0nqVS5oryljjOEP/bWpOy5ryozlBU2Be0076NK30V5tmXl90a0n6m7tl1ZejNtF8xJ93sJLCNxW2acfA7suntO+d8eYctr1jqLZe7WIFNsh4DH0x9GE8OlPf3qhI+QOvniGePdgwmJL9nz2s5/dLBsou7ZO2MNvT2zwIX+MvRjn+jywpQj7jl+0WTh0ruM973nPYn1hsbVtA1boJSeibA0+IRuDl5oy2tJGjJ2aMvLic+hv1lB5vMgb2Azl6d/DCz4WLfuMRXTVymR84KeFl2XJcXgtgxf9H+O7329Dv8fIvlZe9B+Z0tIv8kuL4AUdeDC+jGG/a+XcEC+f//zny3E7PMvMs3jDUXDNj9BPnsjDIGDLGPnkvVbXNEz68kK/kmfqfuITn1g8TGyXoPQZ8/GukIexRcJWCmna++N+zfyoVPKL/8b+TYIzzGsT/mGEr5qk/5SZhudQHWPlOD5aZJ928DKP/5Dz8lowaeWlVY6PkX1wxoe/nbWpO7+oKTNWjrfKPvnx04Jzl5ftogKDtFaARCe3lAGaclG2BsQo073G91n1dOmiRBEy8tfyV0ubfNoSsIW7i2vw2KXPi3bHO96x5CHcWBoI0INXLKBBk6s9ZKwSBCJXGcdhWD103q3vVg+VYSE1eO1PI7CDDkowGiRC2yDv0uF+0GeA9t1qYEWgoiXKRf74rU5/FOQhpOM+HKxCEmDd8hHoRdvyRP64uj+U4rlrfB/KN3SvNn/kW2Qb6BvbTgtdY9vo0jeEZf/emHa6Zfr1Df3u5o/vQ/mG7rXkj7xdeTFUZ/+eclG2/6z/u5uv+72fb+h35HclF2wlmDYRGirfck8b6o93NNpWh+8+JoFkTHciRA75HX+IWSjICBO9bh2UWrIq6u/W67sFsmjHFZ94jjrIM/tsLfbxFiEPHTVEoSUfI0X++F1zrS0T+fDQkpSLT025aCeuNWXkGdtGazut70vQVstH5KulK/K18N9tI8rHvWnXyBfXafn691vokjf+fi6ynaBxkX0Z9NfwLw85QtGoyR/0u0Y7fV7Ioe9+97tl4d3il/oZDCiV4n2Y7ygbinrg3q27/z1oI9/ucY97TI477rgyn2MRphxb9DOvMh80F7KNgmcLw4SYALZKPOc5zymW45hrdduYxks3T/+7MjW0D5WL9vrPpv2G8Zgy6GtJrW3I31Im8s8rE8/j2h9js3iKMnGdlbf/rLWM/K1llsFLK13BQ1z7uEz7HfnrbdTTalrH9wkM+z+5whJuhOVaJ/XaT0aI2ffVTwYNtxYug5s2bSqCB01coQUf4DYnqYfyygWZ2x8r6Iknnljc+fBxxBFHFJc91gmugXjh2ie/zjQZFfzpjJX9ZjUDVXsiM0cicNRh0kpYT0toMTnVpr1w2pfQg36T0JaVomnt5P1EIBH4JQKiEFPkKI6LeL/IjJvd7GbFc6R18hFUKmciRxZYzbZ3TSLj0G6LQ0zi5I12QpZEPa7udZ+rz0IfCy0MTEK5FoovINgezxd1Z0oEEoGNiQAZZKF9rRN55COpn5wwx2J1GyNLySXR5gXL5CV3n/vcp9RDZknqZ0SRLPrbguVDZinjJIyHPOQhxYI8a65VKsj/EoFEoBqBrXoGQICIisk62mLCrkZvJaN6HXXxyU9+sghNkzeWCB+BT0QSJvy+9a1vlaNzWCJe85rXlP0WovJRAE0CRQwWlMDeDhZYQZbuda97lVVEVl0CUWJeFzWYIBQ92aSREmrV0SqgdmIiWApM+Y9CSzkm4NFAuRWq3l4S9UkEtMlj38XInlrtotmVFZbVVnCFbvkpTeftRCARaEDA+2x7gEUu7+MiEusF1zn73GvkxzQazlsJXMdLhDWVFwrZZs88OWMfrYmleAH2m3FBloecZDmZlsihnVaOPOPBYhGQPLSoRo7GRHVa2byfCCQC6x8BMsecZBEKbZd7Cqy2xsoN5Vhizfkop1yNKcahzHbb6n83jxJzRCR58pY8ZBSgyGdKBBKB1SOw9ibL1dO0ZjVQaK2gicRLSeSiu5rJ2hBhLK/Omt20Yn098sgjJ0972tNKMCZ5CblQBgWCovyiSfQ9v1kWKIVWC0UhPmPFumqyR0k0gRXkycSQEKaUm/zZJ0uZpUA/8pGPnOy7776lTq5+AqYQuNN47N733QRZe/am7bQyYdTuwx/+8FIHy6t2BFMgtP2O8vILImWVkXKrDtFIlRdkapZwjzqGsMx7iUAicFkEvDMWsSyGcV+LYEuXzTn+joU4Ec4FehuydM57b+O5oFHc70ROP3hlewQLBQ8WFlQKqHwW5+xnEyDOYpiADmRN1IGL7nf0kDEU2tNPP73IRliIuq4ti3iLUvTHI5olE4FEoAWBRVlouzSEQjtGcSaTnO7AM040ZVusWuUON2RBSiM2Clkec6cunfk9EUgE2hHYqhVacFj1Y+00gaIAjhFk02CluFH2RCW+ZCUgEvc3K2+RCGhCj4txV8lD0x/90R8VV2QTVIruxz72sWKhJTRN1jxnwQ03QxNawQtYU03wPLOHw3EeLKoUXHwStm9/+9tLUBaTxEgsJ5RSE0vWY4q1I39MKE0MCVl7dAMf/DzqUY8qQV7UzSri8HJHEBHijuGRnzLPImPhQPRR/KLP0T/cA+25i2Ry+7jHPa7gEffymggkAvMRoPSddtppZf+VI8LIiLVM5BC50I9irA2TQAtVFtS6iqZnFtDIEXKDjOMafOCBBxbvDwHi3GeVIJMs7ilP1ligu/Od71w8Uv72b/+2HJdB8f3Xf/3Xks8ipOPWoj2y9KCDDprc9773LXvW/BYIj1IcedCTKRFIBDYmAmGh7c6V1poT1lTzk5jn1NavHItsyC17c9UzNpGTFvwotAwRjl6k7GZKBBKB8QhsEwotd1wb8XdasUJ2FazxsP28pAmgiMOOpqHIUTiHEgEdYaXjOQEpSrDoxSZkfRcYz9/ylrcUlz3PCWACNISoK3fqc845p5QPAS2v/Xb22XYTS6qPhG6JRZWi7LigWB2NyaHfrMQU7WhTW8ELpZYC7bl7YRmOvFwCw0066qRgx71CQP6XCCQCVQh4384666yyaEax886uVaJoOuKLgijSuclWN5EFPEMkWx66yfvOda6b3POeU47JBtZfC30hB8gqsojFVt0h+1haJWUEV3EmZMg19wVxefWrX10WKf0Omeh7pkQgEdjYCMQcZJFcjLXQ8sSzyOaoRHPImOeshlaGjAc/+METC3rmgd251qx6zSXJTMaNkKmz8i/qGTkd7fu74G8Uw0emRGBLITB+iWlLUTyiXS6+LIYsHCZFa5EIE/WxNrz85S8fJeAIA5bSmND16SI0PfeZJkCV7U76+nXU/Fb/tDqmtRv1al/5EGxxP6+JQCKwtgg4y1q0zhNOOKHs21qL2imajuKxn1W9fWV2bBvkwTzZQLZMk33T2q2RidPK5v1EIBFYvwiEhXaRFIZC2yJ3KG6HHnpomTtaVJw3J6qlXz1kOoOLQFE1FlqGDhHeHYdIId4SCR688nj26TN/QxwxiabYYrcl6Mo2E4FtQqElKLh3cN8VoKnrFjxmCBCKm1b2zAr9zo3ZytRGSlyUWVy4D2dKBBKBjYGARafHP/7x5b3lWWEhaTXJ5EiQJVsDjj/++OJSvJr6smwikAgkAmMQsAC2DAstmaetaQv4Q7Qrw92YjDT3W8uEFnEBxFBxnOO8RJnk8eJEipok/7w0K8/QM0orz0TxC2xZw4PtZAKC9tNQ+X6e/J0IrBUC24RC66XiXsu9w1lgXIS9iGMSt9mTTz65BH962MMeViy0G+2l5R4tGBWXYcIoUyKQCGwMBASQszjniB1uauTamGTyaJLG4mDF3/aGlAVjkMwyiUAisBYIMDS0WE7HtEkhbfEMISdvfetbl5gFZOQi6ONyLNCmxcXVGlsCE3NSvFJ+yfUhy6m2WFgdMcTa253HRnlHpcFLXfFcmTgJw3fP/R1xokd3kTV4UX+3PBo9Q5M6td1vI/jIayLQgsA2odACxEstyIijcESY4x7BZcKLSWjNSl46+ZyzKuqvyMOiFKvDi7gREzxyArsRey5p3tYREK3dJMu+Javizrm20GZyMSuRY6wN3MVe8IIXTF70oheVqy0Ti5iozaIlnyUCiUAi0EUgLLShOHWfrdX3VgstmeqcWWdoL2q+RAkUT4VCS/FbbaIoPvShDy0xCLg0C2DFo0c0ZdjCmUVYHAaB/ijT9gU7tSIUW0FJHeEmrgHrq7mzea/07Gc/u3wYRhzL5rhGwVEFPw36zZUFDVVe/QKnRtBUbTz3uc8tzwUbFG9FGzAWZDRTIjAWgaKNLVKAIGzR9dcyT3B4Mbl2sGwIguL4GWewckHpCyy/3XdO4hkrR+pQZkUXFWX0vJWowd3VqFoaMt/WgcB6GdNbB5rJRQsCZJIJwJ3udKcSiM5e/s9+9rNlMkBm9RfZQo5ZKec2Z+LgDGpR0sfu/6+lN9+TWqR+NV8rbq35f7W1/JUIbHkEQqFdJCVjFFrnxgqy2Z8frhWdFhMF4Nx9993nLkrOaxOGzv0+5ZRTyqkZ22+/fYnMzEWZZ6IYCfgQUNSJGM7TNb/lrWeR0z0LpY6UdEya88JFq5fsk0WrfC95yUvKwihPIQqrQFXhBu3vk79J6t1rr72K8sz4w7NRlGjWWdsAGZTitA5HxlloFXQrlOJ5vG6tz1OWj+/Z7ZxFagJkJar2hQW4QXvd6163qkzk97LVpn4ZZSOSmna1P5RqebGiZA8stzsRNS9ZOabGKpLVLCtIXjgvs9Une29F8jzuuONKJDqrWy28wFadzsLdY489JjutRFvmOghvwaWsjlndYm2hMIe1pJaXwAFm6mztF+V8alK/X2rKyDOGF+VEF6wZl0HX1sILvKStoV+WwUv0f6scM7YERKoZY/oj8nn/47v701LQ1SIvokwNLyYO9jJZUXc0jqB35EicI01OimruPTJZETnYhEQUYl4nO+64Y5Fl64GXwDD4b+0XPNRgpp1ow9WnJkWZ1r608Lm18CJexNbAi/42n6j9+xLjo+XvmPGyDNmHNvOVjcwLJQYPFt2ufOUrl0+NTGrtF/JButa1rlUl+8zbzKfM/1roCbpqrsaIqO8UQvNxGEyTYxRybsDGFrp8D7rIJR/Kpmj1gvxd+9rXLn8T3KPQ8k70DqvfPd4+5rliy2h7zz33LGd+v+Md7yhbUTwzJ6aQ3v/+9y9tMgaFO7H2/A3h2owmddz+9rcvx0k+/OEPL6d/wFoUfXNf55xTainA5rqOYRMZ2QKtNu52t7uVvkFj8DULw5DJrj61yd/FGAuzykSdsEbvtH4ZqgP9PrVlxvJi/LTy3yLH8DaGl1bZ122n5W9sl5ftKFMECZe1mgGkUYPZ5Ig7Q00ZYHvxuELUDCJtKGPQh68+Bn030LU7pNCixR+pWl7w/trXvnbi/ENWVy8aa62zXS+66KKi4HLLsFeNIAmLbC0vaEaPFTORRG9yk5sUFw8CgQDHI37wadKJHvvZTFAJUvdreYEZbK3yXbKinMdgcn9ain7RnyGgpuWN+/1+ifvzrjBr5YUAbOEF1jBo5QXW+KpNY3mxkjk0bvvtogUvxs/Q3pd+fr+jXxbNC5qMsRZeyBepduU1ePHOaa8mRZmWMaZu734tL+jwvkqx0l9+zPgPXcYL3hfFi+BuXMooGhbNTFrIZxZYMoUS+7rXva4ovH7HZIE8IyeMmWXJ8RlQbX4Esxvd6EaTr3/965sX9zY/nPJlLC+Lln140SctvFjQ9PH3rqVflsHL7/7u7za9L+SdvmnhZVmyzyTV35camWzYrWdeLLI7caHm7z5e5CMHWvpljByvlX3kKfdV9FjkHzrzGt1DCS+1c1hzL/2oDXJznhxHj3fYZ5Ep/jYYjzvssMPUuRJZHX0mrzliV/ZRunwcmYY/8gPt9v9SWo0TvEuOCYqj0sypufuSO8r4m0jZZIH18d5rl+It/gx3Y0k5NFBKlWPJPnglxoPf/uawEPubbF72N3/zN2XLn7L6waLr+eefXxR4fx8ZlmyfCboXJfvQTQEPuvyelqLf8Um5b5lfjJHjrXNYdMPfPLF2rqhM6xx2GbIPXd5j/W6c16YuL9sRBvGpGUAawZy8ytWWiTZigNQQG2Xk1U58uve79QRNLXQB0MCzh4H7sZfVy8clL+rBr4EWyX33ZvFicsECbFXMhMZVhFKrXQQ3QSr5o0IAcbfYZ599JmesuDb7w2R1zSRVO7Up6In+qSkXWLrWJG3U8N+ta0y/RPmgL37PugYP8cdhVl7PghflArt5ZTwP/mvydvPol6Cxe3/oe+SL61Ce7r3gRRu1/Cu/XnmJMdPlcd73Vl60ISlXi3Pkq30vu/0yj/7u81ZeyBGWjXPPPXdy3sp2CBMKExAuxhbIAk/CP1LwXcuLclGm9X0J3KLtWVd1o7f1fWnFLHippS36sjZ/l8f1ygu6WvoyxlEtBsG3a22KuuM6r1y3X1p5CfrmteE5enyWwYs2WuT42H7Bj7I1KfojrvPKdPtlXt7gNxSqVrqC/3m8oMn8jrzUxry+9Pw73/lO8ahTdl798/gceq6fWTYp8fhH1zT+3Y+Etsjr6jf5jkbKTZc3So+Ed38nJMpZ1Ie3wGavFTdhhh55HRPHfdkCo0Ci0U6UCxoCF1cKub8/oWjLq+5YEJHHh2IdeaIedMkf9fs9L0X+ljLalx9ds1I877ahbE2KMt1+mFcueGh595XRhv6qTUHbMngJnmpokzf6pia/PMF/+V5baGvPBxTCxAsmufrdMhi7GD3qUY8qll2uHywnFFSrV4SWgaduHwPXy2+1zcHdVrRMSLkSPu1pT2t6sbvt5/dEIBHYthDwxzfkWMgt15BjtX+8ti3UkttEIBFYDwiYC5FXoUQsiiYLfV0Dxax2yFNRiG09WxRdjB+C/AnCRFbXJvNImHU/5pcS7wP1Sp6Lt+C3rW3ceyVb6SKxwFoM3XvvvYt7MAuZOuxpfdOb3lQMLurpp/49/ce70f5ZFk2Y+bvDgCMoFWOOT6ZEYBEI/HK5ZxG1b4N1EjLchrkYixpnIz3hEKtTsyCxakggHHPMMZO73vWupbyVspyIzkItnyUCiUAikAgkAonARkbA3Mn8Z5HJXIq7K4W2RkFFD/fdW9ziFpsVxLWmj7vt/e53v+J+GwaVeW1QJO1VtZ2NMixwFY9A+1VZVZ3mwX03zol93OMeV9yIKZtcjfF16KGHFmMKBVN8GHVceOGFxXKrHtvgKMHa4H6szfAsDPfWfjwZ9PN2/Nd//dfJG97whmK8QcOTn/zk4rYsqrF5bqZEYBEIpEK7hqh62Q855JCiiDqj1v6AGqHZJ0EZe65EgLOf98gjjxx93mS/7vydCCQCiUAikAgkAonAekGAoklhWoZCy9WWa27N3Aw9IgJT1FgvKd1rnRxxI4aLQH01Ci1lnFJoK8k555xTTt9wRI4tao985CMnJ5544uT9739/USh5BdqrymL6jGc8oyi4trQdffTRpU2KKQ9BcRf+5E/+pOQVwMk+VwGjfAQbtP8WbeIx2H/6oQ99qMxJxWQQGwY94dZMgXW0j7mr/PafaltAqA984AOljxl45I8+cFV/bb+sdR9kfVsHAvX+DVsHvwvlQhhywuAJT3hCCcO+mpUori5cUJz9JeKcYzkIsEyJQCKQCCQCiUAikAhsTQiwBra43I7lvcVCqw0KpMCgz3/+88tRM2PbnVZONGAWTcrfvIQWZ8yGIig/RdB8kUHFwgAMDzrooKLEst5Sar/4xS+WMp6bl7773e8uiiplVP7Pf/7zxRpLoRQl31E9gkRRaLkpU+xZXu2/5bLN61DgQVvkQmHdtGnTZuvrGSuxYF7/+tcXT0OLAKzCFhLQ6sNijAfKsYQm2+wcI0fRDUtweZj/JQKVCKRCWwnUvGxeVnteP/e5z5UXf61WGrmIWIWzl8Gqm9U8QsD9/mqhwAIEFAHTEiVsHm/d54SQ/ST4o2TP45Pryk4rxxRZkQuaCFWrgoSo8vPq6Lbvj57yLWW65fN7IpAIJAKJQCKQCKwvBFhoKWaLTOYOLXto0YKmv/iLv5jwuuMazMCgntUmcyn7TA877LDJ4YcfXqynNUYQbXfbR198gia/RTA+++yzL/Ms8riar6KjP58yn2VN1U48cy8iECvLEstdWVt9mjxn/WXJhbc6ujQP5XdPXZkSgbEIpEI7FrlOOQLB/gORkW2uDwHQyTL6qxdcdDkb+ffaa68iVJ0VZv9EhF+Pyq30CUYlEFXNal+Ua7na73HEEUeUFTyR72KFbVod3HSe85znFOEGp0gUXMKbW/V5K0GwusIu8gxdnbdp1dBB4JkSgUQgEUgEEoFEYOMjYIGetbA7T1hrrswzKGa1e2ijfXMqQTvNZVg3Y2E9no+5UuBZMW1NYwE2J1rLhNd5Fu9pCqSy/Xmse/JH//jtMytpv6/MzsqfzxKB1SCQyyGrQe8XZa1EPeUpTyl7LbizLCJZIXzmM59ZVsQolSFUum35g4CWoWeE52pT1EuYo6EmoYllVqAryi2lX8ACK52iB+KLYtxPQ/QSjPZi9F1uomzQF7/zmggkAolAIpAIJALrGwGKkb/5fSVqEVRTaFv3alKA7SPljstTzu95ytws2hkjHOV44xvfuMRIWWtldlbb+SwR2FoRSIV2DXrWGbJcfW3qX4RSRchz/7je9a5XziurJdkfCHse7Idwxq0DsllFg8YrXvGKhW7CPZL9DbvvvvvEM/lYnIVv5xpz5zvfuZyZG3mV+73f+70SWS/uKXPNa16ztNVd/RM8wB8DH9Zjh2g/73nPKyuIhHokgh2dlF+BEvBMgcYLd2v1O7dXu7FaaBUQ/uizr8MfmyGFONrIayKQCCQCiUAikAisHwQsfi9aoaWEhoW2lXNluR2bo1BqnbeK5pYkP682R+GIHHyPe9yjeJy11JF5E4FEYBiBdDkexqXprvDmV7nKVRbqBksRpMwJk+5KMFL0uqmrxMlDAXznO99ZFEBKn432It45k8x3oehPP/30yQMf+MDJZz7zmVIVIf2ud72rBBUQhEq0OtZY+2Ypl9yeIxHsb3vb24oLjj0g2kATq6uoegISzEtotp9WUlabO++8c1FKWZtZvF/0ohdNTj755BLEwB8Viutd7nKXosQq89a3vrV8F0zAfg0BFliBv/vd785rPp8nAolAIpAIJAKJwBZGwFxgGQqtOUU3wm4L2/aNUkJf8YpXlMCfp556apkjmQt1F/D7dZqPmUcxLLzkJS8pcx7zGBGHF81zn5b8nQhsrQhs17Vy1TIZrhYUmJY064WfVk+87ARCtOte3O+W81y+FrqU8VGfa5SN3936u9+jjHusoATk3//933ezrOl3+0a1SXlGGwWv7/a7xx57FP7hzMLqDFtK3d3udrdyBhkB+spXvnLy6le/emK/LV7l9Qk8XbsfTNzxjncsirHjgwScimRf79/8zd9M9t133xLZWTnWahZdAaOibvkpqZTNwI2yjYZ/+Zd/KRZb9wVHYB1Wn1D5rLQnnHBCyUfxFgb+ox/96OSv//qvS9h5ivALXvCCosw67/cjH/lIOTMNj/BxzhqL86xkvKDbtSUpU5vwJikDk9oUWNXmx4P6o73aci28BP0tvAQ9Le2gfdG8RJ/He1CD12p4qam/m6cFL7ygLXgJOQbDafWsV14Cg+Alfs+64sVnGq/Tyo4pg64YO9Pq7d7XRgsv3XesW8+877P6eqgsHuC1SF7wLrX0izKt/TKWF3QF3kMYde9FvhZelB/Di7YCuy4N077La4zVlglelKlNUXcr//JH2Wlt6T+f4KGmTNQVddfwIo8tUOYp0hheGAP222+/EkvkMY95TJlnWMQXyfcb3/hGmdNow9xDO9e//vXL3OXBD35wMTLYL2uLmrb77eMlcAj+uldKv0V8Bo3AzHf1zCrXrSO+xxiI3/OuaINf13Ayq8w8XobKKuPTx2Uob/ceXlrKyFuTH6ZS5K0ZY0FX4Btl4/6s6xj+tdPKPxoWzYs2WvsSVq1ltBMYr/D0c4E2b+KvUKQY0C1llNVoNBx1zboaTNGG79HZ7s2qJ8rMqjuedXlRf5R19Xta6vLCxVX+733ve0W5nVZmNfdjb66VQHTd9a53vYy7S7gT69Mb3vCGJaS6Y4RYLCndlEyWWG65XIgDQy9Dl290ehYYEOAEsBQvuO9cfymOFEl7YgVL0C4h7jBydKgHvZs2bVLkVxKlm9IKN7RTVu9zn/uUCM7qcN+Hi44Fg1Dg0aDfrn3taxcXIHuLBZbS3gUXXFDOX3N0EgU5+PqVhns/4h3o3Z76szsup2bqPOiOsRByncdTv8KtJb+KFs1L9D9cW2mr6YsuGFsTL1150eVx2vfWMdbvl8AahvF9WlvznvfLLZqXaA9dix5jY3hpHZfe42XwAqtWvJKXxY+xZchx/W6Maasltb776m4tU/OOxbg1HhfJi7/FlE1zttXw4vQGAZ1e97rXTQSqdK5rHEUTslj90R/uyctl2Vyuu82rENL7bwhjtFvUN0fi/cZwAFuGBdGKuUGbgw2V7VVfftb0S7ec/Pqny1/3+bTvtfR0y7eWMWZiDHXrmfYdL9qYVyZ4ldf3Vrq031qmlZdWGY6mZfHSKvuClxbMurxsR0mgJNlXEC8fhmclK0JSWNxm5fVMg15gLqRRtqZMuJDK62X2UReBZED2E/oJqlZeok7l8SRpYwiPIV4ofO4P0dSncezvqFs7QqXf5ja3uUyUY0f7OBwb7Y7wgYVVw+gnZUXrE5FZCgXRip8yUvCtr3xXhluMg7a7/SEvvh0f5Pgd0ZUJbEGfDEpnlkkRpIrSKR9MPefafNRRR5UQ+He4wx1KiPmLL764BHwSRXmnnXYqCqv82scDetFjDKHNvlnfDz744PJHhSAwRq561auWtinFhP1QP8qgLjwFn6VQxX/GcusYUy0eoh9nNYMufYcX+NWkZfGCJqmFF/JFivFWfsz4Dy8wlj/am5G9PAr+W/ol6q7lRUMWXiRjf9q4Khl+8d+yeNGOT/DiKsHQ+B5K/mh4Zzxv4WU1cnyIjv49fEjBS//50O+xvJB9PjUJXX0ZOK+cMsZZCy/kIznR0i/kBVm43njBh77Bf+0YW5bsa+2X9cyLvofxvAl6jFf5yLKWfgk5vgjZZ9yqF12+1459/LTwog0Bmfx9if6vHZfT5rC8x7gg8y4zb7HQz2L79Kc/vbRlzuUsV7IY5rPa88z4j79jythmRlmmyJrb8FBjRPjOd75T3nlee7vssstk04rR4GUve9nkve99b7ma+6G5n8ikabz083Z/63/9EvK5+2zoe5+XoTz9e2NkH16MmVrZp03t4MV7MysFr/IywES/zCoTz7Th0/KOtcpxbcEZ77VzRWVg1sLLMmQfuuCNH3jXpi4v9f4mtbUP5ENga+qX6f9urW+t8gcdcVUvIemz4447FmVzrdrq1hNKmtU9bZtY9V/gmGx3y3mhglZXFlQvWL+sMgaTgE7KRFLGi9KtI565+mPCKnrve9+7BId65CMfWdyaDUgvZyTu2CzEUY/7VhhZUllaKa1nnXVWcW8WXMuZvl64Bz3oQUV5V65bVvkY/FYlWXdjIkRIweL73//+ZcootxapT8usOiNvXGfl9aw231A9yoYQHno+dG9Me7VlavMN0dVyL9qJa03Zlrz9+lrLtuSPvHHtt73Wv2vbqc3XpW9MmW751u+17dXma22/n39sO8rVlm3JO0RfrbyopafbRpSJa/fZ0PfafENlx9wb015tmdp8Q3QrW9svQ+Xn3WulrZu/+31eO7XP1UnBNHFeZDJfMf8xCYav3zVpFs8WbHy4G/uYd5xxxhkl5oc2eMgpHwsCs9rrtoM2gaNsEbPlzJFBrMLqhFPQ7rc5D+X3dre73eRP//RPS9vmU+ZRcO3W2/0+i5b+s7Hl+vXM+h1txHVWXs9q882rZ5HPa2mMfHGtpUn+1jK1dffz1bZTm69f/9jf0V7d2zy2lW2kHIupYAH2sC4qCchEcNUEOiLoBH8iuPdaCeKkXCQKK2WTYkwAEnYCWkkUSK7M7rUk1lirhCzEBhZhXiO8IyAC5dOqJmWbckwp5j7jD4HgUl360RX0CZRFiZXn7W9/eznEWxAsEZBZjPVJpkQgEUgEEoFEIBFY3whQyhat0ELAPMe8oT+vWE/owIGV97TTTiuebDzyKLOMDeGNEvSac7nPyMFoYA73gAc8YPKHf/iHxZK7/fbbb54zRZm8JgJbIwKp0K5Br1K8uOQKurSoxJ2FAHb8TU2yUvj1r399IvrwrW51q8lOK64wBx54YFnBe8Mb3lAUWgqlPyKPeMQjyr7aQ1eCKFnRc68lcX+hPB900EHlWB6uMLFiMqseSjXBTRmmXKuD6wyXaO7ErLcEOYWXC7U8aHNuLTzsrxUxkPC2N+V3V44YEnjBfpYvf/nLv2JpnkVHPksEEoFEIBFIBBKBLYdAKLSLVDTNS0Kh3XKcTm8Z7xbsKbL2y/J8O/PMM4uXXNdzbloNjBnyfeITnyhzKIYNLsq8BzMlAls7AqnQrkEPU8QEQRJNONxA1qDazVVQ5Pbff//JOeecU1yFWTOHFEZWUat0nnGBVoYC/Fd/9VeTc889t7iiHHfccUVYUiT/4R/+YXLSSSeVI26cc8ulhQLcXQHkmtN1HUaU3+5HonCeeOKJRZB+6EMf+hX/d8IVvUO4WAQQrOpJT3pS2Wvy2Mc+tii36OVCzBWZsk2ZPeWUU4o798tf/vKilLPgUoQFpWIRftWrXrV578if/dmfTZ7xjGekQhsdlNdEIBFIBBKBRGAdI0CRW7SF1twogjItUnEeC7OtYOZoTpZgYbUwPwYTfJoLWuz/4he/WJRiBoBMicDWjMAvN0tuzVwumDcC58UvfnEJyMS6aEWsZjWthixCnrWScLv5zW9ejgaykkkR7Cu1rKsCFFBUte9Ym7vf/e4lbLwASYIuUY4poBIlUyAnK4Dcdll1JYEFKKEUW0o6wa89V8rsIYccUtx53UOf+1Y91etcti5dFE2rjaIC9pOIy7BDB7dnwRMc7yMKsz239ti6Umy1ax8x2uwp0QYcXAXCOv7444vl9pJLLinu1jUuz3168ncikAgkAolAIpAILBeB+Hu+VvOmWdSHhXa9KbTouelNb1qOKXQMoe1lQ4aAWbz1n5lfHXDAAcUV+YUvfGExPPTz+K3tobgq3bzznnfz1n43fzSPM9fsJve155mN7jdIAABAAElEQVSEj5i3dvPl90Sgi0AqtF00Rn4njEXO4/5qnwOhZBVwLRJFTp32iAoMQNGcluR1xI2XPxJLqrNefaS+UCBI0M/9OIRKBKCSP9oL4e9q5Y+gJXQootrDuz0fhHBXmdSe312a1Cu5F22pN4T33/3d35W60e4PHPpYnCX1yevjvoQeeFOI0dRtv2TI/xKBRCARSAQSgURg3SLgb3fMARZFpDmDuYK50npL6Hr2s589edvb3lY+a0GjeRIjBk88lt/wdOvzbh4mivLQPC3yUjBtVwslM+53r9qTYm7Wfdb/rr/NlQWyEiW62/eMOPvuu28x5PCAFLHZHDPmgf26Wn+jrz+PbK0j868/BFKhXaM+IQhYJ7n5OqLm0Y9+dAnzvZrqBTUihIQLF3BpvSXRjwVfYhlm3WWJTWVyvfVS0pMIJAKJQCKQCKxvBIYsdWtNMUWGhdZieShfa93G2Pp4093sZjebHHbYYWuqcOP5la985cSWLt51oiD3lWUefMccc8xmgwfjBmOCOV5YZhk93vjGN05lT97Xvva15bQKW9jmWdsptI5spGxTaCX3xEAxf9ZP9gKr5ylPeUqJ0WK+uRYekGjdtGlTacO2tRoFfCrj+WDdIJB7aNewK7yA97///cuZqC94wQtmrmTNa5awJWCOPPLIyUMe8pCq6Mbz6lzr56ylz3/+8yciMIvwfOmll651E1lfIpAIJAKJQCKQCGzlCFBmGAYWqWiGQmvhfZHttHYVWgS2tN81vOla65iVnxebudoTn/jEYrHt5xVAVLDNnVaCh/qw5LIYU7LjHoupRQe0wrGPn2d777132b6mL7sp8sY1ninDghxJYFFK64c//OES5FMg0wc+8IGlToqtLXVO6oikvqgzrvGsf+0+1y7LsC2C3fv9Mvl7YyGQFto17C8vuSBMzk49++yzJ8KlU0gd6zPLlaNLgpfLi/usZz2rrKbZS3HhhRf+ijtGN/+W/o5nluS0zG7pnsj2E4FEIBFIBBKBjYeAeQQlo3aetBoOua1qr+viupr61qKs+ZPjBllAWUTXmjb1OdJH3QJOiafSTfDozuGiH2LLmLzyMF48/vGPL3Nbp3uIaUIJF0WZ9Vf9XJfFb3GcI3dhZ+n+n//zf0r9TsDgOsza20/mvg9/+MPLfFJclC49jEUvfelLS7BPOLHSuicK9EMf+tBicf7qV79aApuGWzJatPtHf/RHZU79ta99rViDHVtJURbXhav1scceOxFsVJDSTBsbgaVYaMesgPTL9H9vKdiDjrj26SA4zj///Mmtb33rcgTNF77whck97nGPsheVwLZy1S3ru3tePm4wygmWtNdeexXBQDEmSFpSt/6WcmPzzqNvDD1jyoylf0y59UrfGLqWVWYMzossM4bvsfS0tNWSdyw9Y8qNoWtMmTG0tZZZFl3LaqeV/2XnX684jKFrTJll4z2vvfXIQ1ho59G+2ufBu/lWbYoytflb83HxdZqD0yjmzada64784puwulIIWxP+eeFRJPfcc8+iCDpS8YMf/GCxdMLS+bfmsYJ5CmBqvuu0CadOXP/61y8KpOCmH//4x0vslS6mvlOe7am1h1hMmm6CyYte9KIS58UxkcbKCSecUBYAHNd4jWtco2z3o7SjRdsMS+K6aJtVV8Tnz3/+82ULH/q4Xct7l7vcpcRh6ba3lt+7fNbUOyZ/a5kaOobyLKudobZn3Qu6tvMi+dH3qZ9V2GCRrKC0vHwsjz61CV2xSmMAUxa1516sIPXrGsNL1Olay9ssXtDHbWS//fYr7sKi8hIm9gM4kuZTn/rU5Fvf+lZ5KUXwveUtb1lWkpxjK9qwiMl//ud/XlaqBHmqTTCS9GVLv8ByGp5DbcOY8GlJrf0SvMCydrUSz/iozY/+5KXt3Y9+McZqcY6xGO9y7biJIGW1+fVlSxvyS1sLL3DGv3cg5DkMp2Eytl9myb6hvhrbL8HLUJ39e2N5GSP7puHZp8lvvHtPWniJelraUWYML61yHM4t70vwEuMxfs+6amMZcly/rFdeWmVfjLFamRz4t/aLcq3jsoaXkMUxhrUR73TQOu9aywt6KF7ccMNaO6/ueF4j+wIf75Z24nfUMXSlWLEWspy28j1U39A9noL4peBJs3jRDxIe0M8a6lhHllUGGpZX9xlcBIrirswaykPRft0zVo5SZAHdZ599yhGMBx98cJnvUnYvuOCConzKgwZ9r08omb4zAumboKEQsvKf9mI+TPl3pKNTOpxwYU+se4KnnnXWWcUq/MhHPrLgSdFWliJOWb7VrW5VlGHn/LIkP/jBDy7tytNPMS498712jHXraSkTsq/Pe7e+/nd95L1vefeXyUsLXfH3KHDv8zr0u8vLdn4AMSaqQwX696Ix1/jez9P/rYNa8iuvTNDVbcf3uN9tBx9jeVFft2z87tYf32OwDdEQeVwJD5vd3/SmNxUXhzvd6U4lih33jHhBCDxuGPYwEAwiGlN2CTgDIRTsbr3Tvgc9s2jvl63lpVuutS/H9EvwMq2vu/TE96Arysb9Wdco0x1fs/J7pkxLG5F3a+AlcAqe5mHleQi0ljLL6JetkZcYY4F1/B7qJ/3SlXlDefr3ltEv0eYs2iNPXMfyonxgFXXNuo7hHx+tvIyha0yZoG0Wz/1nLXit5t1vaWdMv7TiNebvWNC1DF5axtgYXlbTl2ibl8x1unihsSa18qIvzLsoGtxPa2hDR9A2L388j2tt3+ODZdLJEYtIlD4Yh4KFvqBxWnueo5+yyELLvdcWM4ooJZdSygBzwxvecLMbszZ8wt2Y0shVmcLOAosOiot6o/1oJzCI31263NNv8uy+++6Tq13taiUQqbbcE8PFub2MQhRi82jKNxdpVmGej+bVlGLtq69bZ7et/vfow7j2nw/9Hvu+qKulneCjpYyx3JJ/LC9oa2lHXn3ZUqbLy3axgmRjtopqkgEktZTRaAz0mjbk8dIY/FIA46pd9fUT+r2sLXShSZ3aUV5ZKX732/A7eIFdTXKgNdcHrhfKGhw26Dtv1SZ6vwMbNMij/TG8oGcW7X16W3mBFWGhDd9r0ph+iQGtP+JlmteWfMqhrSaN4UW9xmXLGFsmL8ZktFeDQfcdq8kfdcO4tl9i1a2lX/zhWTQvMX71pfegJo3lJd7vmjbkae0XvPgEL64SDKfhblVcH057Xiro/RfyAj+1aQwv6g5eatpZDS+1cjzkRWBbQ5c83X6pKQOvVsyiX1p50ffoq03L4GVZcjz+VtTKMRi3vi9jeWmVfXgxLlt5Ucbf55o0VvbV8BLjyrgnW4zLWrrwjLZaXuRDU8v8Cn3+JtXIcfVL8W7VyNco40SLRSXYwoqiKc3iJeQ72hlmdtlll1KGd2G8NzBhTXVlpLnoootKnhiL7rOGOqmDEhlyzf3oY1f97MpdWLrxjW88efe7313ylxu/+E9MmkMPPXTyjne8Y3KDG9yg8OKoRoqt8vrUXNszc9QnP/nJk5122qlcLVyg60Mf+tDkCU94QsmPDmnWWOvnqR1j6g1+a/pffqlVXigTHgct7aCthReyTzstbYzhRRnjoaUdvET+peyhBfq2nnRSCAICwgvotxdNZ/heK8C3dSzXA//ZV+uhF5KGRCARSAQSgY2OQMyPTGiXkUKhrW1r0X/vzQe5BO+8885NC0y19MtHWab4//M//3NLsTIvjYBJ9qqGkgdDMV/0GVfjPkbXuc51SrRk+1YFYRJR2F5Wc92hBAOeik4KoTx1kzZFO3acz5WudKXJ97///ULHla985c3ZKF2UXoqaeTULsn2+t73tbSdPetKTJuedd16JS3PAAQcU5Xdzwfyy1SCwHOmx1cCVjCQCiUAikAgkAolAIpAIrCUCFB3WlkUnyhFljMV1vST0cJkVgTgUxrWmjTJJqeWW25IoqpRS/XP44YdvtoahWZRhLsjdqMmxOME6ygpuT+0nP/nJyf/9v/93cre73a3QMNS+cqyvFGEBnbqJFVYEZJGVRVVmGaa47r///gUvmNnGZ38whZ0CTsl2ysgll1xSYtdwl5aHBRjtmbY+BBYvPbY+zJKjRCARSAQSgUQgEUgEEoE1QoCFbhkW2vWo0PLa+8pXvlIsiIIarXXCM0WOK+7HPvaxYuVsaYMy+6yVoySPPvrosj2He/Dtb3/7yR3ucIcSnMlChP4TNEowJgrj+973vmJ1Pumkk0ocGftnHaFDKXWmrYBS/fTc5z53stfKCR+O9qGsii9DCWVl1Qbrqj25n/vc5ybf+MY3SkAoUZspsCIoc30WiMo4EruGezFl+Jvf/GZRpllu3/Oe9xRFG97KaOuZz3xmoatPT/7eWAikhXZj9VdSmwgkAolAIpAIJAKJwFaFAKWLlW7RSu16VGjR9Ja3vKUEO+LWu9bJvllnu5555pmbLayz2rAXlcLICipRJsWBcV6r6MBcfwWCsk/1Xe96V1FyuQk7K5ZiK+oxizMFlZsz66rAUpRPebgG+60d58PiP5JATpHHHlx1oYX7MEsx12Lb9EQtZvmllIpUjEaBV7/97W8XhfUpT3lKKUcxPuaYYwq2jhESIAqtojY7u1awK4p+po2PQFpoN34fJgeJQCKQCCQCiUAikAhsWAQoNT7bokJLkf/Lv/zLyVOf+tQS+IjitVYu0TC95z3vObnFLW4xeexjH1uUvXmDxFGTFFjKI9okSiBLJiWVKzFXY5ZYeST5Tj/99HKUDqWWIkuBfs1rXlOUTfn1rfNkX/aylxWllOuw0z26e2Z9P/bYY0t5LtKUcZbVLi3ao8AevHIc0NWvfvXiDm1fLRqCXhGj73Wve5WAVMp260EHhdtzz9Ab5dSdaWMikArtxuy3pDoRSAQSgUQgEUgEEoGtAoGw0i1DsWDho5Rpcxnt1XQQRY5C+9a3vnVyzjnnbI4aXFN2Vh71OlWDC/C//Mu/VPFL4RtaWKD8wc5H8rubQjmMe34LziR/5HWN8tPaoaxycxYoS/J7KClP2aVY9+nVrz4/+tGPNhcNGrpjTTvrZQxsJjS/jEIgXY5HwZaFEoFEIBFIBBKBRCARSATWAoFQMkLpWIs6h+rQDgVorSygQ22MuUchO//884sLL5fbwGNMXVGGQsgiSiE85JBD1qTOqDuvicB6QyAV2vXWI0lPIpAIJAKJQCKQCCQC2xACLGXSoq1l61WhxTulViRhVsX3v//9m89Y9awl4ZGL7amnnjq5733vO3nIQx5Sgiu11JF5E4GNhkAqtButx5LeRCARSAQSgUQgEUgEtiIEKGE+fdfRtWZRG/ZMrjcLLT4p8xT7BzzgAWXv57nnnlv2vqK5JQks9eEPf7gcf7P33ntPvvSlLy18oaCFvsybCCwCge26L0r3+6zGuvm632eViWdj8/fL9X+rv7uyN/Q8aOheI19c41n/d9yPq+fz8kTe7nWozNC9eWW6z/vf59XXz+93axn5W8u0tNOtu/t9iPbuvUXTFWOslabgvaVclOnyN+/7GP5baQq6Wsu15o925vHcfd7SRjdv93u3vmnfx+QfU2Za+/37UbdrfI88/d9xP67znke+7nXRZdQfn26787630jWmDTQsup1WuoKeuM7DKZ63ttMtF99nXYOeuM7K23+2jDJj+F+vdMGvlrZuvu73fh8M/W7NX0tX1Euhje9D7c+6V1NOHns4KbS+15SJNlvyR97W+rUloJGIvY6doZi+853vLIGUzjvvvLIXlQtxuGZTgLlQ20u66667lmjGLLKf+tSnJre73e0m3/rWt0reITqG7gWv/WvkjWv/ef93zJXcry0T+eLar3PW7/VappUu+VvKRP7aMmP6JXCvbSPyu7aUkRd9LWW6bWznjCeFW8JWW92SCIQuOOXmlP+0YXO6yGe1qUuXl5ag055242Xu1iV/t0z32bTvEd0M/10g4/dQubG8xIqg8ujHj3twGUpjeFGPOmtXObVBOE6jYRpdwcvQ86F7rbyE+9EyePEO1I5jvI3lxZhq6RdjpOW9RNd65QVurbyQFYvoFzhd61rXKmN+hx12KEcT1PYLPlqT9lr4UH9rGfmdwRfBMUSU9A5d+9rXLscrtNK8lvlbedE2XkLmryUtq61rDC/GmLSIMabOSy65pIyvRctxvGuPTB76+zuErTJS67u/DNkXbdT2y3rnpfVv5Zh+GVOmVo6bg8BYfuOlVma29ot+J1u00TqWa3iJo27UTXFuHfv4udKVrgTqyQtf+MLienzyySdPXv/615djbt7+9rdPLrjggnK2KnlPvohgfJ/73KccqSN673HHHVeiBwt89du//dulru5/2midj+MdT4F3t76h7/L5tPKvrtYyrbIPL2iLeeYQ/e4FrxFArJUudbSWaeXFnE8Zn9q0rH4JGVtLlzHpva9999Xb5WU7L5xKrO7UVhIKrcOga8poEOhevnkDKBhXxiDShqScez7uAaqf0GKgtvISdSof7U3jTd7V8qKO4Ec7Q5iM5QUm6qz5Ix286M/o0z6m/d/KdPul/3zab5i19ou6anmR1ziGZSsv/gDhqza18hL928oLmrwzNSn60vu8DF705dA7OESrflkWLzCel0wAPvjBD06uec1rFrpqZNi8OtfDcxh3eXGA/SmnnFLdT+uBh6ShDQGyS9CXF7/4xaNkX8370qWILFOm9t2Xz6dF9o+RF/4mtcpxvLTIMX9TTRoXzYu/L61yPPql5u++/lwmL7XzvlAEyTFjrCvLumOw/12+ljks3rUV85iasYym2nlfvFPaiH7p0zzt9xAvF110UVFWndvK4uqomQMOOGDCrdhcx1jhUvyBD3xgcsQRR5TjaCxoGqtBS7e9Fl665QIv5WsSXlrn4/oi+qemjeClZQ6rXuNF/8ybKwav8jpCqOXdHyP74NXKC7y8Y8ZBbWqdwy5DXqAd3sbN0LidxluXl+JyrAIvnmtNkldqKSM/YqOs3zUp8isbg2tau0H/tOdD7UX9Uab/e6hM3Iu88XvatUt35Al+1DFUz2p4UfdQndF2/9qSP3gJ+vt1Df0ew0u008JHtF1bpttGfI865l1b+A964jqv7niujdoy8sK5pUy3HeVqUtDT0k7UHWXntRP5W9qIOmva8MeMMguv3XfffeIsPAK7JvmDo1ytwMWDFdqaP57RvjL+eDruoDYps9tuu5WJDV7g4I/vPvvsU1b4h+pZFi/4F6CkNuHlxje+8eTiiy+u7hd9GopTTTvaYG0wEWhZNBrDyy677DL5yle+Us1LrLbrv1lJH4uKuvPOO5dseKoZ/zLLG9f4Xm5U/KeNkOnzssd7pY2WduRt5UX+1jZa2gmelWltp4UX7bTQFf1Y24b8wYsy8X1eXwbPte1089eUiTzoaaErxlhLGe+897+lTC3OwYdraz/iZYh/Ss4//MM/TL7xjW9MzjjjjKK8PP7xj58cddRRk+tc5zqTK1/5yoUXMl2KvwHlx5T/WmmL/NGvU6rdfDvGVQvGsbgQGG6ubM6XoG1Ots2P1R+fzTcHvgSvQY9r8DWQ/VduxbhUR9TzKxkGfkS+aG8gy2VuRf0tZVTSwkvwHG1dhogpN+RvoWsM/5oOuupt1FMIztuJQCKQCGxUBLhjXeUqV6m2OMWEgYJakwjacD2btxrcrU+ZaKt7f9p37XR5sQfLPYrxVa961cFilEB/dGuVc5VYpbcS3MqLVdTahG4TtJZ+CV7QV5vkHaPQtvCClm6/1NBWq9CiPSaANfVmnkRgPSMQE99QBBZFK/ni3WmRFYuipbVe77u/DT5BP1lJzrfI8dZ2M38isBEQqDNLbAROksZEIBFIBBKBRCARSAQSgQ2HAEVTWpZCSyncyCnwCuvZRuYlaU8E1gKBVGjXAsWsIxFIBBKBRCARSAQSgURgFAIUNJ9FK2ja2KgW2i6wgdWi8eq2md8TgfWMQLocr+feSdoSgURgaQiYGPz4Rz+cOaH67/9aCdK1EmrgZz/92Yq750p08F/sWVoakdlQIpAIJAJbIQIUNGnRFlpt2DZxtatdzddMiUAisJUgkArtVtKRyUYikAisDgHK7J++/K2Tn/77TybzQmRRfi/6zAWTvzr7jNU1mqUTgUQgEUgENgfOWYZCK+Ca/ajLaGtRXRsLAGmhXRTCWe9GQyAV2o3WY0lvIpAILAQBE4Of/vTfJze98e9MrnLlK0xt49dW8n30by5ecVurD5M/tbJ8kAgkAolAIrBFFNqNrAyGQptDJxFIBH6OQCq0ORISgUQgEQgEVkyzV73KFSfXuvqV485lrlb1f/3X6444u0zhvJEIJAKJQCJwGQREOaakLcNq2rXQRnTlyxCUNxKBRGBDIZBBoTZUdyWxiUAisGgE5qmq854vmr6sPxFIBBKBrQ0Byqwjq5at0G5UHMNCu5GtzBsV+6R7fSKQFtr12S9JVSKQCGwhBH72HyuBn1YiPw2d8bnibVwCivwifskWojCbTQQSgURg60Lgu9/97uSYY46Z/PCHP1w4Y87RdnbrRlYGU6Fd+DDJBjYYAqnQbrAOS3ITgURgsQjYI3vUUUdNzj33w5eZ8Nhje+KJJ03+1xWvs1gisvZEIBFIBLYhBP7xH/9x8sY3vnGy/fbbL5RrSuxLXvKSySmnnFIWJxfaWFaeCCQCS0Ngux133LG4eFz1qletbjT2OVznOj+f1FnteuxjHzv52c9+NlhHuJLEHonBTL2bylzucpcr54V55PcNbnCDyW+sHJNx7LHHTnVLYVVxxljtyhuarn71q0++973vlTLCuePj6U9/+mAda8XLTW5yk8k1rnGNyfHHH7+mvKjz3/7t3wZp70FcMOXis5p+6dc57bd2YNvSL31e9O2ZZ565Erjnp4PNeK5/WvbEKGP8tqTWMmiSvC+1/I/lpaUv0bQt8hITpt/5nd8p/fG///f/LtefrSir//0//z35yUoEzLvc5S6TXXa54QpCv+pgbKzstNNOk0v+ZSV41E1vOrnF7+0ExqlpLeTF1Mo7D7TjGArvPpc97wg5dsABB0z23HPPTs5ffpXPeKwd/8vkxd8jMrnW/TB4qZX9y+TlKle5yuT73/9+FS/64xWveMXk8pe//Nx+0W/kqrzXvOY1S8cuWvb5+xvvyy9H0vRv0S+1Y0xNy5J9v/mbv9kkk/UNftYjL7/1W7+1MF7ueMc7rsjCXTaP39oxNuYd0/94+fGPf1z9tzLGTO27L3/IlUXwQvbao3vEEUdoqnwvXyr/M/5reDGHlPdpT3taudaUQcLYfvHuT5vjT2Otlpco/8pXvrLM8Rf9joVuAYtZKZ6bu13pSleatOhJy5J9MYevHcv41S8tvCxT9qGvtf8j//9aUeb+xx/En/zkJ+qpSgrvuuuuk6985Ss/nwiuTJz+3//7f5NLLrmkqnxmSgRaESBYTKR22223yQ9+8IPB4iYoxibFuTb54+mPTwiumnJXuMIVyh/cmrzyEDS777775Atf+MLmP6Tzynon0dTyBwQv/pi2CLZtkZfrX//6kwsvvLDIrtvd7nalXwj4f//JjycnveT1k912usbkylf8rc1dRKXt/tn7tV/7X5NPXPSNybW3v9rkD2668+Z8+SURWA0CJoyU3x122KFMNsilWYmse+973zu59NJLJ4cffnh57xct+yzmfO1rXysTolm0xTOTLZ95vER+17FyvFX2Xfe6151885vfrJbJ+DARbpkrLUuOm3D/0z/9UzUv5J3xVsPL8573vMn97ne/qX93u32X3xOBMQh4T7iAm+ORga3ygjLvU5t++7d/u4z9eWXMwSxGoo+BpeZ9CRqWJfvM4fBRO1eknMaiUdA67zqWF3PRWrrQAGcLAS04d+ew2ykcKwkYrUk6OTR2Vx8CkpKLoEyJwFoj8KMf/agoeDFeh+qPMSlPTTKOoz7fa1O0U5s/8kVb8XvWVV7CYAwvs+rtP1sGL9poaacrX/r0zvpd24Z83RT9Elj/x8oe2p/9LBZFuuPi5+VK8ZXb73jHOyaHHnhG4a1bX35PBMYgsP/++09OO+20ze9KjMdpdZEP3Xcr5Nm0/N37kVcbY2TfPNqiLfniE/fmXeM9rm0jeIly8+qP55G/tp0u1lHHvKu6lynHa3mRL/hxnZU8//a3vz255S1vWZTgWXnzWSIwBoEDDzxwcvLJJ2/WRWrHsbbkjU9t2zH257UTsjHqj3I17USZeW1061J/lOven/U98re208LLGLqi/ha65I22ZvHcfdbNv6Z7aK2sWvXLlAisNQItK3Zr3XbWt20h8J9l20F3kkep/eVv87//WflnEY/My5QIrAUCrH+ZEoH1iIBJI2NFzu/WY+9sfJpYADMlAqtFIEfRahHM8olAIrBVIfD1S+13LFrrz/XYMNLSaX+h2/7Hf7btu96qAEpmEoFEIBFIBBKBRCARWEcIpEK7jjojSUkEEoEthwCL6xc++8mV/SiXDW63xx43Xdnfc53Ju9/9nhXL7M9d2i/9x29sOWKz5UQgEUgEEoFEIBFIBBKBgkAqtDkQEoFEIBFYQeByv3H5yTve/KpBLG65+/ElANQfP/zVGSdgEKG8mQgkAolAIpAIJAKJwJZBoC56zpahLVtNBBKBRCARSAQSgUQgEUgEEoFEIBFIBKYikArtVGjyQSKQCCQCiUAikAgkAolAIpAIJAKJwHpGIBXa9dw7SVsikAgkAolAIpAIJAKJQCKQCCQCicBUBFKhnQpNPkgEEoFEIBFIBBKBRCARSAQSgUQgEVjPCKRCu557J2lLBBKBRCARSAQSgUQgEUgEEoFEIBGYisB2v/Zrvzb5n//5n5WjKH594vDslhRlXDMlAstAwHgdGm/GsPHrM/R8iDZlJHW2JmVq35fIh66atoKuVl6Ua6EreG4pE7woU4uzMmirzR/8t9DVUka9UtDjGt8Dk/41+O7fz9+JwFojEONz3viPMR9j03XeOA5ao2y0FfdnXaNMzfsS9QRt83iJ/NFGKy/KtfCiPW0oU4tZ1L8sXgK7wGbWNfAKGmfl9Szqxnt8n1Zm3vNp5fJ+ItCKgLHms8h3DE3qr3nvQx5F3pr3JXiO96aFl+A/2ou6Zl3VX8tPt54WXtQvtfAiP35aeWkt06Vru5Xk9+Q3fuM3yrXmvyAwykSn15TNPInAahAw5i53uctNrSJe7qkZeg+M3Vn19bKXn8rE2B963r8X74cyIeT6eYZ+yxuCZOj50L14n4eeDd1bDS8ttK0nXqK/L3/5yxdI9Ms8XkLmDWGY9xKBtUQgxto8GWPMdt8r5aJsDT1jZJ82a96XfvvzeOnn7/LVfzbtd7zX057372tjvfLSKsejX/DUkmr6ZZ5sbGkv8yYCsxAI+VUzLrv1tMo+7xd5UTu25W2dKwV9rbygqZYubeCl9b1fFi+tchzOyvz3f/93wDf32uVlu5/97GflXMUf//jHcwtGhv/6r/8qX3/yk5+UqzoyJQLLQODf//3fJzHu+u395m/+5sTY/I//+I/+o6m/r3CFK0zUWfsCedl+67d+a9LyvkTdytQKKrwo1/JutfICFGVaeCE8JH1Qy0sojj/96U9L2Zr/YIz3kDU1ZWp5CTqC7xpe/vM//7OGhMyTCKwaAfLLe0YuzUreDfniHTFGW2WfsR/v9Ky24hmZVPO+RP6YOCpTm5Yl+7YmXowBGNdObCkAJto1/ZKyr3bkZr7VImCs1ci+bjvmCq2yj1wiX2vHtrxXvOIVm+ZKlDPt1Lxjwc+YOax3Hh+1c8Uxc9hlyXF9j75azPq8/Nw8+ws0PaxJ3Xzd7zVlM08isFoEZo05z2Y977bdncjVlonyLfkjr2t8j3rmXWvzBy+LbAOty2gn2tBeLf/ySq35f15qfLkon9dEYC0RGPMea792/Mc7Vpu/z1ttuf/P3pnAezdV/3/jPjyGh8dMJUOEkEoIkSYipDQgmkMSpTIkZUpIJRlSkilUQmUqGVKiFDJEyJipzMMzeND/ee9+6/73c3y/37PXvvec+733fvbrde8533P22mutz9577bX23uccy2fHajm9fufSmC6UlUtjfMlfQmP0ucdcHqZLiVzIkssnzZeed9Kn7n4nGl0TAkNBoKTNNUFj/THVxcunJL+Hhrz2l8qZc+7hQ3ne/G3RmFz+hwdzUFIeISAEhIAQEAJCQAgIASEgBISAEBACDSOggLZhgFW8EBACQkAICAEhIASEgBAQAkJACDSDgALaZnBVqUJACAgBISAEhIAQEAJCQAgIASHQMAIKaBsGWMULASEgBISAEBACQkAICAEhIASEQDMIKKBtBleVKgSEgBAQAkJACAgBISAEhIAQEAINI6CAtmGAVbwQEAJCQAgIASEgBISAEBACQkAINIOAAtpmcFWpQkAICAEhIASEgBAQAkJACAgBIdAwAgpoGwZYxQsBISAEhIAQEAJCQAgIASEgBIRAMwgooG0GV5U6xhHo9MHtMa7yLOqNd/1nAUM/hIAQGDcIyPaNm6qWokKgdQRK7EsJTYlibfHxymZyDUyYMCHwY6655sou44UXXoh5PTTZhSujEOiBwJxzzhn465Rmm222MPvss3e934mGtk8f8KTS/oLcyJeThqKLde4cPuTthmcneiubvp+ri+Xz8IG32aZOcnS6lquL1bfZrxxd5phjjk4sdU0IDDsCAwMDscy6/kKbNDsBAb+tr+UIRX+xvpCTnzzwy+kvVh75SXW6WH6OppOHxvq+2ae0vG7nYAWPXMxMF7Mb3cpNr5fq4rV96IBcJmMqQ6dzy5ejSy4+nfjomhDwIGA2zdP3Kd9r++hfzz//fPzrJZ/ZE+ThPKe/WHnWxzy6QOPVhfECOuNn/HsdS3Xx6m82tpcs6T3qBT0sxkzvdTtPdZndKqxb5k7XjcaOnfLomhAQAu0j0HSfLC2/hK6Epn3ExVEIDC8CavdleI4l3Ep0KaEpQ1pUQkAICIH+Q2Dgueeei7MO06dPz47wmdkgPfvss5EGWiUh0AYCtDn+OiVmj5jZmTFjRqfbL7qGAzDPPPPE/B5nYO655w6e/mKzTcidO9tdqgv92fi9SOEOF9ClG54dsg+Wjf7MJOYkm6HM5UNdIFdTulj7MLuVo4vZvBx9lUcIDAUBa2t1/YX+QV+x/g4d13JSqe2DLqe/mAysHvBXp4vl51hq++jXyJebwA25cm0y9o4VBPTPXQ0p1cVr+5rUxdpXLq7KJwRKEcCG0Yc99mLixIlxpTXX9iEbPgk8zNZ2k9fsCXnp856+X2r7PHYcueGD7h7MvD6s2T4PD6/tQxcw5s/DJ/Vh8/Y/wklJCAiBQQRyHZpBgjF2Mt71H2PVKXWEgBDIREC2LxMoZRMCQsCNgOyLG7JBAgW0g1DoRAgIASEgBISAEBACQkAICAEhIARGEwIKaEdTbUlWISAEhIAQEAJCQAgIASEgBISAEBhEQAHtIBQ6EQJCQAgIASEgBISAEBACQkAICIHRhMD/vg8wmiTuE1ntJQy99rtzz16IUyK2veRiKGWU8BXN8CJAO7jnnnuyXyQCd6v7XEngwQsLvC/wgEZp9CHAyyqmTp0aXwZB3fOyGl6O0XSivfCCCF5EMdxp2rRpPfsIOg9FR/oU/YOXVSiNHQTM9tkLXHI1+89//tOzvVXLsTG/er3Xb68d71WW7g0vArxIB3vGS3h4MRh2ATvaZKKNwhNetFslISAEhg+B4fdKhk+2vi5p2WWXDZ/+9KcH35Jmg2lqpB5++OHw9a9/vSiopbwPf/jD4SUveUk44ogjst9e2degNSAcb0Ozb1dZ8VzD4c59e6XRNXWkTUyZMsU1gHkDU2Rvi6YpnNooF2di0UUXbYNVYzwIKNdbb72w4447hte85jXhySefDH/+85/D8ccfH6677rrst097BcTx+9a3vhX+9Kc/hbPOOmtY+xdvKjzssMMG7SmyYQNTe0qenXbaqSiopaxtttkmvOIVr4g6EGiMlUR7wDlPsRoruuXqUWL7sAUezGhD/HlSiVye8oeSlz5An04np7gGJum1ofDoV9pJkyaFD3zgA+Hd7353eOUrXxnuuOOOcMEFF4Qzzjgj3H///cNq21IMllxyybDXXnuFQw45JDzwwAOu9peWM1bPaXvePjZWsZBefgS05diPWaSYb775wpve9Kaw/vrrhze+8Y3ROGIgN9hgg3iN62usscYsDpqHFZ2asjbZZJPGjKtHnn7MiyN/0003hVVXXXVQvGeeeSZcddVV4T3vec/gtZE4IageDqeZcjyvo6/qirM71hKO6NNPPx3/WNXLGQBx3JhUwGH50Y9+VBT89wOOOMgEsieccEJYeOGFw3HHHRd++9vfhs022yycffbZ4YMf/GBjYoLzxz72sbDOOusMO360U7On2M6NN944bL311uHtb397tK9c23DDDYfUF9Zdd92I01hz1sHm6KOPjp+6op3nJGwTtpJ+xEp/PwZe9O2h2D7DAXuRi4vRpMexaEPBlgAOW2IJjE4++eQ44ZNjU41utB3p/yeeeGLYd999w+233x6+853vhDvvvDMGmueee2546Utf2ohKYLrQQguF7bffPiy44IKN8BjNhYLP+eefH17+8pfHVewcXbAPjOvYMY5D6ec5/JSnvxFQQFtYP9dff3141ateFVZfffUYUB177LHxm6avf/3r4zWuv+td74qrh3Q0HAYciOoAzXUcChLHNAiig1cHFgYi/pT+tyLJ4JNuyQYvZkH5vuxIJYzq5ZdfHgProTjPtBsCdoKWEoeTbU0PPfRQeN/73jdSUAwrX/oGQQ2DHk4qfwRz73jHO17Ur4wxfYrdFHvvvXfsX0x+XHzxxaN2ZpwJjs9//vPhL3/5S1ylPfzww8MXvvCFOHmGfcFZSncmYG/AAJsBXqk9oSyu017JY3mrTgG4cx/HfrHFFgt77LHH4AoO5dFOOVJWar+oA7Nv8KKMbu34qaeeGrSnq622Wtz9Mv/884ftttsu8Bt7yuoq/Ro9kRG+lJsm48c1+KXyIGOqP3mQmb/qde6NlnTbbbdFG3jttddGJ32ppZaKuneSHzzA8Yc//GG47777ou6s6hPYNL3dspM83a7hoFLPBBvV9tiNptP1xx9/PPD3iU98oquN6ERn1yZPnhz+/e9/hyWWWMIujYkj7X3xxRcPrFSmaZFFFolBV3ptLJ1jH2j/TJ5hxz75yU/GAP5DH/pQ7APov/nmm8/S5sxOVu0JuJjNIw99y+xcFTMbrxjPCWr//ve/D45BZn9ZnYRHtb2ntm6026oqLtXf11xzTbjwwgujfXr1q18d8exkm7nGpMCBBx4Y/vGPf0Rbcdddd4X9998/Xu9EU+Wl32MPAQW0hXWKc8dgwB+OF0EVnciuceTa+9///oDDceutt0YHYttttx106si/yiqrhKuvvjrccsst4eabbw4f//jHZ3HCUvEIUM4555y43Y/td0r9iQABBYb1gAMOeNHg5JGYAY5VaAa5kkT7euKJJ17k9JeUNdI0BFsE5qywMoCtuOKK0TEhsGO2HYckDV6Ql4CHlUwGyF133TV89atfjVt0v/3tbw86EyOtl4c/9UlAiZPN6grPk2JjsAU83vCrX/0qzlRbmeRnp8IVV1wR/vWvf4Xvfe97Yd5557XbYZ999okrMjh3bLPjN3nXXnvtwXYL7qzK/u53vwsLLLBAOOmkk8JHPvKRwftMHnEPG4dDscMOOwzew3lceeWV46QDW/p+8YtfxOC0U1BLW09tJzohPwEs9pV7nDNhiFMIP3T68pe/PIs9pV2wQwN7yh+BWrVdGADYcFa1wY0dN6M1EZh+6lOfijt62IL+hz/8IU6CMV5UE5MDl1xySVzdf9vb3hYn/4466qiw5557Rsee+u6HRNum3f34xz+eZYLGKxvtaig2kDZIe+WoNPoRIDhk5xztgn6AncGGYluwBf/85z+jvTEbhY3gsTF8sxtvvDF89rOfHRxPaaPQYA9Z7X3wwQfjmP/73//+RUAxgXTaaafFR8h+/vOfh5e97GWDbeoNb3hDIJAzm7XRRhsNTr7QH9mpx2MerCYz1kE7FhN1whj0ute9Lvo92GVWzBljqv2PMeG8886Lk9lMSjAu8jjKpptuGmkYL5TGHwIDaUNJz3tBkeZLz3vRjMd7BKeHHnpodKpx9phxYiWXjstAzeoiHZaZdbb6LL/88uHggw+OTunPfvazWSBj1v3MM8+MzhlBMrPX6UrMLJnH+I9qm+N39RoQdLrWDZrcvNRdTtkEoeYIUe/M8LOq/853vjO+EIIggAGS8shH3XOPWce//e1vcaCsyspWT4KZX//615EGOmaTce4ZDNEBh54tiPDHsU0Ts7usUDJgMrATvPz1r3+N8lAWgwJBIzPIDJ60N/J1woZrna6n/Krn3vzQGw34EYjut99+0fG2CR1m2Qlwef6SQR9MmYHn+XYcDYJaVjHpb4888kjUtSpXyqfTvX65RlvBaeKPAIRB+7LLLov2g6CNlVsS2KA3Eypf/OIXoxPEqvYWW2wRMcJ+4KAtt9xycTsv19lRcOmll8YJtS996UvRMcCZox3B6+67744BJCvkBJLUyworrBB+85vfxPb33e9+N2CjwBrnkGdt3/KWt4Sf/OQn4corr4xbYt/85jfHtsvkAyvrXvuFI4oeBMZMAsIP/ZZeeukoN22E+wS81Dcr80wssWqCfbWE7OTFsURH2jwrxF55rLwmjshobT+3fHZjYA+YkGBigb4A/sccc0zsz9QLKxr0e7Zzk9AZZ5u+w86Fn/70p7FN1WGRK5vls2OuLrR16gSbxflb3/rWwcAUB5/2jUOLziQcf7aUc49AnvZc3YmBLWOCh/7DM+ckghm26zMJwqQOK2nYWYIMJgr++Mc/Rv4x88x/yMMjRjzD/uijj0Y+TNbQjrChTOCwY4Q+iB1nfOeeV3/ye2mQcSg0RlvlbdcNg9F8ZMcUdY9dO/XUU8MPfvCDaJ8YQ9ihQL2ThzZEW6AdMZ4wGUj/wcZS/x/96Edj32FBAjvI2Ikt5m+33XYLW221VRw/wYqAjMfRdt999zihiB3EdtNmOafP0SeRZ80114x9lp0pTFoyUUWfxVaxmPHe9743tmseRSP4ruuno7GuwJ0JaMaUj8wcw5kgYGzCjuHTUE+f+cxnou7YBSb96WPkYZKOfs8Yw7tn6nadlLRtL01Jfg8Nee0vp76xp5Y8fKDx5m+axnQxuQbouPwwB9EU7XXEcJOMhsakNCsCGBqMFStItorAYIhTxosIWDki0GFlAIeRAIJtVgQcdFJm80jUDXlw4sCZGSgc87FoyGZFsPMvXuhjbzplgAEfAjAcVM7NgDGDx7W6BA15PamOhuCCFz8gJw4mgw+zh7xVk8ESJwqDTOCJQ0Y7YPDCQaJvMVgS4DLrawmeGGm2uV900UUxHw4aM5q0JZxXVl+Y1aSdUQ74WF+F/iMzBweCQhw6EoHL5z73uThY8jwmATcy4kjyG7nhyYvJoCdRHu0RbHPbILRmeGIhGf+qNGAF71NOOSXqZUWgI7PkYIWjwaoO+OGwnH766REfJgFYmbTVSbaVkaAlYcfqdBnK1vHIZJj+ITNODoM9jhMBHTacAJGgnmCOdkGbIqinfTCw0+ZYXcU54Dlb6h48oeXlc9gXdCQg5PlV6hw7QwDL1kRwpT1TNnTgRdBKm91yyy3jBBvXCS7Z9kxgi7PIygPPwbK6y4tQcPKRGUff8M+FBqeQnS5sscaJwfFhUpDySbR/6ppJDiZ4aAP0F1ag6SOW4Es/od4JutlSWlf/RtvGERtGf7HxtRtP6oJ81CH4ck7bxqawGwH8qSP6/YkzV3ZYicVhpy+Rlz8S9cr4AybYA2wJ7aVTMrvqwYu+jHy5ifzsOEB+Jia+8pWvhJ133jkGi9zDvoEN/eC1r31tLJYxlT5Be0Qv2j42ljIsYZeZ4LhsZtBBAE8+bAKTyDjQTNTQxtjm/Nhjj8U2Aba0NRL0+82cUEMWs+XYHdr/DTfcEF8uxKof9pW8bHNmqzyT2vSh3ISO3jGJdk+AlFsvYGj62zhJe7JgjmvWPuraYa5e/ZAPnQgEGRvwpbCZ9DdsCe9W4Fl0VvTBEr9spZVWij4bL3AiUc/0KYJYygEz+g8TybQTfBGuM2FEEEq5tEVs0fe///1ol7GT1DF8scnYbCazwZl+Ak/8BiYLeVSG8Y0xDT60JZ73pX8zMem1of1QB71kwO9AJ2vPYMZkJGMHYxMTDPRV+hZjmAWzlIl/TN0ddNBBcRIAbLvtvAFr6oa66JWoJxLYc17SF7w09EGPv4GNIr8nDmtLF2Ty6M+4Y3anV72k91JdBui4gMEsdm6iE5OMxo659OMhHx2FTkdjw4Fglo9gFoPHJ1yo6LtmrtoysNDxGAjpsOSlAZhDwcDCjBPHtdZaKzpfnoY7lrCm3eGIpAnHp7qajVOD4/K1r30tzdraOYMfz6VZcE1boJ+xYsbghNPJrD7BAoOe1T8r+uQj+MXJYvBKEx23aoDBhOvWjph9JvjgN+UQPGAgGCBwDAlu2EIFDRMtOG9MnjDo4qSxukMgQ3BA0EG7Y8Ad6YS8DF4469VBCucTHHBO0JV85GeWG0egUyI/AxoJ+1XnCJK/XxIz0WZTCFw5Z5WVCbRf/vKX0eFmtYo2AA72gjSz0zjZ1o6oc1YHGLBJTJawYsXWVYJk2gXBDoFoihH5cbpZucVZA3fsEkEE9YNctHPaNs4dtDj57EbhN3lMhlxcCR6gYRUDe8rkH9vT0NHsKSt3OKZghD1lchAbbPYUhwm9aNfgRl/tN3tqbc3qqxs+5EN3gnJW3KuJezw/Sv0wMUUACH70Z5vcSWkIxHCkqe+RTgSi2EJrIxzpr+jBJDEroazSs5qKPkceeWR8yzcBJw4xdu2b3/xmDORTXSgHXCxxbtc44jizqk0wQ5umHPoWiT7FFna2nZKHNsUkATtZaE/2PB/b4vGpoMMmEQSlOwSM90gfsZu77LJLXDk0WWynQtqeaD8EaWMlUefUIZO7BKbYECbFWEFl7GTMZNUUO4h9w++ibZDMzrFCz6QZiR1T2B3Ge8Ye+g8T0rRDrmHvWH2t2hlefkQbx+bi89nYxWNptHUmnwhwGdNZ8eU+NpQJJ+TFro2lRL2Ad6eEHWNXInVB2+Sc55CrmPKb++x0w88erkR9YDPNZ8gpF1n4q7PjaVnYFOy6jQHpvW7n8CB/Lh/aEXya1oW2T53SxnMTsvGXqwvl0g9Ml9npqBQAIJzn/lGQ0XjAh268JF4KReDCLBPByjLLLDNL5bLNBcOK48kMHcEOgwcrY2ZAcfyYdSLIYNvLeE50XJxknAX+aLdMEGD4uQdWXCMRzFm+bkdo2PpDx+uWp9N1aKDtdI9rPOPSabDhUyfwuvfee+MsK9uUGNQIDHC+6UfIj0PO1hnKyk04eMvMbF8EwhgDAggGZY60JbaXwo/Bl21SBAOsCjPo4qjhdLGKwCoHgyUDNLLh5Ka6Uh7BCnJ20796nYEAPtXr3X5bvWB0LQ+rhuhBIFNNrCaSj+CVVVqCJuRndhudkDXVAWeD32a3zI71sn0Y5pFOyED7xwnDcUJPVh5ZcaVuWQ3F8aF92ps6eb6I2Xz+mOCxFXjThcHGcOAak2ckgiSCVj5pwcq9DRjx5sx/4E1/s8kEu057YRWVlVraIasITC7Bn5lzAuW7Zk7kdQqorIxuR1bjaKesrhA48zsdLHGGWD0zG0qggdysoFn94TjitGNPefyjH5PZ/l7tkXtWb0xigCf1Rb3Q3ukTOOb0O5xBAjBsD+cE+UZr+vObusYO9erbtL1e962/2hGZaCdp/7N73Y7oQvBdTTiotEVsK22MiUvaPU4uZZ04cxWaI+2O1RvGX/jmJPBkMo8dQKzw0164xk4D2gznTEhzZNzGBrKSxkQ0YxA2lUCb6wS52CH6I7aGraLddK1eR176b2r7qnk6/cZWY5s73et0jTokKGCS1e5zDZnZyp3WF+PRWEnUH2MIjyuwpZxHf77xjW/EXRzUP74Y9U8+cMHeMpFmNpQ+hU+XJsYasLPE1lj6CY88MLlB4j0OlJcm2g10TKql9EweYCMZ0ymbvrDfzIkas6FsYcbW0bfGUgID/rAXYMU5GJn9pl/TxwjywYcxqjou8ZuJXVaxobe2XT0S8GJHqtc7/aYvYEdJ2EnaRs6fjTk5eS1PKY3R5xzN9nt0oVxSTvmWh/xmR+1aE8dUrll7GHeUhgUBBkFWxFj94HkmthPjSGFASVQ0nfWymdufCGRZQWNwZsWOAdEcUowuM704rTy/wZYoViTprOMxEfxZp8c54xwDCH5pEAn+ddvcoMVQQWdl5mBK2Tgc3RKdtlN5GGToqDvOSTaoEeRawigzK8tsbF1CFhIOLHRWLtdocyQMFwMsv1n5SNsOz40xMBJsM3HCygRbD1kJxXFjxQZsLaEbDhfXcKBykmGVytaLDuzQi/zwIxHIIDfy0Z8sIKJPETAhE8+7EWDRR3BYCO5xRnD42QKOA2cOYy/+/XoPLBjcWQnC2UFX9AEr7rG6hK5MXlCvJLaQ4gSQyEOAT3uArlOiT/HiLewNdgiHnC1e1fZMGQSOrHjiBFg9sfWT7Xc4cARQOHes0nJOoi1g5wjI03bYSZb0Gm0Nh442zOQGASnnyMgzi8hHX+J5XRxy2ifBCbaSlRjsKomAHgyxqbQNJkH6cfUs1b3uHGyxddgLcGUiiyCPiTUccHQHL2wnARhBGhNmOMvgypGJByZVWb3H2etWN/QzeHVrP1VZzUFMbXM1T/U3eenX1WQOmPG2yQwCB2wXwYgl9GUreZ0NtSCQ9kOgg42gLZttYwcQ51zDxnI8cWbgbPhABx/sEau52HEmqdmdhQ2l77FCVzcWmdyUx5iELbc+Zfd6HalbeJjcvfJyz2wxWJtsZhesPZmOZr/ryhwN92nrLDCAFxM46G5tlMkSJnyxfbQl2g71T78wvMCIyQPsCHTVBGbsACHgZJy6a2bgRT62ylK3aaKvco3Jv7TNYbOZrCGwpS3w2Aj0Vre0NeSmjdi1tNzRfI5u1A39kPGbsZzxDL+FHWvgDsbYMPobj9CwUgvG2APsF3ixswiMzFZUMcFnpJ1Tn0pjB4E8j3Ts6NuaJhgaOhTbT3g2hwF3w5lbTFkZo0PiDPIMHPfJy6DIFiqeGUodCgwrf8cff3w0cgTJGLmqcWxNMTEaVgQsKCdwIFGvDJhsC8Z5TJMNXuZocCQviYkPAlNWDcxIEziQoGNwpDwCVAZy/ni+kEGXF6Iwk0yAxMoCM8AEiTjFbH8yxzEWNkL/6C+suCA/q4jIxWCHA8IzoAQpDIJggnOAI0HQwoolQRcBMTPvFviPkBpDYks92oQYwSt2AFz445xdIGDAlite9sU1ZrFx7qlb2gMTbEwKdLMfOLg4CjgIvCyIVbHLZk66WZszBeBJm2PigFUMHEXaH+2GHSY48jhlbPvGftHOccAINtnijpyeBH8cHcrCZqIPfWbDmTaVBH92ZfCCNGQnmAADnrlOJ2SQgTKws+ShTeBEdcMjFt7n/3C8mQAlkEI/tmQzscE4wie/GHvAhMSuBZxzHEFWfuhT5GEVjlVN+k21rvtc/RhEUseMtyTqkuemmbCoBmP0IbOj5KWP4NyiMzaStsCEDDaEcpgIxP5Bw+4Djmw3NRvKqh67IGiTXGdSjVVa7rN7gskX+qBSfyBAe2DFfJmZu5mwF4yV2APsGXVN8IqNpJ7pI9gYAk6zoUz88NgT42y3BA92fzD28MI5+hflVxO2FTtIWyXwwobR9th9wiM/+IP0XbZBE/xi8+jHyMWjQ53KrPIYbb/pfzwig65MpGLDCVKxbaY/WLGThK3a/BHAsj2c/o4/whE2JgAAQABJREFUYH/dgtnRhonkzUfgxVNM+bTK2QMBHAuesaBzEnQwW47TwcwdHZRZQILUbbbZJq7GsaJBUMFsFMawOqNNeRhTViBY0WVbqDpsjwoYJbcIPhjICL6YOWYgZSaSYJLnmyzhcBGU8dwfzhsrAax8WbDJLCXOKC/MYbWVgZqB0GZ+cdagwYFnIgUnGH44XAQlzGgyoNOuGCjZokhQbUGiyTFSR9o6zw7xvBMBGc//cg3HndUQBn5WKm1FBrwI4NmWy3N3BOms5uEsdJotHym9PHzRiVVzXlzCyiLbA227Gs/woT/BKLYCRwBHijZgW7CYrCCx9Zh21inBA+cN3Jh8A2ucjGqiXfHMGc+KgyfPMbJqTNDJiil1Q5vCxiELAS4OP8EDkxEcPQl+BA20f4J62j3OHzP2BCWs3tKemdxgdwPb6dneTJtmRa0a2BDUYU/BkGfFKdeCPo9c/ZCXPss2YgI6Vu9xdgnGqONqPTPJQJ/nxV08D2qTHNgbtlKORgwYO9GX7eZM0NEG99tvvziGYu8sgQXjJwE/7Yc2wFhrWHGPSQ62xjNBxhhMu8I+Q0uAQTskSMH2Ymuwk8vMDI5Y3eVlQTxrziQOK3u8aM0eKTIZdBxZBLAD2Al2krDdmgUCbCr1x4od9cykHPaJQInJOXZ5YOewr2wtx2ZgY/jdKdGH2AnBSit+HztEaEu0szQRSDMJia1idRh/Ed8QGZGBsRf7SR6CbMZwnhmnDeI/drLLafmj7Rx8wAFceSEWE0Vmv6rbq+m/9HUmA6gn+j4+EHaN8UhpfCKggHYY6h0nECcLA2SrY3Q4DBFOA84ms4K27c1WUggwcMAIehkUcdgwnmyBw7hCw+oHZdKxeS6AjosTwvY6nPjxnDByBF049ZYYDBhAMIwjlTDMyGFOO4MZTlaaGIyoY/LiILFNkBUvaAgozKHCWTdjzjOBGGwGVwY1BlYcesohH4EC24XZEUAZrCjYthtmN3HUCJYJLBg0kJFZas6Z3WT1jOADep5PpE3bZydS2UfynK2IBO0E5SR0B1/6YLcExmCLc0JQ1+n5vG60/XYdO4CzzucL2DbKijP2gbrCCeBomFCnTIJQ37QDtm2xYsl2ZAJO2kqnre20LZ6lxsmjTPKS4I3TzsQC56wwsBpFu2MVg7ZDG7XymT2nvbLqwYQC9oyXo+C49QqcqEucN/o29cZv6pAAmUkeVk1oowTm9HPaAv2AP4IJ+hOTiNhLgooT/+/ZSto3AQeBCPJjf3GamGhkKzZ9ZjQmxh1WvVkRpM/Tr3v1B/TnfQy0ByavwAIbw7FfEvWNTBY0YN+qbYYJK67R/tnWS3DJZArjLROFBC3gYLaWvLw8inZIG8XW0kbhxT3+aF/0EZ7RpVxWw/gUEOWw+koAzHZH7CZ9jwkCPqVC/2Isp0/Rxhib6RvUCyt61Ek/JXRlwsseR0A2dGTnAu1pLCcCSSaBsE0EqLQXXiKH/0X92S4PxhUmA/HhmKxjFx0TGbQz8KMfMblI/mpi4YKXkvFYBBOMJPDFRmHXmPCgDPCnzfLGZWwQbQwbCR39cb+Zth4bt+GGG0afD9+Q3RS0L8obawn86X/0mZyAnd1aTB4wOcW4hc2w8WqsYSN96hGYbWbA9F86LrOQuR0EQ8/sOB0ZGjosHZABpt8Mdz0EzeZgsKSjYZwMX66R7Df3ucbvfnIqmkXGVzoGnEkCVrC7BfK0Y7BkoMlJYI6jxABndZJDh5NVt90HGSiT/oDc9Bnks0SfYUAz44tBZpsawQjOGPdIXKddcJ1EWQQalI3DTrmUYeWgP6stDL4EBfw2PtDQvpjlpRxmfbmXtkPusUUXhw45jG9kPvMf5bFVmdnQ3LZqNgFdchJygrENUjk05MmpF/Ixa47Tid7oiy6GH/c7JWbycToI9NN67JS3rWvgRH2QUvtS5U8eq3ur62qeofymbP4ou1P5JmcvGXP5dyqLayTjbfryO7eN5vJvMh+TWEzG4WCzXRi71CvRh1ndIbgnqEdvruUkMCuxfUxcsJJb119MBuwLf3W6WH6OZsfxKeADvdkOsyXkw4Zin6yOyUMQSUCGbYTO8nFuMoMRNoxglAkAbKiVAy6UxyQQK3fcx5YjE+2J+9gZthozSciqbWoP4MFqP+Wxa4FJE+Mbhan5Z/WCbta3a0jibSaMmPwxLOpokAkZGces33SjYRKUFy9iK1P8u+UfTddTWwEO3bCgjXAvF18vBtQ7f91kMDnh301GL89+ys9ORXaXMLnIDjTaf24iiKVP59o+ymUyi7ZPveYkMIePJ07C5vBXYvtyfVhkx46ju9nIHH2wYR5dzF40rYvZWQ+f1O/7n8XPQUB5ihCgI1QHtKpBaspIFgksomFBAGfBkhk2+80xdYL4jaNgb08kv6WqA8E9nDUS7aratmhLrLqRUhn4Tbtj0GTVgVS9Dy0zxCTyVu/HG2Pg31jpb51sS6fqaVpf5OCvW8qVsxt9er1TWVXeTeubytMP5+hbxaAf5BqqDKmNrNpByk7v85s8TE6BRWpDq/m4xy4By5fm5Ro2kp0O4Fq1sdzHEWZViPNq2TjI9qZwo0c2pf5EINdWVMfZ4daGtsRft5QrZzf60XJ9vOg5WupjtMn5/z3n0Sa55BUCYwyBXGNel6/ufq/Bude9MQa31BECQmCMIVBn+0zduny97CCBR6/7ve4Zfx2FgBAQAkJgeBHon4dmhlcvlSYE+gqB3K0tQxGalQVvKqHx8lB+ISAEhECTCJTYMc+WXpO9hI/R6igEhIAQEALNIaCAtjlsVbIQiAjgOPFsl8eBYitbp2123SDF0eJZirqVhyp9zosXqjT6LQSEgBDoFwTM9vXastlJ1mWWWSb7GTroWXnFxnqS1457ylZeISAEhIAQ+P8IKKD9/1joTAg0hkDJCm0bqwFt8GgMVBUsBISAEChEgAlGbxBcYi9LaApVEpkQEAJCYNwiMLDooovGmUfe+pVr3BkIWAni8zHQeN6uNW6RluLDggCfMaq+iMMKZgYd5yF3JZS8vPjI83Y8ePESEU9/MYeG1/Ln9jHpMiGunhh2Vse9jtQLb1qvS7zFmcTbZEnUS93KNm/SUxICbSDAmEw7rpsEw27R5tnJwVuRSU3bPuxlTn8xnLB39C1k7TfbB24em9zPuvAG1hJdaGd19ULZSkKgDQTw7/Ct6myfyYJ/gA3E7nl8BewYu9M8NF6/z+xFri7o5PX7oDH9c22/0Xh8WNOlSTuOXOhP8mCW1ssAn/cgQKj7DEnk8n//YMZ31/gIOYoqoE3R0XmTCPAdt26f7WHgpW3mvvIcY1by6Yr0NeE5umJoCKL4BERd4GTl0Seh8+ri/dxDW7qAtcdOIFdTutiECPWx7LLLxnoxQ2r4V48e+1il1W8h4EGAMZl+X/fpAmwdDgb9hE/QlNgLeHicOvol/aauv5i+OBv81eli+TmW2j6vLgS0HpuMzjjCXl08ts/GJK/t45u4Xl3QP8eu5eRJ60/nQqAUAfw7/ARPH8Pvww7yl5uYyOGzNbmBE3EOfDyfuimxfV4fFn1LP9vj6dclunjtOLpAA9ae+k992AGI+SPZMf7o8c9o7Ngjq24JgWFFoK7N1d2vCuPND72XhvxeOuNhtLGAmn9DoakpevC2yWO8Bm/UnHjym4PtoYF9bn7ypSmXLqXRuRBoCgFrj9V22o2f5ed+Lo3l9eQ3/ik/u9btaHk9fIZC002ObteNV7f76XXL69UFe+alMV4p/7pzD00qT3reiUfd/U40uiYEShCwtmbHnDLIa385+S2Ph8by2tHK6HW0vBw9yehyaSy/h4/ltWMOL+OTk5c8lr+ERwkNPPUMLSgoCQEhIASEgBAQAkJACAgBISAEhMCoQ0AB7airMgksBISAEBACQkAICAEhIASEgBAQAiCggFbtQAgIASEgBISAEBACQkAICAEhIARGJQIKaEdltUloISAEhIAQEAJCQAgIASEgBISAEFBAqzYgBISAEBACQkAICAEhIASEgBAQAqMSAQW0o7LaJLQQEAJCQAgIASEgBISAEBACQkAIKKBVGxACQkAICAEhIASEgBAQAkJACAiBUYmAAtpRWW0SWggIASEgBISAEBACQkAICAEhIAQU0KoNCAEhIASEgBAQAkJACAgBISAEhMCoRGBgttlmC//973/DHHPMka0A+Umzzz57gN5Dm81EGYVABwRoc/z1SnX3q7TktzZdvdftt5cH5UDjoaNvefKjg5fG5OqmZ7frHl3Mxnh0GYpc3WS26yaH2a0cXdBBSQi0gYC1NWun3Xha+7X7pX2/xPbVyZbKxHlu/pTOS0N+jy6GVy6f3HoxHexofOx33bHEjhsPry7VNlQnm+4LgSYRaKuP0U889sLk8vQXo8ntk+BaSgOdhw+8PLpY2XaEPid55aJ8Lw1ymFwDEyZMiHLNNddc2YPBCy+8MEgTT/RPCLSEwJxzzhn465bopLkdlY6D82B9oFuZ1evQePqLOVnQwDM3kbeXrmk5Y1GXgYGBVMXac3DOwcvqm/ogcTSD2I1JbpvqRq/rQiAXAWv3dTbm+eefj/bE2mYbto9+ktNfqrrW6VLN34btM108Nhk5x5su1r6qdaTfQmC4EaCtlfR9j+1DZmwsvgI2NDd5/T4rN9demA/n1QV/BlvmsWNN62K6e+oSGnSBxmJMK6fXMdVlYPr06WHixIlhypQpvWhmuWeNYOrUqfH6s88+O8t9/RACTSEwbdq0YO2uyoN2TNucMWNG9VbX3/PMM0+gzNwORGebe+65Xf3FyqaP1QVOJii6QOfpW15d4AWNp+9jPEgeXTDoJGxNbgJjdDdbk0OXq4vJYXrTnurq5bnnnssRQXmEwJARwH7Rz7rZOWNA3yCf9RHaqNf2wcP6tJXb64hNyukvVgaOI06K9TW73uvYlu0DN48d63ddqJdcpxanGYc+p15k+3q1Vt0bTgRoa9gjfLLchK/gtX30ZXjktu0Svw+7B5+cPma6lviwyIYeub5iiS5t2T7GF3yxurHP8KrqErccpzftvNeRQiyl53ZNRyHQJAK92hz3et1P5UoduVwao/fkt7wc7dzKqTvm5jddmuSBrG3wMR7wy9WfvCRv/v9RldMZvY5CYDgRKOnH8M9t/9bHcvNXdculs3x2rJbT63cujelCWbk0xpf8JTRGn3vM5WG6lMiFLLl80nzpeSd96u53otE1ITAUBEraXJM0adnpeY6OJfk9NOS1vxx50jwePtB583tprHw7prL2Orf8vR9G7FWC7gkBISAEhIAQEAJCQAgIASEgBISAEBhBBBTQjiD4Yi0EhIAQEAJCQAgIASEgBISAEBAC5QgooC3HTpRCQAgIASEgBISAEBACQkAICAEhMIIIKKAdQfDFWggIASEgBISAEBACQkAICAEhIATKEVBAW46dKIWAEBACQkAICAEhIASEgBAQAkJgBBFQQDuC4Iu1EBACQkAICAEhIASEwNhFgE+qvP/97w+LLrrooJJ8amXLLbcMK6ywwuA1nQgBIVCOgALacuxEKQSEgBAQAkJACAgBISAEuiLAdzWPPPLIsPzyyw/m4XvohxxySNhggw0Gr+lECAiBcgQU0JZjJ0ohIASEgBAQAkJACAgBIVCLgH1nuDajMggBIeBGQAGtGzIRCIEQNDCpFQgBISAEhIAQEAJCQAgMFwLyLcuRHJiZonM+55xzhtlmmy2rpOeffz7mMxqrgKeffjrMPrti5CwQlcmFwAsvvBDzT5gwIdDuOiXaL+2v2/0qDe2WP8r0JGjmmmuubBKTHbly+0epLvRnT0KXXLwot0QXdPbwIS+pKV2svq0O0X+OOeaIPLv9Qwd0f+aZZwLbx5SEwHAjMGXKlFiktcW6fkmbNDsBIXS59oU+xp/1hVxd4JfTX6w88pPqdLH8HE2nXJpSXcAKHrmYtamL1/Z5dTG8zQba705Hysb2yb/rhE7eNfCj/YDh448/Hom4RttlPLFreaWNvVw2pmLDwCm37xsSHtsHDf0L22e21srpdaSukMvsQK+83LN8Hl2gKdGlTpbqfXTJ6ftGV6qL2SUrp+5IncCLvpGbrF7IP2CCcrTzuoIsn9FwpFD+lIRAUwjwzIm1uSqPtO1Z+6zm6fbbm9/KyaWzfBzt3MqoOzad3/jn8knzpedWTrejJ6+V4aHx1L+Vmx7t3HhXjwwyL33pS2XjqsDo97AhwEtiZsyYMYuN6NUuO93rdK2XgJ781seg8dAZ/xwa4wFNTn4ruyS/0Xj5GF3Ku9d50+Ubb/gMNy/qA9u33HLLyfYZ0IXHRx55JFxyySWzBFGPPvpoOPzww8N3v/vdwlJ9ZCxGEWSUtBMfJ19ubJ8FtUaZI2OpvbC+ksPD5OFodOm1nPMcPm3rYvrkyJ/maVIX45PDw/LaEZoBBlAidQsW7Gavo63QGg0Vsfbaa3eNqrkPDxptbuQNzcSJE6NcvWRJ76EQsyHTpk3L7rDogrG+6667smhMF+gMh1SGTuclulAOmHl14aUD//znP7NmnUebLtQvg0K3NgRe3KNN5yT0n2eeeWIb4zw3zT333K7+YvLSXxhMctJo0CV3dtNmKHnTY06iLsCYejTscuigyeFheehbJOqlTpcjjjginHDCCYMrWp42hh3z6IL+XtsHzbLLLhv7fp0uhiWz1PQp8OBYl+DRhh2Hz9JLLx3uvPPO2noxmdGFvmVjkl3vdjRdmrbj8FlqqaXC3Xffna0LGJOsnXbTgfGU8q2PoAvXchJ0JbYPupz+YjJQL/zl1gt0bdk+cEOuXJtMv2IFoQ1dqHurV8Oy17FJXQ4++OAYcNlqfpO2Dx0XWmihOM7n2CTyk8/r95XYPq8dR7bJkyfH1dennnoqXH/99WHHHXcM1113HbdiAHfZZZeFb3/72+HMM8+M15rUhTZ11llnhSuuuCIcd9xxLn8c4SZNmhRXmLEBuYm+7PFhyU/5dbYv5U+9eGwftLRleOT68NSLjcm57dJsn0cX9Pfqgv3C7uf2S/T3+rBt2D7kIoEvNjY3pbr49id24YAABFG9khmD3AZEWQhanbXpxcMaHVu3chsd8tCIcJ5yadCFBuR1HtrQBczuygzOwbJUF4xUrmErqRcGaBwu6iXX4ejVNob7Xm5bGW6+deUhV269WFklupTQGL/ReGQihb+hBOdN2j7qnEHaEwSS34LA3Dppw46jC85AG7o0bcfBlb7i0QXdx1oaS/ZiLOmS084efvjhwF+p7cOh9wTnPNbx0EMPZftj2DBkw7/KrRuvLuBUYvsWXnjhOG488cQT0dY+8MAD0RZQHnqSWKXFPpDQBX/U48Pm2nGCBMagJ598Mk6wEQB5xiSCc/TI9S+oCzDz6hKBGMf/ctuwQUR+L43Reo9t8SmVK2+5yFu68gsBISAEhIAQEAJCQAgIASEgBISAEGgYAQW0DQOs4oWAEBACQkAICAEhIASEgBAQAkKgGQQU0DaDq0oVAkJACAgBISAEhIAQEAJx62269Zrtm2yTzn10TRAKASHQG4Gx97BOb311VwgIASEgBISAEBACQkAItIIAz58uscQS8ZlSeycI7whZaaWV4rsPxuJz860AKyZCIEFAAW0Chk6FgBAQAkJACAgBISAEhMBwIcCLlAhgq4mXeCoJASEwPAhoy/Hw4KhShIAQEAJCQAgIASEgBISAEBACQqBlBBTQtgy42AkBISAEhIAQEAJCQAgIASEgBITA8CCggHZ4cFQpQkAICAEhIASEgBAQAkJACAgBIdAyAq0EtLkfYk51L6FJ6Zs6N7ns2BSfoZSbK1tuvk6yeGg9eY2Xl8by29HKaero4WN57VgnU26+TuWU0DZJk5adnneSfSjXrGw7DqWsbrRp2el5t/zpdU9+y2vHtJxu55681TJyaXPzpeWX0KT03vNcfpbPjl4+uflLy4eulDZXNvJ5eHjymgxGY0e73u2Ym68bvfd6Cb9cmtx8nWQeCm2n8qrXvOWn+dPzarmj4Xcqf3reS3bLZ8deeYdybyjlD4U2R+amy0cG42HHOrly89WVU3d/KHxyaS2fHetksvvk99IYrfeYyyc3n5d/t/zGb2DOOeeMYHgeTrdXj3toEGTChAnxr5tQ1esIOXHixOrlnr+h8ciFLrw+HT4cc1O/6oL86O/RhTfsed6y11a9tKXLXHPNlVvtMV9JGzNd7A2HOQznmGOOwF9uQq6mdYEHiTbm0cVoInHmP2yTJ+XWi2G0wAILxHY///zzu3WxMnLlw154E3LlJnSHR4kuXpxLdJk0aVKuKnE8Giu6oDT4NlEvzz//fGy31g/bsOPwaqPvt2H7xpIu4OUd92mb0HiTl8ZrX2jHXn+s33XxYJw7jlXLrKsX2jt+ofl62FiPLaceqRfzAar8O/1uSpcqL6/tQxdkw4bmpn7VBV8E/b2+Yl176YSLl8Zrx6kXT+yCjGm9DPANLMCYMWNGJ/k7XrNG8Oyzz2Yzp+NAZ8Fwx4IrF1EOHrnJOmuJLtDkAildfPVC/Xnr0toJ9W8OW107oF6gs/ZZl5/70NAH6BS5qVQX2liuLvRJr8HtZ13A1vO9vSZ1sbb1+OOP51a58gmBvkXgwgsvjLJ5bZ/XjsEEHtjkXOcJe0dez5jclu3Dvnpscj/rYvWSO76U6kIbaNqOM357/LESv482VqKL14c1XSKzjH8lutC/oKurF/otbd7GP68ulE+95PpKpbrQNj32Al+hVBfocpPXXpb0MXTx2nHastVNP+lSYsdpM/x56j+tlwHAs87AMSdZI+CYS1NSUchivHLkQhZzhHPlonwLHHJp4GE0OXKRF9Db0MUwa1oX2o3HsCEXnS5XrtTo5vLxdqC0XnJ5WH176rJNXeBl/EzWumPTupjzm8uHujB70YQut912W+yPlL3KKquEG2+8MdtBpx/ThqdPn14Ha7yPLnyuAWfCoz80U6dOzeJBJvisvPLK4aabbmpUF2ZoGWya1mXFFVcMN998c7YutBccCE+9oAs2ib+cZHXprZfll18+3Hrrrdm6YMf4mzZtWo5YMe+CCy4Y68RTL7Rl+gB6eVIuD8o0e++hacuOozdyefTHlrWhC/XisX2lunjG5LbsuOlibaeubdLvSU3qQvk2Jnnq33SBPiehC3p7dDGaOrnsvrUrjnYtRzbThWNOQg8w8+pifHJ4kAceXhrTPVd/a4seXYwmlwe6eG0fNOhi+vA7N3l0ocymbR880APcPJhBZ/n1HVrQUBICQmDcIIADwBZYBsF55503npuzVgcCQQDJjnX54eENAikTGga33AQfgmD0ytXFgsBcXZCFLWeegBaaEl289VKqC4M6fznJMPbUC+V6daF8/tBJSQgIASEgBISAEKhHoJWXQtWLoRxCQAgIASEgBISAEBACQkAICAEhIAR8CCig9eGl3EJACAgBISAEhIAQEAJCQAgIASHQJwgooO2TipAYQkAICAEhIASEgBAQAkJACAgBIeBDQAGtDy/lFgJCQAgIASEgBISAEBACQkAICIE+QUABbZ9UhMQQAkJACAgBISAEhIAQEAJCQAgIAR8CCmh9eCm3EBACQkAICAEhIASEgBAQAkJACPQJAgpo+6QiJIYQEAJCQAgIASEgBISAEBACQkAI+BBQQOvDS7mFgBAQAkJACAgBISAEhIAQEAJCoE8QUEDbJxUhMYSAEBACQkAICAEhIASEgBAQAkLAh8DAggsuGAYGBsLcc8+dTfnCCy+E2WefPSy88MLZNBMmTAjPP/98gDY3QeORa7bZZnPr8t///tetC3ihRz/qArYLLbRQAIuc1IYuyOGtS+qFRBvz6AId7Sw3Idc888wTjF8OXT/r8txzz0mXnEqcmcfqfJFFFsluY3PMMUcs3dvGmrZ9CIVN9upC36LN5Ka27IWNLxxzEvXSr7ogG3YsVxfy8Yddyk2l9eK1ffDxtLFSXdqy457xpU1dvHZ8rrnmco2V9BXq0tPGSm2fV5eJEye6fMtSXbz2gnHfa8fxX/HHcpPp4vF7c23fs88+G+0K+M4///xuHxaZ4GXjZp1OTeqS8i6xffQXcGjShy+1FyWxBTRen8TTxkp18dpx6pLksUupPz7w2GOPBSp36tSpaRvpeQ5wDGqPPvpoz3zpTRrPjBkzXKADuEcuQC/V5ZFHHsl2atEFI+1xBNFl2rRpLmMAH4/+NOrFFlss1gvGJCf1sy6LL764WxfaJu0sN7VVL+hCG6ON5iTaMfXp1WX69OkuI+3tYxioEl2gY0DNTcjVhi70F0+9zDnnnNFOIFtuQhd09ww4JfWCTX744Yej05EjW4kubdhxZMcJpF7Mia7Th0GNvuWplzZsH3IvsMACbl3Qm/EiN6FL07YPWSZNmuTqLzgo/Hl0acv24TR5+j51Qjvz6tKG7QMz/LHccR9d6P8e/4L8JK8d99o+2gv1kqtLid/Xlu1DB4+fXKJLru2jHvApaL9PPvmk24edPHlypKOMnITu2CVPG0OXEtvn9cexY8iV68OX6FJi+0rsOHYMPXL7ZVu6lNhxaJDPY2NTX2nQu8boelMJjZeHJ7/JY0cPbZN5TR47enh5aDx5PTKkeYfCo4TWQ+PJi07e/KU0KX5NnZfoUiJLCR8vDfm9NCW6GI2Xlyd/m7p45EJ3b37Dq+ljv8vVtHyl5XvoPHmr9T0U2mpZw/Hb5LHjcJQ5nGV45PLkrcropSW/l6bKs9dvK79JHsbfeNnvnGMbcuXI0SlPE7JVy6z+7iRH9VobNCU8qnLW/YZHCZ8SmjpZ0vtNlw8v42HHlH+3c0/ebmW0cX0woG2DmXgIASEgBISAEBACQkAICAEhIASEgBAYLgQU0A4XkipHCAgBISAEhIAQEAJCQAgIASEgBFpFQAFtq3CLmRAQAkJACAgBISAEhIAQEAJCQAgMFwIKaIcLSZUjBISAEBACQkAICAEhIASEgBAQAq0ioIC2VbjFTAgIASEgBISAEBACQkAICAEhIASGCwEFtMOFpMoRAkJACAgBISAEhIAQEAJCQAgIgVYRUEDbKtxiJgSEgBAQAkJACAgBISAEhIAQEALDhYAC2uFCUuUIASEgBISAEBACQkAICAEhIASEQKsIKKBtFW4xEwJCQAgIASEgBISAEBACQkAICIHhQmBgttlmC//973/D7LPnx7aW1465wsCLP0/y5Dd57JjDx/LaMYfG8uTKZvngAdY5KaXJyU8e0wFao8+h9eS3cu2YW34qn5fGw4uyc/NbPjt65Cql8dLl5icfbYtjLo3p68lf0sZS2Yxnr6PJw9HOe+VP73nzQ4tOHjqPXFauh8b0MVr7XXckv0cXK9+OdeXbffJ7aZCrxPZ5+Xjzo1MujeXz6GLl91u9mC52tLrNOXp0sfJK+OTSWD7keuGFF4xl1hFao68jsHx2rMtv9708Su24p15MB2hyEzQmWw6N8fDob+V65YLOQ0P+Erm8NCX5vbrAw/SJJ13+GT5pfjvvQvKiy5SR28esbOP7osJ6XDDaHllmuUV+Dw15m9bF5LHjLAJ3+WF57dgl2yyXyWt/s9zo8sPK9tSL0dixS9EvuuyRC2LLX8IH+oEJEyZwDBMnTozHnH/PP/98ZDzXXHNlNyIM4cDAQDB+OXyg8chFmV6aNnUBL0/y6mKGBsxyGwQ85phjjlg3ubJB05Yu8MnteP2uC/Xi0YU69LR/9J9zzjlzqzHmg8bDI21jTeuCrchtxyjj1YX8JG+9GE0kzvgHn6Ztn+lCf6E/5ySj8dR/qS4ee2FyjRVdaMNt6NKGHafPt9FfSnTx2j54tKFLG3YcXWhjHpuMjfD2/RJdvHYcW4kuubbf7IVXlxL9vXbc2liOPbY86NOELuDJHzKRvLpQj9SL4W3y9jo2pUvKEx7ohD65CV3wZTw0/awL/T6374NRW7p47YXXVlR1GZg+fXrsPFOmTMltC4EgEECmTp2aTTP33HOHGTNmhOeeey6bZp555gkeuWyw9dCYLtDkGtBSXcAL3HISssDHo4sFG15dqBPqJjdRL23pAp/cemEQoD69ukybNs016ziUesk1OuhCfT777LO51RKoF48uFOztY9Z+aWO5ujAIkrA1uQmM0Z36zE3jXRfqhnoxh6UONwIA6rANO+6xF8g9lnShH3vqhUGdOvTUS6nt89aL6ZLb981pRv/c1Jbtw7Z47Fg/6zJ58uTYXnLHStoX/d9TL23Z8UmTJkW5xoIuXl+BfkX799RLrh1nPMWumg/u9cfhg70wP7OuP5foUmL7wNjrw9L+8ZUMizpdSvxxdMFmeOqyxI4jO3rk+oolurRl+7AxXp8k9fvilmOrzFwDkuZLz62cXsem8xvvXD6Wj6OdWxm9jp78FgRQXi6PNF963ksmu+eRLaWx815H08UjU5o3Pe/FJ82Xnvei4R55c/ObLkZXV3Z6P5dHWrZHNuOVy8d0aZIHMrXBx3ik2BkedcdcvKrleOly85suTdeL6dMmH+OZe/RgZnrk0pgMJflzaawu4ZVLk8rloSGvN79HLtPFw8N08fCx8u2YllF3nktjunjkMt7wyOWT0th57jGXh+lSIhey5PJJ86XnOfrk5jddPHIZf3jk8jGaUj4pfd25V66S/CaDV39vfi9eVr4dTc6cYy6N5bNjTtmWp0matOz03Hj3Opbk99CQ1/56ydHpnocP9N78Xhor346dZO50zfLnP0DRqRRdEwJCQAgIASEgBISAEBACQkAICAEhMEIIKKAdIeDFVggIASEgBISAEBACQkAICAEhIASGhoAC2qHhJ2ohIASEgBAQAkJACAgBISAEhIAQGCEEFNCOEPBiKwSEgBAQAkJACAgBISAEhIAQEAJDQ0AB7dDwE7UQEAJCQAgIASEgBISAEBACQkAIjBACCmhHCHixFQJCQAgIASEgBISAEBACQkAICIGhIaCAdmj4iVoICAEhIASEgBAQAkJACAgBISAERggBBbQjBLzYCgEhIASEgBAQAkJACAgBISAEhMDQEFBAOzT8RD1OEUg/Gj9OIZDaQkAICAEhIASEgBAQAkJgxBEYmJkCzvmcc86ZLczss/8vDp4wYUKYbbbZsunmmGOOYLQ5RMgFj9yELCW6QOfVBT08snl1QWevLuBL8uoCnacekYt240leXV544YVYPLrkthl0KKmXsaYLWOcm8nracWm9II+HD/nNNnGek7y6GE7YPk8bQxavLtA8//zz4bnnnotHftNe6XuUVbW/JbqYHTM7AI9eCZ2Nple+6j3Kz8UL2hJdoAOXpnUpsRfeujeMPbqY/hxzE+XDKzdRL17bR/lN9xd4lNaL9ekcDIxHbls2bD31X6qL1/aV6lK1O71wK9Gf8kp1MX69ZOKe5WtDF6/ts3qp08Huowtt2KMLPKCra5eM3eQzO+TVhfzw8PSxpnQxvOyIbNYO7FqvI20SXXL7PmWV6AJdXb2QxxI6eNuM1WeT9WLYNq0L9QIvDx/0tvwDJqinYg1860j2u+4IL+NXl9ful8pl9LnH8a6LF2dvfuqhhMZrqGhfXj7e/KW6wMfDq0SXpvuY9V+PLilNbn8kX9O62ADQlC6Ujw4LLLBAWHXVVcMWW2wR1lxzzfDyl788OnmPPfZYuOmmm8Jll10WzjnnnPDkk0+GqVOnDrYRT1sxXegvuXT9Xi9jQRdrx23pklv31g+9+aGDxkvnzU/bLKGxNm361R3Hii7o7R0rrS7rMLL7hm3T9WJ1b/yMf93RI5eV7aGBP3RGWycP90val9HllE8ek6dOF9pHmt+rC/nhYWNNLCzjX51caRG5uqQ0nJts1evdflv+saCL1YkHZ3Dx5i+hMZy71UP1OjJ5aVK5BmbMmBHmmmuu6EhRUE5ipYE0ffr0wc7Ui45GM/fcc8+yOtErP/egmWeeecK0adPqsg7eR/6JEye6dYHXWNEFMMAsp7Gm9cLKUU6yegEvznMT9Y+z7m1jubogB+2YWUjadE5qSxdb1QSznHoZDbpQLzZA1mFts83PPvtsXdZ439ol9WjY5RDSxjz2wspuQhdkf9nLXhYOPPDAsN5660WsLrjggnDEEUeEu+++O4DFIossEgPdd77zneErX/lKuPnmm8MxxxwTTjrppLDQQguFKVOm5Kg9iBm4eXRhVpP2SLvMSVYv6SpzHZ31MU+9QENqQxdbNa/Tg/ulutDOPLowS03fgibHXiIX416JLl47Di+vLuiTqws4t2XHvfVCndBn2tAF+2D2CUzqEnWPXLnjC/mwyx5d2rLj6EK7zGn74NKmLh7bh2zkz7Wv5C/xYXPtuPV18/W8umBjrAxkrUtN6mK8sUcWW5hedq/XEczQhbaWk0p0we6V2D6PHUd22j+65/q90Hj98TZsH3KRwNrTZ1JdfPtG/8fP/R8BvamExsujJL/JZceSMpqmyZUtN99Q5S3hU0IzVDk99P0qH3Jh5D2pRJcSGo9MbeRtQgewZ4DZeuutw/e+971w9dVXhz322COcddZZsV7M+YA3Duv5558f9t9//7DCCivEfAcccEDYaqutwu677x6efvrpbAe1X/FqAuPh0LUtuUr5QJdL68k7HNiVlJGrS0nZQ6EpkauEZigyNkE7FnRoApduZbaFV1t8uunZ63o/ytaPMlUx9MpYkt9LU5Ux93dbfHLlsXwml14KZYjoKASEgBAYIgLMyJ5xxhnh4IMPDttvv31g9fXcc8+Nq07McDPTOWh8Zwa+BLjzzz9/eOihh2IQu/7668fVtksvvTSsvvrqceZ1iCKJXAgIASEgBISAEBACYxoBBbRjunqlnBAQAm0hwIorq7KveMUrwuabbx4DWVZsLYCtk4N8BLYbbrhhOO2008JFF10U1lprLfeKex0f3RcCQkAICAEhIASEwFhCoJUtx2MJMOkiBISAEKgiQOC6zz77hLXXXju8+c1vDo888oj7DbKUSVDLiu2ee+4Zjz/60Y/CK1/5yvjMS5WnfgsBISAEhIAQEAJCQAjMfJ5YIAgBISAEhEA5AgSzrMruuuuu8TnYf//73+WF/R8l25N32WWXQFlnn3129ipvypgXK1T/vC+bScurO+elFHUvcyBP7svB6vjpvhAQAkJACAgBISAEQEArtGoHQkAICIEhIEAQ9+1vfzuceeaZMfjkrXvDkXi+llXf008/Pay00krxLci55fKmxP3222+WZ3BZ/X300UfDlVdeGW655ZbcorrmQz74sNWaQPVDH/pQWGKJJcJhhx02+F24lJg822yzTXy785FHHun61mJajs6FgBAQAkJACAgBIZAioBXaFA2dCwEhIAScCPBZntVWWy1+cme4glkTgW/UXnXVVWGnnXaKn9iw63VHgkxWjHfYYYf4/dstt9wyvO997wuHHnpofLMyQTJ5ShOfFfrNb34z+Iwvnw2AB3J2+3wC13npFS/K6panVB7RCQEhIASEgBAQAuMXAQW047fupbkQEALDgMAmm2wSHnzwQdcKai5bth4fcsghcWWTNyR7EqunvGF5lVVWiW9MZpV33nnnDRdffHH8veaaaw4WR4DJCqqttrKN2pJdS4/c59levhkKH1Z/OfKXJn5TrpVNGdU8aX6dCwEhIASEQDMI8C1h3sRfmrDzSkKgXxFQQNuvNSO5hIAQ6HsECNDe8IY3hJ///OcxaBtugfmm7V133RUeeOCBsNlmm7nfeIzzQhA733zzhUmTJsVPAvFZIbYLsz2YNG3atLDbbrvFrcisBv/qV78KK664YuRF8Mkbm1nRXWqppcLll18evva1r8XVaLZaf/nLXw7vf//7Oz4XS5C8xRZbxM8YXXDBBbEcPT873C1E5QkBITCeEcDO5thVgtlNN900PhKC7fZOLD755JND2tUznutIureDQCsBbTrbn6tWCU1u2UPJZ3LZcShlNUWbK1tuvk5yemg9eY2Xl8by29HKaero4WN57VgnU26+TuWU0DZJU1J2J73qrhkfO9bl574nb7fyKGP55ZePn9jxrqB2K7N6nYCTz/m8/vWvd8tMwI2zY39TpkyJL7DCmXn88cdjed///vfDF77whXDttdeGP/7xj2HBBRcMv/vd72LAC/0yyywT3vSmN4Wf/vSn4emnnw5PPfVULI/Zen6Tp5pYkd16660DZRNM33vvveHoo4+O25K9jlS17F6/c+s0N18vXjn3SvlAl0vryVuVOZcHdJ68xsdo7GjXux1z83Wj914v4ZdLk5uvk8xDoe1UXvVa0+VX+fXr71wccvMNVc8SPtDk0GGveckggWlO/qounex8Nc9Qf5tcdqwrLzdfXTl194fCJ5fW8tmxTia7T34vjdF6j7l8cvN5+XfLb/wGmLXhh+fZL2vYbIfzbEFgVYC/3IRc8PCkEl3QYazoAlbUpadeWMXxbENpq17a0oVtk55U0sZMF1bcchMBkidIQq6mdYFHiS7QePsytsmTvPUyHLoQnC266KJxu7Gnz3n0IjjECeFNymDYqQ2hC/zp+9yn3XBt5ZVXjp8Aon9Dy3O0kydPjgEpASyrtnzr9vzzz4/5oCGg5R7Pup544omxLFYBWLn9zne+E8tFZ1ZzjzvuuHDppZfGTwyZ/vChHR5zzDHh17/+ddhuu+2iXMgPH+RDzm7tYSj14hnHqIM2bJ/p26neerWD8axLG7avrXppQxd40F6sD/ZqV+k9bxuDtlu/TctNz712HF3g0YYuXv29PqzZ3RSPunPsn8mF3eXPk2jXYMfYBJYkzrnGb295Ht7VtpHq4inH9M+l8dpxi3s8k6v9qgtjLfVqdZ2DWVu6eOWif3n7farLgDV6nKbcgqwR0DFyaGCIoNBxnpPIR6NDLk+iYY93XdA/x3myemGCwiYp6rA2Gq9RLK2XftSFtsyKV07bB0/DFsxy6wW8wNpom6qXUl2olxwDig7oQjK7katLib0oqZdcXZDbdDZdrB8QcHoH4Toc7D5tAD4MXN3aEDiTTBeTi23CH/zgB+M92isrvay+HnHEEeGZZ56JdfO2t70t1s1rX/va8NKXvjSss846g04P5aErvI899tjYJvnNdRLn8LLfXOP8He94R7x34IEHRlzI85e//CX87W9/i/2GPLS9TqmqS6c81Wv0K/4oN6dfwgP+YNtkH4MPf8hlbacqe/W3dGm+XsDcWy+0K+rQ08basH3oQhtGrpzxhfxeXaCx9mu2j2u9kvUx8nOem8ze5fRjyhyKLtilHD5D1SVXd/KlvlKObVp33XXj98/ZAcM4xOMpPBry4Q9/OE44Ytd5jwIv7PvmN78Zy19ggQU8ImXntXHHCFJd7FqvYxu2D/42buW2ZWj6VRcwN32QMyd5/T5vH6O/gBfHnDZsMlP/8Kq2I7vf6ZjqEgNaGOd2bAq0RuChMefBaDsJ1umaRzGAgI9HLuQBdA8NPIymk8zVa+QlOG9DF3ijU24jsnrJlc10Mdyqunb6XVIvJj9y5Q7S1oGa1AX9wMzTjtvUBV7Gr1NdVK+V6uKpf3OEPPVicnl0QTdPvdCWSchl5/FCj3/WFk0X48eqJ1uDaevDneAJHjgr8DUZUj7Iz5/pwhFZeBPxRz/60cGVe65RH/xRJmmrrbYKX/3qV6NDzLNVTApQFthTDkfo+OQPz+Py2/S2PMaX8jhfZuY2ZbY3s60ZWpPn73//e1w15jd/nZLVBfftvFO+9Bq6kNfkSu91O4fG5O+WJ71O+V47Dj10Hl2wY9RxG7rAIxfjtnRpy45be8nV3/qNp17QpaSNwQO63GRtrJNt6FSG6UK7pH/mJCu7W7+tloFM9LFSXTxyoU+JLp66NHvhofHUPfiBcWovDVOwTPFI2ywv99t2223DD37wg2if2BHDoyAkxiTsMPhcdNFFcXJznnnmiffSMuKFmf+68Uivk7dKa/fTtsE1MPPUC/kp24Ox1UvK2/TpdqR88ufyKdGlxI57bR/60cZMn276Vq9768XsRS5e8CvRBT5g7alLdDG5yl93VkVIv4WAEBAC4xABnkt61ateFf7617/O4hAMFxQY7Pnnnz+ucJrjkFs2DhKrq/x1SsvMDDxZRT3llFPibP7DDz8cnaH77ruvU/bsa6wSsGKN7JZYQeLNyB5H3Wh1FAJCQAiMNwSwldhovt99wAEHRDuOs//xj388rsTyboINN9wwbtH+7Gc/Gz/LtuSSS8bJxxQrgkTeZfDyl788Bgu8E2HttdeexRYzVvBYye233x6mTp0aHxVh9w48TjrppHDXzJcTYs+Z8ORFgLykkEDi7LPPji9FZLJTSQiMJAL5D/SNpJTiLQSEgBDoQwQIMG+99daw8cYbD84SDreYPJfEG4n//Oc/D2vROEsveclLopPCSu4dd9wRX/jEy5zsGaPqTHwqAPdwcCgnDbQ5Z3sxaZdddokOEE7Yq1/96vi8rgLaFEWdCwEhIAQ6I4CNXXrppcMee+wx+B1ybOnOO+8cxxzsNwEvdpgxiBUu3jzPuxLSRDlrrLFG+PrXvx6DVSZg3/3ud8e30POuBOz0nnvuGR85wT7zeMlhhx0WfxPUXn/99eEtb3lLXD3lBYJHHnlknGSF/w9/+MOw1157pex0LgRGBAGt0I4I7GIqBITAWECAWe0rr7wyvOc974mz470CwBJ9cS54i/Jiiy0WvynrfU43DTSr/JH9n//8Z9wWzMueCGp5kzLfq/3Pf/4TPvnJT4bzzjtvlmDVymCW/pFHHokO0sILLxwdILvHkdn8ww8/PH4O6DWveU246aabAt/rta1waV6dCwEhIASEQGcEbExJbTlBLb/ZRnziiSfG1VTeW8AjHuyE4X41MZZwj62gJ5xwQqSjbGz+WWedFXfoUN56660Xn7/lXQo333xzDJZPPfXU8KUvfSn8/ve/DwS4N954Y7TnjEf77bdffEaXYNq2flZ567cQaAMBBbRtoCweQkAIjFkE+MbqjjvuGAd1BvrhTGz92nfffeOWLwLQ3ISzc84554Srr7664zO3Vs79998fPve5z4UPfehDYbnllov5+XYsweeWW24ZeN7qH//4R9xWZjQc+XQPL5bacOZ2N4JUnCScHbYq49iwwktAixx8p5eXTR166KHhnnvuCa973eti/rQ8nQsBISAEhIAPgTTITc/rSiG4JfhcaKGFYiDL7h8CUxKTs2w7ZmWYyVSC3jvvvDPurmEl+JZbbomfZOMt9rxgkDfdk7+pF01FofRPCGQgoIA2AyRlEQJCQAh0Q4AVWhyC3XbbbfATNd3yeq8z685WXbaDdXsOtlOZOCEE2ZaYme+U7Lmpc889NwafODqk0047LZx++unRmWEV98ILL4zXKYc/nCG+McuLSOCFo8M2NBKOlfFjixvPbhGYW9msAniC81io/gkBISAEhEC0rzyvit0dSsKGY9cZV3gxIOVxje3Iiy++eNh7770jL+PBZCS2nbHohhtuCLvvvnt8lpbdOowfbEUeqkzGS0chUIKAAtoS1EQjBISAEPg/BNh2xWD+xz/+MQa0P/3pT+Mq5VAB4o3DBx10UJwFv+2227KLw6ngjcj9nAiSeaaL1VwlISAEhIAQ6IwAQSaJXTAkXhA4VLtJEMpkJN8Tt/c/EKxS7nXXXRffRM+jIgS7TESuuuqqYfXVV4/vQ/jYxz4WXwLFCu2yyy4bn9ll4pVnd5m4VBICI4WAAtqRQl58hYAQGBMI4Agwe803/nhj8FVXXRX+9a9/zTK77VWUFc4f/ehHccsvb5ScNGlSdhHIk/PGSbYFk5fAOTcRvCNbp2e0upXBtmUcnXT2nhVa+CsJASEgBIRAZwQIMHn/AEEl3xNnJZRP9PCiQEsEvOyQYcsv7zWoS9hu3ojMuMIuHt5ibOMLn/lhCzEvnfr85z8fTj755HjvZz/7WXzfAo+xfOQjH4m7hlih5ZldtiOnO3Dq+Ou+EGgKAQW0TSGrcoWAEBg3CBAYEtAutdRScRvX9ttvH9/0a7PquUDY6iov7XjXu94V3vrWtw46G7llkC91eLrR4QQRWCJ7bmLGHhqPXjbLn8tD+YSAEBACQuB/CPCOAj6Nc/zxx8f3FRBA8u4DC0LZNsz2YN5EzGd5sLc2oclkIiu6jCvYe/5ITLwSJLNKmyZ2BDGOffrTn44v+uMxGgJl3uRPAIvtJw+Po/DpHxJj3k477eSaGE156lwIDBcCCmiHC0mVIwSEwLhGgNl0th7zbOmZZ54Z9tlnn/j2SFZAcQR6JRwOHIwVVlghfO9734uf09lggw3iWyY9wWMvHronBISAEBACowsBxgUmSD/zmc/ElzjdNfMN8vaWYwJWHkdh6/DkyZNjwMs2YMYi7vEJNlZwCWr5vM5RRx0VeCt9tzGFiVACYgLWM844I74BmVVfXgxok6S8BJGXSfEWZHbrXHPNNVEeeCoJgZFEQAHtSKIv3kJACIwpBAhMd9hhh/jNPj51sOuuu8aXJXGOY4IjYaui/MbZYJsXL+Jg1nz99dcPl19+eXREcCS6OR5jCjQpIwSEgBAQAl0R4FEPJkZZmSXg5M8SO2x4fOOZZ56JY4ut3HKfoJbEuEQe/jiveyOxBad//etfI70Fs/ywe7wMkQR/uxYv6J8QGCEEBpi5wWmyrQg5ctAhaMR1nSIti47ErBJOXG6CxiMXMqXbKnL4lOgCD3NGc3iQJzUmOTSlulC2p15Ggy5gkZPGmi60Tc+zit42BqbePoZMJNqYp15KdGnaXkRFZv5jZjtXFwsw6+qFwX7dddcNX/ziF+Nnd3jb7yWXXBJwEHi+lpdyMMvNN1/ZurXaaqvFl3HwYg2+CYhdzu3HyI48lMmnFnhDJU4NdYud4vmmRx99NDzwwAPRKaKfkNAF2tQ5ijd6/KPMknqBztpOj+IHbyGXt168urRhL1AIZ8+jC/mZ9ACz3DTWdCmxF942Rvv32DHqBBpvvZToQp/0+ErUf9O65Nq+tM2CVYm9yLV98CqpF7N99jb2VOZu5yW6UI/Y8tyEDaMu+SMRxKbvOOB+t9TrXjeauuu9yqzeo51j58zOcz/VpY4X9832ecYkeHj9cQJ06OyFW3WyDUUXr73w6gJW6FHnk5iOberitX3UCfJ5MCMvdKQB9udzgVWC3AR4OE3Q5iYaEMYjtwFRLrNSnremAQSV69VliSWWiN9VhD4n9asuNgDyjchcXbydAXzQHyNrhqsOM2SBxlOXqS4MWDkJXaDzDFJeXZDD2y7b1IWgxvjlYNaGLmackC03US9N60L7XXLJJWPfz21jHl3uvvvusMsuu8Tgkm+88mkE/njOCX70U5574jkmXrpBvVndTZkyJbu/YO/e/va3h/333z/qg3E3xwAdKZM+QZ/lWSy+D8tbkNGFvumtl6btOG1kscUWizKiR05CZzBNnb86uhLbR38B71zbhwyLLLKISxecbfRuWpcS27fgggu6+gu68OcZk9uy4wRN9MHcvk+d0M48utDHaCveMclr+/g0Vhu60J699sKrC33M48NQf+DsrZcSXby2D7k8fnJVF4+dQZ+6hE2hHdMnvQlZevmV3KPeLPGbvuypl7ZsHzLij+bGI/2siwWzHhvj9ftKbF+JHYcGrD1tJtVlAGeHhgooFJSTzOny0kBntLl8PPmRv1QX+Hj0h0+ubJY3Nz/YlOhindOji1c28hsNx5yELsjkbS+U7cGMvPaXI1eJLiaTVy6jy5HL8pbq4pXNm9/k8+jiobH25dHfyvfoYu3X+k2OPla+Heto4IETce211wZWbZlF3WijjQKf9mGFlqACJ5m/NOXojqP0zne+M74QhBXen/zkJ4FvvN54443xzZU4FzgIPF/Fs7lrr7122GyzzeJ93qB82GGHRdlydUE+k6uEJtWv17nVCzw8Ntnk61V2ek0iiN4AAEAASURBVC9tZ+n1bueW39NeKMvoPLrg2HowNh65NOQ3Go6e5NEfeewvl4flb1oX0z9XLhvHcuWiXOORS0N+L03Kx6tLk2Nyqkeu/qkuuf0FGspvUhfjAZ8SXaDPTeDm0cUmJusmwLjPy53OP//8sN9++8VJltxVPWRnvHriiSd66p9iQ/15dUnbjAcvb71Y/lTeXvxKdKFsrx2HxjDoJU96j/xeGvh42liJ7YOH/aXy9jonv/HqlS+9l/LwT9OkJelcCAgBISAEahFghpPglWTPNRFs2nltAZUMGH22MX/84x8P5513XvyWIFm4bsmepSLwJaDm7+ijjw7rrbdeOOmkk2IwzKcbbr/99lnojF5HISAEhIAQ6G8ECGZSu99LWiY5WZm0IKhX3uq9EppqGfotBJpEIG8vZ5MSqGwhIASEgBDIRoDg+JRTTonfI3zve98bvxmIQ5Pj1ED7hz/8Iayxxhrxmd6LL744rLXWWtnP32QLqYxCQAgIASEgBISAEGgJAa3QtgS02AgBISAEhooAz8nwrOzqq68eNt9883DHHXfEZ6I85bIyzKrtjjvuGGfrf/GLX8TtyPfee6+nGOUVAkJACAgBISAEhEBfIKAV2r6oBgkhBISAEOiNAM87vfvd747fJNxkk03i9wd7U/S+y9s3991338AqLd++zVnh7V2i7goBISAEhIAQEAJCoH0EFNC2j7k4CgEhIATcCPBSDl7kxAud+PQP24eHmghiWaldeeWVw3bbbdfxDabk4a32/PEChjTxXBVy8eIpJSEgBISAEBACQkAIjAQCCmhHAnXxFAJCQAg4EOCNhLzRmM9zHHDAAQ7K+qxsP+Z7uWxl5rMs1cSLq9iWzLO3vCkZWSyxavytb30rnHrqqXZJRyEgBISAEBACQkAItIqAAtpW4RYzISAEhIAfAYLO3XbbLXz1q191fdMyhxOfFrj00kvjJ3w23XTTF5GwQsv34Uh8M5fvd6aJz0bY/fQ656zglqRedL3ulfASjRAQAkJACAgBITC6EVBAO7rrT9ILASEwxhEggOOtxEsuuWQ4++yzAwHkcKcHHnggXH311eEtb3lL1yAUOdjmvMMOO7xo63FVHoJkVnYXXnjh+C2+9Plc7lEO13hB1bzzzjv4/C73+FC6fVuxU7kE1ORLy6zm028hIASEgBAQAkJg/CCggHb81LU0FQJCYJQisOGGGwbeQjxt2rRGNCCwPOuss+Lbk6vPyRpD7l911VVxpXiFFVboGNRCu+KKK4YrrrgiynvbbbeFm266Ka7sEoQSFO+5556xnGOPPTbccsst4Z577gkXXXRRDKZZKb7vvvvChRdeGLhvzwmzzXnvvfcON9xwQ7jzzjvj251//OMfB15spSQEhIAQEAJCQAiMbwRmZ5YbJ4Oj5w/YcvMbxLn5LZ+HR5s0JfqMZ11K8KI+vZiV8PHyMLm8dE3nb0su48PR89eW/h6ZSnRBD5KHz/8o/j9N9XenslIenK+66qrh4Ycf7vjSJitvKEeCTYLVpZdeOhZTlYmLEyZMiC+QevTRR8OZZ575opViaHimlqD0kUceiS+ReslLXhJOOumkQED+xje+MeJGOYssskjUaaONNgr8Lb/88uGEE04Iv/vd78JKK60UA9ytttoqTJ48OZa59dZbh1133TU+q7vEEkuEnXbaKbz61a8ORx111CxqV+Xu9dsIe+Wp3oOmeq2J314+3vzI3AZNZDLznwejUhoPjzb198qFP0by0JXkb4vGo0e/1gtYWfLoA403v5fGg5mVbUevbJ78HrmsXOQi2e+c4/8ofDQ55VbztCFXiS6lNFX96n63oX+dDJ3up3INsLULA8o2r9zEbDkFT5w4MR5z6ODBKgDOTG6CBh6e5NWFFYWxpAtYtVEv3Z6Z61ZXJfViuuBs5yR4sKJDO8tN0PSrLtYum9bF08ds9Q4aT72U6OLdWktdenQhPwnb59EFGi+fVBezuZTRrZxUFzDnDcNTp06NL2QCy+FOlMmbk02mtA/RP7hP30KWo48+Ouy1116BgPMnP/nJ4PZfaFkxPeigg8Kvf/3r+KwvK8rnn39+2HbbbaMO5KEcvqf7iU98Iq7GskL7t7/9LbziFa8IhxxySNSRzwhtueWWYa211gqXXXZZOPjggwMrsjxDTBm//OUv4zbsnXfeOW5tTttlLjZg3PSYBA+wa6ONtWH76CdjRRfwoi013fepf/jkJtqMd0zy6oIs8PH4feQneXVJbV8soOYffRIe4Jab+l2XXD3I15Qu4MkfbYXktX347tSLtYNYSM2/pnRJ2cLDqwttkjHDxo20vG7nbenitePoAo3Vazf50+v9qgttzNPv0QldzCYN4HDwY8qUKam+Pc8JaCkEBys3YThxYpjBz008g+WRi4GpVBf45AJZqgt4gVtOQhb4ePS3zunVhTqhbnIT9dKWLvDJrRfqnrbp1YU+YNjVYTDUesl1ntAFmZ599tk6kQbvUy8eXSD09jFrv7SxXF3MOZs+ffqgrHUntH3yU5+5abTogl60IzBkIO6UUl1oB+DgGbA6lZl7rSoX9Uy9W1185zvfCR/4wAfC4YcfHs4555x43caDp556Kga573rXu+Kbk1/5yleGV73qVYGXWqE3/ZlynnnmmfDQQw8Ntlfu029Zhabtcx+M4M2bl9F9tdVWCyeeeGK8Dj9Wf8nLZ4N4BhgsKT83tWHHkYX6Q5/c+mNQJ69Hl1LbBw/r0zm4oYun75ujCU1uasv20Q7Hii7sZKAuc8dK2heOsKde2rLjkyZNinKNBV28Phz2jvbvqRfqEbo6e4EvQV83H9zrj8MHHtiAnFSiS4ntA2OvD0v7x1cyLOr0oS166xJdsH+euiyx48iOHrm+YokubdlxbExOW07rK/WVBlKjkZ6nBNXzNF96Xs3X6XfT+Y1nLh/Lx9HOrYxeR0/+1GHI5ZHmS897yWT3PLKlNHbe62i6eGRK86bnvfik+dLzXjTcI29uftPF6OrKTu/n8kjL9shmvHL5mC5N8kCmNvgYjxQ7w6PumItXtRwvXW5+0yWtF6NNr1Xl4Xea7z//+U9YdtllY6CT61B0KrPbNeR82cteFgf5qlwmh9HyEqdtttkmXHLJJeG4446bZWJjueWWi6uzDOann356XEnFcWDFNU0EE+hhZXMkX8rbsGOQJ7GS+6c//WmQhvus1D7++OOD16y8lFev85Rfr3zcM3k4b5KPle/hYXntSBm9kumSm79aVi6d5bNjtZxev3NpTBfKyqUxvuQvoTH63GMuD9OlRC5kyeWT5kvPc/TJzW+6eOQy/vDI5WM0pXxS+rpzr1wl+U0Gr/7e/F68rHw7mpw5x1way2fHnLItT5M0adnpufHudSzJ76Ehr/31kqPTPQ8f6L35vTRWvh07ydzpmuXvvDzQiULXhIAQEAJCoHUEMNa8WGnNNdeMqyoEfsOdCDDXWWedcNddd2UNWg8++GB8iRSBLc/L2iz0ZpttFoNujtdee2085xlZG3BK5L7//vvjoyrIeMQRR8RdBawu8Ebm9ddfP7AqzOqBkhAQAkJACAgBITA+Ech7OHF8YiOthYAQEAJ9gQCroUsttZTrmTeP4ASL73nPe+KzrGz5qUsEqJ///OcDK8ds+bXVmCeffDIGn7zYiSCTZ38PO+ywGNCybakksQ35Zz/7WZTvTW96UwySed72+9//fnzGtqRM0QgBISAEhIAQEAJjB4F6z2Xs6CpNhIAQEAKjDgGCR1Y7Wakk6Mx9VsajKM+jsgJM4NxpNZVvv/IMUZr4bS9l4rk36Hj78fXXXx9++MMfhttvvz3+sfX43//+d/x0zzLLLBMDXV4elfJhG3P1EzzcZ+syz9Xsscce8eVSF198cVytvvHGG+OR62k5qXw6FwJCQAgIASEgBMYHAmVT5uMDG2kpBISAEOgLBOabb7643ZYXMREsDmfiWVa27xI8XnDBBS8qmi29fCqHF2kQ2FoikLzmmmviS5s4J8BlO/Smm24av2fLb75HCw1vKWbV9u67747B6e677x7zQ0e5G2+8cXymlhc8sNpL0M6KLoEucvHSC7Y385zv6quvHrdG33zzzfGeyaOjEBACQkAICAEhMD4R0Art+Kx3aS0EhMAoQoCgj2CT4JJP1wxnYnX1G9/4Rth3333DY4899qKiCToJNO0tp2kGu5eu3hKAsoJ69dVXRxq2MHOf53NJbEWmPGgt8eInrlniHkF8uk0Z/qz08kmgW2+9VcGsgaWjEBACQkAICIFxjoAC2nHeAKS+EBACowOBRx99ND63+uEPfzgsM3PrLs+9DjWxGsqzqDfccEN8K/FwvVyJIJa/NGhNz0vlpgyC+5znfEt5iE4ICAEhIASEgBAYXQhoy/Hoqi9JKwSEwDhFgNXKX/3qV/FFSOeee27Ycsst4zOqpXDwAqfvfve7YcMNN4xl2oudSssTnRAQAkJACAgBISAERgIBrdCOBOriKQSEgBAoQICg9sADD4zbefkG69prr539cXhjx/OobDPmWdxtt902bLHFFvHZVruvoxAQAkJACAgBISAERhMCCmhHU21JViEgBMY9ArzE6WMf+1g4+eST4zZhtgyzFTdnhRVaPn3DW5Pf+MY3xpdB/eUvf5nlWdVxD7AAEAJCQAgIASEgBEYVAgM8j4QjxIs8cpM9v+ShoWx4eZ6jQq70pSB18plT55HLnvOCj0c26DyytaULGLWlS44DjTwl9YLjTaIuc+uFfPyV1EuuLsjkrctSXUramPf5Qq8uhhMYmx0Ak17J6s9TL5TXli60sTZ0MRzQiwQe3TDJqZf9998/XHXVVWHPPfcM9913X/j5z38eLrroonDdddeFe+65J9g3YRdddNH4huF11lknvoF4lVVWCSeccEL45je/GaZPn+6y/ciNHjy/y0ovbRtZwY8/sOQ5XGsn5M/RhXzV5KkXeHv7Pvyg61YHVXn4jS7IlerXKV96Dbm8ukDvkYv8JbrAo990Aa+2dEF/eOUky9dGvXhtH7LRxsAuJ1k+aHKT0Xj1L9EFHsavTj7L15Yuxq9OLu572zFlm43JKd94QFdXL9hq8lk7pl68upB/xowZ0fab3eAaZYE/f+l1ry6UxV+dLlVsvDgjr7eNeXUxnD26lOiPLsjm4dOWLt56MR3sWK3nTr9T3WNASyZAyU2ATvLQkB/ljJbfOcnDw8ouofEAiNz9rAv6GxY5GJfqQkPKSSZLSb30my6mr0cX8CV5dQE3Dx/jkVsvUaj/k8vO645WNnKZXnU0JfVPmfAwfnU87L4HLyu7DV3SPsY5vLE5veTtdQ99+W7rlVdeGd7xjneEN7/5zfEtxW+Z+fkd3hhMUGm4E3jyGZxnnnkm/OIXvwgf/OAHw9NPPx3rL5XLMOx2pDzeVrz88svH7+Gy3XmZmS+nwonh7ch///vf43ds+RYt/HB8LNXpYvnSY9v1kvLudY5c1nZ65bN71o+b7i+eujTZvLpA10a9GGYmZ87Rqws86IMcc5Llg09uKqGh7BJdoDF+dfJZvn7VxeOPtamLt4+Rv2mMc/U3OcwOeXQhL2+hX2+99eJ487rXvS7w7XJ4P/TQQ3ESlbfP//a3v422nwnPXLnStlpCA71HF/KDheHB77pUIlcJDXJ4dSE/utjCSZ0udr9p/eEDBh4+pruHBj6WfwDHg88hTJ06dbABkqFXsrdr8s1Bq7Re+Rn8cYRwcIy2V37uQUMHgkduQhacOa8u8BoruoAVutAw6pLVCw4vfznJ6gWMPYn699YL5Xt0oe7p1Kkj3UtG0wUenOcmry5maHJ1QQ76ZL/rYkakDjd7cy62JidZuyS/YVdHZ3XpaWNWNvXSpi7oha1CVsMm1c90Qa6cRFk4EnfccUdclcXRwCHkxVGHHnpoDHp5Q/K//vWvyNOceAJR7ASrtL0StmGRRRYJX/rSl8JGG20UvyvLSvBpp50W7r333ki/0EILxVXg973vfeFrX/ta/D4tW6HJs+CCC4YpU6b0YjHLPeuLnnoxXaDxjElN2z50oZ15dKF+aI8eXbB9tmo+C5hdfqRtzPDuknWWy+T16oI+Xl3asH3woA/m9n3y0c5ydQG4UjtOnzT7NEsFdPlB3SNXzrhPEeTD9nh0MVvVpB1HNtMlpx+3rYvHh0U27EudfSWfJXT2+rBm++r4cJ/+a75eji70j9e85jVhn332Ceuuu26cCGWsOfroo8MDDzwQy1t88cXDaqutFncKfetb34q7hhh3/vCHPwTGBc+YbLrktkv0wR/z2HGwhg945MYj0Hj9Puxeie3z2HHkoi+jf67fW6JLG7YPuUj0gbq2/L+c//uf1ksrbznONUypkCU0KX1T5yaXHZviM5Ryc2XLzddJFmhzHaESPl4ab/5OOnmutc0vVzbkyq0XK7NElxIa49fE0eSxYw4PT96c8nrlSXnZuR2rdN2uV/OlvxlwcJ4feeSR8Pjjj4cnnngiOuqsml5zzTWDWRnIPQlZ3v72t4cf//jH8Y3KhxxySDj11FPjAGrOB3lwvhmI995777DCCiuEr3zlK+Hggw8OBLi77rprXB0u0csjK3lzeeTm8/Kv5i/lA10urSdvVb62fnt0aUsm+OTKlcpUQpPS98P5WNChTRzbwqstPnXY4UMwgfHZz342fPnLXw5//vOfw0c+8pH4DXDsPoGaTZ5g+y1w32CDDaLtP++888IPfvCD+FgLO4O8euXmz81Xp2/d/aHwyaW1fHask8nuk99LY7TeY1t8SuVqJaD1Cqf8QkAICAEhMPIIHHvsseFtb3tb2H333YNtJbaZ51Q6nBv+cHaYud9pp53CUkstFaC//PLLY2DLi6igVRICQkAICIH+RWC++eaLO3zYmbP55pvHVVcC13nnnfdFQmP3CX75Y/KUz8mxqst7GjbeeOO4RZmJ1n4Nhl6kkC6MWgTq96WOWtUkuBAQAkJACJQgwGor28bWX3/98IEPfCCccsopcRbeZuV7lYnjQj62ODNjTyB88cUXx2/d9qLTPSEgBISAEBhZBAhMedcCW1h5keAVV1wRd33lBKTk4Y/JyzXWWCM+ksIW5cmTJ7t3jo0sCuI+GhFQQDsaa00yCwEhIAQaRGDnnXeO36fdbLPNAp/1YeXVm3BscGR4CzNblpmx9zxL6+Wn/EJACAgBIVCOAPb5xBNPjPaenTn28kBviTbxyfhx//33x3cpUJaSEGgSAQW0TaKrsoWAEBACowgBnp1aYokl4nNTfBbotttuG/JWMYJhtiA/+OCD4Ze//OUgGqwAdHvBDCvEnhdDsB2Osro9P851yiMPf3ZuL0gZFKrDiZXd4ZYuCQEhIATGBALYyG222SZ+p3yHHXYYfEZ2KMrxgquPfvSjYeWVV44TmyVl2VhAQMzzuNhvbHI/JGTrNe70g4zjSQY90DSealu6CgEhIAR6IECgx/dpL7nkkjhTj0MyHIk3EfJykTPOOCOsvvrqcUvae9/73hg8H3/88bO8bRLHimewtthii/gMLg5DXVpuueXis14nn3xyePjhhwedMRwfyuNNy7zUBAfEEoE2ATvboXutHK+44ophk002CSeddFJ0XoxeRyEgBITAWEEAO7vXXntF+3/99dfHlwwOVTdsL+9UOOigg8Juu+0WjjnmGHeRa665Zvx+OuMBk6JsYb7wwgvDrbfe6i5rqATsOuIFjDaOvPa1r42P5fCiRF7EaCvT/RJwD1Xf0UavFdrRVmOSVwgIASHQEAIM0Dw3ddRRR8XPRwwnG14O9ac//Sl88pOfjJ9y2HrrrcNnPvOZF302BScIOfhMEM9z5STerMynJZZccsn47BfP/x522GGDq8sLL7xwXCH41Kc+Fbbffvuw3XbbhU9/+tMxaOcNnugM305p1VVXDV/9f+2dCbwlRXX/e2berOzIIiICQgQ17htxRVQ0YDTKR5PgipKQuEWNRvTvghiNKyKSBHEJCRpZ3OKOGkUx7ruiqLjgFhSQffYZ/u9b+JtPz+Xe2+f0e91z33u/ep/76t7uc+qc86uq03W6qqtf9rKKMpyMgBEwAvMNAQI03k++ww47VG9605tmJZgVRmwEyOaAvIrn2GOPDb9ehuCQAJjglZufX//618tr6Z7//OdXH/vYx6p//Md/TK3ikT5tc4JU3sP7oQ99qOBEOfxmR3+uDejL64z4TeDr1D8CDmj7x9wSjYARMAITicADH/jAMmjgudnZTsz2soyZQJbEIGrUu/MYPNTPQavZVn0nV2JGmZnUCy+8sJTLd4JcaAhU+XBnnVcI3e52t6sIUm91q1uVHZx53REzCMzSQqdyxcsAZr/99qt+9rOfFXEMVtBFdCxbHgyGdR4avjsZASNgBCYZAfZN4P3i8muzqSs3JnknObO0EX/ISiFuaB555JEVK3huc5vbVE95ylNKYItf//nPf158+TOe8Yyipvx23Q+POqbHTIb5Zo7Bh47y4SqT3zvuuGO52co1gOPodsABBxR94D344IMrVgupbJVXx1Ln6sf8fXYQcEA7Ozi6FCNgBIzAnEaAC/0DHvCA6n3ve18nd765g33JJZeUnS8f/ehHhwY2AMrghtlXZlUJLNlg6qMf/WhZwqzlyAwi/uEf/qFsQkXQuu+++xZa7pjzTLASQTWvnuDDbMQXv/jF6gtf+EJZBs2A5ZBDDqne+MY3ltlplpG9+c1vrvbff/8yu8sGVyRksgT5vPPOqz7xiU+UHaB1jvNr1qwps8Dvfe97y6sveC6NY05GwAgYgUlEYM8996z22GOPspy3C/0IAPGz+F+ep21Kt7jFLSpW03z1q1+tnvOc51SrVq0qs8bw40vZef93v/tdeR0cNyopE19PcKnEah38N7stk/DbrMRhB+f3v//9Zeb38MMP3xLAcz047bTTqgMPPLAE3lxj3v3ud2+5Njz2sY+tjjvuuDLTfPLJJ5fAlUdjnve85xXdeEc7rzniZioz0ryD/fWvf32FLUoEwTzSw0aJXG+cZheBXgJa3eHIqN6GJ1N+W1rppbxtOV3yRXWL0g3TNcOboZWsLE+WXnLa5n3Li+rZRq++eKI2tKGTDcojZWRoI+WNo6nL0nflg3yjjg/SzfZvLrDMXrLEi0FCF4mg+Re/+MXYJb6DcuFh4MHdeJad8ewrx9hoiplV8LrlLW9ZlszxrCwfPcvEUrD6u2+5O87MrzakYuaAmVqezeIc33lWi1dVMIvLMYLoJz7xieXuPHJ5zozZBgZWBOgMangOF5kMmk455ZQyaIGWjUwYBLEZVl2PQRsHf2NTtB1kaAfl9PU7Y0tfOiEnqlddpzY8df5J+D4fbOgTx77wmomcmfDutNNOFe+e5T2yXaWLL764LMXFV49L2HHEEUcUWpbvEsTWE8Exz+VedNFF5cYl1yqCcd6XW38shNlUdlnmfegkdm3+8Ic/XL7jt/HVZ599dpkFxlezUudhD3tYxY1MbkJedtll5XqI76ZcbloSWKPfrrvuWh6Huf3tb18dffTRBTtuCnAN4PpEYMsGVryT9773ve8WP8O1hOsLN1Sxo55Uf8rr58Z9hz7LM668ceeicqJ042RlzkneFBd0frBpRzRxkSfR0AYrZVwZVDSfaEKvwcbcxNvGFmyYL7aAD7ZoQNeEF+cZaGUHW13Xi+5eZW3BuWUG47QXHFkmZdvYfLQFf5FpY+CbbTPR5ydVdzOpl0ybmaktdZ87ChNsGXVO9tZz6OXHsIWLNQl/21RO/Tx3k1m2m63bui7jvnPtuPLKK8tyYPoFOtP/6vKg0XWFc+gHLXffGaB861vfKiIIOu91r3uV8/AzKOEuO3fFef8tPE996lNLziwr55lZ1YCKYwycGMjx3BiDFPDiN8/6stMnejzkIQ8pvOiy3/SAhDLPOeecMiOMrne84x2rj3zkI9VRRx1VAmPOs7MnM7joxWw0d+XZ3ISl3NG2lrkmA0gbP57xfbQx7KE+ojaoLWRtofyMDHTL2IJe2NLGj/VhS9b3gRX1gk2ZlLWFsuv+IiKrrS3yAREZ0PRhS3YMS5/M4kVbbmNLEw948tFYr24LwRr9h5uNHO8iMaOKfILPcZhgP4Eiz9wSFA6zCx0Jvh/0oAcVn0+5+GKOq2zaHcdUB+zdwGMjLF2mn/CIyWc/+9niz3kmF/u50XnttdeWGWBuWBLIskEWs7PM3hJIMxPM7DHXMd7TjgzwYz8IZnV5/zqyWFlEvySoPffcc0sAfM973rPI4dowzC5wz/px7GzjL0fJH1f3WZ6sXtQfdZlJ9f4yRWUglIt9NGmADm80UUnwiTfCB09GL4BoawtyokBOui3USxTnPmyhrrN1Kf37sAUZdIpoamsLbSw64KAdk7J9rGtbhNN8siWD2WzUC20bXwOGfIalbBtTvcgWlYssfR+UM2iL6NitEfldJPQk2GZGgIEDv9FZspGJznV7OE8ikD3//PNLwEkZ3/zmN8vyLnjr/oJBiX7rnGTwjDDLzkjI+Pn0s1gEmTwLRYIOXBicUA5JZXGOoJoBE8/V6qbBd7/73TIAYjDI0mgGPXwn0CXxm/omsL3gggu2DLjKySH/8BF86pgMIdvqEPWFntJ1q5MjfsCDTcJ6BNlWh1VfUZ62tkjOVsLH/GhrCxhHfXIbWwb72BgTtpxqawt1Ga3/NmOlPm2hXqLjsUm2hfrI9OMubaF9kNRGyPVdcgny8M1dJAI8Eu1oFCbqiwou8bHDaLEFGvwE5cof1fGu20sZbAKIbG5o8kgKq3GYcVV/g56AiuXI11xzTWl/rNz57W9/W2Zc6z6J8vjU5XK94Ld04Dw3SlnRw03S3//+9yW45fr6+c9/vug/iDO61Otl8Pyw3+iM7siLJuRk6Nv4PmTUMYvohhzaYka3ui0loOUAlUFBkaSGkuFBBnzijcihojKGoX8bWwAdOVH7kaFGG7GD8vuyBX36sIV6xK5IAlfsz7QX8CXBIyfXJAtnpbpsouV8vV6itsCXrUvZQr1kbGnTxqgXyUPXptSHLbI52pepC/mLLm1RndPGNFhrwqutLdgh36ccPEZhkq0XbOEjW8hJyBolg36JPTqvnKVa3BmP+sMmzOrnKZM7ypTP63UYUAzqyG9mWrlDzoBGtjC4gB89oWE5r36rLlWWfkMr7AlEtfwXPu426zy/RYdcPsKDMknownNZtJWf/OQnW85D95nPfKacZ5kycrgjX08MYriLTxm07XGJ8/V6GUerczO5JgkrlTUur7excXQ618YW8KUuhL/KGpWjk/pL1hZkqE+PKl/H0StbL21toc2BQTRBSz/J2IJu8ND2I0llZ+qF+m9jCzIyenVtC/ioj8kfRDDLtGPKA2PkZOoFnCLtkjLpH2pX2CFb8Escz87ARTAQDQEoiZnXUW2Ifow93LzkOVmW5v7mN7+5SVuAn0c9mPWtB7Qcr5dNWdjIMTZs4plYMJDtXIv4DTbQgCMzrHyHl3NgoyS8OM9n8Dd0Kg9beNXbs5/97LIsmZumLGnmmeBR7YJ2DD9lR5NsyfCgW6aNoVekjdV1hmeUnXW6+nd4wD1ri+jHX1nrkvzdCBgBI2AE5i0CXLCYTeQ5WpbccnGZ7USZPOP67W9/u7riiitKkMeGTvVlzlzQWHJGEKjBF3pwoZ9pQj4DRmTwnTKj5cLDnXt0Ymn2D3/4w6IOgwNmX7EB/LghwOsckEPZzAiwPI3Zjy4HjDPFxvxGwAgsTATwTQSa2k+gCxR233334g/xheMSfpbHSQiAWfGCb2XWGL/LtYllxrxvnACV53IJ6OAhKec7y4V1DcMXs0EUz86yeSDXHt5Bzn4Rgyl6PRjkG/abG7esAOK1Q+iA7cwAc81wmn0Ecg9czL58l2gEjIARMAITgAAB7Q9+8IPqoQ996JY7z7OtFhd1Nung3a/spswghY0/uMBrYMIs595771399Kc/LXeR2+jAwAZ7KHO2BiiUyYCIGYHDDjuslM1dbjb94H2JPBvGM1QM3FiazJ1+AlxmGRjUHHrooak7z23sNo8RMAJGIIvAVVddVVa88P7vrhK7B+OLf/3rXzeK4IYn+xSwkROPfzCTit991KMeVXYVZgaXZbzMuOLjWc7LtYWlxMzWcV3hOqYAl5zd7gmUufawOghanmklRa8RouPaou+DxnAO+SR0YXdnVvbw3C3P/XLzwKkbBDxD2w2uLtUIGAEjMKcQYEDAJhlsmvHKV75y1nXnIk8wyywAd6m58BPMvvjFLy5LdrlrTmC73377lZlMlmoxWBmVNFgZPE+5bOTB+255RQMDidlK3/ve98qrfh73uMeVWWSWQbMBFa//YaOPT33qU+V1DW9961vLOx2xmWVmzCSwW6bvzM9WTbgcI2AEZgsBnhNlV18CSDZImu1E8MfeBQSl3DQlQB2XeBSF2VlmZF/xileUXeaZ7WTfBR4HIZjF/3/pS18qxXz/+98vAS3Xkkc+8pFlFdDd7373LcEjfpgZWV6lw8wvOxLjt1myzHtt8dGssBl1TUEI1xWWPxOQsjsyu+zXg1pubnJjgJsCPHLCdZSAlqXGz33uc4vebB7IsXFyxuHic+MR8AzteHx81ggYASOwYBDgWVCe9dS7+2bTcJa0veQlLykXewYYLAdjZvPEE08su08y0OB5pU9+8pPlnbNsrESCjiXQbL7EoILEgIBBDMdJBMNstMGAB/qTTjqpOn96AykGUPAwGMI2BjDjEgEqQT36KcHzuc99rgxIKJsdL3nPIDTMJHOOJWUEq8ji9REMtFg2zcZQ3JVnd2XfmReizo2AEZg0BNjFlx3d8XGznQj2eBXOqaeeGgrm8O/4dILS008/vcyo8rgGy4h5dRvvfiUAZUUMwTFB4l3vetdyjWB5Mkt72RGf16nhv7kx+rSnPa3w3OlOdyr7HHDDk3eb8/ofbrRyrcD3E9wroQczrNyQxLfzmAk3LnWd+eUvf1muOwTZnOf6RsAOHx8SOyuzQoffZ5555pbjkuF89hDwDO3sYemSjIARMAJzGgEGC7zMnh0hGYDM5jOfPFfK8lyCP20QQhDIHey3v/3tJSAkSGTww11zDQjYZOlFL3pRwVUznMwmMwAjQceM7LHHHlsCYn4zGOL1OXzXXXQCUX7zGZYYkBAUsxNxnYbByJOe9KTCwswBswOvfe1ry8APusE77gxueOWPdGWwxOxHFwPFYXb4mBEwAkYggwC+iWCL50vx/a973eu2+OhMOcNo8Y/4Zjb6IziVXxxGWz+Gb+VxjX+aftc4vhk+fDnXB3IeWbnDHe5QfnOewPUJT3hCmalFJjRcy+TLCUb1LCvXFG4wQsfmU9Dy4X3j0IsHfVjhw2+uhdwYJTBGHtcqgmGCZvFw0xUZ/AZT6JDFrO3JJ59cborq2le31d9nBwHP0M4Oji7FCBgBIzDnEeBiyy6MPH/E3Wsu+LORCPIYmPCqHT71pMEDAxXupGtwMEgjOh2v09W/6zw5gxSlQX4dH8yH0dWPUSa/GdBI32FlgN1s4TdYvn8bASNgBGYTAQLGV7/61dULXvCCsrpktsrm2dUTTjih4jEMfGY24Wvxuaze4RpB4hi+lZuNg0k+Fxo+SipHATHHOYZOuk7U6et8g8dlB8cHz8FHecz4ci3lZi2B8Dvf+c5Zu0kg3ZxvjYAD2q3x8C8jYASMwIJFgIszzwm96lWvKs8u7b///jPGgoEIS82YqWQZmJMRMAJGwAhMFgL4/ne9611l4yRmUhU8zkRLbmQS0PH8KteU2U6TvOqF6x7P2fK4ycte9rKySeBs2+/ytkbAAe3WePiXETACRmDBI3DKKadUn/jEJ8ozSjwH2mZww11qNslgZpYluyw7Y/mVkxEwAkbACEweAiyrZdkuS2XZ4I4lv5qNzGirWU825WM3Yb1TNlPGXKdliTU7O7PDMe+jBVOnbhEwwt3i69KNgBEwAnMOAe58s1yKZ5De8573lI2QuCBraVaTQQxo2Eny05/+dFm6zBJmNtdwMgJGwAgYgclFgKWybGzH+7Tx2fe4xz2KshHfLxo2xOPacdBBB5WNptikadjS3MlFYXY0Yxk3j/FEnxueHakLtxQHtAu37m25ETACRmAkAgxO2FjpWc96VtnVlxlbNrxgKRU7FvP8qAYwBLDM4rL7I+9jZQMMdozk/KGHHlp2+mUjJycjYASMgBGYbASuueaa8q5tnvtkV182YOK1O9ddd115NhTfr4Tv55qA72c1D++GZUd5bmY+6EEPKrsGL8RgVvg47w+BKXZt5O5BZjqcBkwDZbfHaGJrbeTAG03c2cjohU5tbWFpRbTTYQsdut6pm2yCpw9b0KMPW5jB0WC2yXbOZ+1XO9H7xiIy1L6QFU3Q9mUL9RJtA9gCvtrgIGJPG1uyfUx13sYWbIombFF9Rnna2kIbi9YLQZn8TFSvQVvQExyRC47DUhtb5JOxRcEmS3xHyZAtTYEmgxNeQM87Y3knIDv8fvzjHy+vprnkkkvKAGfXXXct7wzkPYbc0eeZqTe84Q3VGWecUe70Z64V4FG3ZRg+g8eittT5qJeu/TjyqI9MG8MfwUMeTeor2WtS1ve1sQUZWVv68H3olPFj2E47m0Rb0Is2Fh3DzMSWrv045VMvXdoif9G1LfiYUf53WN/GZnSifqJJtpCPS5Sr8llazG+Ns0bx4cO5Mcn7Xc8666zq97//ffH9vIqMvRbop6zEufOd71ze5co+CbxOh/d06xVwLL2NJvqW2maUp40f57oIFk32SwfhlqkXbNFH5TTlqhNsiibGCvh9eKOJ8vuwJevH1UYzPrY+VprizgqJZQbRRCNA0QwPDYI7+JkLLjwZGaqgDI8aNDzIiyYCjawtYA1ukSRd+rAFOzKBk+olY4t4IrZD07ZeJt0WtdEmHMCWT+bZRTCmjQm7Jhmcz9aL6px2uVBtATf5Tb43JTCu+z76GseY5Rx14ZppvcifIXeUD6GdICdiC4MXNrjYZZddqgMOOKB61KMeVZ6JZQBDm0DG9773veoDH/hAdfTRRxfbKFflj9JhFHYqM9rGsAXarJw2/gK71A9G6V8/nrWFgSkX9D5sQcYk2kJ9Zn1f1hZkwBNtY9SJ6rJev+O+Q88nawttDP2iSbbQ3yKprS2UHfEX0kH9P2MLfZJ6idpC/WXrBX2km3RtyqGv+/Emes7j67ElmtQWMzxRW1Rv4Mv3yBgWfQheWZnDyhteP3PkkUeWnZB5Jyy4X3311WXn+te//vVl3wV0p2zaGHIytvTl+5CDbmARSWqLk2gLdQTeUR+DLXwytlCXYJbhAVfaZlQv6GlPWd3q9FNqeAjlRCSpEWR4kMNHvFE58EQT+gN8Ri/0AUTkRO2nYuGL6kb53HnIVCy6ICdrC1hlbYE+awv02BVJbWzRBRD75eSbZFH38HVpCzpQL1EZ0MsWePqwRfKQ3ZQy7ZiyVHbGFtkcxYx2JYwlr8kOzmdtUfuljdF2ImkmtqAfSTl4jMKkjS3YI1vIJWuUDPol9ow6XwoY+Meysi9/+cvV+eefX2QdcsghZWkZgS53SvFzg0F6G1sQK1sGVBj6s40tamNR+8E368dRtl4vQ5UfcTCqF+xtbUGG+sEINbY63IctfflxbMF+9emtDB3yA3raWaZeZmJLxvdBS3/J2gIPNkWSyo7aD15ql1lbkJHRC926tAV80ImP/HcEM+yO4kV52EGbydgS9X2USZ2gk3xyxhaWG3PD8uyzzy42veMd7yjvC2cpMjOe+EY+Ssih/rO2qF+qnKZcbSyDc9Z+MM7aIr0zemX9BTKwRfZIZlOetaUP34fO2A/WGczqto9fo9CEis8bASNgBIzAgkKAQRcDmPpyZi5EmaV1CwowG2sEjIARmAcIEAjh6wlwCF65FrB5FMedjMC2RiC+UH9ba2r5RsAIGAEjYASMgBEwAkbACBgBI2AEagg4oK2B4a9GwAgYASNgBIyAETACRsAIGAEjMHcQcEA7d+rKmhoBI2AEjIARMAJGwAgYASNgBIxADQEvfK+B4a9GwAgYASNgBIyAETACRqAtAjxjysfJCBiB/hDwDG1/WFuSETACRsAIGAEjYASMwDxGQO9mXb169Ty20qYZgclCwAHtZNWHtTECRsAIGAEjYASMgBGYgwjwGpG73e1u1TnnnFOde+651b3vfe/yqpymVxfxqpI73OEO1RFHHFE9/OEPrw4++ODU60vmIFRW2QjMKgJecjyrcLowI2AEjIARMAJGwAgYgYWIAK+1+djHPlZ9/OMfr575zGdWZ555ZnXJJZdUT3va06oLL7xw6DvP4eEdr7e//e3LK3BYrkyA+8lPfrI67rjj/FqchdiQbHMaAc/QpiEzgxEwAkbACBgBI2AEjIARGI4AQek73vGOMlv7/ve/v3rf+95XPocddli1du3aMmsL5/r166uzzz672nnnnaujjjqqusUtblHtu+++1ZOe9KTqPve5T3X66ad7pnY4xD5qBLZCoAS0dLxFixZtdWLcD9EqH0c703MZGaJVHpGdoY2UN4xGMpQPoxl1LMOToR0lr+n4TGS04W3D02SDzqts5To+Ls/Qjitnts/1pVcbOVmeLP1MsexSXpdlD7Nb8pQPo9GxCI1oZ5pnZIlW+Uxlzxa/9FGeKTfDk6HN6FCnnYmMmfDWdZit79JH+WyVO1vlZPTK0A7qF+EVDWM+PpnUlicjA9qsXtny28iQ7Vndli1bVl111VXVKaecUh100EHVN77xjeotb3lL9bnPfa4sKWZm9sEPfnB1xzvesTrmmGOq73znO9Xy5cvLLO4Xv/jFMsPLeZYfj0ptdMvaMQ6zcWWNOzfMnja2DCun6Rj9QH2hibZ+vg1PnX8SvssG5RGdMrSR8maLZlCvKToPjWjlypVhGTwLQEErVqwINwpk0LkzCR5kZFJbW7B/EJxRcpExNTVVLV26dBTJTY73ZQuCF7ItXCCom2iiXugDmdSmjVE+9bJ4cWxRBDIm0Rb0amMLfSvjY/qol7a2yP4CROAfcuq+j+8cA49RmOh8oPhCAr0wpo1t2LChyEDWOBkwjzo/TPagLfXrx6hy4Mn48UFbhukxeAwe0igdBun5DU8ffpz6QK9M30e/hWxLH74PGZl6UZvJ1ov6JfyRRLvMXpNkS9MYhtnAl770pdXee+9d2n8TfUTfcTTqy+NoBs8xrsJ/ZVIbOVmeLD36419YOqy0bt266rvf/W55VpZlyQSwtKfrrruu+slPfnITH/GZz3ym+M7XvOY11ZVXXqlibpJHdGPcvtNOO1UPfOADS/1n6542xvPBSiyPXrVqVXXGGWeMHDtH9FJ5yqM8yOZZY64tWT/OdRE8smP4bN/HpixP1vdhCzx8ogmMM3pRbpYH+qwt1AftMtM263pNsfSBBpHZjY1GTSFr1qyJ4lfAw5nWO3cTMw0WGciKJAYMWVto1JSP/VEQaQg43C5tQRfkZOoFW0hZW7AjcwHJ1ktftlD3tM2sLfXlP03tbKa2RAe12EJ90meiiXrJ2EK58GTamPoiPFFbNDjjYh5NtH3o6xfQJt65Ygt20Y7AcNTNlza2yI9RL/IBtJ9R9cuFENqZ+HHam2wZNTjAlowfp55p+9dff334It3Wlq79uGzJ9BdwZCCQqZe2vq9NvWRs0UBzVBsc1qf78n34lvliC8tVsYW+OC7d9ra3rZ761KdWX/va14rvkT8fx6NzKjvLk6FH1mAQKPnjcnTLyOnLFvpx/RqGP95nn32KKfhebixwDN3xeYPXVPHusssuW90UrWORseWnP/1pYd1rr71SeME0aAvXdY6xo7N0qOvF967qBbxufetbV2eddVaZxQanzLgPvbl2Rcfw2JEdj+PHactZ35e1BZyxIzpWbGNLX34c349+0WvfoC1THFCqf9exYXmdrv59GO3gsSw9/H3wICMjJ0Nfd7RRGXW6+vdBPIf9zugm/qgM2RKlp/w6bf27ZA/L63T178No68egjdLLFvijPJKVoRctub6rnKY8Si9bupSBrn3IkQzkRe2HlpSlv5ErzxeVI1vq9SLe+jHpUc9FVz8W+T7IN/h7sIym84P0/BZPPdf3YfR1nlHndRzMKEsfHY/kTToMlpGRobqkjKycLE9Gr3rZUb1kS5QeGfUU5ROd8noZTd+jPLKF8qI8kg19Gx7xR/OoDNnSRi90aZJD0MTA/AEPeEC1xx57hAeOlN32xiQDbQVmlNOUCJAuvfTSRltUDsEJN7Sig2D4oAer7E3WrC277bZbdfnllxf7wYAAjOBg1113rZ7xjGdUH/3oR6u73OUuZRnyfvvtV/3qV7+SWSW///3vX3RkY6gf/OAHW53Tj7a2ZG/mcdPkmmuuKYE3sk877bQSVB5++OHFJumjnOCcNpOpF93MI9gclwjgWLZdDxab2v6w8qI8dbr692FlDh5rQ5/hgVafQdlNvzNyKCtL3xeP9IqvzWxCxueNgBEwAkbACBgBI2AEJhoBgkB9NBhsUhh6EgFZJBGcZ2VQLjzIiOpF4JSVIxuUR+zJ6kWZBI0HHnhg9ZjHPKY6/vjjK2ZI2c34hS98YbER+exk/Itf/KIEiE9/+tOriy++uNhzu9vdrjr55JOrr3zlK9VFF100Enf0AoPMTQN4uLmRSegqWdQt9cOH48Nw1Dl4onVJOdgyrLy6rrrxUz/m70Yg5pmMkxEwAkbACBgBI2AEjIARMAJjESDg4pGJt73tbWWnYpYME8Tym8CTpZVKzEo+4hGPqD74wQ+W4FaPpDC7+YUvfKHsdkxQ6GQEjMB4BBzQjsfHZ42AETACRsAIGAEjYASMQCMCLId9ylOeUr3hDW8oGzmdeuqp5dU7LNfV8uDBQliWe+ihh1YPechDyoZRBLXf/va3qwsuuGDks7ODZfi3EVjoCDigXegtwPYbASNgBIyAETACCxqBpUund18ficD0juDT56d3Uag2T88+3jC9XDWzxHVksfPwBMtlzzvvvLKjMK/o0WY9BLPjEjO1PBf65S9/ecsGX00848rzOSOw0BBwQLvQatz2GgEjYASMgBEwAkbgDwisWX19deJp/1lde+21JWAdCkyJdnkF2dLqG186vzrvQ2cNJfPBqmxqddJJJ1U3v/nNqyuuuMKQGAEj0AMCDmh7ANkijIARMAJGwAgYASMwkQhMv+xi3bq11Z8ddpdq1523H6nikiWLq3d/8POenR2J0I0n2ASJGVcnI2AE+kPAAW1/WFuSETACRsAIGAEjYAQmEoENGzdV6zdsHKnbkk2Lt7y6bSSRTxgBI2AEtgECDmi3AegWaQSMgBEwAkbACBiBSUKA3XnHvRKF52edjIARMAKTiMDiSVTKOhkBI2AEjIARMAJGwAj0h8D6Deun30964ztGp18eOi14+vOH942yjJYdfB3T9lcflmQEjEAcgSneb8UdOXZmi778WHRRHt3x44XJ4o2q2PSC5cFy2tiCTlFbJC/y8mfRopP00rFILp4oZqLrw5bse9Gytuil39gC1pGE/arLCL3qpY0t8AjvJlltbKHMNm0MvaJ4Se9MH2tji3CKyqFeSH3a0tQGeI0Cu1XywR4GdtHEbqB8hJ12vaQMXtcwLHFuw4YNw04NPQZmq1evrtauXVvqXzuQImuUjDa2oFfdFnAhcWyUnKwtlMc7HGULv5tSG1vAlzpRvTTJ4Dx2Yo/aaISnXi8R+p133rmQRfuLymzrL8QfyeVfm/qLypIvytiCDMlROePytn5cMqTjOBmcg56UsQX6tvUS1QsZUVtUb8qxRbxF10WLq2OOOWZ6t93P8vMm6TWvfk1VbXfL6edtR/uVOhP9pe4v6udGfae/4EuE9yg6HYeO/p/xl238xaDvk/xxuWwZR1M/N8m2sOMyPln+knql71FXw/oEtlAnmXrh3bvwDSuvjhNyoaOPKG/iqfPT/tX268fHfUdmhkf9N6MXtkTsr+uJHNlTPz7uex+2ID9rC3ZkeZAjjEtAy4HMA+wIJGUqF3o5Ub5HkkCP0NZp+rCFRqQGW5c97rtAH0czeC5ji/TJ1ssk2iKniS2yaxCbYb/nky3Yl20zXfextvUyibbgX0j0saY2dsIJJ1SPe9zjCv1M/yGXQcDVV18906K24qdc+WZOMJg688wztzq2FcMs/EAm71fs2pZZUHWbFTFYL+MUob+zM+oOO+yQ7vt9+D7aV6S/DNqY9WN92ZK9vmBX1pY2PFk/Dl4RW1Suco0vlk7duIHRNddeV7E7741+ZFF5jc/N99i92mHHHUqV3uj/b6iOe8KR0zQnl2P+tzARIKAlXX755bMGwD777FNtv/32jX1MPlXXu6y/oP3zEX/UAPWXKD10WX+RtUXlg0km9WEL+GJPNKlOZFOED7tFP8WdKu6KMPiJVq4aMndrIjwIXLlyZblTI94mReFZtWrVyLv+w/jRZcWKFWlbkDVfbAEXBsuRRqR64c4jn0hqUy+US/23bWNRW6h72lfWFuoeu6KprS3UiwYS42ShC7YweIje3VS9dG2LAtqoLdipd+nhayIJW8AYeslr4pP9mTamsiO2oMtVV11VveQlL0nd/GvS2+eNgBC4613vWj3+8Y/fMgOcuSb14fvoY/SZSH+RTfg7Bk7wRMcKffm++WQL1z3aS9O1Uisq5ItVL+TT8ynVhvUbq9Vrblx1QR0ydbFu2vetmw5aTjzxxC0DR845GYHZQuCQQw6pjjrqqDJ+w880+T7GRfRf2j30mXEfOhMA0Rfgi6bsuA8ZfNTHmuRgR9aPUyZ+lTFvdKwIT9aWPvw4eoEB9lD/0VS3pZdNoSIXskHl2/AMltHFb+mlvAsZMy0zqluUbpg+8NL4IqmNnCyP6JVH9JoJTUaOaJU3yY3SDSsH3mi9iL+NvDY8ktdFLn2UR2RkaCmPC+B73/vecgMwUr5pjEAGAfotAS2JthltnxnajD6DtFF96nziUV4/N+x7lG4Yb5tjbeRFeaJ0w/SGN+vHh5UzeGykTtORK8Erz9AuXXfjCrzp4WX545natWtXF9+nm5OD5fq3EZgJAgRyBLRKI9upCHrOZ6JPlFd0yqMmQp/liZY9SBeVE6UbLL/tb8nrJaBtq6T5jIARMAJGwAgYASNgBLpHYFNZrcWreTaXQTJB9ebN8Vms7jW0BCNgBIzAcAQc0A7HxUeNgBEwAkbACBgBIzD/EZhebDW1bGn1o19dU2ZlNUeL4Tvvtle1/Yr5D4EtNAJGYG4j4IB2bteftTcCRsAIGAEjYASMQGsEVqxcVb32pc+c5r/pY0R7nPjy6h53v3vrss1oBIyAEegDAQe0faBsGUbACBgBI2AEjIARmEAEeAZt9fXXDtWMZchORsAIGIFJRyC+n/KkW2L9jIARMAJGwAgYASNgBIyAETACRmBBIeCAdkFVt401AkbACBgBI2AEjIARMAJGwAjMHwQc0M6furQlRsAIGAEjYASMgBEwAkbACBiBBYWAA9oFVd021ggYASNgBIyAETACRsAIGAEjMH8Q6CWgbfOC8DY8fVSL9FLeh8ysjKhuUbqs/EH6NnLa8AzK7fL3pOrXRq++eLqsjzZlt7G7jRzzGIEsArTNaPvM0Gb1mC36qC2zJS9aThu92vBE9emabi7r3jU2Lt8IdIFAtM+JTnlUF+izPNGyB+n6kjMot+m39JpaunRpAWPFiviLxjZv3lzKz/DAMDU1VT5Nyuk8Si5fvlw/Qzk8Gb2whR3+kEMeTeCGPdHUly3og/0ZW7BjyZIlUVNKe1m2bFmYHsI29QJfxhZsxo7Fi+P3adCrL1toY1HdJtUW8FK9ZGyBJ9uX6WOZlO1jGVsy/SOjs2mNwCAC+GP6f+Y6Bn0fflx6Zft+1pY+/Dg2oNck2pL1feAVuVaah0K9AAA0q0lEQVTKB+uaF6mXKD6D7di/jUAWAdoxPkbtdBS/6JRnfR/9i7H/pk2bRom4yXHGC5H+IkbsIGV5srbQl8Eh00/7siWrF7aAm8ZmwnJcXrdlih8UoCB1HKPOqRGQq9J0blSOYcjKKApPRi9kZ3lkiwLbUfrXj0vGpNkirOaTLdRPtKOqjQmHep2N+q66HHV+2PEsj/RRPqzMwWNtbem6j8kG5YN6D/ut+svwyP4u+5jKjugl2mH2+ZgRmE0E1NYi7VJy1V+yPBl6ycrwMD6g/2d4+rIFnDN69WkLuqkdCPdxObSRa6XsHcybyh533ueMwGwhoDav9jmqXI3b6/T6PoqnfhxaZDTJqfPglzL0ffkL2ZHRbZJtAbe2tkxtnH7HGHdD1q9fHw5O1Zg2bNgQ5gFA+MRbbyijvnOnAhnRBBDwZG2hcWdtAXCwiyTKX7VqVS+2oE8ftmB71IG0qRc1aGxRQNSEtQZO0TajesnYgg7ZNta3LZLXhJdsieIFvcrO1ItmA6JyqJeVK1eW/iV5Xdii9ou/wD+NSxk9xpXjc0agCQFdI6P9hfJ0fc1ek7K+jz4T6S+yEV+JX87Y0pcfx5aMHwPjPm3J+BxoI7aofSiPjJXkJ1Wnzo1AVwjQjtUvx8mgrUMnenK16XF8OgctZcjX6viovM0Ytg/fh77MNsueUfoPHs+OYfvwfeiIfwVr6iaasEX08bWZ0dJNZwQWAAJ0OicjYASMgBEwAkbACBgBI2AEti0CDmi3Lf6WbgSMgBEwAkbACBgBI2AEjIARMAItEXBA2xI4sxkBI2AEjIARMAJGwAgYASNgBIzAtkXAAe22xd/SjYARMAJGwAgYASNgBIyAETACRqAlAg5oWwJnNiNgBIyAETACRsAIGAEjYASMgBHYtgg4oN22+Fu6ETACRsAIGAEjYASMgBEwAkbACLREwAFtS+DMZgSMgBEwAkbACBgBI2AEjIARMALbFgEHtNsWf0s3AkbACBgBI2AEjIARMAJGwAgYgZYIOKBtCZzZjIARMAJGwAgYASNgBIyAETACRmDbIuCAdtvib+lGwAgYASNgBIyAETACRsAIGAEj0BKBqeXLl1fLli2rNm/eXC1atChUzKZNmwrdihUrQjw33HBDkbF48eIiJyJEPOTRhP5tbIEva8uSJUuqqampkGp92UIdkqK2QAteXdsiOZk2VreFdhNJqnvsiSTVC7SZdiY50f7SxpalS5cWneaTLdF6pC7wS+CbrZcMvWhXrlxZNekWrYdIuzONERiHAP4bH5NJfflx+kmkv0h3+k2278i/Rvnox8JLfVryx+XYAtZNfV9lQMc1HxlR39+XHweriC3CSW0sYku0HoSTcyPQFgGu+7r2jyuDNkl/JIeemCQ6Hqdc+RiNzcbJ0jnxRPs+umX7DjKwJcMHD1hE/Vjd/qwtEX8hvLK+Dz54ojpJTr1eSkSmi4ByEUbyLE+GHtoMPfqKXnnEhjpfhj4jA9oMfV2nKJ/olEdsgVafCH0bvWig0kl5k6w6Xf37OD7o9BlHVz8n+qgMeEWrvF7esO+iI9f3YXSDx9rSZ2UgN8Mj+iiP6JQP2jnst2iVD6MZdixDL1pyfR9Wpo8ZgT4RUHvMtEnRKo/oK1rlUR7oozyiU96FDMqUThk5db6IXnWaNnLq/OO+q2zl42gHz3XB06bMQb382whEEKCt6dNEr3Ypev1u4uO8aJU38bQdw0q3pvJ1Xvoo1/FxuWiVj6PVOdEq1/FReZ2u/n0UvY5Dm6Gv8+l7U67yyafWrVtX6NeuXRuOjDVDm+GhQWzYsKHcfWhSUOe54yD9dGxcjgw+Gb2wBSCQA28kQbdx48byidBTfl+2oE9ftqghNWHQpl5054y6zNx5go92Fkn1eonaQrnZupQt1EvXtqxfvz68CqIvW4QtukUS9LSZrm2RXrSxpjui8nkR/U1jBGaCAH4CH0YeTTO5JqkfRGRBG+kvKotZE/xfxhZ4+/Dj0ivqk/ER4pF9kbytLfBFE/4pcq2UD4aW7+S0nXEpo8e4cnzOCDQhQJvk0+Qv8I/4Ito99OSMyaOJmUBkRK/rbcaw+D4+TbYM6pzxF/Dil7AdHKIJnxfp+yqvD98nWWCdwaw+Ho+t5ZQk50bACBgBI2AEjIARMAJGwAgYASNgBCYEAQe0E1IRVsMIGAEjYASMgBEwAkbACBgBI2AEcgg4oM3hZWojYASMgBEwAkbACBgBI2AEjIARmBAEHNBOSEVYDSNgBIyAETACRsAIGAEjYASMgBHIIRB770yuTFMbASNgBIzAPEJg++23v8nmMWxesWbNmrKxRtPGMk1QsMHHTMtokuHzRmChIzBfNnjCju22267aYYcdyitY2ETm6quvLpvJdOlH2OSH11Zdf/31qc0Xo+2ODW5WrVp1E1/IJkj42tmwzb42Whumm2sIOKCdazVmfY2AETACPSLA4PE973lPtdNOO221GzS7Kl511VXVC17wguo73/nOVucy6jHAusMd7lD95je/qa644opZGbRl5E8yLbtwXnvttdUuu+yy5fUH4AXuu+6665Zjk2oD+meDqMxundjNIJ+ABlwy6be//W1q1/lM2ZNI+/vf/756+MMfnsZpEm3Bjv/3//5ftfvuu5cA8Jprrqmw7/jjj68+85nPlPdZdqH3/e9//+qf//mfq8c+9rHVJZdcMusi9tlnn+pd73pX2R1Xu2/Tf2jfP/jBD6pnPOMZqd18BxXkBsD+++9f/PXgOf82AnMdAQe0c70Grb8RMAJGoGMEdttttzITe/bZZ5cAgsHWrW996+qe97xn9bnPfa764z/+4+r//u//ttIiOhPA7MNnP/vZ6nnPe1711re+tQzmtipoAf8g0L/gggtK4EVQS2IGh8E7s0XcZJjkRBvIBppZeuzPBs3w0O7mUuLmwB/90R9Vt7jFLYra3AD68Y9/PPZGEq/zYHXF/e53v+qUU04pN0airyqZRGxoG9zIeeMb31j97Gc/q17zmtcUv4P/Oe644yr80wMe8IDq4osv7kR9ZmZ//vOfD2076DbTGVRej0KQzg3CL3/5y6Xv0O8PPvjg6s/+7M/Kq1awk1lipahc6v2+971v9c53vrO62c1uJnbnRmDeIOCAdt5UpQ0xAkbACHSHAAPo173udVsN2gho/+u//qv6i7/4i+rkk08uwhlEE2AwEGPGlXf+MVAjcZwZuOXLl5ecGQNmIJmBWL16dRkoEqg53YiAgo/6QFkBX/3YfMALW+uzUrQZbNWAfb7Zm6kzsHnb295WHXrooWWpLbwEV9xMespTnjK0KM7/7d/+bfXCF76wBLXQMrtIPlcTvuXRj350xQ22gw46aEvb+MpXvlKC2DPOOKMEtAT6ai/4G9oVvPgW+RfaFef4Db7cKAIzEv6pnvBPlPfFL36xetSjHlV8msqXv0MnZv1XrFixRTZl6MYJ9Pi/ZcuW1Yu+yXd0/eQnP1m95S1v2XIOPZm5Pfroo6vnPOc5W/oFx7lhgQ68V5SypRfn+E55+GBsZNkyCdq6X94iyF+MwBxGwJtCzeHKs+pGwAgYgT4RYIBU//zud78rAzbNHu69997VOeecU4LUX/ziF+W5NmaGGDwx6DrssMPKoO/BD35wmWX8/Oc/X5YaE8wSLDNDy0DMaX4jQFt40pOeVJY/Msi/+c1vXpZRs+SStsSSagIDButXXnlldfjhh89vQMZYR0B0+umnl9UQf/3Xf13tueee1R577FEde+yx1V3vetcS6CpoAlcCl7/6q7+qvv3tb5ebTJ/61KfK7N4jH/nILcHVGHETfYq2gv0Eo7e61a22eoafoPbEE08sdmMEfuTQ6RsA+Bier6VNERTS1iiHWcpvfvOb1Ute8pLqC1/4QvWTn/ykzPASDIOjEjdWmA1+5StfWbHk+Fvf+la13377FR0IYt/97ncXfwcNAS03GAgYSQceeGD13//930U+OlAXhxxySOFV+cPyuo/lO/Z+//vfL7keNTjyyCOrCy+8sLr00kuryy+/vNjy+Mc/vhRH4IqtBMUnnXRSddlll1X//u//Xj6s7vj1r39dPfGJTxwm2seMwJxFoAS0ugM6Z634g+J0fJLyPxze5tlM9JkJbxeGz0SfmfBOmi1d6DOTMicNW9syEwQmk5c2xt1+fbhu8CwZMxvf/e53i9LMBt3xjncsAz8Gni9/+cvLrMKf//mfb5khgfDf/u3fyofZBpYIssELAy8GlwS/Cz2BbSZl6TNld0FLAMaz1ywVJbggaGUpJTP69URgQBBHcLZQ0mBd3u1ud6u4AQQOzK7SP5iJYyk6QS03ie5xj3uUcc8jHvGIElTR7wjgCNqe+cxnFvxYDTGY5tp1A9vf9773lUD205/+dFk++8AHPrBgQgD7H//xH9XXvva1YiZtiyXIBHvM5h5xxBHV7W9/++oTn/hE2UwK2ynvqU99asHq2c9+dvWv//qvJWAm+KddEtg+4QlPKMuAWYHCDRaCWK04YSaVVSr4N27m8fvVr351dZe73KWsOjn33HPL/gD3vve9q3vd616l3t7xjneU8gbrov4b3er+dq+99qqe/vSnlxlkAmfkv/3tby9Lk1miTBuhr1DXWo6MT8Xmhz70ocWvvva1r61e+tKXliXbYEagvVBT23bflm8Scc7YkqHdlrZOsbQCB6pOEFGGjo6B8EQNRUbTUotB2Vm94M/ytLUFR8gnmrJ6tbUFvmy9sOQmawt3zzMpaz/1Qhq2498oucjA0WtJ0Si6+nF4+rKFeiEYiKS2tgwulWqSla0X6ElZW8RTmAP/kNOXLbSxpnrJtKmAeXOShOf3zjvvvKI7eDH7wCD5Ax/4QBk40vcYTH7961+vvvSlL5VrA4Mogtzb3OY2ZeYIZuqVDV0YkIErg0b6O7MIDD4zvmhOAjlGaXDg+UBhsOOOO1bXXXdd9S//8i9brp/gzAzMqaeeuoVuTJGzeop+z2z6uOs+/YlAi5kqZpWYBSMxwGbmkIDkQQ96UGkHDKx/+ctflg1vhvUx5HBc4w0Ch8FxBDNUH/nIR0ofZvaKmywEFwR8BC/q22BJUMgzqD/60Y+q//zP/yy2POtZzyqzfbMK1CwWxqw1/pAZSNmi4ulrtBns4hl0Ajfqh9lGnsFk1UM9gQEzuPKt1GdTor1NSsJ+2tSTn/zkEogSwB911FHFZmZOmQFlRQjt5WUve1n1wx/+sCxR5gYKmzi96EUvKjfSeDadNkD6xje+UZYR8x08fvrTn1bHHHNM9aEPfajgzY0WgufBmy13vvOdS5t+85vfXJ1//vmFljpgBpjAmbZNe6RO8Gvozqwqj24QMHNTb7AtowP1Q/9haTWJIPqAAw4ofZ4lx/QvblScMb28mhuA+Adu+Hzwgx8sS8zr/Qgc0IP9DfjOrDbp59PPAfObzySlel8fpxd04Cl6cvnMcXw6B+70KbCOJugj/UXlQU/K8mTHsNgCT6afZm3BjiwP9FlbqMNsu6zrNcWzATi3posUBinRCCgkuo24BHIHLdqA4KHjas2/ZI/LAYLgZCHbAj7YP3jhG4ab6oUBZX2JzTBaHWtTL/DSqbP1Al/GFuqe9pW1hTub2BVNM7El4nTQBVsYqGgpWZNuqpeubUEnEvUStUWDJz2HFLEFjKGXvAgP/iLTxlR2xJZom2rScy6fxxfzDJkSwS1L9Zg1Uls488wzq1ve8pblWT1matmEBOzq/YuLFrsmq13ompC9kEmP+ZSDE7M5+G++gxX46Ri2ghPXUo7xXcfI6ziXE2P+wZuhpygGjk19gZsclM2NDDagUUDLBlZs4kOg+Td/8zfFV2sDn1/96lclaOecnmNEHoM1Agae0f7e975X+AiMSfhIZLGhGDdVbnvb25YZMmYmaasEzx//+Merpz3taQVHAjwG/8wGM8h/3OMeV9397nevbne725VPKXTMP2GdwawtT12GBsRcC9RnpKbqYt999y31gv/Hr7Fs+9Dp5baD4wAN+vGtpCZ/iR6SIZmTkDMT+tGPfrTYh4/5y7/8y2IvNyewn2BROyDXg/qdd965+CpuEhDsUj+sLqFdk8CYwJgZVoJRPvCwXFc0sp9l39QHAbH8H23vIQ95SNEBHWnLBNZK1A8fZnVp18MCWnSiP9RXJfD89Mc+9rGyVBg9WNpMXyLARVd8LTcYad/1hG0sL9bYSO1xsF3Uebbld9oaba4ptqCeqGfRZ8Z92Ed9IUPXnojN2XEf9cSnqY9JNnarnrJ9DvroWBF5WVvAC9+RtYU6yugFPW2UPhJNdVt62X1DnSiqIHRteDLlt6WVXsrbltMlX1S3KN0wXeGtX3SH0ehYGzlZHtErl+yu8owc0Spv0ilKN6wceKP1Iv428qI8dbr6d8merVxlK4+Um6GNlDffaXgmlhmOOm4MjDSYo93xDCzLIwl0z5+etWCG9ozpmYTBREDmdFMEwJIBKgEJF3WCNGbm+M1MDYkLOM8uM4jVMQ2EMoMHykFGxl/sN/3sILN/qvObWnDjEYJXBosMUOqJY7xihWCc9sRg//3vf3+ZUYVumC4avDLLpWdpaT88H0jwwMCemUd+E/QSyLLRGLNwvMKFmycEHwS/LM1kpo0lnAS7YM2S00hicMqgjoFwNBHwYFOmvVMv9Zt5f/Inf1KdddZZxR7NKko+wTh9kCXGzEYTqJ9wwglFRwImVkFwo099ltlCLclVGeNy+MQ7jq6vcwSAPMuKf3nve99bbOcmG8/J0gao/4c97GFl9QK0DPR5dlXtipsZzOBedNFFRWVsU3AvG9jkjtcCEfQy00ofo43WE+2aPkmi/HriHB9WAiCfIFcJeTxawbJh3VzQOeXUJysOCMqV4OM4H8qmHfPsLm2SZdW0fW4k/t3f/Z1YSk67m6T620q5MT8mTeeZ6BPlFZ3yMfBsdQr6LM9WBSR+ROVE6RKix5JKXi8B7VhNfNIIGAEjYAQmHgEuGgygdPGoK8yAkYEfS+nYmOUVr3hFCbw4TvAwmAbL4LcGnYO0C+03A3E+DFzBm8RAlmMkDYQ5p2PkDJ4HcS0MQ/6BtWRkcEc2fE0B7RCRWx3CHuSib1RnCiC4xc6///u/L88tEozyihOWGPNhhQCBPgkdfz69tJLZXYI7EkEQz0nyTs873elOBUthWAjG/KM87M/M6gjjMcVudUr1Qk79k5hZZhksgRjLuFmiTSLg4hg2EtQxe0IgxGw1z1IyQ84SWJalEvBxXm2nFDAH/xE8shSXgI5NjwjWFehxo4LHFki0EWZHaVvcVNOMD8/1cxOEZerwDUvM/ILVYx7zmPK6nP/93/8tAahuHsEDLzOfyGFjLgJpEjO6PMfLhzphiTzyFTRTryxnZjOncX2I8tX3S8G1f/SBF7/4xaUd7j/9Tln1o3/6p38qbYbfSqP6lnhE59wIzAcEhvfo+WCZbTACRsAIGIHeEGCQxIfnZTUg4zk0DSbHBQIMDHnXYmb2qzfDLGhWEGCAPiqIiAqgfbHRDZuJvepVryrPORKkMatJ+U+efrbyTW96U/kwE8aAnrbF0ktmd5nlZVMelm8ShDBrS5mTnLCLZ0XpP8w4M8PKh+c6sY/3kyo4Al9mhZmxYxacGXBwICjjZhOB2lxO2MmmS/gYnsWm7vAZ2MVz+TxbCjYcp455VzYztgSU4MfGTtxwG1y6XceEmxDM+rOMmdlxNlIicB5MBKXI5oYJ8ll5AO197nOf6qtf/Wr1+te/vjxj+4Y3vKHciEEnXpukJdCjgs1BOcN+I5fgmVli2jerEXh2nJsg2DqsTSNPKziYzc2sGhimg48ZgUlDwAHtpNWI9TECRsAITBACDI4Y0BE0jEoMlpgR4ZU9zGywAQuvh9CrKghA2OhEA+/6gItj508vT+admSwP1WzGKFkL6bgCwDpeGgjXj00aJtJN+uuGhY5L38HfOj4sJyDhpgevsPmf//mfikBB5TPAZ4B+2mmnlZ2T2eGW5aLsXMsmWwQmDP7ZQIhnK9lEiWdxT5henjvuRsswPbbFMfoEM4vsdMvyVz7MwrK5FjeM1Cakm4IXgjpmotlUjJlaZnDngr2yYzAn2GSGnRnQQ6efEcbHsHyX+n/uc59bnucn4OUmAO2D2VZm7ZnhZrkxgR9BJzwk2sDgrDW/4UMWs+Hwqp1RLjO1/ObmCDL1+iDKJ7h9/vOfXzacYmn+8ccfXwJjnonlNz6QNsrS8cE6Qx/KpfxBnTinxDluVDAjjX7MFNMfWF6OzmyahV0E7TyKoETZ7HdA4M2qBja7cjIC8wkBLzmeT7VpW4yAETACs4wAASfP6pGGDcIkjnMMkhhw8vwYG/ww0CRoYUdQBoY828gsSj1RPq/G4Pk+duMcN3tS51sI31kaC156Xg+bwZRjPKc6qYlBM4ET9c6sETdDaBcEtkocZzl6NKjldSksM2UwzrOC9UE/wQWfP/3TPy3BGwEgwR5LjA+bfq0Ns2Ys9WQDITbOoW2iIzxzJRGssIsvHyWOjUsEYCQ2NeL5djbCIridy4l651l+ZjtZ7ssOwNxAY2aWOlXCj7D5GMtzefcrvod6p11SBgEhM73DEjsR7zf9vPhg+vCHP1yex+Y42PLcMkvcuXlCEMmGUrQ9BZJgTkB9v/vdr9zMG9z0bLD8iy++eOgjGnU6AlOCY17VxCw8y6yRy3HkEWDTt5iRJ9X9Kce5KQQNmDkZgfmEgAPa+VSbtsUIGAEjsA0RIDgl4GCApcE0gS47gTLgGhUQc5yNWshH0WxDsyw6iQDtgNkrAlBuZBB8M6tGUEn9ElDonZ3aRRYRw+pey4mZdeWZwf2mAw09KwkPqwAIdp/4xCcWGdwEYOaOXV8JZthUi+WhLFVmmTHBAOeYyeLZWrVTyprPCTsJ+oZhPNfsxgYCVJZgMzuJbxnmX6BjAzVmtPlOu5ztxA0ZfB75sPKZQWemnMT52cKfZc7sNC/bKZ+bNbR1jo1KBNzs8DyOZhSvjxuBSUbAAe0k1451MwJGwAjMMQTqAyypPmygp3PKPcASEnM/p77Pn15GziY8zO6zozGDbWZWWb5OcMXyWXasZakmM7fMJDHLReK7NuHhu5a7a+arjhABAgEzyzrvf//7l5l+Zn7ZTInBO/yUz0wty295fpCglhso9Vneepnz9XukH84V2xWgNtkEXdc3LZp8Vxfyh9nFMT5NqUnfJn6fNwKTiIAD2kmsFetkBIyAETACRmCOI8BAXjPvfK8P7Fkuy0yrBuEKYDF51HcFvIOwaNkyASrBKks3GbTXgx3OMUPLBlHIXGjB7CBm/m0EjIARmE8IOKCdT7VpW4yAETACRsAITBAC42aDIrNJWVMUIA/jG6fLMHofMwJGwAgYgbmBwOiF9nNDf2tpBIyAETACRsAIGIEUAmyQ42QEjIARMALzA4Ep7liyXKe+FChqWpanzd3R+pKhJr24M9vGFviQk7lbLJ4mnernu7ZF+mdtoV4yumET9FrmVbdx3PdMe6nbEm038GTrBRva2JLBq40t4NjGFrCSvHF1UT/XtS3SJyMH/bq2Re2XdtnUxmRDHTd/NwJdIKC22Ka/ZHja+r5IfxEu6IM9ev+ljo/LWQpMsJl5vQzLl5GhPj2ufJ3bd999y7O9wlvHR+Wiy2BMWX34ccmQjlEbItdk+75RaPr4bCNAW1NbHlc2/kG00EV46uXRhzP9mPJJkf4iOeqLWTlZW5DDJyOnD1uQ0caWLA9yZPt0/dy46jjzPImYMzwSKl5+NyUuTlkZlJnhkT7wqNE26cV5+MQboe/DFt1xztqiDhGxAxpsUbvJ8GTqRbYwUMnUS9YW9O/LFuxHv2jC7gx9H7ZowJi1Bd0y9T9ptmT6Oro7GYG2CKitZftLH74PGX30/awtM7kmZX1stl768OPYELlW6lqXaWNZfNq2e/MZgWi7pE+pX5HDJ94IitBm/VgfY3h0z/o++jQYZFJftqiOorrJt2r8H+Gr2zLFy8jZBZAtwKOg6M4p78OL8CCQXQq5gyreJkXhYTdEZEQTurALYtYWZA17OfkwuZNuCzqDWeQiJFvYAbL+fsBhdutYm3qBl/rP1gt8GVuoe9pX1hbqHruiaSa2RJwuumALnTo6s6F66doWORrqJWoL/oXEjqMZf4FvkrymupH9mTamsiO2RNtUk54+bwSaENBMY+aa1Nb30fajiT5Gn4n0F5WpgSM80b7fl++bT7Zw3QPjpus+PpiEbyU11Qt1bt9XoPK/HhCgrdHmmnwfPpL+S7uHPjPuwwyCQGTAF03ZcR8y+DT1McnHjqwfhxe/Cm7RsSI8WVv68OPoBQbYQ91EU92W+HRRtPQhdJEL2SBbG57BMrr4Lb2UdyFjpmVGdYvSDdMnw5uhlawsj+iVq5yu8owc0Spv0ilKN6ycNrxd8tTLrn8fpvtMjqls5ZGyMrSR8kxjBGYLAdpmtH1maAf1i8qAL0MrOeJRruOj8ijdKP7s8TbyojxRumE6z4R3WHk6li0X+iyPZDk3Am0RmLQ2NxN9oryiUx7FDvosT7TsQbqonCjdYPltf0teLwFtWyXNZwSMgBEwAkbACBgBI2AEjIARMAJGYBQCDmhHIePjRsAIGAEjYASMgBEwAkbACBgBIzDRCDignejqsXJGwAgYASNgBIyAETACRsAIGAEjMAoBB7SjkPFxI2AEjIARMAJGwAgYASNgBIyAEZhoBBzQTnT1WDkjYASMgBEwAkbACBgBI2AEjIARGIWAA9pRyPi4ETACRsAIGAEjYASMgBEwAkbACEw0Ag5oJ7p6rJwRMAJGwAgYASNgBIyAETACRsAIjELAAe0oZHzcCBgBI2AEjIARMAJGwAgYASNgBCYagV4C2htuuCENQhuetJAWDNJLeYsiOmeZNN3a6NOGp3NgawImVb82evXFU4NvIr62sXsiFLcSRmCOITCf+tp8smWONSOrawTmPQJZ/wJ9lqctiH3JyeonvaaWLl1awFixYkW4jE2bNhXa5cuXV4sWLQrzTU1NVXyiCSWRkUnwZG3BhvliC1hhf6ZelixZUvGJJjBetmxZlLzQZetl8+bNhY96Wbw4dt8Fm6HNtJlJtoU6idoOWH3aQhuL6qa2mKkX7ME3ZRL2Z2TU21hT+286n9HTtEZgHAK6RmbaMuXRRjPttI2/0LUyIwfdMtfkvvy4rhVRP4YdpKwtYJWRQb1kfV/UFpWrPGJLRvcbEfJ/I9AOAfqKfMy4EmiT0ImenE800f6JYzQGiPDRLyP9ZbCsjB+XTRlbGIuDR6aftrUlY79syehFvcCHftFUt2WKHxRAxZJHkoQpb+KBjgqK0lNeGx74+rJFOpI3pb5toS4jjUh6oX+0bsQTpRc22XqRo0FORJb0mkRbpH/Wlii9bM72Mfiy9SJbov4CeuklXuSOS3WecXT1c+KJ6gWv9CHX93qZ9e9N5+u0/m4EZoKA2lq0LUOvAZB4m+SLJ0pPeaIl1/cmORpTTJot0jtjCzwZf0nZffi+jC2D9dZUL4P0kuXcCHSBgNpbtF2KHl3q35t0g1afJlqdz/R9ePrwfciRHRn7+7JFuqFnJMkG5RGeui1TGzduLLMa69ev31IBTYVohjbDg2OHT7xNMjjPnWpkRBOGcQchoxf6AF6GR7aAXSRR/qpVq3qxBX02bNgQrsu2tiAj2uja1AsOjUS9RIJzaKGDD90iSfWSsYVyV65cmWovfdpCm5S8CAbYEsWL8lQ2PNG+TP2Ton2ZekGvrC34i4wtar/oRT8Yl2T3OBqfMwKzgYD6VaYt9+HHsY0+E+kvwoE+me2Xfflx+nTm+gLG6Japl7a2ZH1f1BaNWWQD9ss/q84Gc/u+QUT8uysEaGv4GLXPUXI4D53o8Zlq26N46seZ1aQM+dr6uWHf24xh+/B96IocbKcvR1N2DIvvY/a0qV7q8rO+D15w5pO1RXrF1nLWtfR3I2AEGgcBhsgIGAEjYASMgBEwAkbACBiB7hFwQNs9xpZgBIyAETACRsAIGAEjYASMgBEwAh0g4IC2A1BdpBEwAkbACBgBI2AEjIARMAJGwAh0j4AD2u4xtgQjYASMgBEwAkbACBgBI2AEjIAR6AABB7QdgOoijYARMAJGwAgYASNgBIyAETACRqB7BBzQdo+xJRgBI2AEjIARMAJGwAgYASNgBIxABwg4oO0AVBdpBIyAETACRsAIGAEjYASMgBEwAt0j4IC2e4wtwQgYASNgBIyAETACRsAIGAEjYAQ6QMABbQegukgjYASMgBEwAkbACBgBI2AEjIAR6B4BB7TdY2wJRsAIGAEjYASMgBEwAkbACBgBI9ABAlNLly6tlixZUpEvWrQoJGLx4hvj4CjPDTfcUE1NTVXk4m0SJB5kRBP6t7EFvqgt6IItpChebW1BTkYvYZvhaWuL+AoQgX9ZWzZv3lxKxRbZ1SQGGeJrouV8vV74Hk3I4ROtf+nUtS20ffTK2oJe0dTWFsqP6qV6IZe8iH7YnrFF+sADduMSbZDPXnvtVS1btmwcqc8ZgVYI7LTTToVP7THTlmm/+KOoT1IfQ4b6QURpypd+EXr5pIwt9ONMv0d/5LS1JXp9kS0Z35/1x7Ily4cN2N9kC+WSoOU7eVOb4Ty24/ugdzICs42AfB9tkk+k/9Muae/Q872pHdd1Vttv6i/DeKJy5C8yfSZqe10v5JAyflz2T5otqsssZuIrAS3MkQYkEAEQIDIDOwSSMnIEuuQ25ejUxhbKzdqCrGxnQEa00VE+9mf0UsMGA/gjSQ1h0mxRO8H+qC2q+yg9+GA/sqL1Ip5MvajsjC3oBV/GFuwnCbvyo+EfcsTXQFpOyxZ4om0mU750EE8ftlAvTbZsv/321f7771/9+Mc/lorOjUAnCKhPqq9FhNBfNm3alPIXbXwf/ijSX6Qz1yQ+mX6MLdBnfR94ZTCjz2d8smyBJ5rkx6P00LXxfVFbpA828D1iC77v4IMPrn70ox9lzDCtEUghQJ+n7fNp6sf4Bj60e+jJ+UQTbV98ER5kRfuLypO/6Nr3oVfGV/ZlC3pRjxndZEsGs3q9TK1evbpavnx5RR4VzIUTRa+//vowDwpu2LChXHRV4U05MtasWdNEtuU8+iOnD1s2btxY8Ykk7OjLFvTJ2A9ebWxZu3Zto9MRNm3qRQ2aNhZ1VLRLtTPJHperXjK2UF62LtvYQp9sY8u6desK3zi76+fa2kIbi9aLBk3r16+vix75HZ2wHXphN5K4diJrC/Qk2hgXn3Hp6U9/enXsscduGQCDcyQhY9WqVcUW2mc0wQPG0YSc2972ttX3v//9VL3QN7u0Bb222267tC0HHXRQddFFF4VtYXBCHdKXo2nFihVp35e1BV0OPPDAEgxE+8vuu+9e7MjYQj/p2o9jC3Ii/QVaEoMNPhlb+vLjyMlcX2hftLOMLX35cWa4IragO30eWtoy4yt+j0tPfvKTq6OPPrqME+nPGT+OH8tek/bcc8/q0ksvbdRLOtOvsmNYrkld+z7022233arLL79cqjbmfdiCEitXrizj8egYFp5ddtmluvrqq8PXZPDFx2bGo3vssUdpk03XJGIJ+TzaMH05Yws4iw/bmhK2IC9jSx++T3pje7RfwpO1pQ/fh170Y7DO+Fh8kuLEG6dNKcnJCBgBI2AEhiLAAIBPm+Bcg4dMQFuXNVShgYM49R122KFiYNsUnItVd6ibBg+iJ2eAkr0x2caWHXfcsZUt6BdNbQJaBuhqA1E52XqhLp2MwKQgQJuvt/vowJl2TN/P3pjEhynwjmBAcEKfVJAa4VEfjtpCmW18H7ZkAy0G9Rlb+vLj2EKK+icFtBlbKBs+JyPQBoH4HH2b0s1jBIyAETACRsAIGAEjYASMgBEwAkagIwQc0HYErIs1AkbACBgBI2AEjIARMAJGwAgYgW4RcEDbLb4u3QgYASNgBIyAETACRsAIGAEjYAQ6QsABbUfAulgjYASMgBEwAkbACBgBI2AEjIAR6BYBB7Td4uvSjYARMAJGwAgYASNgBIyAETACRqAjBBzQdgSsizUCRsAIGAEjYASMgBEwAkbACBiBbhFwQNstvi7dCBgBI2AEjIARMAJGwAgYASNgBDpCwAFtR8C6WCNgBIyAETACRsAIGAEjYASMgBHoFoFeAtroi5jrprbhqfN39V16Ke9KzkzKnTTd2ujThmcmmGV5J1W/Nnr1xZPFuGv6NnZ3rdMkl98GrzY8fWDQl159yekDs5nImE84zCdbZlKnC4m3rzrvQ05bGW35FlI7mQ1bszhDn+Vpq2dfcrL6Sa+p5cuXFzBWrVoVLmPz5s3VokWLqpUrV5Y8wojAZcuWRUi30MCDjEyCZyHbAlbYT/1EEnhNTU1VS5cujZAXGnhWrFgRpoewTb3Al7VlyZIlxR54I6lPW2jLixfH7iGh1yTagl4k6iVjCzyZvowcfFMmwZOVQfl92NK178N2+rxtiV8vwAy/l/V9mTZG+6Kf9FEvffjxrC3YD87YH03Q9+H7kJHxyX3akvV92ALGTdd9yl27dm318pe/PO1fo/U3UzrGFug4HxJ4r1u3bj6YUsbvGzZs6C14GgcaMcjNbnazMtajzWf9uPrXpk2bxonZ6lwbP0YBmesFMrJ+HFvg4RNNWVsoN8sDfdaPU4/UZ5Mfq9tZ12uKzgYgq1evDhdCI6CQNWvWhHigpVLXr19fRRuQlERGNAECznAh2wJW2B8JNlQvGzdurPhEUpt6oVzqP1sv8GVsoe5xdDjdSJItXDz5Hk1ZW9CJRFuO1suk20K94KwiScEc/T+S1C7xTcKuiU91mWljKntSbcn4Puznk7GFiwftMTp4VL107cdnYkv2moSv6NL3YQvtLFMvDEzoWxlb8BdcW7O2ZH1fG1uwJ9ovwasv3wdemXqhTugzUVvwWYytwCx7Tcr4PuTIlqbrC7pfdtll1dFHHw3bRCbGcbSD+ZBsS7e1eO2115a2khnDopH8azQegSc77lOQGfUX8n0ZP45eJOyP+hjos7ZkfZ9syfg+9IKePhMdkwzaEg/p4WyZUDCb2vBkZbShl17K25TRNU9UtyjdMH3hjV502sjJ8mTph9mUOdalvJmUDW+0XmRvG3lteCSvi1z6KI/IyNBGyhtHk5GVoR0nc7bPtdGrDc9M9I7Ki9LNRBd428qBL8qboZ2pPW35M7a0ldGGL6pXvew2PHX+bfn94osvrg4++OAyoOdGY3Swjc5tbkwya5wNzvfcc8/q0ksvDbd/gvjspAy2UI/oFklcUwkCCBoyQRCziFdccUVERKFpY4tuTHZty84771xdffXV4fEF+HJzKtPGsIXgKRrQgNeOO+4Yxrct4Uz6fJRXdMqjukKf5YmWPUgXlROlGyy/7W/J6yWgbauk+YyAETACRsAIGAEjYARmjgADP4IMzbhoRiRSsgLapllglUUQSKCJTOREEzzoqEFqEx/6oFsbW6Iy0EG4ZQJaePhEkwLajC0KaPuwhaA5esMcfbC9jS1RvExnBOoIxB7oq3P4uxEwAkbACBgBI2AEjIARMAJGwAgYgQlAwAHtBFSCVTACRsAIGAEjYASMgBEwAkbACBiBPAIOaPOYmcMIGAEjYASMgBEwAkbACBgBI2AEJgABB7QTUAlWwQgYASNgBIyAETACRsAIGAEjYATyCDigzWNmDiNgBIyAETACRsAIGAEjYASMgBGYAAQc0E5AJVgFI2AEjIARMAJGwAgYASNgBIyAEcgj4IA2j5k5jIARMAJGwAgYASNgBIyAETACRmACEHBAOwGVYBWMgBEwAkbACBgBI2AEjIARMAJGII/AFC9y5kXJvGg7m7I8vGg5+lJu6ZKhp/w2tsDXhy3IyLyUGgyyesEDZtgUTW3rpQ9bsD9qC3R92ZJpl6oHeDJ8WVuoj0z5db30vSlXXWRsgaeNbl3bovZLG4vKqtvfhFX9fLYu4Y3qJDnI6MMW9BJ2kt2Uo1cbnigGfdZL1pa+6qVtG5sP9YIN2XYpvKJtTHTKm9q8zkuOfjflsqWJrn5ebYw8kkRHW44m8WTtz9LLlqheKj9jC2UjR7xRWVmeLD36UP8ZW5BBytoiWRnb0Wvz5s0hFumVtSWLGcpkebA9Y39bW9AtUy/Iydoi+qicNraobOXYFUnSLUILDeVnecRHPjWdyKtly5aVPPJPDTrDQ7mSFZEBDR07KwO+DE9bW+ikmY6KLUuXLkW9cMraX7dFjTYibD7ZQofI1H8f9YIM0vLly0tnjdQJNNRhxhZ4uu5jsgW9Ms5tPtkCzpNWL+hEytaLeApz8F8f/kJ6ZdqYeIJmFLI+bFHbnw+2yL92bYswy9Rl9voqGZNoS9aPq16wKZOyfoyyszxZW+iTWRlt9GrDM59syfo+bKePaQwAfk0J2j7qso0t6LVp06YmE7ac78sW9eUtghu+UCdZH9aXLfKxDSZsOY0t8CiW2XJizJe6LVPr168vA+3Vq1ePYdn6lBrBmjVrtj4x5tfKlSurDRs2VBs3bhxDtfWpVatWVchA4UiiUlesWFFlbAE4yocnejGYZFvACcwytlAn1E00ZesFXcAsWy9ZW6h72mbWlrVr14Y70Exswf6o48EW2ib9M5qol4wtlAtPpl7UF2ljUVsI5Enr1q0reeQf7QXb5WsiPAvdFuomUy9c0KlD2kw09eH70EU+mYFKJE2yLfTjTL1wUcfuTL209X3opT4dwTlriwbByImmvnzffLIFPwnG0es+7Ys+k6mXvvw445HMeGySbdluu+1SGLcZw/bl+6j/zPiijS1tfB/XpOwYFr+ELdF4pM24D1uQk+ljbfw4umFHdKzYxpa+/DjXIvSLYjZoy43Ts3+40nAykup09e9Z3gg9NFkZbXiQkZGToa8PGDIyhE+WJ6NbVoZsyehUp61/l+xheZ2u/n0Ybf0YtFF62QJ/lEeyMvSiJdd3ldOUR+llS5cy0LUPOZKBvKj90JKy9Ddy5fmicmRL1/UiO9pgELVlJjIyeoGZ8Mrq1oY+yqO6zNjSFjPZX+cf9102KB9HyznZEqUfLC/KJzrlg+WM+x3lkS2UFeWRXOjb8Ig/mkdlyJY2eqFLVE6drv49Yk+UXrZk9JJ8ZETliKetnDp/0/c2emXsqNPWvzfp1cb2LI/0UR7RSTRRHtEpF38k75KnXnb9exd6UX5GhugzPNI7y5OlR04fPJLhTaFUs86NgBEwAkbACBgBI2AEjIARMAJGYE4h4IB2TlWXlTUCRsAIGAEjYASMgBEwAkbACBgBIeCAVkg4NwJGwAgYASNgBIyAETACRsAIGIE5hYAD2jlVXVbWCBgBI2AEjIARMAJGwAgYASNgBISAA1oh4dwIGAEjYASMgBEwAkbACBgBI2AE5hQCDmjnVHVZWSNgBIyAETACRsAIGAEjYASMgBEQAg5ohYRzI2AEjIARMAJGwAgYASNgBIyAEZhTCDignVPVZWWNgBEwAkbACBgBI2AEjIARMAJGQAj0EtDWX7AtwU15G56mMn1+7iAw6fU/6fp1XdML3f6u8Z3E8tvUeRueSbTdOhkBIeA2LSQWTj6f6nw+2TIfW2Cb+mnDM5+wk/1TS5curfixfPnysH2bN28utBkeGKampqolS5aE5aDXsmXLwvQQtrFl0aJFRQ55NGHH4sXx+wF92YL+YNa1LbSbTGpTL5RPG4vaAh11kmkz6NWXLegVbTNtbaGPZVK2XUJPol6itkCXlYMM+Sa+R1JWRltb0CXTxqDv2vdhC20mUy/Q85k0W8CL1IctffjxNvWC/dl6aWNL1vf1YQsy+vDjkhH1Y+hFol1G00xskX+KyMIG9JKOTTyiy9ginLLtMuvHacfIkI5d2ELZfLK2ZP24bGmyoX6ees/US9+2ZNplX7ZkfR9tctOmTeVTx37c9za2UF6mjVGXWVtok2oD4/Svn+vLFvnYuuxx36kXbFGMOY5W57K2iM+5ETACRsAIGAEjYASMgBEwAkbACBiBiUHg/wOZKJUIqG+9NQAAAABJRU5ErkJggg==;" vertex="1" parent="1">
          <mxGeometry x="90" y="30" width="670" height="520.17" as="geometry" />
        </mxCell>
      </root>
    </mxGraphModel>
  </diagram>
</mxfile>
